<svg width="512" height="512" viewBox="0 0 512 512" fill="none" xmlns="http://www.w3.org/2000/svg">
<g clip-path="url(#clip0_1_296)">
<mask id="mask0_1_296" style="mask-type:luminance" maskUnits="userSpaceOnUse" x="0" y="0" width="512" height="512">
<path d="M512 0H0V512H512V0Z" fill="white"/>
</mask>
<g mask="url(#mask0_1_296)">
<path d="M496.132 389.986C457.33 362.157 409.816 341.854 354.596 329.536C305.334 318.548 249.804 313.854 189.539 315.574C114.633 317.715 51.8485 329.105 22.4176 335.353C12.6424 337.428 6.55962 347.214 9.03629 356.895L9.04432 356.926C11.3764 366.043 20.471 371.706 29.6779 369.764C57.7134 363.849 118.818 352.747 190.543 350.697C221.575 349.811 256.809 350.61 293.124 354.915C322.799 358.432 348.027 378.359 357.96 406.542C363.687 422.788 368.119 439.465 370.918 456.486C372.414 465.582 380.807 471.907 389.992 470.983C400.102 469.959 407.21 460.602 405.553 450.573C401.361 425.101 393.801 399.383 382.947 373.596C415.954 383.944 447.715 398.493 475.817 418.66C483.312 424.039 493.722 422.57 499.558 415.425C505.992 407.551 504.394 395.912 496.132 389.986Z" fill="url(#paint0_linear_1_296)"/>
<path d="M286.452 56.6504C282.636 53.4464 278.343 50.8592 273.727 48.9824C262.234 44.3032 249.981 44.4136 239.18 48.3811C237.248 49.0846 235.16 49.2474 233.142 48.8518C231.123 48.4562 229.252 47.5173 227.728 46.1363C219.221 38.3911 207.919 33.6716 195.505 33.6716C182.67 33.6716 171.007 38.7214 162.41 46.9475C160.866 48.4205 158.936 49.4269 156.844 49.8506C154.752 50.2742 152.583 50.0978 150.587 49.3418C139.466 45.1033 126.761 44.9728 114.928 49.9532C103.495 54.7731 94.9087 63.5202 90.0799 73.96C88.316 77.7478 84.5694 80.2727 80.4011 80.4624C68.9082 81.0136 57.5769 85.6627 48.7996 94.44C39.7222 103.517 35.0529 115.331 34.7819 127.234C34.7319 129.368 34.0786 131.445 32.8977 133.223C31.7168 135.002 30.0564 136.409 28.1088 137.283C17.2574 142.143 8.17995 151.04 3.34005 162.934C1.55576 167.312 0.430509 171.931 0.00100392 176.64V185.326C0.379512 189.476 1.29643 193.558 2.72866 197.471C3.34707 199.155 3.53983 200.932 3.33804 202.656C1.86127 215.269 0.347357 227.879 0.248973 240.579L0 272.813C0.426667 273.297 0.859357 273.776 1.3051 274.241C2.03623 275.007 2.65573 275.873 3.14529 276.811H286.452V56.6504Z" fill="url(#paint1_linear_1_296)"/>
<path d="M191.415 258.067V33.8564C180.533 34.7718 170.295 39.3932 162.41 46.9486C160.866 48.4216 158.936 49.428 156.844 49.8517C154.752 50.2753 152.583 50.0989 150.587 49.3429C139.466 45.1044 126.761 44.9739 114.928 49.9543C103.495 54.7742 94.9087 63.5213 90.0799 73.9611C88.316 77.7489 84.5693 80.2738 80.4011 80.4635C68.9082 81.0147 57.5769 85.6638 48.7996 94.4411C39.7222 103.519 35.0529 115.332 34.7819 127.235C34.7319 129.369 34.0786 131.446 32.8977 133.224C31.7168 135.003 30.0564 136.41 28.1088 137.284C20.4807 140.696 13.8803 146.048 8.96603 152.806L191.415 258.067Z" fill="url(#paint2_linear_1_296)"/>
<path d="M114.927 49.9532C103.494 54.773 94.9077 63.5202 90.0789 73.96C88.315 77.7478 84.5683 80.2726 80.4001 80.4624C71.4265 80.885 62.7534 83.8267 55.3743 88.9505L191.415 258.066L116.694 49.2605C116.104 49.4824 115.513 49.7072 114.927 49.9532Z" fill="url(#paint3_linear_1_296)"/>
<path d="M405.327 299.175V170.886C405.327 120.473 364.46 79.605 314.047 79.605H193.631C92.5706 79.605 2.75576 182.66 0.342328 255.672C-0.377483 277.452 0.261011 342.84 0.261011 342.84C0.261011 417.548 61.0414 478.329 135.749 478.329H157.633C198.512 478.329 232.625 445.866 233.248 404.991C233.882 363.388 200.224 329.343 158.763 329.343H113.672C100.584 329.343 89.4384 339.519 88.9736 352.599C88.4856 366.331 99.4716 377.615 113.094 377.615H158.12C172.319 377.615 184.428 388.635 184.966 402.824C185.53 417.741 173.558 430.057 158.764 430.057H135.75C108.7 430.057 84.485 417.678 68.4755 398.287C49.0797 374.794 50.9731 340.291 72.0274 318.271L72.3185 317.966C77.9976 312.027 84.8213 307.299 92.3777 304.07C99.9341 300.84 108.067 299.175 116.284 299.175H405.327Z" fill="url(#paint4_linear_1_296)"/>
<path d="M72.3175 281.169C83.7933 266.413 99.6774 258.066 116.283 258.066H405.327V170.885C405.327 120.472 364.46 79.604 314.047 79.604H193.631C92.5706 79.605 2.75576 182.66 0.342328 255.672C-0.377483 277.452 0.261011 342.84 0.261011 342.84C0.261011 417.548 61.0414 478.329 135.749 478.329H157.633C198.512 478.329 232.625 445.866 233.248 404.991C233.882 363.388 200.224 329.342 158.763 329.342H113.672C100.585 329.342 89.4384 339.518 88.9736 352.598C88.4856 366.33 99.4716 377.614 113.094 377.614H158.12C172.319 377.614 184.428 388.634 184.966 402.823C185.53 417.74 173.558 430.056 158.764 430.056H135.75C108.7 430.056 84.485 417.677 68.4755 398.286C66.1101 395.422 64.022 392.34 62.2391 389.082L62.2331 389.074C42.8373 360.191 50.9731 308.617 72.0264 281.545L72.3175 281.169Z" fill="url(#paint5_linear_1_296)"/>
<path d="M314.047 79.605H193.631C163.746 79.605 134.845 88.6202 108.895 103.203V258.643C111.34 258.267 113.81 258.075 116.283 258.067H405.327V170.886C405.327 120.473 364.46 79.605 314.047 79.605Z" fill="url(#paint6_linear_1_296)"/>
<path d="M408.428 327.263H478.793C499.66 327.263 515.252 306.147 511.419 283.343C490.918 161.373 402.248 66.0853 291.04 48.2376C271.053 45.03 253.173 62.3647 253.173 84.8164V154.656C253.173 249.985 322.683 327.263 408.428 327.263Z" fill="url(#paint7_linear_1_296)"/>
<path d="M504.391 251.613C481.928 170.137 428.29 103.824 358.937 69.873C315.957 88.3562 285.858 131.074 285.858 180.828C285.858 247.506 339.911 301.559 406.588 301.559C446.821 301.558 482.453 281.872 504.391 251.613Z" fill="url(#paint8_linear_1_296)"/>
<path d="M490.048 210.86C469.183 162.638 436.764 121.769 396.774 92.6913C352.417 97.5753 317.909 135.169 317.909 180.827C317.909 229.804 357.612 269.507 406.588 269.507C445.022 269.508 477.742 245.054 490.048 210.86Z" fill="url(#paint9_linear_1_296)"/>
<path d="M284.692 297.362L288.044 282.978C293.094 261.31 276.646 240.587 254.398 240.587C233.333 240.587 217.172 259.275 220.21 280.119L226.362 322.317C228.243 335.213 239.3 344.774 252.331 344.774H301.844C312.619 344.774 321.354 336.039 321.354 325.264C321.354 314.489 312.619 305.753 301.844 305.753H291.354C286.949 305.754 283.692 301.651 284.692 297.362Z" fill="url(#paint10_linear_1_296)"/>
<path d="M406.588 246.553C442.888 246.553 472.314 217.127 472.314 180.828C472.314 144.528 442.888 115.102 406.588 115.102C370.289 115.102 340.863 144.528 340.863 180.828C340.863 217.127 370.289 246.553 406.588 246.553Z" fill="url(#paint11_linear_1_296)"/>
<path d="M406.588 228.223C391.907 228.223 380.006 216.321 380.006 201.641V188.01C380.006 173.329 391.907 161.428 406.588 161.428C421.269 161.428 433.17 173.329 433.17 188.01V201.641C433.17 216.321 421.27 228.223 406.588 228.223Z" fill="url(#paint12_linear_1_296)"/>
<path d="M88.9736 352.599C88.4856 366.33 99.4716 377.614 113.094 377.614H158.12C172.319 377.614 184.428 388.634 184.966 402.823C185.53 417.74 173.558 430.056 158.764 430.056H135.75C108.7 430.056 84.485 417.677 68.4755 398.286C66.1101 395.422 64.022 392.341 62.2391 389.082L62.2331 389.074C55.3171 378.776 51.9178 365.588 51.3395 351.66H0.556183C5.11599 422.272 64.005 478.329 135.749 478.329H157.633C198.512 478.329 232.625 445.866 233.248 404.991C233.564 384.236 225.344 365.364 211.88 351.66H89.0308C89.0077 351.971 88.9846 352.283 88.9736 352.599Z" fill="url(#paint13_linear_1_296)"/>
<path d="M382.948 373.597C415.955 383.945 447.716 398.494 475.818 418.661C483.313 424.04 493.723 422.571 499.559 415.426C505.992 407.552 504.394 395.912 496.132 389.986C457.33 362.157 409.816 341.854 354.596 329.536C352.38 329.043 350.137 328.576 347.896 328.107C372.728 352.001 382.948 373.597 382.948 373.597Z" fill="url(#paint14_linear_1_296)"/>
</g>
</g>
<defs>
<linearGradient id="paint0_linear_1_296" x1="263.437" y1="310.538" x2="251.892" y2="415.95" gradientUnits="userSpaceOnUse">
<stop stop-color="#FE7D43"/>
<stop offset="1" stop-color="#704444"/>
</linearGradient>
<linearGradient id="paint1_linear_1_296" x1="93.0133" y1="65.0783" x2="136.516" y2="151.416" gradientUnits="userSpaceOnUse">
<stop stop-color="#9BE69D"/>
<stop offset="1" stop-color="#0996A4"/>
</linearGradient>
<linearGradient id="paint2_linear_1_296" x1="75.0492" y1="49.7756" x2="180.127" y2="231.82" gradientUnits="userSpaceOnUse">
<stop stop-color="#01525A" stop-opacity="0"/>
<stop offset="1" stop-color="#01525A"/>
</linearGradient>
<linearGradient id="paint3_linear_1_296" x1="74.9196" y1="49.8498" x2="179.997" y2="231.895" gradientUnits="userSpaceOnUse">
<stop stop-color="#01525A" stop-opacity="0"/>
<stop offset="1" stop-color="#01525A"/>
</linearGradient>
<linearGradient id="paint4_linear_1_296" x1="182.953" y1="213.5" x2="215.078" y2="290.802" gradientUnits="userSpaceOnUse">
<stop stop-color="#FFDFCF"/>
<stop offset="1" stop-color="#FFA78F"/>
</linearGradient>
<linearGradient id="paint5_linear_1_296" x1="110.833" y1="99.4816" x2="288.527" y2="414.713" gradientUnits="userSpaceOnUse">
<stop stop-color="#9BE69D"/>
<stop offset="1" stop-color="#0996A4"/>
</linearGradient>
<linearGradient id="paint6_linear_1_296" x1="196.742" y1="152.053" x2="317.212" y2="226.343" gradientUnits="userSpaceOnUse">
<stop stop-color="#01525A" stop-opacity="0"/>
<stop offset="1" stop-color="#01525A"/>
</linearGradient>
<linearGradient id="paint7_linear_1_296" x1="334.629" y1="92.3208" x2="416.389" y2="325.607" gradientUnits="userSpaceOnUse">
<stop stop-color="#9BE69D"/>
<stop offset="1" stop-color="#0996A4"/>
</linearGradient>
<linearGradient id="paint8_linear_1_296" x1="350.755" y1="206.477" x2="225.226" y2="264.139" gradientUnits="userSpaceOnUse">
<stop stop-color="#01525A" stop-opacity="0"/>
<stop offset="1" stop-color="#01525A"/>
</linearGradient>
<linearGradient id="paint9_linear_1_296" x1="395.645" y1="201.714" x2="336.749" y2="314.153" gradientUnits="userSpaceOnUse">
<stop stop-color="#01525A" stop-opacity="0"/>
<stop offset="1" stop-color="#01525A"/>
</linearGradient>
<linearGradient id="paint10_linear_1_296" x1="219.161" y1="263.731" x2="314.281" y2="340.903" gradientUnits="userSpaceOnUse">
<stop stop-color="#9BE69D"/>
<stop offset="1" stop-color="#0996A4"/>
</linearGradient>
<linearGradient id="paint11_linear_1_296" x1="377.781" y1="152.02" x2="441.836" y2="216.075" gradientUnits="userSpaceOnUse">
<stop stop-color="#FEF0AE"/>
<stop offset="1" stop-color="#FAC600"/>
</linearGradient>
<linearGradient id="paint12_linear_1_296" x1="387.451" y1="180.472" x2="420.258" y2="205.076" gradientUnits="userSpaceOnUse">
<stop stop-color="#5A5A5A"/>
<stop offset="1" stop-color="#444444"/>
</linearGradient>
<linearGradient id="paint13_linear_1_296" x1="116.907" y1="381.555" x2="116.907" y2="477.059" gradientUnits="userSpaceOnUse">
<stop stop-color="#01525A" stop-opacity="0"/>
<stop offset="1" stop-color="#01525A"/>
</linearGradient>
<linearGradient id="paint14_linear_1_296" x1="423.931" y1="372.117" x2="412.218" y2="398.888" gradientUnits="userSpaceOnUse">
<stop stop-color="#593636" stop-opacity="0"/>
<stop offset="1" stop-color="#593636"/>
</linearGradient>
<clipPath id="clip0_1_296">
<rect width="512" height="512" fill="white"/>
</clipPath>
</defs>
</svg>
