<svg width="512" height="512" viewBox="0 0 512 512" fill="none" xmlns="http://www.w3.org/2000/svg">
<g clip-path="url(#clip0_1_334)">
<mask id="mask0_1_334" style="mask-type:luminance" maskUnits="userSpaceOnUse" x="0" y="0" width="512" height="512">
<path d="M512 0H0V512H512V0Z" fill="white"/>
</mask>
<g mask="url(#mask0_1_334)">
<path d="M163.411 377.563C195.551 345.423 170.549 290.357 125.228 293.801C94.0544 296.171 63.5422 309.275 39.7 333.118C9.33042 363.488 -3.61314 404.681 0.862339 444.277C2.20559 456.168 17.664 460.034 24.5428 450.243C29.0685 443.805 34.1432 437.77 39.7101 432.208C64.6917 407.227 97.0039 394.034 129.726 392.635C142.037 392.108 153.756 387.218 162.469 378.505L163.411 377.563Z" fill="url(#paint0_linear_1_334)"/>
<path d="M348.589 377.563C316.449 345.423 341.451 290.357 386.772 293.801C417.946 296.171 448.458 309.275 472.3 333.118C502.67 363.488 515.613 404.681 511.138 444.278C509.794 456.169 494.336 460.035 487.457 450.244C482.931 443.805 477.857 437.771 472.29 432.209C447.308 407.228 414.996 394.035 382.274 392.636C369.963 392.109 358.244 387.219 349.531 378.506L348.589 377.563Z" fill="url(#paint1_linear_1_334)"/>
<path d="M348.589 377.563C316.449 345.423 341.451 290.357 386.772 293.801C417.946 296.171 448.458 309.275 472.3 333.118C502.67 363.488 515.613 404.681 511.138 444.278C509.794 456.169 494.336 460.035 487.457 450.244C482.931 443.805 477.857 437.771 472.29 432.209C447.308 407.228 414.996 394.035 382.274 392.636C369.963 392.109 358.244 387.219 349.531 378.506L348.589 377.563Z" fill="url(#paint2_linear_1_334)"/>
<path d="M490.918 251.838C490.918 360.479 21.0823 360.479 21.0823 251.838C21.0823 143.196 126.258 55.1262 256 55.1262C385.742 55.1262 490.918 143.197 490.918 251.838Z" fill="url(#paint3_linear_1_334)"/>
<path d="M334.327 89.4634C333.706 92.1313 332.614 94.6668 331.101 96.9506L256 210.741L180.899 96.9516C179.387 94.6675 178.295 92.1321 177.673 89.4644C96.9527 115.74 39.7332 181.425 39.7332 258.307C39.7332 358.323 472.268 358.323 472.268 258.307C472.267 181.425 415.047 115.74 334.327 89.4634Z" fill="url(#paint4_linear_1_334)"/>
<path d="M21.0823 251.838C21.0823 360.479 490.918 360.479 490.918 251.838C490.918 206.018 472.21 163.858 440.84 130.419H71.16C39.7904 163.858 21.0823 206.019 21.0823 251.838Z" fill="url(#paint5_linear_1_334)"/>
<path d="M180.899 96.9516L256 210.741L331.101 96.9516C339.968 83.5171 332.662 65.3451 316.957 61.8194C297.518 57.4553 277.084 55.1262 256 55.1262C234.916 55.1262 214.483 57.4553 195.043 61.8194C179.337 65.3441 172.032 83.5171 180.899 96.9516Z" fill="url(#paint6_linear_1_334)"/>
<path d="M512 256.718C512 238.918 491.379 229.24 477.55 240.446C429.304 279.538 348.083 305.203 256 305.203C163.917 305.203 82.696 279.538 34.4506 240.446C20.6206 229.24 0 238.917 0 256.718C0.00405489 275.882 7.61321 294.261 21.1566 307.819C66.7909 353.531 154.852 384.494 256 384.494C357.928 384.494 446.567 353.05 491.892 306.758C504.935 293.437 512 275.382 512 256.739V256.718Z" fill="url(#paint7_linear_1_334)"/>
<path d="M477.55 240.446C456.982 257.112 430.403 271.325 399.561 282.162V361.474C438.155 347.92 470.053 329.063 491.892 306.758C504.935 293.437 512 275.382 512 256.739V256.718C512 238.917 491.379 229.24 477.55 240.446Z" fill="url(#paint8_linear_1_334)"/>
<path d="M420.844 393.046C410.333 417.401 389.13 436.606 361.894 443.544C361.753 443.584 361.602 443.614 361.462 443.654C361.211 443.714 360.95 443.785 360.699 443.845C291.358 461.213 220.562 461.223 151.221 443.845C150.96 443.785 150.699 443.724 150.438 443.654L150.086 443.564C122.76 436.637 101.486 417.351 90.9954 392.896C84.8433 378.606 82.5648 362.948 84.3896 347.498C88.0439 316.347 91.6881 292.815 95.3424 268.62C101.336 228.895 121.404 194.35 150.016 169.724C178.618 145.108 215.783 130.42 255.95 130.42C336.304 130.42 404.58 189.17 416.567 268.62C420.211 292.805 423.866 316.327 427.51 347.458C429.336 362.976 427.037 378.701 420.844 393.046Z" fill="url(#paint9_linear_1_334)"/>
<path d="M255.955 369.736C192.022 369.736 134.872 383.162 96.9366 404.249C108.62 423.278 127.398 437.832 150.443 443.65C220.281 461.281 291.624 461.281 361.467 443.65C384.512 437.832 403.289 423.279 414.973 404.25C377.037 383.162 319.887 369.736 255.955 369.736Z" fill="url(#paint10_linear_1_334)"/>
<path d="M217.671 336.692C227.231 336.692 234.981 344.441 234.981 354.002C234.981 355.127 234.534 356.205 233.738 357.001C232.943 357.796 231.864 358.243 230.739 358.243C221.18 358.243 213.43 350.494 213.43 340.934C213.43 339.809 213.877 338.73 214.672 337.934C215.467 337.139 216.546 336.692 217.671 336.692Z" fill="url(#paint11_linear_1_334)"/>
<path d="M294.331 336.692C284.771 336.692 277.021 344.441 277.021 354.002C277.021 355.127 277.468 356.205 278.264 357.001C279.059 357.796 280.138 358.243 281.263 358.243C290.822 358.243 298.572 350.494 298.572 340.934C298.572 340.377 298.463 339.825 298.25 339.31C298.037 338.796 297.724 338.328 297.33 337.934C296.936 337.54 296.469 337.228 295.954 337.015C295.439 336.802 294.888 336.692 294.331 336.692Z" fill="url(#paint12_linear_1_334)"/>
<path d="M165.917 336.506C151.237 336.506 139.335 324.605 139.335 309.925V296.293C139.335 281.613 151.236 269.711 165.917 269.711C180.597 269.711 192.499 281.613 192.499 296.293V309.925C192.499 324.606 180.597 336.506 165.917 336.506Z" fill="url(#paint13_linear_1_334)"/>
<path d="M346.083 336.506C331.401 336.506 319.501 324.605 319.501 309.925V296.293C319.501 281.613 331.401 269.711 346.083 269.711C360.763 269.711 372.665 281.613 372.665 296.293V309.925C372.665 324.606 360.763 336.506 346.083 336.506Z" fill="url(#paint14_linear_1_334)"/>
</g>
</g>
<defs>
<linearGradient id="paint0_linear_1_334" x1="60.0365" y1="316.535" x2="104.829" y2="427.971" gradientUnits="userSpaceOnUse">
<stop stop-color="#9BE69D"/>
<stop offset="1" stop-color="#0996A4"/>
</linearGradient>
<linearGradient id="paint1_linear_1_334" x1="451.962" y1="316.535" x2="407.171" y2="427.971" gradientUnits="userSpaceOnUse">
<stop stop-color="#9BE69D"/>
<stop offset="1" stop-color="#0996A4"/>
</linearGradient>
<linearGradient id="paint2_linear_1_334" x1="493.668" y1="390.297" x2="416.701" y2="364.195" gradientUnits="userSpaceOnUse">
<stop stop-color="#01525A" stop-opacity="0"/>
<stop offset="1" stop-color="#01525A"/>
</linearGradient>
<linearGradient id="paint3_linear_1_334" x1="198.27" y1="86.0611" x2="255.494" y2="238.657" gradientUnits="userSpaceOnUse">
<stop stop-color="#F89580"/>
<stop offset="1" stop-color="#C4573A"/>
</linearGradient>
<linearGradient id="paint4_linear_1_334" x1="264.385" y1="213.007" x2="309.226" y2="4.86087" gradientUnits="userSpaceOnUse">
<stop stop-color="#593636" stop-opacity="0"/>
<stop offset="1" stop-color="#593636"/>
</linearGradient>
<linearGradient id="paint5_linear_1_334" x1="256" y1="187.644" x2="256" y2="279.138" gradientUnits="userSpaceOnUse">
<stop stop-color="#593636" stop-opacity="0"/>
<stop offset="1" stop-color="#593636"/>
</linearGradient>
<linearGradient id="paint6_linear_1_334" x1="245.5" y1="62.0463" x2="306.665" y2="191.535" gradientUnits="userSpaceOnUse">
<stop stop-color="#593636" stop-opacity="0"/>
<stop offset="1" stop-color="#593636"/>
</linearGradient>
<linearGradient id="paint7_linear_1_334" x1="256" y1="273.311" x2="256" y2="387.132" gradientUnits="userSpaceOnUse">
<stop stop-color="#FFDFCF"/>
<stop offset="1" stop-color="#FFA78F"/>
</linearGradient>
<linearGradient id="paint8_linear_1_334" x1="444.978" y1="295.61" x2="409.841" y2="338.778" gradientUnits="userSpaceOnUse">
<stop stop-color="#F89580" stop-opacity="0"/>
<stop offset="0.997" stop-color="#C5715A"/>
</linearGradient>
<linearGradient id="paint9_linear_1_334" x1="171.473" y1="217.193" x2="339.497" y2="417.166" gradientUnits="userSpaceOnUse">
<stop stop-color="#9BE69D"/>
<stop offset="1" stop-color="#0996A4"/>
</linearGradient>
<linearGradient id="paint10_linear_1_334" x1="255.955" y1="412.167" x2="255.955" y2="316.746" gradientUnits="userSpaceOnUse">
<stop stop-color="#01525A" stop-opacity="0"/>
<stop offset="1" stop-color="#01525A"/>
</linearGradient>
<linearGradient id="paint11_linear_1_334" x1="212.984" y1="336.245" x2="248.711" y2="371.973" gradientUnits="userSpaceOnUse">
<stop stop-color="#01525A" stop-opacity="0"/>
<stop offset="1" stop-color="#01525A"/>
</linearGradient>
<linearGradient id="paint12_linear_1_334" x1="266.614" y1="326.285" x2="316.429" y2="376.099" gradientUnits="userSpaceOnUse">
<stop stop-color="#01525A" stop-opacity="0"/>
<stop offset="1" stop-color="#01525A"/>
</linearGradient>
<linearGradient id="paint13_linear_1_334" x1="148.58" y1="290.347" x2="185.487" y2="317.514" gradientUnits="userSpaceOnUse">
<stop stop-color="#5A5A5A"/>
<stop offset="1" stop-color="#444444"/>
</linearGradient>
<linearGradient id="paint14_linear_1_334" x1="326.946" y1="288.756" x2="359.752" y2="313.361" gradientUnits="userSpaceOnUse">
<stop stop-color="#5A5A5A"/>
<stop offset="1" stop-color="#444444"/>
</linearGradient>
<clipPath id="clip0_1_334">
<rect width="512" height="512" fill="white"/>
</clipPath>
</defs>
</svg>
