<svg width="512" height="512" viewBox="0 0 512 512" fill="none" xmlns="http://www.w3.org/2000/svg">
<g clip-path="url(#clip0_1_389)">
<mask id="mask0_1_389" style="mask-type:luminance" maskUnits="userSpaceOnUse" x="0" y="0" width="512" height="512">
<path d="M512 0H0V512H512V0Z" fill="white"/>
</mask>
<g mask="url(#mask0_1_389)">
<path d="M304.514 336.327H207.485C119.564 336.327 48.2905 407.6 48.2905 495.52C48.2905 504.622 55.6685 512 64.7694 512H447.227C456.329 512 463.707 504.622 463.707 495.52C463.708 407.6 392.435 336.327 304.514 336.327Z" fill="url(#paint0_linear_1_389)"/>
<path d="M304.514 336.327H207.485C172.778 336.327 140.672 347.44 114.513 366.292L114.52 366.29L260.23 512H447.228C456.33 512 463.708 504.622 463.708 495.52C463.708 407.6 392.435 336.327 304.514 336.327Z" fill="url(#paint1_linear_1_389)"/>
<path d="M48.3989 495.396C48.3989 504.493 55.7729 511.867 64.8697 511.867H447.129C456.226 511.867 463.6 504.493 463.6 495.396C463.6 471.973 458.537 449.735 449.449 429.71H62.5509C53.4631 449.735 48.3989 471.974 48.3989 495.396Z" fill="url(#paint2_linear_1_389)"/>
<path d="M304.514 336.327H207.485C119.564 336.327 48.2905 407.6 48.2905 495.52C48.2905 504.622 55.6685 512 64.7694 512H132.516V497.61C132.516 429.413 187.801 374.128 255.998 374.128C324.195 374.128 379.481 429.413 379.481 497.61V512H447.227C456.329 512 463.707 504.622 463.707 495.52C463.708 407.6 392.435 336.327 304.514 336.327Z" fill="url(#paint3_linear_1_389)"/>
<path d="M304.514 336.327H207.485C172.778 336.327 140.672 347.44 114.513 366.292L114.52 366.29L163.758 415.528C186.374 390.13 219.316 374.128 255.999 374.128C324.196 374.128 379.482 429.413 379.482 497.61V512H447.228C456.33 512 463.708 504.622 463.708 495.52C463.708 407.6 392.435 336.327 304.514 336.327Z" fill="url(#paint4_linear_1_389)"/>
<path d="M395.801 287.676C445.559 320.516 511.868 284.831 511.868 225.213C511.868 165.595 445.56 129.91 395.801 162.75C350.98 192.332 350.98 258.095 395.801 287.676Z" fill="url(#paint5_linear_1_389)"/>
<path d="M395.801 287.676C445.559 320.516 511.868 284.831 511.868 225.213C511.868 165.595 445.56 129.91 395.801 162.75C350.98 192.332 350.98 258.095 395.801 287.676Z" fill="url(#paint6_linear_1_389)"/>
<path d="M416.041 256.337C440.834 272.7 473.873 254.919 473.873 225.213C473.873 195.508 440.834 177.727 416.041 194.09C393.708 208.83 393.708 241.597 416.041 256.337Z" fill="url(#paint7_linear_1_389)"/>
<path d="M416.041 256.337C440.834 272.7 473.873 254.919 473.873 225.213C473.873 195.508 440.834 177.727 416.041 194.09C393.708 208.83 393.708 241.597 416.041 256.337Z" fill="url(#paint8_linear_1_389)"/>
<path d="M116.199 287.676C66.441 320.516 0.132324 284.831 0.132324 225.213C0.132324 165.595 66.44 129.91 116.199 162.75C161.02 192.332 161.02 258.095 116.199 287.676Z" fill="url(#paint9_linear_1_389)"/>
<path d="M95.9589 256.337C71.1659 272.7 38.127 254.919 38.127 225.213C38.127 195.508 71.1659 177.727 95.9589 194.09C118.292 208.83 118.292 241.597 95.9589 256.337Z" fill="url(#paint10_linear_1_389)"/>
<path d="M378.923 371.892C297.555 392.656 214.439 392.656 133.077 371.892C82.9549 359.102 50.1287 310.479 56.14 258.577C60.3844 221.93 64.6348 194.241 68.8852 165.768C82.8506 72.2007 162.389 3.01025 255.999 3.01025C349.61 3.01025 429.149 72.2007 443.114 165.768C447.365 194.241 451.615 221.929 455.86 258.576C461.872 310.478 429.045 359.102 378.923 371.892Z" fill="url(#paint11_linear_1_389)"/>
<path d="M362.821 376.066C327.391 383.672 291.7 387.465 255.999 387.465V289.834H276.599L362.821 376.066Z" fill="url(#paint12_linear_1_389)"/>
<path d="M459.613 257.568C455.29 220.634 450.958 192.729 446.628 164.033C432.401 69.7313 351.368 0 256 0C160.632 0 79.5986 69.7313 65.3704 164.032C61.0407 192.728 56.7101 220.634 52.3854 257.568C46.2617 309.875 79.704 358.879 130.767 371.77C140.542 374.235 150.385 376.417 160.286 378.314C148.866 375.156 138.299 369.48 129.36 361.703C124.432 357.415 124.491 349.644 129.563 345.527C144.489 333.41 154.101 314.459 154.101 293.144C154.101 266.819 139.44 244.095 118.21 233.409C114.054 231.317 111.656 226.854 112.35 222.254L112.362 222.172C117.407 188.739 133.597 159.405 156.812 137.717C184.388 111.954 228.662 117.639 249.511 149.092L251.708 152.406C254.909 157.236 262.429 154.969 262.429 149.176C283.508 117.239 328.305 112.184 356.052 138.535C378.803 160.142 394.652 189.158 399.634 222.172L399.646 222.254C400.341 226.855 397.941 231.318 393.785 233.409C372.555 244.095 357.895 266.819 357.895 293.144C357.895 314.458 367.506 333.41 382.433 345.526C387.505 349.643 387.564 357.414 382.636 361.702C373.697 369.478 363.131 375.154 351.712 378.312C361.611 376.415 371.454 374.233 381.228 371.769C432.295 358.879 465.737 309.876 459.613 257.568Z" fill="url(#paint13_linear_1_389)"/>
<path d="M399.636 222.173L399.648 222.255C400.342 226.856 397.943 231.319 393.787 233.41C372.557 244.096 357.897 266.82 357.897 293.145C357.897 314.459 367.508 333.411 382.435 345.527C387.507 349.644 387.566 357.415 382.637 361.703C373.699 369.479 363.132 375.154 351.714 378.313C361.613 376.416 371.456 374.234 381.23 371.77C432.294 358.879 465.736 309.875 459.612 257.567C455.625 223.502 451.63 197.119 447.637 170.71H381.529C390.551 186.183 396.826 203.541 399.636 222.173Z" fill="url(#paint14_linear_1_389)"/>
<path d="M130.768 371.771C140.543 374.236 150.386 376.418 160.287 378.315C148.867 375.157 138.3 369.481 129.361 361.704C124.433 357.416 124.492 349.645 129.564 345.528C144.49 333.411 154.102 314.46 154.102 293.145C154.102 266.82 139.441 244.096 118.211 233.41C114.055 231.318 111.657 226.855 112.351 222.255L112.363 222.173C115.174 203.54 121.45 186.184 130.472 170.711H64.361C60.3675 197.12 56.373 223.503 52.3854 257.569C46.2627 309.876 79.705 358.88 130.768 371.771Z" fill="url(#paint15_linear_1_389)"/>
<path d="M165.964 303.789C151.292 303.789 139.396 291.893 139.396 277.221V263.596C139.396 248.924 151.291 237.028 165.964 237.028C180.637 237.028 192.532 248.924 192.532 263.596V277.221C192.532 291.894 180.637 303.789 165.964 303.789Z" fill="url(#paint16_linear_1_389)"/>
<path d="M346.036 303.789C331.362 303.789 319.468 291.893 319.468 277.221V263.596C319.468 248.924 331.362 237.028 346.036 237.028C360.708 237.028 372.604 248.924 372.604 263.596V277.221C372.604 291.894 360.709 303.789 346.036 303.789Z" fill="url(#paint17_linear_1_389)"/>
<path d="M274.616 311.617L276.66 309.324C286.069 298.767 276.463 282.34 262.649 285.364C258.269 286.322 253.734 286.322 249.354 285.364C235.54 282.341 225.933 298.767 235.342 309.324L237.386 311.617C247.301 322.744 264.699 322.744 274.616 311.617Z" fill="url(#paint18_linear_1_389)"/>
<path d="M379.482 497.61V511.867H449.227C457.384 510.878 463.708 503.944 463.708 495.52C463.708 472.051 458.626 449.769 449.508 429.711H359.145C371.996 449.193 379.482 472.525 379.482 497.61Z" fill="url(#paint19_linear_1_389)"/>
<path d="M132.518 497.61C132.518 472.525 140.005 449.193 152.856 429.711H62.4926C53.3737 449.769 48.2925 472.051 48.2925 495.52C48.2925 503.944 54.6159 510.878 62.7725 511.867H132.518V497.61Z" fill="url(#paint20_linear_1_389)"/>
</g>
</g>
<defs>
<linearGradient id="paint0_linear_1_389" x1="215.656" y1="381.878" x2="273.853" y2="525.698" gradientUnits="userSpaceOnUse">
<stop stop-color="#F89580" stop-opacity="0"/>
<stop offset="0.997" stop-color="#C5715A"/>
</linearGradient>
<linearGradient id="paint1_linear_1_389" x1="288.05" y1="406.925" x2="215.805" y2="287.52" gradientUnits="userSpaceOnUse">
<stop stop-color="#F89580" stop-opacity="0"/>
<stop offset="0.997" stop-color="#C5715A"/>
</linearGradient>
<linearGradient id="paint2_linear_1_389" x1="256" y1="477.752" x2="256" y2="531.945" gradientUnits="userSpaceOnUse">
<stop stop-color="#F89580" stop-opacity="0"/>
<stop offset="0.997" stop-color="#C5715A"/>
</linearGradient>
<linearGradient id="paint3_linear_1_389" x1="226.175" y1="372.973" x2="268.987" y2="535.524" gradientUnits="userSpaceOnUse">
<stop stop-color="#FE7D43"/>
<stop offset="1" stop-color="#704444"/>
</linearGradient>
<linearGradient id="paint4_linear_1_389" x1="308.904" y1="482.543" x2="254.72" y2="307.952" gradientUnits="userSpaceOnUse">
<stop stop-color="#593636" stop-opacity="0"/>
<stop offset="1" stop-color="#593636"/>
</linearGradient>
<linearGradient id="paint5_linear_1_389" x1="404.558" y1="192.731" x2="492.908" y2="281.081" gradientUnits="userSpaceOnUse">
<stop stop-color="#FE7D43"/>
<stop offset="1" stop-color="#704444"/>
</linearGradient>
<linearGradient id="paint6_linear_1_389" x1="491.125" y1="210.538" x2="448.481" y2="222.078" gradientUnits="userSpaceOnUse">
<stop stop-color="#593636" stop-opacity="0"/>
<stop offset="1" stop-color="#593636"/>
</linearGradient>
<linearGradient id="paint7_linear_1_389" x1="419.383" y1="208.008" x2="466.543" y2="255.168" gradientUnits="userSpaceOnUse">
<stop stop-color="#FFDFCF"/>
<stop offset="1" stop-color="#FFA78F"/>
</linearGradient>
<linearGradient id="paint8_linear_1_389" x1="470.265" y1="216.009" x2="453.709" y2="220.524" gradientUnits="userSpaceOnUse">
<stop stop-color="#F89580" stop-opacity="0"/>
<stop offset="0.997" stop-color="#C5715A"/>
</linearGradient>
<linearGradient id="paint9_linear_1_389" x1="7.58458" y1="186.987" x2="74.8124" y2="225.116" gradientUnits="userSpaceOnUse">
<stop stop-color="#FE7D43"/>
<stop offset="1" stop-color="#704444"/>
</linearGradient>
<linearGradient id="paint10_linear_1_389" x1="36.8938" y1="204.341" x2="60.9754" y2="217.386" gradientUnits="userSpaceOnUse">
<stop stop-color="#FFDFCF"/>
<stop offset="1" stop-color="#FFA78F"/>
</linearGradient>
<linearGradient id="paint11_linear_1_389" x1="180.771" y1="148.892" x2="430.844" y2="381.149" gradientUnits="userSpaceOnUse">
<stop stop-color="#FFDFCF"/>
<stop offset="1" stop-color="#FFA78F"/>
</linearGradient>
<linearGradient id="paint12_linear_1_389" x1="283.072" y1="345.6" x2="222.534" y2="320.515" gradientUnits="userSpaceOnUse">
<stop stop-color="#F89580" stop-opacity="0"/>
<stop offset="0.997" stop-color="#C5715A"/>
</linearGradient>
<linearGradient id="paint13_linear_1_389" x1="100.577" y1="63.5774" x2="412.534" y2="375.535" gradientUnits="userSpaceOnUse">
<stop stop-color="#FE7D43"/>
<stop offset="1" stop-color="#704444"/>
</linearGradient>
<linearGradient id="paint14_linear_1_389" x1="406.025" y1="252.321" x2="406.025" y2="362.034" gradientUnits="userSpaceOnUse">
<stop stop-color="#593636" stop-opacity="0"/>
<stop offset="1" stop-color="#593636"/>
</linearGradient>
<linearGradient id="paint15_linear_1_389" x1="105.976" y1="252.321" x2="105.976" y2="362.034" gradientUnits="userSpaceOnUse">
<stop stop-color="#593636" stop-opacity="0"/>
<stop offset="1" stop-color="#593636"/>
</linearGradient>
<linearGradient id="paint16_linear_1_389" x1="148.636" y1="257.653" x2="185.524" y2="284.806" gradientUnits="userSpaceOnUse">
<stop stop-color="#5A5A5A"/>
<stop offset="1" stop-color="#444444"/>
</linearGradient>
<linearGradient id="paint17_linear_1_389" x1="326.909" y1="256.063" x2="359.698" y2="280.655" gradientUnits="userSpaceOnUse">
<stop stop-color="#5A5A5A"/>
<stop offset="1" stop-color="#444444"/>
</linearGradient>
<linearGradient id="paint18_linear_1_389" x1="249.851" y1="293.59" x2="267.83" y2="311.57" gradientUnits="userSpaceOnUse">
<stop stop-color="#5A5A5A"/>
<stop offset="1" stop-color="#444444"/>
</linearGradient>
<linearGradient id="paint19_linear_1_389" x1="411.426" y1="454.674" x2="411.426" y2="516.283" gradientUnits="userSpaceOnUse">
<stop stop-color="#593636" stop-opacity="0"/>
<stop offset="1" stop-color="#593636"/>
</linearGradient>
<linearGradient id="paint20_linear_1_389" x1="100.574" y1="454.674" x2="100.574" y2="516.283" gradientUnits="userSpaceOnUse">
<stop stop-color="#593636" stop-opacity="0"/>
<stop offset="1" stop-color="#593636"/>
</linearGradient>
<clipPath id="clip0_1_389">
<rect width="512" height="512" fill="white"/>
</clipPath>
</defs>
</svg>
