<svg width="512" height="512" viewBox="0 0 512 512" fill="none" xmlns="http://www.w3.org/2000/svg">
<g clip-path="url(#clip0_1_437)">
<mask id="mask0_1_437" style="mask-type:luminance" maskUnits="userSpaceOnUse" x="0" y="0" width="512" height="512">
<path d="M512 0H0V512H512V0Z" fill="white"/>
</mask>
<g mask="url(#mask0_1_437)">
<path d="M447.229 512H64.7711C55.6696 512 48.2917 504.622 48.2917 495.521C48.2917 407.6 119.565 336.327 207.486 336.327H304.515C392.435 336.327 463.709 407.6 463.709 495.521C463.709 504.622 456.331 512 447.229 512Z" fill="url(#paint0_linear_1_437)"/>
<path d="M304.514 336.327H207.485C157.578 336.327 113.043 359.299 83.8545 395.238L200.617 512H447.229C456.33 512 463.708 504.622 463.708 495.521C463.708 407.6 392.435 336.327 304.514 336.327Z" fill="url(#paint1_linear_1_437)"/>
<path d="M48.2917 495.521C48.2917 504.622 55.6696 512 64.7711 512H447.229C456.331 512 463.709 504.622 463.709 495.521C463.709 472.086 458.643 449.836 449.55 429.801H62.4501C53.3575 449.836 48.2917 472.086 48.2917 495.521Z" fill="url(#paint2_linear_1_437)"/>
<path d="M382.734 448.417C377.268 451.56 371.071 453.209 364.766 453.199C358.46 453.209 352.262 451.559 346.796 448.416C338.811 443.825 328.702 449.268 328.626 458.478C328.619 459.327 328.641 460.183 328.694 461.045C329.841 479.785 345.481 494.659 364.255 494.918C384.449 495.197 400.907 478.911 400.907 458.781L400.906 458.548C400.848 449.307 390.746 443.811 382.734 448.417Z" fill="url(#paint3_linear_1_437)"/>
<path d="M431.332 458.839C431.811 458.368 432.277 457.878 432.728 457.367C442.56 446.254 442.131 429.205 431.786 418.569C420.658 407.129 402.362 407.034 391.114 418.282L390.984 418.412C385.853 423.609 388.426 432.324 395.477 434.227C400.287 435.525 404.671 438.066 408.189 441.595C411.717 445.113 414.258 449.498 415.556 454.309C417.454 461.336 426.144 463.942 431.332 458.839Z" fill="url(#paint4_linear_1_437)"/>
<path d="M347.84 437.563C352.611 440.307 358.652 437.053 358.697 431.55C358.701 431.038 358.688 430.527 358.656 430.016C357.971 418.816 348.625 409.928 337.406 409.774C325.338 409.607 315.503 419.339 315.503 431.369V431.509C315.539 437.031 321.575 440.316 326.363 437.563C329.525 435.745 333.191 434.705 337.101 434.705C341.011 434.705 344.677 435.745 347.84 437.563Z" fill="url(#paint5_linear_1_437)"/>
<path d="M425.975 505.747C435.597 505.747 443.398 497.946 443.398 488.324C443.398 478.701 435.597 470.901 425.975 470.901C416.352 470.901 408.552 478.701 408.552 488.324C408.552 497.946 416.352 505.747 425.975 505.747Z" fill="url(#paint6_linear_1_437)"/>
<path d="M165.208 448.416C159.741 451.559 153.543 453.209 147.237 453.199C140.932 453.209 134.735 451.559 129.269 448.417C121.258 443.811 111.155 449.308 111.097 458.548L111.096 458.781C111.096 478.911 127.554 495.197 147.748 494.918C166.523 494.659 182.163 479.785 183.309 461.045C183.361 460.183 183.385 459.327 183.378 458.478C183.3 449.268 173.192 443.824 165.208 448.416Z" fill="url(#paint7_linear_1_437)"/>
<path d="M121.018 418.412L120.888 418.282C109.64 407.034 91.3448 407.129 80.2163 418.569C69.8709 429.205 69.4422 446.254 79.2736 457.367C79.7254 457.878 80.1922 458.368 80.6701 458.839C85.8584 463.942 94.5483 461.336 96.4447 454.31C97.743 449.499 100.284 445.114 103.812 441.596C107.33 438.067 111.714 435.526 116.524 434.228C123.576 432.325 126.149 423.609 121.018 418.412Z" fill="url(#paint8_linear_1_437)"/>
<path d="M174.596 409.774C163.377 409.928 154.031 418.817 153.346 430.016C153.315 430.527 153.301 431.038 153.305 431.55C153.35 437.053 159.391 440.307 164.162 437.563C167.325 435.745 170.991 434.705 174.901 434.705C178.811 434.705 182.477 435.745 185.639 437.563C190.427 440.316 196.463 437.031 196.499 431.509V431.369C196.499 419.339 186.664 409.607 174.596 409.774Z" fill="url(#paint9_linear_1_437)"/>
<path d="M86.028 505.747C95.6505 505.747 103.451 497.946 103.451 488.324C103.451 478.701 95.6505 470.901 86.028 470.901C76.4056 470.901 68.605 478.701 68.605 488.324C68.605 497.946 76.4056 505.747 86.028 505.747Z" fill="url(#paint10_linear_1_437)"/>
<path d="M487.598 30.4721L484.173 13.9686C481.343 0.330306 464.494 -4.70537 454.645 5.14411L307.387 152.402L430.781 121.226C470.968 111.072 496.02 71.0576 487.598 30.4721Z" fill="url(#paint11_linear_1_437)"/>
<path d="M487.598 30.4721L484.173 13.9686C481.343 0.330306 464.494 -4.70537 454.645 5.14411L307.387 152.402L430.781 121.226C470.968 111.072 496.02 71.0576 487.598 30.4721Z" fill="url(#paint12_linear_1_437)"/>
<path d="M428.861 71.3387C440.771 38.5817 464.227 16.1451 484.623 16.1371L484.173 13.9676C481.343 0.329329 464.494 -4.70634 454.645 5.14313L307.387 152.402L422.92 123.211C420.336 108.35 422.104 89.9253 428.861 71.3387Z" fill="url(#paint13_linear_1_437)"/>
<path d="M24.4024 30.472L27.8268 13.9686C30.6568 0.329282 47.5056 -4.70639 57.3541 5.14309L204.613 152.402L81.2203 121.226C41.0323 111.072 15.9805 71.0576 24.4024 30.472Z" fill="url(#paint14_linear_1_437)"/>
<path d="M83.1388 71.3387C71.2293 38.5817 47.7726 16.1451 27.377 16.1371L27.8267 13.9676C30.6568 0.329329 47.5056 -4.70634 57.3541 5.14313L204.613 152.402L89.08 123.212C91.6641 108.35 89.8962 89.9253 83.1388 71.3387Z" fill="url(#paint15_linear_1_437)"/>
<path d="M414.436 400.964C309.951 433.632 202.041 433.631 97.5631 400.964C62.203 389.909 39.672 355.24 43.518 318.392C48.9442 266.402 54.3845 231.573 59.8227 195.53C74.4649 98.4837 157.857 26.7234 256 26.7234C354.143 26.7234 437.535 98.4847 452.177 195.53C457.616 231.573 463.056 266.402 468.482 318.391C472.328 355.239 449.796 389.908 414.436 400.964Z" fill="url(#paint16_linear_1_437)"/>
<path d="M256 186.729C237.229 186.729 220.779 199.29 215.835 217.397L195.249 292.789H316.752L296.166 217.397C291.22 199.29 274.77 186.729 256 186.729Z" fill="url(#paint17_linear_1_437)"/>
<path d="M313.088 398.121C308.777 383.576 304.547 369.008 300.4 354.416H214.611C210.464 369.008 206.234 383.577 201.923 398.121C194.386 423.552 211.875 449.76 238.281 452.25C251.073 453.46 263.952 453.46 276.744 452.249C303.146 449.758 320.622 423.547 313.088 398.121Z" fill="url(#paint18_linear_1_437)"/>
<path d="M305.949 291.899H206.051C169.876 291.899 140.549 321.226 140.549 357.401C140.549 393.578 169.876 422.903 206.051 422.903C226.073 422.903 243.985 413.91 256 399.754C268.015 413.909 285.927 422.903 305.949 422.903C342.125 422.903 371.451 393.577 371.451 357.401C371.451 321.226 342.125 291.899 305.949 291.899Z" fill="url(#paint19_linear_1_437)"/>
<path d="M208.268 353.267C217.356 353.267 224.724 345.899 224.724 336.811C224.724 327.722 217.356 320.354 208.268 320.354C199.179 320.354 191.812 327.722 191.812 336.811C191.812 345.899 199.179 353.267 208.268 353.267Z" fill="url(#paint20_linear_1_437)"/>
<path d="M173.024 364.292C177.086 364.292 180.379 360.999 180.379 356.937C180.379 352.875 177.086 349.583 173.024 349.583C168.962 349.583 165.669 352.875 165.669 356.937C165.669 360.999 168.962 364.292 173.024 364.292Z" fill="url(#paint21_linear_1_437)"/>
<path d="M196.175 388.476C202.854 388.476 208.267 383.063 208.267 376.384C208.267 369.706 202.854 364.292 196.175 364.292C189.497 364.292 184.083 369.706 184.083 376.384C184.083 383.063 189.497 388.476 196.175 388.476Z" fill="url(#paint22_linear_1_437)"/>
<path d="M303.735 353.267C312.823 353.267 320.191 345.899 320.191 336.811C320.191 327.722 312.823 320.354 303.735 320.354C294.646 320.354 287.278 327.722 287.278 336.811C287.278 345.899 294.646 353.267 303.735 353.267Z" fill="url(#paint23_linear_1_437)"/>
<path d="M338.979 364.292C343.041 364.292 346.334 360.999 346.334 356.937C346.334 352.875 343.041 349.583 338.979 349.583C334.917 349.583 331.625 352.875 331.625 356.937C331.625 360.999 334.917 364.292 338.979 364.292Z" fill="url(#paint24_linear_1_437)"/>
<path d="M315.827 388.476C322.505 388.476 327.919 383.063 327.919 376.384C327.919 369.706 322.505 364.292 315.827 364.292C309.148 364.292 303.734 369.706 303.734 376.384C303.734 383.063 309.148 388.476 315.827 388.476Z" fill="url(#paint25_linear_1_437)"/>
<path d="M305.949 422.903C342.125 422.903 371.451 393.577 371.451 357.401C371.451 321.226 342.125 291.899 305.949 291.899C269.773 291.899 240.447 321.226 240.447 357.401C240.447 393.577 269.773 422.903 305.949 422.903Z" fill="url(#paint26_linear_1_437)"/>
<path d="M256 394.568C254.003 394.568 252.088 393.775 250.676 392.363C249.264 390.951 248.471 389.036 248.471 387.039V314.761C248.471 310.601 251.842 307.231 256 307.231C260.158 307.231 263.53 310.601 263.53 314.761V387.039C263.53 389.036 262.736 390.951 261.324 392.363C259.912 393.775 257.997 394.568 256 394.568Z" fill="url(#paint27_linear_1_437)"/>
<path d="M305.134 284.012H206.866C194.842 284.012 190.197 299.664 200.274 306.223L233.433 327.805C240.148 332.176 247.987 334.503 255.999 334.503C264.012 334.503 271.851 332.176 278.566 327.805L311.725 306.223C321.803 299.665 317.158 284.012 305.134 284.012Z" fill="url(#paint28_linear_1_437)"/>
<path d="M140.549 357.401C140.549 334.338 152.47 314.064 170.484 302.395C184.124 293.56 192.503 278.552 192.503 262.301V219.146C192.503 215.03 189.321 211.426 185.204 211.305C184.197 211.275 183.193 211.448 182.253 211.812C181.313 212.177 180.456 212.727 179.732 213.429C179.008 214.131 178.433 214.971 178.04 215.9C177.647 216.828 177.444 217.826 177.444 218.835V255.598C177.444 270.246 170.236 283.799 158.44 292.472C138.472 307.15 125.491 330.782 125.491 357.396C125.491 358.199 125.501 358.982 125.521 359.775C126.405 390.064 149.364 415.302 179.342 419.76C183.836 420.428 188.335 421.019 192.835 421.569C162.995 415.456 140.549 389.05 140.549 357.401Z" fill="url(#paint29_linear_1_437)"/>
<path d="M353.562 292.472C341.766 283.799 334.558 270.246 334.558 255.598V219.146C334.558 215.03 331.386 211.426 327.26 211.305C326.252 211.275 325.248 211.448 324.308 211.812C323.368 212.177 322.511 212.727 321.787 213.429C321.063 214.131 320.488 214.971 320.095 215.9C319.702 216.828 319.5 217.826 319.499 218.835V262.302C319.499 278.552 327.878 293.56 341.517 302.395C359.532 314.065 371.451 334.339 371.451 357.401C371.451 389.049 349.007 415.454 319.167 421.569C323.673 421.024 328.171 420.421 332.661 419.76C362.638 415.302 385.597 390.064 386.471 359.775C386.501 358.982 386.511 358.199 386.511 357.396C386.511 330.782 373.53 307.15 353.562 292.472Z" fill="url(#paint30_linear_1_437)"/>
<path d="M165.917 253.525C151.237 253.525 139.335 241.624 139.335 226.944V213.312C139.335 198.632 151.236 186.73 165.917 186.73C180.598 186.73 192.499 198.632 192.499 213.312V226.944C192.499 241.624 180.598 253.525 165.917 253.525Z" fill="url(#paint31_linear_1_437)"/>
<path d="M346.083 253.525C331.401 253.525 319.501 241.624 319.501 226.944V213.312C319.501 198.632 331.401 186.73 346.083 186.73C360.763 186.73 372.665 198.632 372.665 213.312V226.944C372.665 241.624 360.763 253.525 346.083 253.525Z" fill="url(#paint32_linear_1_437)"/>
<path d="M273.969 92.3237C268.503 95.4662 262.306 97.1153 256.001 97.1054C249.695 97.1152 243.498 95.4654 238.031 92.3217C230.046 87.7307 219.937 93.174 219.861 102.385C219.854 103.234 219.876 104.09 219.929 104.952C221.076 123.692 236.716 138.566 255.49 138.825C275.684 139.104 292.142 122.818 292.142 102.688L292.141 102.455C292.083 93.2142 281.982 87.7177 273.969 92.3237Z" fill="url(#paint33_linear_1_437)"/>
<path d="M229.857 62.3595C229.386 61.8817 228.895 61.4158 228.384 60.9631C217.273 51.1317 200.222 51.5603 189.588 61.9058C178.148 73.0332 178.053 91.3297 189.3 102.578L189.431 102.707C194.627 107.838 203.342 105.265 205.246 98.2146C206.544 93.4044 209.085 89.0205 212.614 85.5029C216.131 81.9738 220.516 79.4324 225.327 78.1342C232.354 76.2377 234.96 67.5478 229.857 62.3595Z" fill="url(#paint34_linear_1_437)"/>
<path d="M282.35 62.19L282.221 62.3205C277.09 67.5168 279.663 76.2318 286.713 78.1353C291.523 79.4336 295.907 81.9746 299.425 85.5031C302.954 89.0211 305.495 93.4058 306.793 98.2167C308.689 105.243 317.379 107.85 322.567 102.746C323.046 102.276 323.512 101.785 323.964 101.274C333.795 90.1613 333.366 73.1117 323.021 62.4771C311.894 51.0374 293.598 50.941 282.35 62.19Z" fill="url(#paint35_linear_1_437)"/>
<path d="M255.696 62.9339C267.764 63.1006 277.598 53.3685 277.598 41.3385V41.199C277.563 35.6764 271.527 32.3916 266.739 35.1444C263.576 36.9625 259.911 38.0025 256.001 38.0025C252.091 38.0025 248.424 36.9625 245.262 35.1444C240.49 32.4006 234.45 35.6543 234.405 41.1578C234.4 41.6648 234.414 42.1768 234.446 42.6918C235.13 53.8916 244.477 62.7793 255.696 62.9339Z" fill="url(#paint36_linear_1_437)"/>
<path d="M152.627 103.615C162.25 103.615 170.05 95.8141 170.05 86.1916C170.05 76.5691 162.25 68.7686 152.627 68.7686C143.005 68.7686 135.204 76.5691 135.204 86.1916C135.204 95.8141 143.005 103.615 152.627 103.615Z" fill="url(#paint37_linear_1_437)"/>
<path d="M359.375 103.615C368.997 103.615 376.798 95.8141 376.798 86.1916C376.798 76.5691 368.997 68.7686 359.375 68.7686C349.752 68.7686 341.952 76.5691 341.952 86.1916C341.952 95.8141 349.752 103.615 359.375 103.615Z" fill="url(#paint38_linear_1_437)"/>
<path d="M399.475 128.151C408.125 119.736 408.199 105.9 399.692 97.3936L399.594 97.2952C395.665 93.415 389.073 95.3606 387.634 100.692C386.684 104.213 384.827 107.541 382.063 110.306C379.298 113.071 375.97 114.928 372.448 115.878C367.134 117.312 365.162 123.884 369.023 127.807C369.378 128.169 369.749 128.521 370.136 128.864C378.539 136.299 391.432 135.974 399.475 128.151Z" fill="url(#paint39_linear_1_437)"/>
<path d="M112.528 128.151C103.877 119.736 103.804 105.9 112.31 97.3936L112.408 97.2952C116.338 93.415 122.929 95.3606 124.368 100.692C125.319 104.213 127.175 107.541 129.94 110.306C132.704 113.071 136.032 114.928 139.554 115.878C144.868 117.312 146.84 123.884 142.98 127.807C142.624 128.169 142.253 128.521 141.866 128.864C133.464 136.299 120.57 135.974 112.528 128.151Z" fill="url(#paint40_linear_1_437)"/>
<path d="M444.518 336.012C440.589 332.131 433.998 334.077 432.559 339.409C431.608 342.931 429.752 346.258 426.987 349.022C424.222 351.787 420.894 353.644 417.372 354.594C412.059 356.028 410.087 362.6 413.947 366.524C414.302 366.885 414.674 367.237 415.06 367.58C423.464 375.015 436.357 374.691 444.4 366.867C453.051 358.452 453.124 344.616 444.618 336.11L444.518 336.012Z" fill="url(#paint41_linear_1_437)"/>
<path d="M454.564 291.986C454.089 291.503 453.598 291.037 453.091 290.589C441.979 280.758 424.929 281.186 414.295 291.532C402.855 302.659 402.76 320.956 414.007 332.204L414.138 332.333C419.334 337.464 428.049 334.89 429.953 327.841C431.251 323.03 433.792 318.646 437.321 315.129C440.839 311.6 445.223 309.059 450.034 307.761C457.061 305.864 459.668 297.174 454.564 291.986Z" fill="url(#paint42_linear_1_437)"/>
<path d="M67.4836 336.012C71.413 332.131 78.0037 334.077 79.4434 339.409C80.3941 342.931 82.2503 346.258 85.0151 349.022C87.7799 351.787 91.1079 353.644 94.6297 354.594C99.9434 356.028 101.915 362.6 98.0551 366.524C97.6997 366.885 97.3282 367.237 96.9417 367.58C88.5379 375.015 75.6445 374.691 67.6021 366.867C58.9513 358.452 58.878 344.616 67.3843 336.11L67.4836 336.012Z" fill="url(#paint43_linear_1_437)"/>
<path d="M57.4395 291.986C57.9104 291.507 58.4013 291.041 58.9123 290.589C70.0247 280.758 87.0743 281.186 97.7088 291.532C109.149 302.659 109.244 320.956 97.996 332.204L97.8655 332.333C92.6692 337.464 83.9541 334.89 82.0507 327.841C80.7523 323.03 78.2114 318.646 74.6829 315.129C71.1649 311.6 66.7802 309.059 61.9692 307.761C54.9428 305.864 52.3356 297.174 57.4395 291.986Z" fill="url(#paint44_linear_1_437)"/>
</g>
</g>
<defs>
<linearGradient id="paint0_linear_1_437" x1="205.577" y1="376.451" x2="269.932" y2="507.169" gradientUnits="userSpaceOnUse">
<stop stop-color="#FEF0AE"/>
<stop offset="1" stop-color="#FAC600"/>
</linearGradient>
<linearGradient id="paint1_linear_1_437" x1="273.781" y1="492.424" x2="273.781" y2="362.909" gradientUnits="userSpaceOnUse">
<stop stop-color="#FEA613" stop-opacity="0"/>
<stop offset="1" stop-color="#E94444"/>
</linearGradient>
<linearGradient id="paint2_linear_1_437" x1="256" y1="465.328" x2="256" y2="521.86" gradientUnits="userSpaceOnUse">
<stop stop-color="#FEA613" stop-opacity="0"/>
<stop offset="1" stop-color="#E94444"/>
</linearGradient>
<linearGradient id="paint3_linear_1_437" x1="355.395" y1="391.598" x2="376.812" y2="546.871" gradientUnits="userSpaceOnUse">
<stop stop-color="#5A5A5A"/>
<stop offset="1" stop-color="#444444"/>
</linearGradient>
<linearGradient id="paint4_linear_1_437" x1="407.626" y1="384.394" x2="429.044" y2="539.667" gradientUnits="userSpaceOnUse">
<stop stop-color="#5A5A5A"/>
<stop offset="1" stop-color="#444444"/>
</linearGradient>
<linearGradient id="paint5_linear_1_437" x1="332.12" y1="394.808" x2="353.537" y2="550.082" gradientUnits="userSpaceOnUse">
<stop stop-color="#5A5A5A"/>
<stop offset="1" stop-color="#444444"/>
</linearGradient>
<linearGradient id="paint6_linear_1_437" x1="411.565" y1="383.851" x2="432.981" y2="539.124" gradientUnits="userSpaceOnUse">
<stop stop-color="#5A5A5A"/>
<stop offset="1" stop-color="#444444"/>
</linearGradient>
<linearGradient id="paint7_linear_1_437" x1="141.93" y1="421.042" x2="163.347" y2="576.314" gradientUnits="userSpaceOnUse">
<stop stop-color="#5A5A5A"/>
<stop offset="1" stop-color="#444444"/>
</linearGradient>
<linearGradient id="paint8_linear_1_437" x1="97.2288" y1="427.207" x2="118.645" y2="582.48" gradientUnits="userSpaceOnUse">
<stop stop-color="#5A5A5A"/>
<stop offset="1" stop-color="#444444"/>
</linearGradient>
<linearGradient id="paint9_linear_1_437" x1="172.948" y1="416.763" x2="194.364" y2="572.037" gradientUnits="userSpaceOnUse">
<stop stop-color="#5A5A5A"/>
<stop offset="1" stop-color="#444444"/>
</linearGradient>
<linearGradient id="paint10_linear_1_437" x1="77.9645" y1="429.864" x2="99.3812" y2="585.138" gradientUnits="userSpaceOnUse">
<stop stop-color="#5A5A5A"/>
<stop offset="1" stop-color="#444444"/>
</linearGradient>
<linearGradient id="paint11_linear_1_437" x1="399.268" y1="84.6226" x2="445.082" y2="130.436" gradientUnits="userSpaceOnUse">
<stop stop-color="#FFDFCF"/>
<stop offset="1" stop-color="#FFA78F"/>
</linearGradient>
<linearGradient id="paint12_linear_1_437" x1="456.199" y1="65.6665" x2="413.03" y2="72.192" gradientUnits="userSpaceOnUse">
<stop stop-color="#F89580" stop-opacity="0"/>
<stop offset="0.997" stop-color="#C5715A"/>
</linearGradient>
<linearGradient id="paint13_linear_1_437" x1="396.539" y1="60.7604" x2="395.535" y2="104.933" gradientUnits="userSpaceOnUse">
<stop stop-color="#FEF0AE"/>
<stop offset="1" stop-color="#FAC600"/>
</linearGradient>
<linearGradient id="paint14_linear_1_437" x1="40.1288" y1="52.3876" x2="90.9945" y2="69.7896" gradientUnits="userSpaceOnUse">
<stop stop-color="#FFDFCF"/>
<stop offset="1" stop-color="#FFA78F"/>
</linearGradient>
<linearGradient id="paint15_linear_1_437" x1="68.9132" y1="61.3919" x2="112.416" y2="85.486" gradientUnits="userSpaceOnUse">
<stop stop-color="#FEF0AE"/>
<stop offset="1" stop-color="#FAC600"/>
</linearGradient>
<linearGradient id="paint16_linear_1_437" x1="160.925" y1="119.797" x2="334.603" y2="393.868" gradientUnits="userSpaceOnUse">
<stop stop-color="#FEF0AE"/>
<stop offset="1" stop-color="#FAC600"/>
</linearGradient>
<linearGradient id="paint17_linear_1_437" x1="216.296" y1="229.577" x2="303.637" y2="286.8" gradientUnits="userSpaceOnUse">
<stop stop-color="#FEA613" stop-opacity="0"/>
<stop offset="1" stop-color="#E94444"/>
</linearGradient>
<linearGradient id="paint18_linear_1_437" x1="254.748" y1="400.557" x2="266.126" y2="439.375" gradientUnits="userSpaceOnUse">
<stop stop-color="#F9F5F3"/>
<stop offset="1" stop-color="#EFE2DD"/>
</linearGradient>
<linearGradient id="paint19_linear_1_437" x1="256" y1="348.169" x2="256" y2="460.903" gradientUnits="userSpaceOnUse">
<stop stop-color="white"/>
<stop offset="1" stop-color="#E1D3CE"/>
</linearGradient>
<linearGradient id="paint20_linear_1_437" x1="169.849" y1="298.391" x2="290.993" y2="419.535" gradientUnits="userSpaceOnUse">
<stop stop-color="#9E9797" stop-opacity="0"/>
<stop offset="0.31" stop-color="#968F8F" stop-opacity="0.31"/>
<stop offset="0.785" stop-color="#827A7A" stop-opacity="0.785"/>
<stop offset="1" stop-color="#766E6E"/>
</linearGradient>
<linearGradient id="paint21_linear_1_437" x1="142.163" y1="326.077" x2="263.307" y2="447.221" gradientUnits="userSpaceOnUse">
<stop stop-color="#9E9797" stop-opacity="0"/>
<stop offset="0.31" stop-color="#968F8F" stop-opacity="0.31"/>
<stop offset="0.785" stop-color="#827A7A" stop-opacity="0.785"/>
<stop offset="1" stop-color="#766E6E"/>
</linearGradient>
<linearGradient id="paint22_linear_1_437" x1="144.014" y1="324.223" x2="265.16" y2="445.369" gradientUnits="userSpaceOnUse">
<stop stop-color="#9E9797" stop-opacity="0"/>
<stop offset="0.31" stop-color="#968F8F" stop-opacity="0.31"/>
<stop offset="0.785" stop-color="#827A7A" stop-opacity="0.785"/>
<stop offset="1" stop-color="#766E6E"/>
</linearGradient>
<linearGradient id="paint23_linear_1_437" x1="265.19" y1="298.265" x2="446.559" y2="479.635" gradientUnits="userSpaceOnUse">
<stop stop-color="#9E9797" stop-opacity="0"/>
<stop offset="0.31" stop-color="#968F8F" stop-opacity="0.31"/>
<stop offset="0.785" stop-color="#827A7A" stop-opacity="0.785"/>
<stop offset="1" stop-color="#766E6E"/>
</linearGradient>
<linearGradient id="paint24_linear_1_437" x1="272.749" y1="290.707" x2="454.118" y2="472.076" gradientUnits="userSpaceOnUse">
<stop stop-color="#9E9797" stop-opacity="0"/>
<stop offset="0.31" stop-color="#968F8F" stop-opacity="0.31"/>
<stop offset="0.785" stop-color="#827A7A" stop-opacity="0.785"/>
<stop offset="1" stop-color="#766E6E"/>
</linearGradient>
<linearGradient id="paint25_linear_1_437" x1="251.449" y1="312.007" x2="432.818" y2="493.375" gradientUnits="userSpaceOnUse">
<stop stop-color="#9E9797" stop-opacity="0"/>
<stop offset="0.31" stop-color="#968F8F" stop-opacity="0.31"/>
<stop offset="0.785" stop-color="#827A7A" stop-opacity="0.785"/>
<stop offset="1" stop-color="#766E6E"/>
</linearGradient>
<linearGradient id="paint26_linear_1_437" x1="303.961" y1="350.803" x2="351.552" y2="508.827" gradientUnits="userSpaceOnUse">
<stop stop-color="#9E9797" stop-opacity="0"/>
<stop offset="0.31" stop-color="#968F8F" stop-opacity="0.31"/>
<stop offset="0.785" stop-color="#827A7A" stop-opacity="0.785"/>
<stop offset="1" stop-color="#766E6E"/>
</linearGradient>
<linearGradient id="paint27_linear_1_437" x1="248.471" y1="350.9" x2="263.53" y2="350.9" gradientUnits="userSpaceOnUse">
<stop stop-color="#5A5A5A"/>
<stop offset="1" stop-color="#444444"/>
</linearGradient>
<linearGradient id="paint28_linear_1_437" x1="246.197" y1="278.291" x2="274.306" y2="329.491" gradientUnits="userSpaceOnUse">
<stop stop-color="#5A5A5A"/>
<stop offset="1" stop-color="#444444"/>
</linearGradient>
<linearGradient id="paint29_linear_1_437" x1="159.164" y1="301.618" x2="159.164" y2="482.559" gradientUnits="userSpaceOnUse">
<stop stop-color="#5A5A5A"/>
<stop offset="1" stop-color="#444444"/>
</linearGradient>
<linearGradient id="paint30_linear_1_437" x1="352.839" y1="301.618" x2="352.839" y2="482.558" gradientUnits="userSpaceOnUse">
<stop stop-color="#5A5A5A"/>
<stop offset="1" stop-color="#444444"/>
</linearGradient>
<linearGradient id="paint31_linear_1_437" x1="148.581" y1="207.365" x2="185.488" y2="234.533" gradientUnits="userSpaceOnUse">
<stop stop-color="#5A5A5A"/>
<stop offset="1" stop-color="#444444"/>
</linearGradient>
<linearGradient id="paint32_linear_1_437" x1="326.946" y1="205.775" x2="359.752" y2="230.379" gradientUnits="userSpaceOnUse">
<stop stop-color="#5A5A5A"/>
<stop offset="1" stop-color="#444444"/>
</linearGradient>
<linearGradient id="paint33_linear_1_437" x1="214.225" y1="28.7021" x2="280.986" y2="151.683" gradientUnits="userSpaceOnUse">
<stop stop-color="#5A5A5A"/>
<stop offset="1" stop-color="#444444"/>
</linearGradient>
<linearGradient id="paint34_linear_1_437" x1="187.735" y1="43.0822" x2="254.496" y2="166.063" gradientUnits="userSpaceOnUse">
<stop stop-color="#5A5A5A"/>
<stop offset="1" stop-color="#444444"/>
</linearGradient>
<linearGradient id="paint35_linear_1_437" x1="265.923" y1="0.637569" x2="332.684" y2="123.618" gradientUnits="userSpaceOnUse">
<stop stop-color="#5A5A5A"/>
<stop offset="1" stop-color="#444444"/>
</linearGradient>
<linearGradient id="paint36_linear_1_437" x1="240.449" y1="14.4666" x2="307.21" y2="137.447" gradientUnits="userSpaceOnUse">
<stop stop-color="#5A5A5A"/>
<stop offset="1" stop-color="#444444"/>
</linearGradient>
<linearGradient id="paint37_linear_1_437" x1="142.543" y1="67.615" x2="209.304" y2="190.595" gradientUnits="userSpaceOnUse">
<stop stop-color="#5A5A5A"/>
<stop offset="1" stop-color="#444444"/>
</linearGradient>
<linearGradient id="paint38_linear_1_437" x1="302.232" y1="-19.0726" x2="368.992" y2="103.908" gradientUnits="userSpaceOnUse">
<stop stop-color="#5A5A5A"/>
<stop offset="1" stop-color="#444444"/>
</linearGradient>
<linearGradient id="paint39_linear_1_437" x1="354.141" y1="104.916" x2="488.309" y2="144.67" gradientUnits="userSpaceOnUse">
<stop stop-color="#5A5A5A"/>
<stop offset="1" stop-color="#444444"/>
</linearGradient>
<linearGradient id="paint40_linear_1_437" x1="158.171" y1="104.934" x2="24.0038" y2="144.687" gradientUnits="userSpaceOnUse">
<stop stop-color="#5A5A5A"/>
<stop offset="1" stop-color="#444444"/>
</linearGradient>
<linearGradient id="paint41_linear_1_437" x1="380.299" y1="301" x2="454.088" y2="376.796" gradientUnits="userSpaceOnUse">
<stop stop-color="#5A5A5A"/>
<stop offset="1" stop-color="#444444"/>
</linearGradient>
<linearGradient id="paint42_linear_1_437" x1="402.47" y1="279.416" x2="476.259" y2="355.212" gradientUnits="userSpaceOnUse">
<stop stop-color="#5A5A5A"/>
<stop offset="1" stop-color="#444444"/>
</linearGradient>
<linearGradient id="paint43_linear_1_437" x1="131.704" y1="301" x2="57.9153" y2="376.796" gradientUnits="userSpaceOnUse">
<stop stop-color="#5A5A5A"/>
<stop offset="1" stop-color="#444444"/>
</linearGradient>
<linearGradient id="paint44_linear_1_437" x1="109.532" y1="279.416" x2="35.7438" y2="355.212" gradientUnits="userSpaceOnUse">
<stop stop-color="#5A5A5A"/>
<stop offset="1" stop-color="#444444"/>
</linearGradient>
<clipPath id="clip0_1_437">
<rect width="512" height="512" fill="white"/>
</clipPath>
</defs>
</svg>
