<svg width="512" height="512" viewBox="0 0 512 512" fill="none" xmlns="http://www.w3.org/2000/svg">
<g clip-path="url(#clip0_1_487)">
<mask id="mask0_1_487" style="mask-type:luminance" maskUnits="userSpaceOnUse" x="0" y="0" width="512" height="512">
<path d="M512 0H0V512H512V0Z" fill="white"/>
</mask>
<g mask="url(#mask0_1_487)">
<path d="M304.514 336.327H207.485C119.565 336.327 48.2915 407.6 48.2915 495.521C48.2915 504.622 55.6693 512 64.7709 512H447.229C456.33 512 463.708 504.622 463.708 495.521C463.708 407.6 392.435 336.327 304.514 336.327Z" fill="url(#paint0_linear_1_487)"/>
<path d="M48.2915 495.521C48.2915 504.622 55.6693 512 64.7709 512H447.229C456.33 512 463.708 504.622 463.708 495.521C463.708 472.086 458.642 449.836 449.55 429.801H62.4498C53.3573 449.836 48.2915 472.086 48.2915 495.521Z" fill="url(#paint1_linear_1_487)"/>
<path d="M304.515 336.327H207.486C177.713 336.327 149.857 344.508 126.023 358.732V441.442L196.581 512H447.229C456.331 512 463.709 504.622 463.709 495.521C463.709 407.6 392.435 336.327 304.515 336.327Z" fill="url(#paint2_linear_1_487)"/>
<path d="M394.452 203.568L358.813 167.93L394.452 132.292C419.451 107.292 459.985 107.292 484.984 132.292L504.332 151.639C513.329 160.636 513.329 175.222 504.332 184.219L484.984 203.566C459.984 228.569 419.451 228.569 394.452 203.568Z" fill="url(#paint3_linear_1_487)"/>
<path d="M394.452 203.568L358.813 167.93L394.452 132.292C419.451 107.292 459.985 107.292 484.984 132.292L504.332 151.639C513.329 160.636 513.329 175.222 504.332 184.219L484.984 203.566C459.984 228.569 419.451 228.569 394.452 203.568Z" fill="url(#paint4_linear_1_487)"/>
<path d="M411.383 190.238L389.076 167.931L411.383 145.624C427.031 129.976 452.403 129.976 468.051 145.624L480.162 157.735C485.793 163.366 485.793 172.497 480.162 178.129L468.051 190.24C452.403 205.887 427.032 205.887 411.383 190.238Z" fill="url(#paint5_linear_1_487)"/>
<path d="M411.383 190.238L389.076 167.931L411.383 145.624C427.031 129.976 452.403 129.976 468.051 145.624L480.162 157.735C485.793 163.366 485.793 172.497 480.162 178.129L468.051 190.24C452.403 205.887 427.032 205.887 411.383 190.238Z" fill="url(#paint6_linear_1_487)"/>
<path d="M117.548 203.568L153.186 167.93L117.548 132.292C92.5484 107.292 52.015 107.292 27.0154 132.292L7.66778 151.641C-1.32936 160.638 -1.32936 175.224 7.66778 184.221L27.0154 203.568C52.016 228.569 92.5484 228.569 117.548 203.568Z" fill="url(#paint7_linear_1_487)"/>
<path d="M100.617 190.238L122.924 167.931L100.617 145.624C84.968 129.976 59.5969 129.976 43.9488 145.624L31.8375 157.735C26.2065 163.366 26.2065 172.497 31.8375 178.129L43.9488 190.24C59.5969 205.887 84.968 205.887 100.617 190.238Z" fill="url(#paint8_linear_1_487)"/>
<path d="M345.219 102.441C285.996 90.8138 226.001 90.8138 166.781 102.441C106.173 114.341 65.1295 171.215 73.0314 232.472C76.1345 256.532 79.2417 276.67 82.3478 297.255C95.3094 383.158 169.126 446.679 256 446.679C342.875 446.679 416.692 383.157 429.652 297.254C432.759 276.669 435.865 256.531 438.969 232.472C446.871 171.214 405.827 114.341 345.219 102.441Z" fill="url(#paint9_linear_1_487)"/>
<path d="M345.218 102.441C285.996 90.8138 226.001 90.8138 166.78 102.441C108.241 113.934 67.9593 167.386 72.3976 226.218H439.603C444.04 167.385 403.758 113.934 345.218 102.441Z" fill="url(#paint10_linear_1_487)"/>
<path d="M327.269 460.957L304.96 458.336C272.432 454.515 239.568 454.515 207.04 458.336L184.732 460.957C141.356 466.051 103.25 432.159 103.25 388.486C103.25 341.958 146.212 307.314 191.684 317.175L234.293 326.415C248.599 329.517 263.403 329.517 277.708 326.415L320.317 317.175C365.789 307.313 408.751 341.958 408.751 388.486C408.751 432.16 370.644 466.051 327.269 460.957Z" fill="url(#paint11_linear_1_487)"/>
<path d="M165.917 299.996C151.237 299.996 139.335 288.094 139.335 273.414V259.783C139.335 245.102 151.236 233.201 165.917 233.201C180.598 233.201 192.499 245.102 192.499 259.783V273.414C192.499 288.095 180.598 299.996 165.917 299.996Z" fill="url(#paint12_linear_1_487)"/>
<path d="M346.083 299.996C331.401 299.996 319.501 288.094 319.501 273.414V259.783C319.501 245.102 331.401 233.201 346.083 233.201C360.763 233.201 372.665 245.102 372.665 259.783V273.414C372.665 288.095 360.763 299.996 346.083 299.996Z" fill="url(#paint13_linear_1_487)"/>
<path d="M195.996 378.943C189.002 392.313 173.856 398.195 162.167 392.082C150.479 385.968 146.672 370.172 153.666 356.802C160.661 343.431 175.806 337.55 187.494 343.663C199.183 349.777 202.989 365.573 195.996 378.943Z" fill="url(#paint14_linear_1_487)"/>
<path d="M316.005 378.943C322.998 392.313 338.144 398.195 349.833 392.082C361.521 385.968 365.328 370.172 358.334 356.802C351.34 343.431 336.194 337.55 324.506 343.663C312.817 349.777 309.011 365.573 316.005 378.943Z" fill="url(#paint15_linear_1_487)"/>
<path d="M256 98.3663V55.5902C256 34.6514 279.62 22.4266 296.715 34.5178C327.451 56.2578 364.171 67.9321 401.819 67.9324H445.471C458.914 67.9324 469.81 57.0358 469.81 43.5933C469.81 38.9909 468.506 34.4828 466.047 30.5921C463.589 26.7013 460.078 23.5873 455.921 21.6114L444.831 16.3398C436.564 12.4105 439.364 0 448.517 0C483.578 0 512 28.422 512 63.483C512 95.746 487.8 122.878 455.747 126.552L306.753 143.633C279.711 146.734 256 125.587 256 98.3663Z" fill="url(#paint16_linear_1_487)"/>
<path d="M463.525 59.916C459.071 64.8392 452.633 67.9333 445.471 67.9333H401.308C363.653 67.9333 327.434 55.4455 296.316 34.2427C279.255 22.6173 256 34.8139 256 55.5911V98.3672C256 125.587 279.711 146.735 306.753 143.635L415.65 131.151C440.699 128.279 460.318 108.347 462.926 83.2692C463.408 78.6341 463.707 74.272 463.707 70.5816C463.708 67.0067 463.636 63.4548 463.525 59.916Z" fill="url(#paint17_linear_1_487)"/>
<path d="M398.784 70.5797C398.784 69.6842 398.768 68.7948 398.757 67.9033C362.112 67.2886 326.507 55.6252 296.602 34.4396C279.567 22.3704 256 34.7136 256 55.5912V98.3673C256 125.588 279.711 146.735 306.753 143.635L360.505 137.473C379.206 135.329 394.03 120.772 396.619 102.126C398.066 91.6729 398.789 81.1324 398.784 70.5797Z" fill="url(#paint18_linear_1_487)"/>
<path d="M256 55.5911V98.3672C256 111.547 261.559 123.303 270.363 131.572C286.131 146.381 311.713 141.354 321.246 121.936C328.564 107.029 332.792 89.4313 332.792 70.5806C332.792 64.8784 332.401 59.2936 331.66 53.8603C319.307 48.7033 307.562 42.1986 296.637 34.4646C279.583 22.3874 256 34.6945 256 55.5911Z" fill="url(#paint19_linear_1_487)"/>
<path d="M256 98.3663V55.5902C256 34.6514 232.38 22.4266 215.285 34.5178C184.549 56.2578 147.829 67.9321 110.181 67.9324H66.5289C53.0864 67.9324 42.1898 57.0358 42.1898 43.5933C42.1899 38.991 43.4948 34.483 45.9531 30.5923C48.4115 26.7015 51.9226 23.5875 56.0791 21.6114L67.1694 16.3398C75.4357 12.4105 72.6357 0 63.483 0C28.422 0 0 28.422 0 63.483C0 95.746 24.1995 122.878 56.2527 126.552L205.247 143.633C232.289 146.734 256 125.587 256 98.3663Z" fill="url(#paint20_linear_1_487)"/>
<path d="M48.4752 59.916C52.9286 64.8392 59.3667 67.9333 66.5287 67.9333H110.692C148.347 67.9333 184.566 55.4455 215.683 34.2427C232.745 22.6173 256 34.8139 256 55.5911V98.3672C256 125.587 232.289 146.735 205.247 143.635L96.3502 131.149C71.3004 128.277 51.6817 108.345 49.0735 83.2672C48.5917 78.6321 48.2925 74.27 48.2925 70.5796C48.2915 67.0067 48.3638 63.4548 48.4752 59.916Z" fill="url(#paint21_linear_1_487)"/>
<path d="M113.216 70.5797C113.216 69.6842 113.232 68.7948 113.243 67.9033C149.888 67.2886 185.493 55.6252 215.398 34.4396C232.433 22.3704 256 34.7136 256 55.5912V98.3673C256 125.588 232.289 146.735 205.247 143.635L151.495 137.473C132.794 135.329 117.97 120.772 115.381 102.126C113.935 91.6729 113.211 81.1324 113.216 70.5797Z" fill="url(#paint22_linear_1_487)"/>
<path d="M256 55.5911V98.3672C256 111.547 250.441 123.303 241.637 131.572C225.869 146.381 200.287 141.354 190.754 121.936C183.436 107.029 179.208 89.4313 179.208 70.5806C179.208 64.8784 179.599 59.2936 180.34 53.8603C192.693 48.7033 204.438 42.1986 215.363 34.4646C232.417 22.3874 256 34.6945 256 55.5911Z" fill="url(#paint23_linear_1_487)"/>
</g>
</g>
<defs>
<linearGradient id="paint0_linear_1_487" x1="235.352" y1="393.912" x2="259.446" y2="503.339" gradientUnits="userSpaceOnUse">
<stop stop-color="#FE7D43"/>
<stop offset="1" stop-color="#704444"/>
</linearGradient>
<linearGradient id="paint1_linear_1_487" x1="256" y1="465.328" x2="256" y2="521.86" gradientUnits="userSpaceOnUse">
<stop stop-color="#593636" stop-opacity="0"/>
<stop offset="1" stop-color="#593636"/>
</linearGradient>
<linearGradient id="paint2_linear_1_487" x1="311.622" y1="526.539" x2="279.999" y2="398.539" gradientUnits="userSpaceOnUse">
<stop stop-color="#593636" stop-opacity="0"/>
<stop offset="1" stop-color="#593636"/>
</linearGradient>
<linearGradient id="paint3_linear_1_487" x1="447.031" y1="134.297" x2="428.729" y2="188.094" gradientUnits="userSpaceOnUse">
<stop stop-color="#F89580"/>
<stop offset="1" stop-color="#C4573A"/>
</linearGradient>
<linearGradient id="paint4_linear_1_487" x1="457.803" y1="154.892" x2="414.635" y2="186.014" gradientUnits="userSpaceOnUse">
<stop stop-color="#593636" stop-opacity="0"/>
<stop offset="1" stop-color="#593636"/>
</linearGradient>
<linearGradient id="paint5_linear_1_487" x1="444.22" y1="147.092" x2="432.764" y2="180.766" gradientUnits="userSpaceOnUse">
<stop stop-color="#FFDFCF"/>
<stop offset="1" stop-color="#FFA78F"/>
</linearGradient>
<linearGradient id="paint6_linear_1_487" x1="445.297" y1="164.137" x2="420.199" y2="181.204" gradientUnits="userSpaceOnUse">
<stop stop-color="#F89580" stop-opacity="0"/>
<stop offset="0.997" stop-color="#C5715A"/>
</linearGradient>
<linearGradient id="paint7_linear_1_487" x1="40.3394" y1="132.695" x2="89.0296" y2="185.401" gradientUnits="userSpaceOnUse">
<stop stop-color="#F89580"/>
<stop offset="1" stop-color="#C4573A"/>
</linearGradient>
<linearGradient id="paint8_linear_1_487" x1="55.4437" y1="154.342" x2="84.0555" y2="177.432" gradientUnits="userSpaceOnUse">
<stop stop-color="#FFDFCF"/>
<stop offset="1" stop-color="#FFA78F"/>
</linearGradient>
<linearGradient id="paint9_linear_1_487" x1="158.26" y1="154.48" x2="367.654" y2="363.874" gradientUnits="userSpaceOnUse">
<stop stop-color="#FE7D43"/>
<stop offset="1" stop-color="#704444"/>
</linearGradient>
<linearGradient id="paint10_linear_1_487" x1="256" y1="193.423" x2="256" y2="106.375" gradientUnits="userSpaceOnUse">
<stop stop-color="#593636" stop-opacity="0"/>
<stop offset="1" stop-color="#593636"/>
</linearGradient>
<linearGradient id="paint11_linear_1_487" x1="229.937" y1="325.796" x2="284.532" y2="457.081" gradientUnits="userSpaceOnUse">
<stop stop-color="#FFDFCF"/>
<stop offset="1" stop-color="#FFA78F"/>
</linearGradient>
<linearGradient id="paint12_linear_1_487" x1="148.581" y1="253.837" x2="185.488" y2="281.004" gradientUnits="userSpaceOnUse">
<stop stop-color="#5A5A5A"/>
<stop offset="1" stop-color="#444444"/>
</linearGradient>
<linearGradient id="paint13_linear_1_487" x1="326.946" y1="252.245" x2="359.752" y2="276.85" gradientUnits="userSpaceOnUse">
<stop stop-color="#5A5A5A"/>
<stop offset="1" stop-color="#444444"/>
</linearGradient>
<linearGradient id="paint14_linear_1_487" x1="164.923" y1="354.468" x2="190.267" y2="388.757" gradientUnits="userSpaceOnUse">
<stop stop-color="#5A5A5A"/>
<stop offset="1" stop-color="#444444"/>
</linearGradient>
<linearGradient id="paint15_linear_1_487" x1="325.455" y1="353.814" x2="351.543" y2="385.121" gradientUnits="userSpaceOnUse">
<stop stop-color="#5A5A5A"/>
<stop offset="1" stop-color="#444444"/>
</linearGradient>
<linearGradient id="paint16_linear_1_487" x1="374.533" y1="39.5525" x2="390.98" y2="109.63" gradientUnits="userSpaceOnUse">
<stop stop-color="#766E6E"/>
<stop offset="1" stop-color="#5B5555"/>
</linearGradient>
<linearGradient id="paint17_linear_1_487" x1="359.657" y1="79.3127" x2="366.684" y2="147.579" gradientUnits="userSpaceOnUse">
<stop stop-color="#766E6E" stop-opacity="0"/>
<stop offset="1" stop-color="#1A1A1A"/>
</linearGradient>
<linearGradient id="paint18_linear_1_487" x1="324.054" y1="70.9683" x2="342.202" y2="151.408" gradientUnits="userSpaceOnUse">
<stop stop-color="#766E6E" stop-opacity="0"/>
<stop offset="1" stop-color="#1A1A1A"/>
</linearGradient>
<linearGradient id="paint19_linear_1_487" x1="288.298" y1="59.4843" x2="313.049" y2="148.015" gradientUnits="userSpaceOnUse">
<stop stop-color="#766E6E" stop-opacity="0"/>
<stop offset="1" stop-color="#1A1A1A"/>
</linearGradient>
<linearGradient id="paint20_linear_1_487" x1="127.398" y1="55.3131" x2="135.429" y2="125.588" gradientUnits="userSpaceOnUse">
<stop stop-color="#766E6E"/>
<stop offset="1" stop-color="#5B5555"/>
</linearGradient>
<linearGradient id="paint21_linear_1_487" x1="152.343" y1="79.3127" x2="145.315" y2="147.579" gradientUnits="userSpaceOnUse">
<stop stop-color="#766E6E" stop-opacity="0"/>
<stop offset="1" stop-color="#1A1A1A"/>
</linearGradient>
<linearGradient id="paint22_linear_1_487" x1="187.946" y1="70.9683" x2="169.798" y2="151.408" gradientUnits="userSpaceOnUse">
<stop stop-color="#766E6E" stop-opacity="0"/>
<stop offset="1" stop-color="#1A1A1A"/>
</linearGradient>
<linearGradient id="paint23_linear_1_487" x1="223.702" y1="59.4843" x2="198.951" y2="148.015" gradientUnits="userSpaceOnUse">
<stop stop-color="#766E6E" stop-opacity="0"/>
<stop offset="1" stop-color="#1A1A1A"/>
</linearGradient>
<clipPath id="clip0_1_487">
<rect width="512" height="512" fill="white"/>
</clipPath>
</defs>
</svg>
