<svg width="512" height="512" viewBox="0 0 512 512" fill="none" xmlns="http://www.w3.org/2000/svg">
<g clip-path="url(#clip0_1_562)">
<mask id="mask0_1_562" style="mask-type:luminance" maskUnits="userSpaceOnUse" x="0" y="0" width="512" height="512">
<path d="M512 0H0V512H512V0Z" fill="white"/>
</mask>
<g mask="url(#mask0_1_562)">
<path d="M444.074 512H67.9263C58.9754 512 51.719 504.744 51.719 495.793C51.719 409.323 121.817 339.225 208.287 339.225H303.714C390.184 339.225 460.282 409.323 460.282 495.793C460.282 504.744 453.026 512 444.074 512Z" fill="url(#paint0_linear_1_562)"/>
<path d="M460.278 495.797C460.278 504.742 453.03 512 444.075 512H259.012L116.194 369.172C142.035 350.339 173.869 339.225 208.284 339.225H303.716C346.955 339.225 386.088 356.754 414.419 385.084C442.75 413.415 460.278 452.558 460.278 495.797Z" fill="url(#paint1_linear_1_562)"/>
<path d="M51.718 495.793C51.718 504.744 58.9744 512 67.9253 512H444.074C453.025 512 460.281 504.744 460.281 495.793C460.281 472.745 455.299 450.862 446.356 431.157H65.6434C56.7005 450.861 51.718 472.745 51.718 495.793Z" fill="url(#paint2_linear_1_562)"/>
<path d="M404.538 497.616C391.752 510.32 371.08 510.299 358.324 497.545C356.736 495.954 354.99 494.53 353.112 493.296C351.938 492.529 350.846 491.642 349.853 490.652C345.517 486.316 343.324 480.187 344.298 473.977C344.118 471.736 343.896 469.581 343.553 467.513C342.815 463.086 343.143 458.546 344.511 454.271C345.879 449.995 348.248 446.108 351.42 442.932C355.151 439.204 359.853 436.596 364.991 435.404C370.129 434.212 375.499 434.484 380.49 436.189C388.541 438.928 395.946 443.287 402.247 448.998C402.775 449.475 403.297 449.967 403.81 450.459C417.047 463.255 417.601 484.635 404.538 497.616Z" fill="url(#paint3_linear_1_562)"/>
<path d="M460.282 495.793C460.282 443.847 434.977 397.817 396.029 369.337C388.376 392.241 390.753 418.587 404.781 441.06C405.06 441.507 405.342 441.95 405.627 442.389C417.565 460.773 424.978 481.636 428.362 503.292C428.822 506.218 429.402 509.124 430.103 512.001H444.076C453.025 512 460.282 504.744 460.282 495.793Z" fill="url(#paint4_linear_1_562)"/>
<path d="M139.261 494.405C142.645 472.748 150.058 451.886 161.996 433.502C162.281 433.063 162.563 432.62 162.842 432.173C180.08 404.556 179.731 371.091 164.776 345.357C99.4756 364.211 51.719 424.421 51.719 495.793C51.719 504.744 58.9754 512 67.9263 512H134.96C136.887 506.267 138.325 500.381 139.261 494.405Z" fill="url(#paint5_linear_1_562)"/>
<path d="M168.508 421.496L116.194 369.172C130.711 358.601 147.095 350.459 164.774 345.359C177.845 367.847 179.752 396.248 168.508 421.496Z" fill="url(#paint6_linear_1_562)"/>
<path d="M161.996 433.502C162.281 433.063 162.563 432.62 162.842 432.173C163.052 431.837 163.248 431.496 163.452 431.157H65.6504C56.7065 450.861 51.719 472.743 51.719 495.793C51.719 504.744 58.9754 512 67.9263 512H134.96C136.886 506.267 138.325 500.381 139.262 494.405C142.645 472.749 150.058 451.886 161.996 433.502Z" fill="url(#paint7_linear_1_562)"/>
<path d="M460.282 495.793C460.282 472.742 455.29 450.861 446.344 431.157H399.461C401.238 435.047 403.299 438.801 405.628 442.388C417.565 460.772 424.978 481.634 428.362 503.291C428.822 506.217 429.402 509.122 430.103 512H444.076C453.025 512 460.282 504.744 460.282 495.793Z" fill="url(#paint8_linear_1_562)"/>
<path d="M410.449 364.824C308.593 396.67 203.399 396.668 101.55 364.824C67.0789 354.047 45.1151 320.25 48.8648 284.329C54.1544 233.647 59.4572 199.694 64.7589 164.558C79.0326 69.9553 160.326 0 256 0C351.674 0 432.967 69.9553 447.241 164.559C452.543 199.694 457.845 233.647 463.135 284.329C466.885 320.25 444.92 354.047 410.449 364.824Z" fill="url(#paint9_linear_1_562)"/>
<path d="M228.143 2.01196C144.934 14.061 77.6242 79.2939 64.7589 164.559C59.4572 199.695 54.1545 233.648 48.8649 284.33C45.1162 320.25 67.08 354.047 101.55 364.825C143.338 377.891 185.69 385.585 228.143 387.929V2.01196Z" fill="url(#paint10_linear_1_562)"/>
<path d="M64.7589 164.559C59.4572 199.695 54.1544 233.648 48.8648 284.33C47.5857 296.536 49.2747 308.87 53.788 320.283C97.4235 307.899 140.862 281.263 176.451 241.714C231.874 180.127 254.181 102.903 241.294 39.3115C236.724 16.7624 213.019 3.41227 191.336 11.1073C125.678 34.4104 75.6625 92.2905 64.7589 164.559Z" fill="url(#paint11_linear_1_562)"/>
<path d="M64.7589 164.559C59.4572 199.695 54.1544 233.648 48.8648 284.33C47.5857 296.536 49.2747 308.87 53.788 320.283C97.4235 307.899 140.862 281.263 176.451 241.714C231.874 180.127 254.181 102.903 241.294 39.3115C236.724 16.7624 213.019 3.41227 191.336 11.1073C125.678 34.4104 75.6625 92.2905 64.7589 164.559Z" fill="url(#paint12_linear_1_562)"/>
<path d="M447.241 164.559C436.378 92.5586 386.692 34.8391 321.392 11.3684C299.136 3.36817 275.129 16.9211 270.545 40.1227C258.01 103.559 280.362 180.389 335.549 241.714C371.139 281.263 414.576 307.898 458.212 320.283C462.725 308.87 464.414 296.535 463.135 284.329C457.845 233.647 452.543 199.694 447.241 164.559Z" fill="url(#paint13_linear_1_562)"/>
<path d="M256 436.129C239.326 436.129 226.388 421.578 228.338 405.019L234.348 353.966H277.653L283.663 405.019C285.612 421.578 272.674 436.129 256 436.129Z" fill="url(#paint14_linear_1_562)"/>
<path d="M277.652 353.966H256V436.129C272.673 436.129 285.612 421.578 283.662 405.019L277.652 353.966Z" fill="url(#paint15_linear_1_562)"/>
<path d="M307.678 269.881H204.321C166.893 269.881 136.551 300.223 136.551 337.651C136.551 375.079 166.893 405.421 204.321 405.421C225.036 405.421 243.568 396.116 255.999 381.47C268.43 396.116 286.962 405.421 307.677 405.421C345.105 405.421 375.447 375.079 375.447 337.651C375.448 300.223 345.106 269.881 307.678 269.881Z" fill="url(#paint16_linear_1_562)"/>
<path d="M307.678 405.421C345.106 405.421 375.448 375.079 375.448 337.651C375.448 300.223 345.106 269.881 307.678 269.881C270.25 269.881 239.908 300.223 239.908 337.651C239.908 375.079 270.25 405.421 307.678 405.421Z" fill="url(#paint17_linear_1_562)"/>
<path d="M440.957 390.147C426.474 391.151 414.126 379.771 413.948 365.253L410.736 102.384C410.635 94.0606 422.039 91.614 425.36 99.2468L505.6 283.657C526.614 331.954 493.501 386.504 440.957 390.147Z" fill="url(#paint18_linear_1_562)"/>
<path d="M71.0425 390.147C85.5261 391.151 97.8743 379.771 98.052 365.253L101.264 102.384C101.365 94.0606 89.9614 91.614 86.6404 99.2468L6.39997 283.658C-14.6141 331.954 18.4993 386.504 71.0425 390.147Z" fill="url(#paint19_linear_1_562)"/>
<path d="M231.84 313.99L216.322 300.243C201.306 286.94 210.716 262.13 230.776 262.13H281.223C301.283 262.13 310.693 286.94 295.677 300.243L280.159 313.99C266.371 326.207 245.629 326.207 231.84 313.99Z" fill="url(#paint20_linear_1_562)"/>
<path d="M167.403 276.88C152.965 276.88 141.26 265.175 141.26 250.737V237.33C141.26 222.892 152.965 211.187 167.403 211.187C181.841 211.187 193.546 222.892 193.546 237.33V250.737C193.547 265.175 181.842 276.88 167.403 276.88Z" fill="url(#paint21_linear_1_562)"/>
<path d="M344.597 276.88C330.159 276.88 318.454 265.175 318.454 250.737V237.33C318.454 222.892 330.159 211.187 344.597 211.187C359.036 211.187 370.74 222.892 370.74 237.33V250.737C370.74 265.175 359.036 276.88 344.597 276.88Z" fill="url(#paint22_linear_1_562)"/>
<path d="M193.013 341.436C202.102 341.436 209.469 334.068 209.469 324.979C209.469 315.891 202.102 308.523 193.013 308.523C183.924 308.523 176.557 315.891 176.557 324.979C176.557 334.068 183.924 341.436 193.013 341.436Z" fill="url(#paint23_linear_1_562)"/>
<path d="M157.768 352.462C161.83 352.462 165.123 349.169 165.123 345.107C165.123 341.045 161.83 337.752 157.768 337.752C153.706 337.752 150.414 341.045 150.414 345.107C150.414 349.169 153.706 352.462 157.768 352.462Z" fill="url(#paint24_linear_1_562)"/>
<path d="M180.921 376.646C187.599 376.646 193.013 371.233 193.013 364.554C193.013 357.876 187.599 352.462 180.921 352.462C174.242 352.462 168.828 357.876 168.828 364.554C168.828 371.233 174.242 376.646 180.921 376.646Z" fill="url(#paint25_linear_1_562)"/>
<path d="M318.987 341.436C328.076 341.436 335.443 334.068 335.443 324.979C335.443 315.891 328.076 308.523 318.987 308.523C309.898 308.523 302.531 315.891 302.531 324.979C302.531 334.068 309.898 341.436 318.987 341.436Z" fill="url(#paint26_linear_1_562)"/>
<path d="M354.232 352.462C358.294 352.462 361.586 349.169 361.586 345.107C361.586 341.045 358.294 337.752 354.232 337.752C350.17 337.752 346.877 341.045 346.877 345.107C346.877 349.169 350.17 352.462 354.232 352.462Z" fill="url(#paint27_linear_1_562)"/>
<path d="M331.079 376.646C337.758 376.646 343.172 371.233 343.172 364.554C343.172 357.876 337.758 352.462 331.079 352.462C324.401 352.462 318.987 357.876 318.987 364.554C318.987 371.233 324.401 376.646 331.079 376.646Z" fill="url(#paint28_linear_1_562)"/>
</g>
</g>
<defs>
<linearGradient id="paint0_linear_1_562" x1="225.155" y1="412.836" x2="269.256" y2="509.597" gradientUnits="userSpaceOnUse">
<stop stop-color="white"/>
<stop offset="1" stop-color="#E1D3CE"/>
</linearGradient>
<linearGradient id="paint1_linear_1_562" x1="292.156" y1="459.436" x2="280.966" y2="368.599" gradientUnits="userSpaceOnUse">
<stop stop-color="#9E9797" stop-opacity="0"/>
<stop offset="0.31" stop-color="#968F8F" stop-opacity="0.31"/>
<stop offset="0.785" stop-color="#827A7A" stop-opacity="0.785"/>
<stop offset="1" stop-color="#766E6E"/>
</linearGradient>
<linearGradient id="paint2_linear_1_562" x1="256" y1="466.098" x2="256" y2="521.697" gradientUnits="userSpaceOnUse">
<stop stop-color="#9E9797" stop-opacity="0"/>
<stop offset="0.31" stop-color="#968F8F" stop-opacity="0.31"/>
<stop offset="0.785" stop-color="#827A7A" stop-opacity="0.785"/>
<stop offset="1" stop-color="#766E6E"/>
</linearGradient>
<linearGradient id="paint3_linear_1_562" x1="344.8" y1="438.52" x2="390.763" y2="484.483" gradientUnits="userSpaceOnUse">
<stop stop-color="#766E6E"/>
<stop offset="1" stop-color="#5B5555"/>
</linearGradient>
<linearGradient id="paint4_linear_1_562" x1="388.184" y1="438.18" x2="447.426" y2="444.104" gradientUnits="userSpaceOnUse">
<stop stop-color="#766E6E"/>
<stop offset="1" stop-color="#5B5555"/>
</linearGradient>
<linearGradient id="paint5_linear_1_562" x1="96.4387" y1="410.627" x2="170.491" y2="492.577" gradientUnits="userSpaceOnUse">
<stop stop-color="#FE7D43"/>
<stop offset="1" stop-color="#704444"/>
</linearGradient>
<linearGradient id="paint6_linear_1_562" x1="200.464" y1="466.155" x2="130.981" y2="339.987" gradientUnits="userSpaceOnUse">
<stop stop-color="#593636" stop-opacity="0"/>
<stop offset="1" stop-color="#593636"/>
</linearGradient>
<linearGradient id="paint7_linear_1_562" x1="107.585" y1="465.101" x2="107.585" y2="519.441" gradientUnits="userSpaceOnUse">
<stop stop-color="#593636" stop-opacity="0"/>
<stop offset="1" stop-color="#593636"/>
</linearGradient>
<linearGradient id="paint8_linear_1_562" x1="429.871" y1="459.177" x2="429.871" y2="505.585" gradientUnits="userSpaceOnUse">
<stop stop-color="#766E6E" stop-opacity="0"/>
<stop offset="1" stop-color="#1A1A1A"/>
</linearGradient>
<linearGradient id="paint9_linear_1_562" x1="127.09" y1="86.538" x2="366.791" y2="349.403" gradientUnits="userSpaceOnUse">
<stop stop-color="#F9F5F3"/>
<stop offset="1" stop-color="#EFE2DD"/>
</linearGradient>
<linearGradient id="paint10_linear_1_562" x1="145.416" y1="194.971" x2="98.0229" y2="194.971" gradientUnits="userSpaceOnUse">
<stop stop-color="#9E9797" stop-opacity="0"/>
<stop offset="0.31" stop-color="#968F8F" stop-opacity="0.31"/>
<stop offset="0.785" stop-color="#827A7A" stop-opacity="0.785"/>
<stop offset="1" stop-color="#766E6E"/>
</linearGradient>
<linearGradient id="paint11_linear_1_562" x1="96.5671" y1="134.467" x2="211.101" y2="223.33" gradientUnits="userSpaceOnUse">
<stop stop-color="#FE7D43"/>
<stop offset="1" stop-color="#704444"/>
</linearGradient>
<linearGradient id="paint12_linear_1_562" x1="132.344" y1="162.487" x2="76.064" y2="182.234" gradientUnits="userSpaceOnUse">
<stop stop-color="#593636" stop-opacity="0"/>
<stop offset="1" stop-color="#593636"/>
</linearGradient>
<linearGradient id="paint13_linear_1_562" x1="307.264" y1="84.8193" x2="439.57" y2="233.911" gradientUnits="userSpaceOnUse">
<stop stop-color="#FE7D43"/>
<stop offset="1" stop-color="#704444"/>
</linearGradient>
<linearGradient id="paint14_linear_1_562" x1="244.466" y1="385.273" x2="277.049" y2="402.059" gradientUnits="userSpaceOnUse">
<stop stop-color="#FEAEE1"/>
<stop offset="1" stop-color="#FE5694"/>
</linearGradient>
<linearGradient id="paint15_linear_1_562" x1="281.578" y1="403.199" x2="244.058" y2="382.465" gradientUnits="userSpaceOnUse">
<stop stop-color="#FE0364" stop-opacity="0"/>
<stop offset="0.399" stop-color="#F70360" stop-opacity="0.399"/>
<stop offset="0.974" stop-color="#E40257" stop-opacity="0.974"/>
<stop offset="1" stop-color="#E30256"/>
</linearGradient>
<linearGradient id="paint16_linear_1_562" x1="254.186" y1="331.754" x2="269.984" y2="383.097" gradientUnits="userSpaceOnUse">
<stop stop-color="white"/>
<stop offset="1" stop-color="#E1D3CE"/>
</linearGradient>
<linearGradient id="paint17_linear_1_562" x1="303.391" y1="364.693" x2="294.834" y2="418.668" gradientUnits="userSpaceOnUse">
<stop stop-color="#9E9797" stop-opacity="0"/>
<stop offset="0.31" stop-color="#968F8F" stop-opacity="0.31"/>
<stop offset="0.785" stop-color="#827A7A" stop-opacity="0.785"/>
<stop offset="1" stop-color="#766E6E"/>
</linearGradient>
<linearGradient id="paint18_linear_1_562" x1="395.278" y1="225.463" x2="466.368" y2="263.97" gradientUnits="userSpaceOnUse">
<stop stop-color="#766E6E"/>
<stop offset="1" stop-color="#5B5555"/>
</linearGradient>
<linearGradient id="paint19_linear_1_562" x1="55.4396" y1="229.062" x2="107.77" y2="267.569" gradientUnits="userSpaceOnUse">
<stop stop-color="#766E6E"/>
<stop offset="1" stop-color="#5B5555"/>
</linearGradient>
<linearGradient id="paint20_linear_1_562" x1="243.339" y1="271.23" x2="266.004" y2="293.896" gradientUnits="userSpaceOnUse">
<stop stop-color="#5A5A5A"/>
<stop offset="1" stop-color="#444444"/>
</linearGradient>
<linearGradient id="paint21_linear_1_562" x1="150.352" y1="231.481" x2="186.65" y2="258.201" gradientUnits="userSpaceOnUse">
<stop stop-color="#5A5A5A"/>
<stop offset="1" stop-color="#444444"/>
</linearGradient>
<linearGradient id="paint22_linear_1_562" x1="325.776" y1="229.917" x2="358.04" y2="254.116" gradientUnits="userSpaceOnUse">
<stop stop-color="#5A5A5A"/>
<stop offset="1" stop-color="#444444"/>
</linearGradient>
<linearGradient id="paint23_linear_1_562" x1="154.594" y1="286.56" x2="275.738" y2="407.704" gradientUnits="userSpaceOnUse">
<stop stop-color="#9E9797" stop-opacity="0"/>
<stop offset="0.31" stop-color="#968F8F" stop-opacity="0.31"/>
<stop offset="0.785" stop-color="#827A7A" stop-opacity="0.785"/>
<stop offset="1" stop-color="#766E6E"/>
</linearGradient>
<linearGradient id="paint24_linear_1_562" x1="126.908" y1="314.247" x2="248.052" y2="435.391" gradientUnits="userSpaceOnUse">
<stop stop-color="#9E9797" stop-opacity="0"/>
<stop offset="0.31" stop-color="#968F8F" stop-opacity="0.31"/>
<stop offset="0.785" stop-color="#827A7A" stop-opacity="0.785"/>
<stop offset="1" stop-color="#766E6E"/>
</linearGradient>
<linearGradient id="paint25_linear_1_562" x1="128.76" y1="312.393" x2="249.905" y2="433.538" gradientUnits="userSpaceOnUse">
<stop stop-color="#9E9797" stop-opacity="0"/>
<stop offset="0.31" stop-color="#968F8F" stop-opacity="0.31"/>
<stop offset="0.785" stop-color="#827A7A" stop-opacity="0.785"/>
<stop offset="1" stop-color="#766E6E"/>
</linearGradient>
<linearGradient id="paint26_linear_1_562" x1="280.442" y1="286.435" x2="461.811" y2="467.804" gradientUnits="userSpaceOnUse">
<stop stop-color="#9E9797" stop-opacity="0"/>
<stop offset="0.31" stop-color="#968F8F" stop-opacity="0.31"/>
<stop offset="0.785" stop-color="#827A7A" stop-opacity="0.785"/>
<stop offset="1" stop-color="#766E6E"/>
</linearGradient>
<linearGradient id="paint27_linear_1_562" x1="288.001" y1="278.877" x2="469.369" y2="460.246" gradientUnits="userSpaceOnUse">
<stop stop-color="#9E9797" stop-opacity="0"/>
<stop offset="0.31" stop-color="#968F8F" stop-opacity="0.31"/>
<stop offset="0.785" stop-color="#827A7A" stop-opacity="0.785"/>
<stop offset="1" stop-color="#766E6E"/>
</linearGradient>
<linearGradient id="paint28_linear_1_562" x1="266.701" y1="300.177" x2="448.07" y2="481.545" gradientUnits="userSpaceOnUse">
<stop stop-color="#9E9797" stop-opacity="0"/>
<stop offset="0.31" stop-color="#968F8F" stop-opacity="0.31"/>
<stop offset="0.785" stop-color="#827A7A" stop-opacity="0.785"/>
<stop offset="1" stop-color="#766E6E"/>
</linearGradient>
<clipPath id="clip0_1_562">
<rect width="512" height="512" fill="white"/>
</clipPath>
</defs>
</svg>
