<svg width="512" height="512" viewBox="0 0 512 512" fill="none" xmlns="http://www.w3.org/2000/svg">
<g clip-path="url(#clip0_1_596)">
<mask id="mask0_1_596" style="mask-type:luminance" maskUnits="userSpaceOnUse" x="0" y="0" width="512" height="512">
<path d="M512 0H0V512H512V0Z" fill="white"/>
</mask>
<g mask="url(#mask0_1_596)">
<path d="M428.339 443.203C424.4 443.208 420.617 441.664 417.806 438.905L354.224 376.662C348.281 370.845 348.179 361.31 353.997 355.367C359.814 349.425 369.348 349.322 375.292 355.14L438.874 417.383C444.818 423.201 444.919 432.735 439.101 438.678C437.7 440.113 436.026 441.253 434.178 442.03C432.33 442.807 430.344 443.206 428.339 443.203Z" fill="url(#paint0_linear_1_596)"/>
<path d="M428.339 443.203C424.4 443.208 420.617 441.664 417.806 438.905L354.224 376.662C348.281 370.845 348.179 361.31 353.997 355.367C359.814 349.425 369.348 349.322 375.292 355.14L438.874 417.383C444.818 423.201 444.919 432.735 439.101 438.678C437.7 440.113 436.026 441.253 434.178 442.03C432.33 442.807 430.344 443.206 428.339 443.203Z" fill="url(#paint1_linear_1_596)"/>
<path d="M473.832 414.427C466.584 414.427 460.195 409.178 458.989 401.792L456.877 388.853C454.805 376.121 449.046 364.276 440.312 354.784C431.578 345.291 420.252 338.568 407.737 335.446L384.532 329.645C376.464 327.629 371.557 319.454 373.575 311.385C375.592 303.317 383.771 298.412 391.836 300.428L415.04 306.229C433.266 310.775 449.759 320.565 462.478 334.388C475.197 348.211 483.584 365.46 486.6 384.001L488.712 396.94C490.052 405.148 484.485 412.889 476.276 414.229C475.456 414.361 474.639 414.427 473.832 414.427Z" fill="url(#paint2_linear_1_596)"/>
<path d="M473.832 414.427C466.584 414.427 460.195 409.178 458.989 401.792L456.877 388.853C454.805 376.121 449.046 364.276 440.312 354.784C431.578 345.291 420.252 338.568 407.737 335.446L384.532 329.645C376.464 327.629 371.557 319.454 373.575 311.385C375.592 303.317 383.771 298.412 391.836 300.428L415.04 306.229C433.266 310.775 449.759 320.565 462.478 334.388C475.197 348.211 483.584 365.46 486.6 384.001L488.712 396.94C490.052 405.148 484.485 412.889 476.276 414.229C475.456 414.361 474.639 414.427 473.832 414.427Z" fill="url(#paint3_linear_1_596)"/>
<path d="M496.597 338.799C489.912 338.799 483.807 334.315 482.037 327.544L470.127 281.976L416.114 291.068C407.909 292.445 400.146 286.918 398.766 278.717C397.385 270.516 402.915 262.748 411.117 261.368L465.335 252.242C480.697 249.655 495.272 259.076 499.214 274.159L511.177 319.929C513.28 327.975 508.462 336.203 500.415 338.306C499.168 338.633 497.885 338.799 496.597 338.799Z" fill="url(#paint4_linear_1_596)"/>
<path d="M496.597 338.799C489.912 338.799 483.807 334.315 482.037 327.544L470.127 281.976L416.114 291.068C407.909 292.445 400.146 286.918 398.766 278.717C397.385 270.516 402.915 262.748 411.117 261.368L465.335 252.242C480.697 249.655 495.272 259.076 499.214 274.159L511.177 319.929C513.28 327.975 508.462 336.203 500.415 338.306C499.168 338.633 497.885 338.799 496.597 338.799Z" fill="url(#paint5_linear_1_596)"/>
<path d="M83.6608 443.203C81.6557 443.206 79.6704 442.807 77.822 442.029C75.9736 441.252 74.2996 440.113 72.8987 438.678C67.081 432.735 67.1824 423.201 73.1256 417.383L136.708 355.14C142.65 349.321 152.184 349.425 158.003 355.367C163.821 361.31 163.72 370.844 157.776 376.662L94.1939 438.905C91.3828 441.664 87.5997 443.208 83.6608 443.203Z" fill="url(#paint6_linear_1_596)"/>
<path d="M83.6608 443.203C81.6557 443.206 79.6704 442.807 77.822 442.029C75.9736 441.252 74.2996 440.113 72.8987 438.678C67.081 432.735 67.1824 423.201 73.1256 417.383L136.708 355.14C142.65 349.321 152.184 349.425 158.003 355.367C163.821 361.31 163.72 370.844 157.776 376.662L94.1939 438.905C91.3828 441.664 87.5997 443.208 83.6608 443.203Z" fill="url(#paint7_linear_1_596)"/>
<path d="M38.1681 414.427C37.361 414.427 36.5448 414.363 35.7226 414.228C27.5145 412.888 21.9468 405.148 23.287 396.94L25.3992 384C28.4154 365.46 36.8019 348.21 49.5209 334.387C62.2398 320.564 78.7328 310.774 96.9588 306.228L120.163 300.428C128.226 298.407 136.408 303.315 138.424 311.384C140.442 319.453 135.535 327.629 127.467 329.645L104.262 335.445C91.7466 338.567 80.4209 345.29 71.6869 354.783C62.9528 364.275 57.1938 376.12 55.1223 388.852L53.0101 401.792C51.8054 409.178 45.4154 414.427 38.1681 414.427Z" fill="url(#paint8_linear_1_596)"/>
<path d="M38.1681 414.427C37.361 414.427 36.5448 414.363 35.7226 414.228C27.5145 412.888 21.9468 405.148 23.287 396.94L25.3992 384C28.4154 365.46 36.8019 348.21 49.5209 334.387C62.2398 320.564 78.7328 310.774 96.9588 306.228L120.163 300.428C128.226 298.407 136.408 303.315 138.424 311.384C140.442 319.453 135.535 327.629 127.467 329.645L104.262 335.445C91.7466 338.567 80.4209 345.29 71.6869 354.783C62.9528 364.275 57.1938 376.12 55.1223 388.852L53.0101 401.792C51.8054 409.178 45.4154 414.427 38.1681 414.427Z" fill="url(#paint9_linear_1_596)"/>
<path d="M15.4033 338.799C14.1423 338.799 12.8623 338.64 11.5853 338.306C3.53787 336.203 -1.27894 327.975 0.823267 319.929L12.786 274.159C16.7274 259.076 31.2933 249.655 46.6674 252.242L100.883 261.368C109.085 262.748 114.615 270.516 113.234 278.717C111.854 286.918 104.088 292.448 95.8857 291.068L41.8727 281.976L29.9631 327.544C28.1932 334.314 22.0874 338.798 15.4033 338.799Z" fill="url(#paint10_linear_1_596)"/>
<path d="M15.4033 338.799C14.1423 338.799 12.8623 338.64 11.5853 338.306C3.53787 336.203 -1.27894 327.975 0.823267 319.929L12.786 274.159C16.7274 259.076 31.2933 249.655 46.6674 252.242L100.883 261.368C109.085 262.748 114.615 270.516 113.234 278.717C111.854 286.918 104.088 292.448 95.8857 291.068L41.8727 281.976L29.9631 327.544C28.1932 334.314 22.0874 338.798 15.4033 338.799Z" fill="url(#paint11_linear_1_596)"/>
<path d="M387.185 271.494C372.496 264.792 365.593 247.789 371.453 232.744L404.762 147.223C412.195 128.139 434.143 119.228 452.777 127.729C471.409 136.23 479.064 158.647 469.523 176.77L426.764 257.98C419.241 272.266 401.875 278.196 387.185 271.494Z" fill="url(#paint12_linear_1_596)"/>
<path d="M492.124 96.8643L466.318 113.117C460.697 116.657 453.287 113.3 452.242 106.74L447.444 76.6193C446.595 71.2874 441.368 67.7566 436.133 69.0748C418.699 73.4619 403.36 85.4759 395.385 103.139C381.545 133.79 395.177 169.929 425.809 183.807C456.497 197.71 492.647 184.104 506.55 153.416C514.52 135.824 513.448 116.439 505.301 100.477C502.829 95.6335 496.724 93.968 492.124 96.8643Z" fill="url(#paint13_linear_1_596)"/>
<path d="M124.815 271.494C139.504 264.792 146.407 247.789 140.547 232.744L107.238 147.223C99.8049 128.139 77.8571 119.228 59.2233 127.729C40.5905 136.23 32.9356 158.647 42.4769 176.77L85.2359 257.98C92.7593 272.266 110.125 278.196 124.815 271.494Z" fill="url(#paint14_linear_1_596)"/>
<path d="M19.8756 96.8643L45.6825 113.117C51.3034 116.657 58.7134 113.3 59.7584 106.74L64.5562 76.6193C65.4055 71.2874 70.6319 67.7566 75.8674 69.0748C93.3015 73.4619 108.64 85.4759 116.616 103.139C130.455 133.79 116.823 169.929 86.1907 183.807C55.5028 197.71 19.3546 184.104 5.4503 153.416C-2.51983 135.824 -1.44765 116.439 6.69918 100.477C9.17083 95.6335 15.2757 93.968 19.8756 96.8643Z" fill="url(#paint15_linear_1_596)"/>
<path d="M402.062 368.192L407.953 362.625C479.626 294.89 418.895 175.467 321.941 193.483C278.354 201.583 233.647 201.583 190.06 193.483C93.1047 175.466 32.3755 294.89 104.049 362.625L109.94 368.192C191.907 445.656 320.093 445.656 402.062 368.192Z" fill="url(#paint16_linear_1_596)"/>
<path d="M321.941 193.484C278.354 201.583 233.647 201.583 190.06 193.484C174.165 190.53 159.252 191.29 145.728 194.891C148.805 250.297 196.998 294.322 256.001 294.322C315.005 294.322 363.197 250.297 366.274 194.891C352.748 191.289 337.836 190.529 321.941 193.484Z" fill="url(#paint17_linear_1_596)"/>
<path d="M165.917 217.625C151.237 217.625 139.335 205.724 139.335 191.043V177.412C139.335 162.732 151.236 150.83 165.917 150.83C180.598 150.83 192.499 162.732 192.499 177.412V191.043C192.499 205.724 180.598 217.625 165.917 217.625Z" fill="url(#paint18_linear_1_596)"/>
<path d="M346.083 217.625C331.402 217.625 319.501 205.724 319.501 191.043V177.412C319.501 162.732 331.402 150.83 346.083 150.83C360.763 150.83 372.665 162.732 372.665 177.412V191.043C372.665 205.724 360.763 217.625 346.083 217.625Z" fill="url(#paint19_linear_1_596)"/>
<path d="M452.242 106.739L447.444 76.6183C446.595 71.2865 441.368 67.7557 436.133 69.0738C418.699 73.4609 403.36 85.4749 395.385 103.138C386.855 122.03 388.773 142.999 398.663 159.563L466.319 113.117C460.697 116.657 453.287 113.3 452.242 106.739Z" fill="url(#paint20_linear_1_596)"/>
<path d="M116.617 103.138C108.641 85.475 93.3014 73.4611 75.8683 69.0739C70.6329 67.7568 65.4065 71.2876 64.5572 76.6184L59.7594 106.739C58.7806 112.885 52.216 116.219 46.7687 113.705L117.21 151.917C123.566 136.818 123.879 119.224 116.617 103.138Z" fill="url(#paint21_linear_1_596)"/>
</g>
</g>
<defs>
<linearGradient id="paint0_linear_1_596" x1="402.509" y1="389.572" x2="386.447" y2="409.65" gradientUnits="userSpaceOnUse">
<stop stop-color="#FD4755"/>
<stop offset="1" stop-color="#A72B2B"/>
</linearGradient>
<linearGradient id="paint1_linear_1_596" x1="407.603" y1="400.924" x2="362.092" y2="384.861" gradientUnits="userSpaceOnUse">
<stop stop-color="#A72B2B" stop-opacity="0"/>
<stop offset="1" stop-color="#42210B"/>
</linearGradient>
<linearGradient id="paint2_linear_1_596" x1="446.834" y1="331.777" x2="428.094" y2="361.894" gradientUnits="userSpaceOnUse">
<stop stop-color="#FD4755"/>
<stop offset="1" stop-color="#A72B2B"/>
</linearGradient>
<linearGradient id="paint3_linear_1_596" x1="457.375" y1="361.258" x2="413.871" y2="354.565" gradientUnits="userSpaceOnUse">
<stop stop-color="#A72B2B" stop-opacity="0"/>
<stop offset="1" stop-color="#42210B"/>
</linearGradient>
<linearGradient id="paint4_linear_1_596" x1="468.01" y1="259.558" x2="447.932" y2="322.471" gradientUnits="userSpaceOnUse">
<stop stop-color="#FD4755"/>
<stop offset="1" stop-color="#A72B2B"/>
</linearGradient>
<linearGradient id="paint5_linear_1_596" x1="471.831" y1="295.936" x2="422.973" y2="298.612" gradientUnits="userSpaceOnUse">
<stop stop-color="#A72B2B" stop-opacity="0"/>
<stop offset="1" stop-color="#42210B"/>
</linearGradient>
<linearGradient id="paint6_linear_1_596" x1="106.572" y1="386.875" x2="129.997" y2="413.647" gradientUnits="userSpaceOnUse">
<stop stop-color="#FD4755"/>
<stop offset="1" stop-color="#A72B2B"/>
</linearGradient>
<linearGradient id="paint7_linear_1_596" x1="98.3461" y1="405.1" x2="146.534" y2="382.344" gradientUnits="userSpaceOnUse">
<stop stop-color="#A72B2B" stop-opacity="0"/>
<stop offset="1" stop-color="#42210B"/>
</linearGradient>
<linearGradient id="paint8_linear_1_596" x1="58.9623" y1="333.743" x2="89.7486" y2="366.538" gradientUnits="userSpaceOnUse">
<stop stop-color="#FD4755"/>
<stop offset="1" stop-color="#A72B2B"/>
</linearGradient>
<linearGradient id="paint9_linear_1_596" x1="52.4248" y1="358.857" x2="98.6052" y2="356.179" gradientUnits="userSpaceOnUse">
<stop stop-color="#A72B2B" stop-opacity="0"/>
<stop offset="1" stop-color="#42210B"/>
</linearGradient>
<linearGradient id="paint10_linear_1_596" x1="39.8949" y1="257.216" x2="60.642" y2="309.42" gradientUnits="userSpaceOnUse">
<stop stop-color="#FD4755"/>
<stop offset="1" stop-color="#A72B2B"/>
</linearGradient>
<linearGradient id="paint11_linear_1_596" x1="34.9135" y1="291.773" x2="85.1096" y2="310.512" gradientUnits="userSpaceOnUse">
<stop stop-color="#A72B2B" stop-opacity="0"/>
<stop offset="1" stop-color="#42210B"/>
</linearGradient>
<linearGradient id="paint12_linear_1_596" x1="404.962" y1="182.943" x2="442.441" y2="223.769" gradientUnits="userSpaceOnUse">
<stop stop-color="#FD4755"/>
<stop offset="1" stop-color="#A72B2B"/>
</linearGradient>
<linearGradient id="paint13_linear_1_596" x1="430.152" y1="94.3154" x2="479.679" y2="175.299" gradientUnits="userSpaceOnUse">
<stop stop-color="#FD4755"/>
<stop offset="1" stop-color="#A72B2B"/>
</linearGradient>
<linearGradient id="paint14_linear_1_596" x1="104.677" y1="185.614" x2="63.8504" y2="229.787" gradientUnits="userSpaceOnUse">
<stop stop-color="#FD4755"/>
<stop offset="1" stop-color="#A72B2B"/>
</linearGradient>
<linearGradient id="paint15_linear_1_596" x1="41.8625" y1="108.655" x2="101.428" y2="169.559" gradientUnits="userSpaceOnUse">
<stop stop-color="#FD4755"/>
<stop offset="1" stop-color="#A72B2B"/>
</linearGradient>
<linearGradient id="paint16_linear_1_596" x1="200.513" y1="195.69" x2="343.07" y2="440.646" gradientUnits="userSpaceOnUse">
<stop stop-color="#FD4755"/>
<stop offset="1" stop-color="#A72B2B"/>
</linearGradient>
<linearGradient id="paint17_linear_1_596" x1="256" y1="214.673" x2="256" y2="329.122" gradientUnits="userSpaceOnUse">
<stop stop-color="#FD4755"/>
<stop offset="1" stop-color="#A72B2B"/>
</linearGradient>
<linearGradient id="paint18_linear_1_596" x1="148.58" y1="171.465" x2="185.488" y2="198.633" gradientUnits="userSpaceOnUse">
<stop stop-color="#5A5A5A"/>
<stop offset="1" stop-color="#444444"/>
</linearGradient>
<linearGradient id="paint19_linear_1_596" x1="326.946" y1="169.874" x2="359.752" y2="194.479" gradientUnits="userSpaceOnUse">
<stop stop-color="#5A5A5A"/>
<stop offset="1" stop-color="#444444"/>
</linearGradient>
<linearGradient id="paint20_linear_1_596" x1="424.993" y1="114.18" x2="483.221" y2="114.18" gradientUnits="userSpaceOnUse">
<stop stop-color="#A72B2B" stop-opacity="0"/>
<stop offset="1" stop-color="#42210B"/>
</linearGradient>
<linearGradient id="paint21_linear_1_596" x1="80.4111" y1="109.004" x2="20.1758" y2="103.65" gradientUnits="userSpaceOnUse">
<stop stop-color="#A72B2B" stop-opacity="0"/>
<stop offset="1" stop-color="#42210B"/>
</linearGradient>
<clipPath id="clip0_1_596">
<rect width="512" height="512" fill="white"/>
</clipPath>
</defs>
</svg>
