<svg width="512" height="512" viewBox="0 0 512 512" fill="none" xmlns="http://www.w3.org/2000/svg">
<g clip-path="url(#clip0_1_623)">
<mask id="mask0_1_623" style="mask-type:luminance" maskUnits="userSpaceOnUse" x="0" y="0" width="512" height="512">
<path d="M512 0H0V512H512V0Z" fill="white"/>
</mask>
<g mask="url(#mask0_1_623)">
<path d="M447.229 512H64.771C55.6694 512 48.2916 504.622 48.2916 495.521C48.2916 407.6 119.565 336.327 207.485 336.327H304.515C392.435 336.327 463.708 407.6 463.708 495.521C463.708 504.622 456.331 512 447.229 512Z" fill="url(#paint0_linear_1_623)"/>
<path d="M463.701 495.526C463.701 500.064 461.864 504.2 458.883 507.171C457.355 508.706 455.538 509.923 453.538 510.751C451.537 511.58 449.392 512.005 447.227 512H237.448L101.868 376.411C129.968 351.473 166.962 336.334 207.48 336.334H304.52C392.433 336.334 463.701 407.602 463.701 495.526Z" fill="url(#paint1_linear_1_623)"/>
<path d="M48.2916 495.52C48.2916 504.622 55.6694 512 64.771 512H447.229C456.331 512 463.708 504.622 463.708 495.52C463.708 472.086 458.643 449.836 449.55 429.801H62.4499C53.3574 449.836 48.2916 472.086 48.2916 495.52Z" fill="url(#paint2_linear_1_623)"/>
<path d="M463.708 495.521C463.708 407.6 392.435 336.327 304.515 336.327H243.773L136.913 443.186L205.727 512H447.229C456.331 512 463.708 504.622 463.708 495.521Z" fill="url(#paint3_linear_1_623)"/>
<path d="M512 107.931C512 48.3218 465.076 0 407.192 0C349.307 0 302.383 48.3218 302.383 107.931C302.383 123.347 305.522 138.007 311.179 151.272C319.92 171.774 324.758 193.759 324.359 216.043C324.35 216.577 324.345 217.11 324.345 217.644C324.345 264.762 361.437 302.958 407.192 302.958C452.946 302.958 490.038 264.762 490.038 217.644C490.038 217.109 490.033 216.575 490.024 216.043C489.626 193.759 494.464 171.774 503.205 151.272C508.861 138.007 512 123.347 512 107.931Z" fill="url(#paint4_linear_1_623)"/>
<path d="M512 107.931C512 48.3218 465.076 0 407.192 0C349.307 0 302.383 48.3218 302.383 107.931C302.383 123.347 305.522 138.007 311.179 151.272C319.92 171.774 324.758 193.759 324.359 216.043C324.35 216.577 324.345 217.11 324.345 217.644C324.345 264.762 361.437 302.958 407.192 302.958C452.946 302.958 490.038 264.762 490.038 217.644C490.038 217.109 490.033 216.575 490.024 216.043C489.626 193.759 494.464 171.774 503.205 151.272C508.861 138.007 512 123.347 512 107.931Z" fill="url(#paint5_linear_1_623)"/>
<path d="M478.996 121.644C478.996 80.8065 446.848 47.7002 407.192 47.7002C367.536 47.7002 335.387 80.8055 335.387 121.644C335.387 132.205 337.537 142.25 341.413 151.338C347.401 165.384 350.716 180.446 350.443 195.713C350.436 196.079 350.433 196.444 350.433 196.811C350.433 229.092 375.845 255.26 407.192 255.26C438.538 255.26 463.95 229.091 463.95 196.811C463.95 196.444 463.947 196.078 463.94 195.713C463.667 180.447 466.982 165.384 472.971 151.338C476.846 142.25 478.996 132.205 478.996 121.644Z" fill="url(#paint6_linear_1_623)"/>
<path d="M478.996 121.644C478.996 80.8065 446.848 47.7002 407.192 47.7002C367.536 47.7002 335.387 80.8055 335.387 121.644C335.387 132.205 337.537 142.25 341.413 151.338C347.401 165.384 350.716 180.446 350.443 195.713C350.436 196.079 350.433 196.444 350.433 196.811C350.433 229.092 375.845 255.26 407.192 255.26C438.538 255.26 463.95 229.091 463.95 196.811C463.95 196.444 463.947 196.078 463.94 195.713C463.667 180.447 466.982 165.384 472.971 151.338C476.846 142.25 478.996 132.205 478.996 121.644Z" fill="url(#paint7_linear_1_623)"/>
<path d="M209.617 107.931C209.617 48.3218 162.693 0 104.808 0C46.9243 0 0 48.3218 0 107.931C0 123.347 3.13926 138.007 8.79536 151.272C17.5365 171.774 22.3744 193.759 21.9758 216.043C21.9666 216.577 21.9619 217.11 21.9618 217.644C21.9618 264.762 59.0537 302.958 104.808 302.958C150.563 302.958 187.655 264.762 187.655 217.644C187.655 217.109 187.65 216.575 187.641 216.043C187.242 193.759 192.08 171.774 200.821 151.272C206.478 138.007 209.617 123.347 209.617 107.931Z" fill="url(#paint8_linear_1_623)"/>
<path d="M176.613 121.644C176.613 80.8065 144.464 47.7002 104.808 47.7002C65.1525 47.7002 33.0039 80.8055 33.0039 121.644C33.0039 132.205 35.1543 142.25 39.0294 151.338C45.0178 165.384 48.3328 180.446 48.0597 195.713C48.0527 196.079 48.0497 196.444 48.0497 196.811C48.0497 229.092 73.4619 255.26 104.808 255.26C136.155 255.26 161.567 229.091 161.567 196.811C161.567 196.444 161.564 196.078 161.557 195.713C161.284 180.447 164.599 165.384 170.587 151.338C174.462 142.25 176.613 132.205 176.613 121.644Z" fill="url(#paint9_linear_1_623)"/>
<path d="M400.932 380.005C305.353 409.889 206.641 409.887 111.068 380.005C78.7216 369.892 58.111 338.178 61.6298 304.47C66.5932 256.912 71.5696 225.051 76.544 192.08C89.9384 103.308 166.221 37.6631 256 37.6631C345.779 37.6631 422.062 103.308 435.456 192.081C440.43 225.052 445.407 256.913 450.371 304.47C453.889 338.178 433.279 369.892 400.932 380.005Z" fill="url(#paint10_linear_1_623)"/>
<path d="M165.917 303.814C151.237 303.814 139.335 291.912 139.335 277.232V263.6C139.335 248.92 151.236 237.018 165.917 237.018C180.597 237.018 192.499 248.92 192.499 263.6V277.231C192.499 291.913 180.597 303.814 165.917 303.814Z" fill="url(#paint11_linear_1_623)"/>
<path d="M346.083 303.814C331.401 303.814 319.501 291.912 319.501 277.232V263.6C319.501 248.92 331.401 237.018 346.083 237.018C360.763 237.018 372.665 248.92 372.665 263.6V277.231C372.665 291.913 360.763 303.814 346.083 303.814Z" fill="url(#paint12_linear_1_623)"/>
<path d="M182.362 345.72C202.051 326.031 235.785 341.346 233.676 369.111C232.225 388.209 224.197 406.901 209.59 421.507C190.985 440.111 165.749 448.04 141.492 445.3C134.207 444.476 131.839 435.006 137.837 430.793C141.781 428.021 145.478 424.912 148.886 421.502C164.189 406.198 172.272 386.402 173.128 366.357C173.45 358.816 176.446 351.637 181.784 346.299L182.362 345.72Z" fill="url(#paint13_linear_1_623)"/>
<path d="M329.638 345.72C309.949 326.031 276.215 341.346 278.324 369.111C279.775 388.209 287.804 406.901 302.41 421.507C321.015 440.111 346.25 448.04 370.508 445.3C377.793 444.476 380.161 435.006 374.163 430.793C370.218 428.021 366.522 424.912 363.114 421.502C347.811 406.198 339.728 386.402 338.872 366.357C338.549 358.816 335.554 351.637 330.216 346.299L329.638 345.72Z" fill="url(#paint14_linear_1_623)"/>
<path d="M329.638 345.72C309.949 326.031 276.215 341.346 278.324 369.111C279.775 388.209 287.804 406.901 302.41 421.507C321.015 440.111 346.25 448.04 370.508 445.3C377.793 444.476 380.161 435.006 374.163 430.793C370.218 428.021 366.522 424.912 363.114 421.502C347.811 406.198 339.728 386.402 338.872 366.357C338.549 358.816 335.554 351.637 330.216 346.299L329.638 345.72Z" fill="url(#paint15_linear_1_623)"/>
<path d="M269.523 498.197L268.914 498.349C253.008 502.299 236.525 494.23 229.989 479.202C202.445 415.858 197.335 349.723 214.419 284.576C219.067 266.85 237.226 256.247 255.011 260.664L281.885 267.338C301.531 272.217 312.462 293.225 305.148 312.101C286.64 359.871 283.075 409.164 294.237 458.22C298.291 476.031 287.251 493.794 269.523 498.197Z" fill="url(#paint16_linear_1_623)"/>
<path d="M256 340.003C237.619 340.003 220.234 343.452 204.769 349.587C203.209 393.287 211.582 436.867 229.99 479.202C236.526 494.23 253.009 502.299 268.914 498.348L269.523 498.197C287.251 493.794 298.291 476.031 294.238 458.22C285.648 420.468 285.789 382.577 294.741 345.348C282.618 341.889 269.582 340.003 256 340.003Z" fill="url(#paint17_linear_1_623)"/>
<path d="M208.394 406.533C212.409 431.018 219.6 455.309 229.989 479.202C236.525 494.231 253.008 502.299 268.912 498.349L269.522 498.197C287.25 493.794 298.29 476.032 294.237 458.22C289.967 439.451 287.858 420.647 287.914 401.907C277.77 399.575 267.065 398.326 255.999 398.326C239.042 398.326 222.932 401.261 208.394 406.533Z" fill="url(#paint18_linear_1_623)"/>
<path d="M222.576 460.593C224.854 466.872 227.326 473.078 229.989 479.202C236.525 494.231 253.008 502.299 268.912 498.349L269.522 498.197C285.984 494.108 296.67 478.5 294.869 462.03C282.709 458.549 269.629 456.649 255.999 456.649C244.383 456.649 233.166 458.031 222.576 460.593Z" fill="url(#paint19_linear_1_623)"/>
</g>
</g>
<defs>
<linearGradient id="paint0_linear_1_623" x1="205.577" y1="376.45" x2="269.931" y2="507.169" gradientUnits="userSpaceOnUse">
<stop stop-color="#B9ACAC"/>
<stop offset="1" stop-color="#766E6E"/>
</linearGradient>
<linearGradient id="paint1_linear_1_623" x1="282.785" y1="467.828" x2="282.785" y2="354.05" gradientUnits="userSpaceOnUse">
<stop stop-color="#766E6E" stop-opacity="0"/>
<stop offset="1" stop-color="#1A1A1A"/>
</linearGradient>
<linearGradient id="paint2_linear_1_623" x1="256" y1="465.328" x2="256" y2="521.859" gradientUnits="userSpaceOnUse">
<stop stop-color="#766E6E" stop-opacity="0"/>
<stop offset="1" stop-color="#1A1A1A"/>
</linearGradient>
<linearGradient id="paint3_linear_1_623" x1="310.586" y1="487.001" x2="273.441" y2="376.068" gradientUnits="userSpaceOnUse">
<stop stop-color="#766E6E" stop-opacity="0"/>
<stop offset="1" stop-color="#1A1A1A"/>
</linearGradient>
<linearGradient id="paint4_linear_1_623" x1="328.04" y1="59.4683" x2="479.134" y2="225.164" gradientUnits="userSpaceOnUse">
<stop stop-color="#B9ACAC"/>
<stop offset="1" stop-color="#766E6E"/>
</linearGradient>
<linearGradient id="paint5_linear_1_623" x1="418.454" y1="141.127" x2="367.254" y2="177.268" gradientUnits="userSpaceOnUse">
<stop stop-color="#766E6E" stop-opacity="0"/>
<stop offset="1" stop-color="#1A1A1A"/>
</linearGradient>
<linearGradient id="paint6_linear_1_623" x1="352.965" y1="88.4423" x2="456.48" y2="201.961" gradientUnits="userSpaceOnUse">
<stop stop-color="#FFDFCF"/>
<stop offset="1" stop-color="#FFA78F"/>
</linearGradient>
<linearGradient id="paint7_linear_1_623" x1="448.004" y1="121.361" x2="384.757" y2="165.533" gradientUnits="userSpaceOnUse">
<stop stop-color="#F89580" stop-opacity="0"/>
<stop offset="0.997" stop-color="#C5715A"/>
</linearGradient>
<linearGradient id="paint8_linear_1_623" x1="25.6572" y1="59.4683" x2="176.75" y2="225.164" gradientUnits="userSpaceOnUse">
<stop stop-color="#B9ACAC"/>
<stop offset="1" stop-color="#766E6E"/>
</linearGradient>
<linearGradient id="paint9_linear_1_623" x1="50.5816" y1="88.4423" x2="154.097" y2="201.961" gradientUnits="userSpaceOnUse">
<stop stop-color="#FFDFCF"/>
<stop offset="1" stop-color="#FFA78F"/>
</linearGradient>
<linearGradient id="paint10_linear_1_623" x1="130.626" y1="124.471" x2="370.564" y2="363.405" gradientUnits="userSpaceOnUse">
<stop stop-color="#B9ACAC"/>
<stop offset="1" stop-color="#766E6E"/>
</linearGradient>
<linearGradient id="paint11_linear_1_623" x1="148.58" y1="257.654" x2="185.487" y2="284.822" gradientUnits="userSpaceOnUse">
<stop stop-color="#5A5A5A"/>
<stop offset="1" stop-color="#444444"/>
</linearGradient>
<linearGradient id="paint12_linear_1_623" x1="326.946" y1="256.063" x2="359.752" y2="280.668" gradientUnits="userSpaceOnUse">
<stop stop-color="#5A5A5A"/>
<stop offset="1" stop-color="#444444"/>
</linearGradient>
<linearGradient id="paint13_linear_1_623" x1="169.876" y1="388.089" x2="198.467" y2="403.576" gradientUnits="userSpaceOnUse">
<stop stop-color="white"/>
<stop offset="1" stop-color="#E1D3CE"/>
</linearGradient>
<linearGradient id="paint14_linear_1_623" x1="342.309" y1="388.147" x2="313.717" y2="403.634" gradientUnits="userSpaceOnUse">
<stop stop-color="white"/>
<stop offset="1" stop-color="#E1D3CE"/>
</linearGradient>
<linearGradient id="paint15_linear_1_623" x1="331.187" y1="392.275" x2="284.002" y2="400.307" gradientUnits="userSpaceOnUse">
<stop stop-color="#9E9797" stop-opacity="0"/>
<stop offset="0.31" stop-color="#968F8F" stop-opacity="0.31"/>
<stop offset="0.785" stop-color="#827A7A" stop-opacity="0.785"/>
<stop offset="1" stop-color="#766E6E"/>
</linearGradient>
<linearGradient id="paint16_linear_1_623" x1="69.4814" y1="185.872" x2="309.419" y2="424.805" gradientUnits="userSpaceOnUse">
<stop stop-color="#B9ACAC"/>
<stop offset="1" stop-color="#766E6E"/>
</linearGradient>
<linearGradient id="paint17_linear_1_623" x1="241.756" y1="420.524" x2="395.692" y2="411.823" gradientUnits="userSpaceOnUse">
<stop stop-color="#766E6E" stop-opacity="0"/>
<stop offset="1" stop-color="#1A1A1A"/>
</linearGradient>
<linearGradient id="paint18_linear_1_623" x1="237.22" y1="450.465" x2="360.368" y2="439.757" gradientUnits="userSpaceOnUse">
<stop stop-color="#766E6E" stop-opacity="0"/>
<stop offset="1" stop-color="#1A1A1A"/>
</linearGradient>
<linearGradient id="paint19_linear_1_623" x1="236.08" y1="476.871" x2="334.464" y2="481.556" gradientUnits="userSpaceOnUse">
<stop stop-color="#766E6E" stop-opacity="0"/>
<stop offset="1" stop-color="#1A1A1A"/>
</linearGradient>
<clipPath id="clip0_1_623">
<rect width="512" height="512" fill="white"/>
</clipPath>
</defs>
</svg>
