<svg width="512" height="512" viewBox="0 0 512 512" fill="none" xmlns="http://www.w3.org/2000/svg">
<g clip-path="url(#clip0_1_692)">
<mask id="mask0_1_692" style="mask-type:luminance" maskUnits="userSpaceOnUse" x="0" y="0" width="512" height="512">
<path d="M512 0H0V512H512V0Z" fill="white"/>
</mask>
<g mask="url(#mask0_1_692)">
<path d="M395.428 159.273H345.028V108.873C345.028 73.5184 373.689 44.8574 409.044 44.8574H436.406C449.128 44.8574 459.443 55.1717 459.443 67.8944V95.2563C459.445 130.612 430.783 159.273 395.428 159.273Z" fill="url(#paint0_linear_1_692)"/>
<path d="M395.428 159.273H345.028V108.873C345.028 73.5184 373.689 44.8574 409.044 44.8574H436.406C449.128 44.8574 459.443 55.1717 459.443 67.8944V95.2563C459.445 130.612 430.783 159.273 395.428 159.273Z" fill="url(#paint1_linear_1_692)"/>
<path d="M397.974 137.875H366.427V106.327C366.427 84.1969 384.367 66.2568 406.498 66.2568H423.625C431.589 66.2568 438.045 72.7131 438.045 80.6772V97.8041C438.045 119.935 420.105 137.875 397.974 137.875Z" fill="url(#paint2_linear_1_692)"/>
<path d="M397.974 137.875H366.427V106.327C366.427 84.1969 384.367 66.2568 406.498 66.2568H423.625C431.589 66.2568 438.045 72.7131 438.045 80.6772V97.8041C438.045 119.935 420.105 137.875 397.974 137.875Z" fill="url(#paint3_linear_1_692)"/>
<path d="M116.569 159.273H166.969V108.873C166.969 73.5184 138.308 44.8574 102.953 44.8574H75.5902C62.8675 44.8574 52.5532 55.1717 52.5532 67.8944V95.2563C52.5522 130.612 81.2142 159.273 116.569 159.273Z" fill="url(#paint4_linear_1_692)"/>
<path d="M114.022 137.875H145.57V106.327C145.57 84.1969 127.63 66.2568 105.499 66.2568H88.3722C80.4081 66.2568 73.9519 72.7131 73.9519 80.6772V97.8041C73.9519 119.935 91.892 137.875 114.022 137.875Z" fill="url(#paint5_linear_1_692)"/>
<path d="M304.512 336.327H207.483C119.563 336.327 48.2896 407.6 48.2896 495.521C48.2896 504.622 55.6674 512 64.7689 512H447.227C456.328 512 463.706 504.622 463.706 495.521C463.706 407.6 392.433 336.327 304.512 336.327Z" fill="url(#paint6_linear_1_692)"/>
<path d="M48.2896 495.52C48.2896 504.622 55.6674 512 64.7689 512H447.227C456.328 512 463.706 504.622 463.706 495.52C463.706 472.086 458.64 449.836 449.548 429.801H62.4489C53.3563 449.836 48.2896 472.086 48.2896 495.52Z" fill="url(#paint7_linear_1_692)"/>
<path d="M463.71 495.516C463.71 504.621 456.331 512 447.226 512H203.042L123.572 432.519V360.227C147.927 345.078 176.689 336.324 207.489 336.324H304.508C348.47 336.324 388.276 354.143 417.078 382.956C445.891 411.758 463.71 451.564 463.71 495.516Z" fill="url(#paint8_linear_1_692)"/>
<path d="M427.955 315.692L386.799 378.047C374.631 385.847 360.827 391.52 345.839 394.461C286.206 406.167 225.79 406.167 166.157 394.461C151.168 391.52 137.364 385.847 125.197 378.047L84.0422 315.692C73.9558 300.411 69.414 282.039 71.704 263.872L71.7491 263.519C73.8473 247.256 75.9455 232.759 78.0538 218.725C79.0778 211.858 80.1118 205.101 81.1358 198.285C94.1868 111.777 168.517 47.8169 255.999 47.8169C299.74 47.8169 340.188 63.8094 371.339 90.6141C402.491 117.419 424.336 155.026 430.862 198.285C431.886 205.101 432.92 211.858 433.944 218.725C436.052 232.759 438.15 247.256 440.249 263.519L440.294 263.872C442.583 282.039 438.041 300.411 427.955 315.692Z" fill="url(#paint9_linear_1_692)"/>
<path d="M439.636 297.994L439.646 297.984C441.494 286.841 441.765 275.265 440.249 263.519C438.151 247.256 436.052 232.759 433.944 218.725C432.92 211.858 431.886 205.101 430.862 198.285C417.811 111.777 343.481 47.8169 255.999 47.8169C244.855 47.8169 233.923 48.8509 223.311 50.8487C212.796 52.8156 202.482 55.7426 192.501 59.5929V157.254L253.971 218.725L397.331 362.095L439.636 297.994Z" fill="url(#paint10_linear_1_692)"/>
<path d="M334.043 454.087H177.953C134.117 454.087 98.5811 418.551 98.5811 374.715C98.5811 324.103 145.313 286.42 194.775 297.146L232.742 305.38C248.068 308.704 263.927 308.704 279.253 305.38L317.22 297.146C366.682 286.419 413.414 324.103 413.414 374.715C413.415 418.551 377.879 454.087 334.043 454.087Z" fill="url(#paint11_linear_1_692)"/>
<path d="M299.022 20.3716C288.6 7.60772 274.029 0 255.999 0C237.969 0 223.398 7.60772 212.975 20.3716C177.612 37.8589 162.721 77.9364 175.408 122.724C178.437 133.418 183.716 144.324 190.258 154.65C193.754 160.167 201.042 161.811 206.6 158.381C208.962 156.928 211.4 155.602 213.903 154.408C227.609 179.829 245.753 199.447 255.999 199.447C266.245 199.447 284.389 179.829 298.095 154.408C300.599 155.602 303.036 156.928 305.398 158.381C310.955 161.81 318.244 160.166 321.74 154.65C328.283 144.324 333.561 133.417 336.59 122.724C349.277 77.9364 334.385 37.8589 299.022 20.3716Z" fill="url(#paint12_linear_1_692)"/>
<path d="M314.211 111.656C305.571 153.884 271.613 199.447 255.998 199.447C240.383 199.447 206.426 153.885 197.785 111.656C185.496 51.5986 209.021 0 255.999 0C302.975 0 326.501 51.5986 314.211 111.656Z" fill="url(#paint13_linear_1_692)"/>
<path d="M165.916 257.272C151.236 257.272 139.334 245.37 139.334 230.69V217.059C139.334 202.379 151.235 190.477 165.916 190.477C180.596 190.477 192.498 202.379 192.498 217.059V230.69C192.498 245.371 180.596 257.272 165.916 257.272Z" fill="url(#paint14_linear_1_692)"/>
<path d="M346.081 257.272C331.4 257.272 319.499 245.37 319.499 230.69V217.059C319.499 202.379 331.4 190.477 346.081 190.477C360.761 190.477 372.663 202.379 372.663 217.059V230.69C372.663 245.371 360.762 257.272 346.081 257.272Z" fill="url(#paint15_linear_1_692)"/>
<path d="M316.581 362.096C296.979 362.096 281.089 346.206 281.089 326.605C281.089 324.298 282.005 322.086 283.636 320.455C285.267 318.824 287.479 317.908 289.786 317.908C309.387 317.908 325.277 333.798 325.277 353.399C325.277 355.706 324.361 357.918 322.73 359.549C321.099 361.18 318.887 362.096 316.581 362.096Z" fill="url(#paint16_linear_1_692)"/>
<path d="M195.416 362.096C215.018 362.096 230.908 346.206 230.908 326.605C230.908 324.298 229.992 322.086 228.361 320.455C226.73 318.824 224.517 317.908 222.211 317.908C202.609 317.908 186.719 333.798 186.719 353.399C186.72 355.706 187.636 357.918 189.267 359.549C190.898 361.18 193.11 362.096 195.416 362.096Z" fill="url(#paint17_linear_1_692)"/>
<path d="M298.094 154.408C300.598 155.602 303.035 156.928 305.397 158.381C310.954 161.811 318.243 160.166 321.739 154.65C328.282 144.324 333.56 133.417 336.589 122.724C349.276 77.9364 334.384 37.8589 299.022 20.3716C288.6 7.60772 274.029 0 255.999 0V199.447C266.244 199.447 284.388 179.829 298.094 154.408Z" fill="url(#paint18_linear_1_692)"/>
</g>
</g>
<defs>
<linearGradient id="paint0_linear_1_692" x1="383.364" y1="72.5616" x2="408.463" y2="123.545" gradientUnits="userSpaceOnUse">
<stop stop-color="#FE7D43"/>
<stop offset="1" stop-color="#704444"/>
</linearGradient>
<linearGradient id="paint1_linear_1_692" x1="414.849" y1="88.3403" x2="380.715" y2="125.485" gradientUnits="userSpaceOnUse">
<stop stop-color="#593636" stop-opacity="0"/>
<stop offset="1" stop-color="#593636"/>
</linearGradient>
<linearGradient id="paint2_linear_1_692" x1="390.423" y1="83.5976" x2="406.133" y2="115.51" gradientUnits="userSpaceOnUse">
<stop stop-color="#FFDFCF"/>
<stop offset="1" stop-color="#FFA78F"/>
</linearGradient>
<linearGradient id="paint3_linear_1_692" x1="411.89" y1="90.624" x2="384.784" y2="122.75" gradientUnits="userSpaceOnUse">
<stop stop-color="#F89580" stop-opacity="0"/>
<stop offset="0.997" stop-color="#C5715A"/>
</linearGradient>
<linearGradient id="paint4_linear_1_692" x1="71.0836" y1="67.5189" x2="140.02" y2="129.093" gradientUnits="userSpaceOnUse">
<stop stop-color="#FE7D43"/>
<stop offset="1" stop-color="#704444"/>
</linearGradient>
<linearGradient id="paint5_linear_1_692" x1="89.7556" y1="78.8842" x2="131.92" y2="127.742" gradientUnits="userSpaceOnUse">
<stop stop-color="#FFDFCF"/>
<stop offset="1" stop-color="#FFA78F"/>
</linearGradient>
<linearGradient id="paint6_linear_1_692" x1="205.576" y1="376.45" x2="269.929" y2="507.169" gradientUnits="userSpaceOnUse">
<stop stop-color="#FE7D43"/>
<stop offset="1" stop-color="#704444"/>
</linearGradient>
<linearGradient id="paint7_linear_1_692" x1="255.999" y1="465.328" x2="255.999" y2="521.859" gradientUnits="userSpaceOnUse">
<stop stop-color="#593636" stop-opacity="0"/>
<stop offset="1" stop-color="#593636"/>
</linearGradient>
<linearGradient id="paint8_linear_1_692" x1="308.268" y1="510.297" x2="279.154" y2="397.858" gradientUnits="userSpaceOnUse">
<stop stop-color="#593636" stop-opacity="0"/>
<stop offset="1" stop-color="#593636"/>
</linearGradient>
<linearGradient id="paint9_linear_1_692" x1="159.701" y1="144.269" x2="323.228" y2="309.79" gradientUnits="userSpaceOnUse">
<stop stop-color="#FE7D43"/>
<stop offset="1" stop-color="#704444"/>
</linearGradient>
<linearGradient id="paint10_linear_1_692" x1="324.419" y1="171.038" x2="244.176" y2="79.6131" gradientUnits="userSpaceOnUse">
<stop stop-color="#593636" stop-opacity="0"/>
<stop offset="1" stop-color="#593636"/>
</linearGradient>
<linearGradient id="paint11_linear_1_692" x1="206.43" y1="280.972" x2="307.209" y2="471.507" gradientUnits="userSpaceOnUse">
<stop stop-color="#FFDFCF"/>
<stop offset="1" stop-color="#FFA78F"/>
</linearGradient>
<linearGradient id="paint12_linear_1_692" x1="201.116" y1="45.9816" x2="294.48" y2="131.315" gradientUnits="userSpaceOnUse">
<stop stop-color="#766E6E"/>
<stop offset="1" stop-color="#5B5555"/>
</linearGradient>
<linearGradient id="paint13_linear_1_692" x1="239.989" y1="63.9337" x2="316.287" y2="175.704" gradientUnits="userSpaceOnUse">
<stop stop-color="#766E6E" stop-opacity="0"/>
<stop offset="1" stop-color="#1A1A1A"/>
</linearGradient>
<linearGradient id="paint14_linear_1_692" x1="148.578" y1="211.113" x2="185.486" y2="238.28" gradientUnits="userSpaceOnUse">
<stop stop-color="#5A5A5A"/>
<stop offset="1" stop-color="#444444"/>
</linearGradient>
<linearGradient id="paint15_linear_1_692" x1="326.944" y1="209.521" x2="359.75" y2="234.127" gradientUnits="userSpaceOnUse">
<stop stop-color="#5A5A5A"/>
<stop offset="1" stop-color="#444444"/>
</linearGradient>
<linearGradient id="paint16_linear_1_692" x1="290.451" y1="325.25" x2="314.921" y2="353.603" gradientUnits="userSpaceOnUse">
<stop stop-color="#5A5A5A"/>
<stop offset="1" stop-color="#444444"/>
</linearGradient>
<linearGradient id="paint17_linear_1_692" x1="221.545" y1="325.25" x2="197.077" y2="353.603" gradientUnits="userSpaceOnUse">
<stop stop-color="#5A5A5A"/>
<stop offset="1" stop-color="#444444"/>
</linearGradient>
<linearGradient id="paint18_linear_1_692" x1="300.785" y1="64.3684" x2="205.747" y2="168.776" gradientUnits="userSpaceOnUse">
<stop stop-color="#766E6E" stop-opacity="0"/>
<stop offset="1" stop-color="#1A1A1A"/>
</linearGradient>
<clipPath id="clip0_1_692">
<rect width="512" height="512" fill="white"/>
</clipPath>
</defs>
</svg>
