<svg width="512" height="512" viewBox="0 0 512 512" fill="none" xmlns="http://www.w3.org/2000/svg">
<g clip-path="url(#clip0_1_716)">
<mask id="mask0_1_716" style="mask-type:luminance" maskUnits="userSpaceOnUse" x="0" y="0" width="512" height="512">
<path d="M512 0H0V512H512V0Z" fill="white"/>
</mask>
<g mask="url(#mask0_1_716)">
<path d="M494.583 333.452C503.276 333.452 510.323 326.404 510.323 317.711C510.323 309.018 503.276 301.971 494.583 301.971C485.89 301.971 478.842 309.018 478.842 317.711C478.842 326.404 485.89 333.452 494.583 333.452Z" fill="url(#paint0_linear_1_716)"/>
<path d="M474.907 364.934C483.6 364.934 490.647 357.886 490.647 349.193C490.647 340.5 483.6 333.453 474.907 333.453C466.214 333.453 459.167 340.5 459.167 349.193C459.167 357.886 466.214 364.934 474.907 364.934Z" fill="url(#paint1_linear_1_716)"/>
<path d="M449.984 392.152C458.677 392.152 465.724 385.105 465.724 376.411C465.724 367.718 458.677 360.671 449.984 360.671C441.29 360.671 434.243 367.718 434.243 376.411C434.243 385.105 441.29 392.152 449.984 392.152Z" fill="url(#paint2_linear_1_716)"/>
<path d="M17.417 333.452C26.1102 333.452 33.1575 326.404 33.1575 317.711C33.1575 309.018 26.1102 301.971 17.417 301.971C8.72377 301.971 1.67651 309.018 1.67651 317.711C1.67651 326.404 8.72377 333.452 17.417 333.452Z" fill="url(#paint3_linear_1_716)"/>
<path d="M37.0928 364.934C45.786 364.934 52.8333 357.886 52.8333 349.193C52.8333 340.5 45.786 333.453 37.0928 333.453C28.3996 333.453 21.3523 340.5 21.3523 349.193C21.3523 357.886 28.3996 364.934 37.0928 364.934Z" fill="url(#paint4_linear_1_716)"/>
<path d="M62.0161 392.152C70.7094 392.152 77.7566 385.105 77.7566 376.411C77.7566 367.718 70.7094 360.671 62.0161 360.671C53.3229 360.671 46.2756 367.718 46.2756 376.411C46.2756 385.105 53.3229 392.152 62.0161 392.152Z" fill="url(#paint5_linear_1_716)"/>
<path d="M155.873 434.058C103.871 419.416 60.692 388.241 32.3604 346.035C18.7161 325.697 8.52022 302.803 2.44248 277.965C-1.22886 262.939 8.67182 247.966 23.9565 245.542C24.1172 245.515 24.2778 245.489 24.4474 245.471C36.4875 243.554 48.1801 250.185 52.9568 261.405C71.948 306.01 108.55 337.844 155.873 348.396V434.058Z" fill="url(#paint6_linear_1_716)"/>
<path d="M356.127 434.058C408.129 419.416 451.308 388.241 479.639 346.035C493.284 325.697 503.48 302.803 509.557 277.965C513.229 262.939 503.328 247.966 488.043 245.542C487.881 245.513 487.717 245.489 487.553 245.471C475.513 243.554 463.821 250.185 459.044 261.405C440.053 306.01 403.451 337.844 356.128 348.396L356.127 434.058Z" fill="url(#paint7_linear_1_716)"/>
<path d="M155.873 405.345C103.871 390.703 60.692 359.528 32.3604 317.322C18.7161 296.984 8.52022 274.09 2.44248 249.252C-1.22886 234.226 8.67182 219.254 23.9565 216.829C24.1172 216.802 24.2778 216.776 24.4474 216.758C36.4875 214.841 48.1801 221.472 52.9568 232.693C71.948 277.298 108.55 309.132 155.873 319.684V405.345Z" fill="url(#paint8_linear_1_716)"/>
<path d="M356.127 405.345C408.129 390.703 451.308 359.528 479.639 317.322C493.284 296.984 503.48 274.09 509.557 249.252C513.229 234.226 503.328 219.254 488.043 216.829C487.881 216.8 487.717 216.777 487.553 216.758C475.513 214.841 463.821 221.472 459.044 232.693C440.053 277.298 403.451 309.132 356.128 319.684L356.127 405.345Z" fill="url(#paint9_linear_1_716)"/>
<path d="M31.6736 503.49C40.3668 503.49 47.4141 496.442 47.4141 487.749C47.4141 479.056 40.3668 472.009 31.6736 472.009C22.9804 472.009 15.9331 479.056 15.9331 487.749C15.9331 496.442 22.9804 503.49 31.6736 503.49Z" fill="url(#paint10_linear_1_716)"/>
<path d="M152.026 512C160.719 512 167.766 504.953 167.766 496.26C167.766 487.566 160.719 480.519 152.026 480.519C143.332 480.519 136.285 487.566 136.285 496.26C136.285 504.953 143.332 512 152.026 512Z" fill="url(#paint11_linear_1_716)"/>
<path d="M183.508 492.323C192.201 492.323 199.248 485.276 199.248 476.583C199.248 467.89 192.201 460.842 183.508 460.842C174.814 460.842 167.767 467.89 167.767 476.583C167.767 485.276 174.814 492.323 183.508 492.323Z" fill="url(#paint12_linear_1_716)"/>
<path d="M210.726 467.401C219.42 467.401 226.467 460.354 226.467 451.66C226.467 442.967 219.42 435.92 210.726 435.92C202.033 435.92 194.986 442.967 194.986 451.66C194.986 460.354 202.033 467.401 210.726 467.401Z" fill="url(#paint13_linear_1_716)"/>
<path d="M233.353 433.951C242.047 433.951 249.094 426.904 249.094 418.211C249.094 409.517 242.047 402.47 233.353 402.47C224.66 402.47 217.613 409.517 217.613 418.211C217.613 426.904 224.66 433.951 233.353 433.951Z" fill="url(#paint14_linear_1_716)"/>
<path d="M71.0254 496.258C79.7186 496.258 86.7659 489.211 86.7659 480.518C86.7659 471.825 79.7186 464.777 71.0254 464.777C62.3322 464.777 55.2849 471.825 55.2849 480.518C55.2849 489.211 62.3322 496.258 71.0254 496.258Z" fill="url(#paint15_linear_1_716)"/>
<path d="M102.508 479.251C111.201 479.251 118.248 472.204 118.248 463.511C118.248 454.817 111.201 447.77 102.508 447.77C93.8143 447.77 86.7671 454.817 86.7671 463.511C86.7671 472.204 93.8143 479.251 102.508 479.251Z" fill="url(#paint16_linear_1_716)"/>
<path d="M478.812 503.49C487.505 503.49 494.553 496.442 494.553 487.749C494.553 479.056 487.505 472.009 478.812 472.009C470.119 472.009 463.072 479.056 463.072 487.749C463.072 496.442 470.119 503.49 478.812 503.49Z" fill="url(#paint17_linear_1_716)"/>
<path d="M358.46 512C367.153 512 374.201 504.953 374.201 496.26C374.201 487.566 367.153 480.519 358.46 480.519C349.767 480.519 342.72 487.566 342.72 496.26C342.72 504.953 349.767 512 358.46 512Z" fill="url(#paint18_linear_1_716)"/>
<path d="M326.979 492.323C335.672 492.323 342.72 485.276 342.72 476.583C342.72 467.89 335.672 460.842 326.979 460.842C318.286 460.842 311.239 467.89 311.239 476.583C311.239 485.276 318.286 492.323 326.979 492.323Z" fill="url(#paint19_linear_1_716)"/>
<path d="M299.76 467.401C308.453 467.401 315.501 460.354 315.501 451.66C315.501 442.967 308.453 435.92 299.76 435.92C291.067 435.92 284.02 442.967 284.02 451.66C284.02 460.354 291.067 467.401 299.76 467.401Z" fill="url(#paint20_linear_1_716)"/>
<path d="M277.133 433.951C285.826 433.951 292.873 426.904 292.873 418.211C292.873 409.517 285.826 402.47 277.133 402.47C268.439 402.47 261.392 409.517 261.392 418.211C261.392 426.904 268.439 433.951 277.133 433.951Z" fill="url(#paint21_linear_1_716)"/>
<path d="M439.461 496.258C448.154 496.258 455.201 489.211 455.201 480.518C455.201 471.825 448.154 464.777 439.461 464.777C430.767 464.777 423.72 471.825 423.72 480.518C423.72 489.211 430.767 496.258 439.461 496.258Z" fill="url(#paint22_linear_1_716)"/>
<path d="M407.979 479.251C416.672 479.251 423.719 472.204 423.719 463.511C423.719 454.817 416.672 447.77 407.979 447.77C399.286 447.77 392.238 454.817 392.238 463.511C392.238 472.204 399.286 479.251 407.979 479.251Z" fill="url(#paint23_linear_1_716)"/>
<path d="M212.92 322.037C196.755 379.442 162.342 427.108 115.749 458.383C93.2983 473.445 68.0245 484.7 40.6064 491.409C24.0197 495.462 7.49108 484.532 4.81563 467.66C4.78652 467.482 4.7564 467.306 4.73733 467.119C2.62206 453.828 9.94166 440.921 22.328 435.647C71.5674 414.682 106.709 374.277 118.357 322.037H212.92Z" fill="url(#paint24_linear_1_716)"/>
<path d="M212.92 322.037C196.755 379.442 162.342 427.108 115.749 458.383C93.2983 473.445 68.0245 484.7 40.6064 491.409C24.0197 495.462 7.49108 484.532 4.81563 467.66C4.78652 467.482 4.7564 467.306 4.73733 467.119C2.62206 453.828 9.94166 440.921 22.328 435.647C71.5674 414.682 106.709 374.277 118.357 322.037H212.92Z" fill="url(#paint25_linear_1_716)"/>
<path d="M505.75 467.118C505.73 467.305 505.7 467.482 505.671 467.659C502.996 484.531 486.467 495.461 469.881 491.408C442.462 484.699 417.188 473.444 394.738 458.382C348.145 427.107 313.732 379.441 297.567 322.036H392.131C403.779 374.276 438.921 414.681 488.16 435.646C500.545 440.92 507.865 453.827 505.75 467.118Z" fill="url(#paint26_linear_1_716)"/>
<path d="M505.75 467.118C505.73 467.305 505.7 467.482 505.671 467.659C502.996 484.531 486.467 495.461 469.881 491.408C442.462 484.699 417.188 473.444 394.738 458.382C348.145 427.107 313.732 379.441 297.567 322.036H392.131C403.779 374.276 438.921 414.681 488.16 435.646C500.545 440.92 507.865 453.827 505.75 467.118Z" fill="url(#paint27_linear_1_716)"/>
<path d="M265.377 322.037C263.675 339.047 260.261 355.604 255.243 371.483C238.587 424.205 204.223 469.568 155.603 499.88C142.049 508.336 124.441 504.313 115.836 491.328C115.241 490.43 115.336 489.229 114.831 488.247C114.743 488.08 114.6 487.932 114.521 487.765C109.563 478.123 122.841 467.061 128.685 458.383C130.091 456.288 118.858 454.349 120.825 452.617C159.193 418.962 179.863 372.486 177.138 322.037H265.377Z" fill="url(#paint28_linear_1_716)"/>
<path d="M394.539 488.014C394.461 488.182 394.381 488.339 394.293 488.506C393.805 489.456 395.282 490.367 394.71 491.237C386.127 504.294 368.469 508.356 354.883 499.88C306.263 469.568 271.899 424.205 255.243 371.483C250.225 355.604 246.812 339.048 245.109 322.037H333.347C330.621 372.486 351.291 418.962 389.66 452.617C391.593 454.313 393.3 456.25 394.737 458.383C400.581 467.06 399.497 478.373 394.539 488.014Z" fill="url(#paint29_linear_1_716)"/>
<path d="M488.179 435.656C487.129 435.209 486.084 434.752 485.043 434.286C425.143 407.456 394.747 340.212 412.393 276.993C422.758 239.855 429.795 185.432 422.659 144.056C408.426 61.5203 338.999 0 255.246 0H255.243C171.49 0 102.063 61.5203 87.83 144.056C80.6952 185.432 87.7307 239.855 98.0961 276.993C115.742 340.212 85.3463 407.456 25.4464 434.286C24.4119 434.75 23.3732 435.204 22.3302 435.648C9.9438 440.92 2.62722 453.827 4.73344 467.124L4.81878 467.66C4.99145 468.753 5.22536 469.819 5.51148 470.86C10.3367 472.203 15.4267 472.28 20.2902 471.083C90.2224 453.979 146.162 407.259 176.897 343.301C173.627 385.45 153.742 423.749 120.826 452.623C110.705 461.501 107.785 476.046 113.938 488.02L114.186 488.503C114.686 489.474 115.239 490.417 115.843 491.327C120.847 491.097 125.706 489.58 129.953 486.924C178.528 456.642 212.87 411.339 229.543 358.681C233.045 347.619 243.436 340.264 255.039 340.27H255.453C267.056 340.264 277.448 347.619 280.949 358.681C297.622 411.34 331.963 456.642 380.539 486.924C384.786 489.581 389.645 491.097 394.649 491.327C395.253 490.417 395.806 489.475 396.306 488.503L396.554 488.02C402.707 476.047 399.787 461.501 389.666 452.623C356.749 423.748 336.862 385.447 333.594 343.295C364.328 407.256 420.269 453.979 490.204 471.083C495.067 472.281 500.157 472.204 504.983 470.86C505.272 469.807 505.503 468.739 505.675 467.66L505.761 467.124C507.862 453.834 500.559 440.924 488.179 435.656Z" fill="url(#paint30_linear_1_716)"/>
<path d="M255.243 318.659C283.473 318.659 306.358 295.774 306.358 267.544C306.358 239.314 283.473 216.43 255.243 216.43C227.013 216.43 204.128 239.314 204.128 267.544C204.128 295.774 227.013 318.659 255.243 318.659Z" fill="url(#paint31_linear_1_716)"/>
<path d="M255.243 299.885C273.105 299.885 287.585 285.406 287.585 267.544C287.585 249.682 273.105 235.203 255.243 235.203C237.382 235.203 222.902 249.682 222.902 267.544C222.902 285.406 237.382 299.885 255.243 299.885Z" fill="url(#paint32_linear_1_716)"/>
<path d="M166.965 256.07C152.579 256.07 140.917 244.408 140.917 230.022V216.664C140.917 202.277 152.579 190.615 166.965 190.615C181.351 190.615 193.014 202.277 193.014 216.664V230.022C193.015 244.407 181.352 256.07 166.965 256.07Z" fill="url(#paint33_linear_1_716)"/>
<path d="M343.521 256.07C329.134 256.07 317.472 244.408 317.472 230.022V216.664C317.472 202.277 329.135 190.615 343.521 190.615C357.907 190.615 369.57 202.277 369.57 216.664V230.022C369.57 244.407 357.907 256.07 343.521 256.07Z" fill="url(#paint34_linear_1_716)"/>
<path d="M240.992 281.18L172.846 292.212C187.236 353.921 166.664 412.413 120.824 452.622C110.703 461.5 107.783 476.044 113.936 488.019L114.184 488.502C114.684 489.473 115.237 490.416 115.842 491.326C120.845 491.096 125.704 489.579 129.951 486.923C201.125 442.552 241.747 365.936 240.992 281.18Z" fill="url(#paint35_linear_1_716)"/>
<path d="M269.495 281.18L337.641 292.212C323.251 353.921 343.823 412.413 389.663 452.622C399.784 461.5 402.704 476.044 396.551 488.019L396.303 488.502C395.803 489.473 395.25 490.416 394.646 491.326C389.642 491.096 384.783 489.579 380.537 486.923C309.361 442.552 268.739 365.936 269.495 281.18Z" fill="url(#paint36_linear_1_716)"/>
</g>
</g>
<defs>
<linearGradient id="paint0_linear_1_716" x1="481.277" y1="305.21" x2="502.92" y2="325.543" gradientUnits="userSpaceOnUse">
<stop stop-color="#FEAEE1"/>
<stop offset="1" stop-color="#FE5694"/>
</linearGradient>
<linearGradient id="paint1_linear_1_716" x1="461.601" y1="336.692" x2="483.245" y2="357.025" gradientUnits="userSpaceOnUse">
<stop stop-color="#FEAEE1"/>
<stop offset="1" stop-color="#FE5694"/>
</linearGradient>
<linearGradient id="paint2_linear_1_716" x1="436.678" y1="363.911" x2="458.321" y2="384.243" gradientUnits="userSpaceOnUse">
<stop stop-color="#FEAEE1"/>
<stop offset="1" stop-color="#FE5694"/>
</linearGradient>
<linearGradient id="paint3_linear_1_716" x1="30.723" y1="305.21" x2="9.07844" y2="325.543" gradientUnits="userSpaceOnUse">
<stop stop-color="#FEAEE1"/>
<stop offset="1" stop-color="#FE5694"/>
</linearGradient>
<linearGradient id="paint4_linear_1_716" x1="50.3988" y1="336.692" x2="28.7552" y2="357.025" gradientUnits="userSpaceOnUse">
<stop stop-color="#FEAEE1"/>
<stop offset="1" stop-color="#FE5694"/>
</linearGradient>
<linearGradient id="paint5_linear_1_716" x1="75.3211" y1="363.911" x2="53.6775" y2="384.243" gradientUnits="userSpaceOnUse">
<stop stop-color="#FEAEE1"/>
<stop offset="1" stop-color="#FE5694"/>
</linearGradient>
<linearGradient id="paint6_linear_1_716" x1="101.954" y1="323.49" x2="46.7385" y2="380.714" gradientUnits="userSpaceOnUse">
<stop stop-color="white"/>
<stop offset="1" stop-color="#E1D3CE"/>
</linearGradient>
<linearGradient id="paint7_linear_1_716" x1="411.201" y1="321.119" x2="455.374" y2="375.331" gradientUnits="userSpaceOnUse">
<stop stop-color="white"/>
<stop offset="1" stop-color="#E1D3CE"/>
</linearGradient>
<linearGradient id="paint8_linear_1_716" x1="76.3171" y1="248.828" x2="84.3484" y2="356.582" gradientUnits="userSpaceOnUse">
<stop stop-color="#FEAEE1"/>
<stop offset="1" stop-color="#FE5694"/>
</linearGradient>
<linearGradient id="paint9_linear_1_716" x1="423.046" y1="241.402" x2="437.101" y2="354.511" gradientUnits="userSpaceOnUse">
<stop stop-color="#FEAEE1"/>
<stop offset="1" stop-color="#FE5694"/>
</linearGradient>
<linearGradient id="paint10_linear_1_716" x1="19.1738" y1="474.443" x2="39.5052" y2="496.087" gradientUnits="userSpaceOnUse">
<stop stop-color="#FEAEE1"/>
<stop offset="1" stop-color="#FE5694"/>
</linearGradient>
<linearGradient id="paint11_linear_1_716" x1="139.526" y1="482.953" x2="159.857" y2="504.596" gradientUnits="userSpaceOnUse">
<stop stop-color="#FEAEE1"/>
<stop offset="1" stop-color="#FE5694"/>
</linearGradient>
<linearGradient id="paint12_linear_1_716" x1="171.007" y1="463.277" x2="191.339" y2="484.92" gradientUnits="userSpaceOnUse">
<stop stop-color="#FEAEE1"/>
<stop offset="1" stop-color="#FE5694"/>
</linearGradient>
<linearGradient id="paint13_linear_1_716" x1="198.226" y1="438.353" x2="218.558" y2="459.997" gradientUnits="userSpaceOnUse">
<stop stop-color="#FEAEE1"/>
<stop offset="1" stop-color="#FE5694"/>
</linearGradient>
<linearGradient id="paint14_linear_1_716" x1="220.853" y1="404.904" x2="241.185" y2="426.548" gradientUnits="userSpaceOnUse">
<stop stop-color="#FEAEE1"/>
<stop offset="1" stop-color="#FE5694"/>
</linearGradient>
<linearGradient id="paint15_linear_1_716" x1="58.5256" y1="467.212" x2="78.858" y2="488.855" gradientUnits="userSpaceOnUse">
<stop stop-color="#FEAEE1"/>
<stop offset="1" stop-color="#FE5694"/>
</linearGradient>
<linearGradient id="paint16_linear_1_716" x1="90.0077" y1="450.205" x2="110.339" y2="471.848" gradientUnits="userSpaceOnUse">
<stop stop-color="#FEAEE1"/>
<stop offset="1" stop-color="#FE5694"/>
</linearGradient>
<linearGradient id="paint17_linear_1_716" x1="491.313" y1="474.443" x2="470.981" y2="496.087" gradientUnits="userSpaceOnUse">
<stop stop-color="#FEAEE1"/>
<stop offset="1" stop-color="#FE5694"/>
</linearGradient>
<linearGradient id="paint18_linear_1_716" x1="370.961" y1="482.953" x2="350.629" y2="504.596" gradientUnits="userSpaceOnUse">
<stop stop-color="#FEAEE1"/>
<stop offset="1" stop-color="#FE5694"/>
</linearGradient>
<linearGradient id="paint19_linear_1_716" x1="339.479" y1="463.277" x2="319.148" y2="484.92" gradientUnits="userSpaceOnUse">
<stop stop-color="#FEAEE1"/>
<stop offset="1" stop-color="#FE5694"/>
</linearGradient>
<linearGradient id="paint20_linear_1_716" x1="312.261" y1="438.353" x2="291.928" y2="459.997" gradientUnits="userSpaceOnUse">
<stop stop-color="#FEAEE1"/>
<stop offset="1" stop-color="#FE5694"/>
</linearGradient>
<linearGradient id="paint21_linear_1_716" x1="289.633" y1="404.904" x2="269.301" y2="426.548" gradientUnits="userSpaceOnUse">
<stop stop-color="#FEAEE1"/>
<stop offset="1" stop-color="#FE5694"/>
</linearGradient>
<linearGradient id="paint22_linear_1_716" x1="451.961" y1="467.212" x2="431.629" y2="488.855" gradientUnits="userSpaceOnUse">
<stop stop-color="#FEAEE1"/>
<stop offset="1" stop-color="#FE5694"/>
</linearGradient>
<linearGradient id="paint23_linear_1_716" x1="420.48" y1="450.205" x2="400.147" y2="471.848" gradientUnits="userSpaceOnUse">
<stop stop-color="#FEAEE1"/>
<stop offset="1" stop-color="#FE5694"/>
</linearGradient>
<linearGradient id="paint24_linear_1_716" x1="122.103" y1="421.537" x2="137.479" y2="450.58" gradientUnits="userSpaceOnUse">
<stop stop-color="white"/>
<stop offset="1" stop-color="#E1D3CE"/>
</linearGradient>
<linearGradient id="paint25_linear_1_716" x1="125.024" y1="409.135" x2="176.182" y2="430.779" gradientUnits="userSpaceOnUse">
<stop stop-color="#9E9797" stop-opacity="0"/>
<stop offset="0.31" stop-color="#968F8F" stop-opacity="0.31"/>
<stop offset="0.785" stop-color="#827A7A" stop-opacity="0.785"/>
<stop offset="1" stop-color="#766E6E"/>
</linearGradient>
<linearGradient id="paint26_linear_1_716" x1="388.044" y1="422.946" x2="376.085" y2="446.296" gradientUnits="userSpaceOnUse">
<stop stop-color="white"/>
<stop offset="1" stop-color="#E1D3CE"/>
</linearGradient>
<linearGradient id="paint27_linear_1_716" x1="383.713" y1="406.353" x2="320.75" y2="405.371" gradientUnits="userSpaceOnUse">
<stop stop-color="#9E9797" stop-opacity="0"/>
<stop offset="0.31" stop-color="#968F8F" stop-opacity="0.31"/>
<stop offset="0.785" stop-color="#827A7A" stop-opacity="0.785"/>
<stop offset="1" stop-color="#766E6E"/>
</linearGradient>
<linearGradient id="paint28_linear_1_716" x1="189.571" y1="404.943" x2="224.114" y2="463.064" gradientUnits="userSpaceOnUse">
<stop stop-color="white"/>
<stop offset="1" stop-color="#E1D3CE"/>
</linearGradient>
<linearGradient id="paint29_linear_1_716" x1="305.307" y1="427.207" x2="290.569" y2="447.948" gradientUnits="userSpaceOnUse">
<stop stop-color="#F9F5F3"/>
<stop offset="1" stop-color="#EFE2DD"/>
</linearGradient>
<linearGradient id="paint30_linear_1_716" x1="91.9511" y1="147.268" x2="332.983" y2="424.701" gradientUnits="userSpaceOnUse">
<stop stop-color="#FEAEE1"/>
<stop offset="1" stop-color="#FE5694"/>
</linearGradient>
<linearGradient id="paint31_linear_1_716" x1="228.281" y1="240.581" x2="282.47" y2="294.771" gradientUnits="userSpaceOnUse">
<stop stop-color="#FEAEE1"/>
<stop offset="1" stop-color="#FE5694"/>
</linearGradient>
<linearGradient id="paint32_linear_1_716" x1="241.404" y1="242.964" x2="267.589" y2="289.473" gradientUnits="userSpaceOnUse">
<stop stop-color="#5A5A5A"/>
<stop offset="1" stop-color="#444444"/>
</linearGradient>
<linearGradient id="paint33_linear_1_716" x1="149.976" y1="210.836" x2="186.143" y2="237.459" gradientUnits="userSpaceOnUse">
<stop stop-color="#5A5A5A"/>
<stop offset="1" stop-color="#444444"/>
</linearGradient>
<linearGradient id="paint34_linear_1_716" x1="324.768" y1="209.277" x2="356.916" y2="233.388" gradientUnits="userSpaceOnUse">
<stop stop-color="#5A5A5A"/>
<stop offset="1" stop-color="#444444"/>
</linearGradient>
<linearGradient id="paint35_linear_1_716" x1="186.593" y1="398.214" x2="222.009" y2="450.028" gradientUnits="userSpaceOnUse">
<stop stop-color="#FE0364" stop-opacity="0"/>
<stop offset="0.399" stop-color="#F70360" stop-opacity="0.399"/>
<stop offset="0.974" stop-color="#E40257" stop-opacity="0.974"/>
<stop offset="1" stop-color="#E30256"/>
</linearGradient>
<linearGradient id="paint36_linear_1_716" x1="322.836" y1="400.839" x2="297.914" y2="440.19" gradientUnits="userSpaceOnUse">
<stop stop-color="#FE0364" stop-opacity="0"/>
<stop offset="0.399" stop-color="#F70360" stop-opacity="0.399"/>
<stop offset="0.974" stop-color="#E40257" stop-opacity="0.974"/>
<stop offset="1" stop-color="#E30256"/>
</linearGradient>
<clipPath id="clip0_1_716">
<rect width="512" height="512" fill="white"/>
</clipPath>
</defs>
</svg>
