<svg width="512" height="512" viewBox="0 0 512 512" fill="none" xmlns="http://www.w3.org/2000/svg">
<path d="M189.239 185.951C187.259 185.953 185.359 185.174 183.95 183.782L109.66 110.495C108.258 109.089 107.468 107.185 107.463 105.199C107.458 103.213 108.238 101.305 109.633 99.8915C111.028 98.4777 112.925 97.6724 114.911 97.6508C116.897 97.6293 118.811 98.3934 120.237 99.7766L194.527 173.063C195.59 174.112 196.316 175.453 196.615 176.916C196.914 178.379 196.77 179.898 196.204 181.28C195.637 182.661 194.672 183.843 193.432 184.675C192.192 185.507 190.732 185.951 189.239 185.951Z" fill="url(#paint0_linear_1_758)"/>
<path d="M87.8371 494.157C86.7029 494.157 85.5834 493.899 84.5634 493.403C83.6732 492.973 82.8767 492.371 82.2191 491.632C81.5616 490.894 81.056 490.033 80.7312 489.099C80.4064 488.165 80.2688 487.176 80.3262 486.189C80.3836 485.202 80.6349 484.236 81.0657 483.346L127.345 387.702C137.127 367.484 155.065 352.154 176.56 345.641L179.023 344.894C180.935 344.315 182.998 344.518 184.759 345.46C186.52 346.402 187.835 348.005 188.414 349.916C188.993 351.827 188.79 353.89 187.848 355.651C186.906 357.412 185.304 358.727 183.392 359.306L180.928 360.053C163.445 365.35 148.857 377.819 140.9 394.262L94.6206 489.906C94.0039 491.18 93.0403 492.255 91.8405 493.007C90.6407 493.759 89.2532 494.158 87.8371 494.157Z" fill="url(#paint1_linear_1_758)"/>
<path d="M64.7467 393.764C63.356 393.763 61.9928 393.377 60.8082 392.649C59.6236 391.92 58.6639 390.878 58.0354 389.638C57.407 388.397 57.1343 387.007 57.2477 385.621C57.3611 384.235 57.8562 382.907 58.6779 381.785L93.8564 333.754C105.906 317.3 122.467 305.094 141.748 298.453L204.857 276.716C205.792 276.393 206.781 276.258 207.768 276.318C208.755 276.378 209.721 276.632 210.609 277.065C211.498 277.499 212.293 278.103 212.948 278.844C213.603 279.584 214.106 280.447 214.427 281.382C214.75 282.317 214.884 283.306 214.824 284.293C214.764 285.28 214.51 286.245 214.077 287.134C213.644 288.023 213.039 288.817 212.299 289.473C211.558 290.128 210.696 290.631 209.761 290.953L146.653 312.689C130.288 318.326 116.232 328.687 106.006 342.651L70.8274 390.683C70.128 391.639 69.2127 392.417 68.1561 392.952C67.0994 393.487 65.9312 393.766 64.7467 393.764Z" fill="url(#paint2_linear_1_758)"/>
<path d="M322.761 185.951C321.268 185.951 319.808 185.507 318.568 184.675C317.327 183.843 316.363 182.662 315.796 181.28C315.229 179.899 315.085 178.38 315.384 176.916C315.683 175.453 316.409 174.112 317.472 173.063L391.763 99.7766C393.188 98.3934 395.102 97.6293 397.088 97.6508C399.074 97.6724 400.971 98.4777 402.366 99.8915C403.761 101.305 404.541 103.213 404.536 105.199C404.531 107.185 403.741 109.089 402.339 110.495L328.049 183.782C326.641 185.174 324.741 185.953 322.761 185.951Z" fill="url(#paint3_linear_1_758)"/>
<path d="M424.163 494.157C422.747 494.158 421.359 493.759 420.159 493.007C418.959 492.255 417.996 491.18 417.379 489.906L371.099 394.262C363.143 377.819 348.554 365.35 331.073 360.053L328.607 359.306C326.732 358.698 325.17 357.377 324.257 355.629C323.344 353.881 323.153 351.845 323.725 349.958C324.297 348.071 325.586 346.483 327.316 345.536C329.046 344.589 331.078 344.359 332.976 344.894L335.441 345.641C356.935 352.153 374.873 367.485 384.654 387.702L430.934 483.346C431.49 484.493 431.745 485.763 431.676 487.036C431.607 488.309 431.215 489.544 430.539 490.624C429.862 491.705 428.922 492.596 427.807 493.214C426.691 493.832 425.438 494.156 424.163 494.157Z" fill="url(#paint4_linear_1_758)"/>
<path d="M447.253 393.764C446.068 393.766 444.9 393.488 443.843 392.952C442.787 392.417 441.871 391.639 441.172 390.683L405.994 342.651C395.767 328.687 381.711 318.327 365.347 312.689L302.238 290.953C301.304 290.631 300.441 290.128 299.701 289.472C298.961 288.817 298.356 288.022 297.923 287.134C297.49 286.245 297.236 285.28 297.176 284.293C297.115 283.306 297.25 282.317 297.572 281.382C298.927 277.451 303.21 275.358 307.143 276.716L370.251 298.453C389.532 305.094 406.093 317.3 418.143 333.754L453.322 381.785C454.143 382.907 454.638 384.235 454.752 385.621C454.865 387.007 454.593 388.397 453.964 389.638C453.336 390.878 452.376 391.92 451.191 392.649C450.007 393.377 448.644 393.763 447.253 393.764Z" fill="url(#paint5_linear_1_758)"/>
<path d="M346.07 362.022C341.254 326.505 332.031 291.51 321.063 256.935C276.597 233.213 235.316 233.255 190.93 256.935C179.969 291.485 170.751 326.459 165.932 361.954C159.193 411.599 179.291 461.177 218.574 492.271L219.526 493.023C240.927 509.928 271.185 509.927 292.579 493.013L293.493 492.29C332.737 461.194 352.797 411.639 346.07 362.022Z" fill="url(#paint6_linear_1_758)"/>
<path d="M166.95 354.903H345.043C340.01 321.827 331.298 289.198 321.063 256.934C276.596 233.212 235.316 233.254 190.93 256.934C180.696 289.195 171.983 321.825 166.95 354.903Z" fill="url(#paint7_linear_1_758)"/>
<path d="M335.134 438.542C345.625 414.912 349.657 388.477 346.07 362.022C344.982 354.067 343.689 346.141 342.193 338.252C284.883 347.174 227.05 347.302 169.725 338.646C168.264 346.382 166.999 354.153 165.931 361.953C162.319 388.56 166.425 415.145 177.053 438.879C229.574 445.027 282.639 444.914 335.134 438.542Z" fill="url(#paint8_linear_1_758)"/>
<path d="M321.255 167.377H190.745V129.228C190.745 93.1888 219.96 63.9727 256 63.9727C292.039 63.9727 321.255 93.1878 321.255 129.228V167.377Z" fill="url(#paint9_linear_1_758)"/>
<path d="M321.255 167.377H190.745V129.228C190.745 93.1888 219.96 63.9727 256 63.9727C292.039 63.9727 321.255 93.1878 321.255 129.228V167.377Z" fill="url(#paint10_linear_1_758)"/>
<path d="M344.723 184.859C339.191 169.86 326.698 158.447 311.215 154.469C274.191 144.958 237.809 144.958 200.784 154.469C185.301 158.447 172.808 169.859 167.276 184.858C158.411 208.895 158.409 232.265 167.276 256.307C172.808 271.307 185.301 282.721 200.785 286.699C237.809 296.21 274.191 296.209 311.215 286.699C326.699 282.721 339.192 271.307 344.724 256.307C353.59 232.265 353.588 208.895 344.723 184.859Z" fill="url(#paint11_linear_1_758)"/>
<path d="M311.215 286.7C326.699 282.722 339.192 271.308 344.724 256.308C349.449 243.494 351.63 230.871 351.317 218.235C288.005 228.98 223.994 228.98 160.682 218.235C160.369 230.871 162.55 243.494 167.276 256.308C172.808 271.308 185.301 282.722 200.785 286.7C237.809 296.211 274.191 296.21 311.215 286.7Z" fill="url(#paint12_linear_1_758)"/>
<path d="M281.609 99.1712C280.537 99.1723 279.478 98.9447 278.501 98.5035C277.524 98.0623 276.653 97.4177 275.945 96.6128C275.237 95.8079 274.71 94.8612 274.397 93.8361C274.085 92.8109 273.994 91.7308 274.133 90.668C276.549 72.1376 294.82 48.8547 320.68 31.3503C352.761 9.63348 388.046 1.50874 417.487 9.05823C418.445 9.30371 419.345 9.73549 420.136 10.3289C420.927 10.9224 421.593 11.6658 422.096 12.5168C422.6 13.3678 422.931 14.3096 423.07 15.2886C423.21 16.2675 423.155 17.2643 422.909 18.222C422.663 19.1799 422.232 20.08 421.638 20.8709C421.045 21.6618 420.301 22.3281 419.45 22.8316C418.599 23.3351 417.658 23.6661 416.679 23.8055C415.7 23.9449 414.703 23.8901 413.745 23.6442C388.478 17.1649 357.633 24.5196 329.121 43.82C307.017 58.7815 290.92 78.3921 289.066 92.6146C288.829 94.4259 287.943 96.0895 286.571 97.2956C285.199 98.5018 283.436 99.1684 281.609 99.1712Z" fill="url(#paint13_linear_1_758)"/>
<path d="M230.391 99.1713C228.564 99.1687 226.801 98.5022 225.429 97.296C224.057 96.0898 223.17 94.4261 222.934 92.6147C221.079 78.3911 204.982 58.7815 182.879 43.8201C154.366 24.5197 123.521 17.167 98.2549 23.6443C97.2971 23.8905 96.3003 23.9455 95.3212 23.8062C94.3422 23.6669 93.4003 23.336 92.5492 22.8324C91.6982 22.3288 90.9547 21.6625 90.3613 20.8714C89.768 20.0803 89.3363 19.1801 89.0911 18.2221C88.595 16.2879 88.8875 14.2358 89.9044 12.5173C90.9212 10.7988 92.5791 9.55454 94.5132 9.0583C123.953 1.5078 159.238 9.63254 191.32 31.3504C217.18 48.8548 235.451 72.1377 237.867 90.6681C238.006 91.7309 237.916 92.8111 237.603 93.8363C237.291 94.8615 236.763 95.8083 236.055 96.6132C235.348 97.4181 234.476 98.0627 233.499 98.5039C232.523 98.945 231.463 99.1726 230.391 99.1713Z" fill="url(#paint14_linear_1_758)"/>
<path d="M274.532 227.864L446.783 207.568C472.959 204.484 488.899 235.57 471.117 255.025C441.891 287.002 396.196 298.068 355.577 283.005L271.662 251.887C259.407 247.342 261.552 229.393 274.532 227.864Z" fill="url(#paint15_linear_1_758)"/>
<path d="M274.532 227.864L446.783 207.568C472.959 204.484 488.899 235.57 471.117 255.025C441.891 287.002 396.196 298.068 355.577 283.005L271.662 251.887C259.407 247.342 261.552 229.393 274.532 227.864Z" fill="url(#paint16_linear_1_758)"/>
<path d="M308.902 223.814L274.532 227.864C261.552 229.393 259.407 247.342 271.662 251.887L332.813 274.564C338.103 269.45 342.174 263.21 344.724 256.308C349.377 243.691 351.557 231.257 351.324 218.815L335.77 220.649C326.84 221.915 317.881 222.971 308.902 223.814Z" fill="url(#paint17_linear_1_758)"/>
<path d="M271.228 224.853L459.485 120.603C488.093 104.761 521.004 132.967 509.729 163.663C491.195 214.116 443.924 248.297 390.203 250.088L279.221 253.787C263.013 254.327 257.041 232.71 271.228 224.853Z" fill="url(#paint18_linear_1_758)"/>
<path d="M472.235 217.91C466.565 210.811 457.542 206.3 446.783 207.568L274.532 227.864C266.9 228.763 263.019 235.338 263.605 241.528C264.39 245.206 266.446 248.602 269.537 250.887C270.19 251.267 270.898 251.604 271.663 251.887L276.414 253.649C277.312 253.768 278.247 253.82 279.222 253.788L390.204 250.089C421.098 249.058 449.845 237.3 472.235 217.91Z" fill="url(#paint19_linear_1_758)"/>
<path d="M279.221 253.787L346.359 251.549C353.545 229.174 353.002 207.307 344.722 184.859C344.65 184.664 344.565 184.476 344.491 184.284L271.228 224.854C257.041 232.71 263.013 254.327 279.221 253.787Z" fill="url(#paint20_linear_1_758)"/>
<path d="M269.273 226.132C257.675 234.814 263.82 254.3 279.221 253.787L346.363 251.549C349.951 240.363 351.59 229.304 351.317 218.235C324.196 222.844 296.776 225.483 269.273 226.132Z" fill="url(#paint21_linear_1_758)"/>
<path d="M503.527 128.651C493.389 116.828 475.745 111.6 459.485 120.603L271.229 224.853C265.533 228.006 263.093 233.378 263.254 238.643C263.549 238.576 462.817 192.86 503.527 128.651Z" fill="url(#paint22_linear_1_758)"/>
<path d="M459.485 120.603L436.119 133.542C438.315 163.244 459.449 188.476 489.164 200.25C497.929 189.231 504.872 176.879 509.728 163.663C521.005 132.968 488.093 104.762 459.485 120.603Z" fill="url(#paint23_linear_1_758)"/>
<path d="M237.467 227.864L65.2165 207.568C39.0413 204.484 23.101 235.57 40.8825 255.025C70.1086 287.002 115.804 298.068 156.423 283.005L240.338 251.887C252.592 247.342 250.448 229.393 237.467 227.864Z" fill="url(#paint24_linear_1_758)"/>
<path d="M237.467 227.864L65.2165 207.568C39.0413 204.484 23.101 235.57 40.8825 255.025C70.1086 287.002 115.804 298.068 156.423 283.005L240.338 251.887C252.592 247.342 250.448 229.393 237.467 227.864Z" fill="url(#paint25_linear_1_758)"/>
<path d="M203.098 223.814L237.468 227.864C250.448 229.393 252.593 247.342 240.338 251.887L179.187 274.564C173.897 269.45 169.826 263.21 167.276 256.308C162.623 243.691 160.443 231.257 160.676 218.815L176.23 220.649C185.16 221.915 194.119 222.971 203.098 223.814Z" fill="url(#paint26_linear_1_758)"/>
<path d="M240.771 224.853L52.5151 120.603C23.9074 104.761 -9.00422 132.967 2.27084 163.663C20.8052 214.116 68.0759 248.297 121.797 250.088L232.779 253.787C248.987 254.327 254.959 232.71 240.771 224.853Z" fill="url(#paint27_linear_1_758)"/>
<path d="M39.7651 217.91C45.4343 210.811 54.4575 206.3 65.2166 207.568L237.467 227.864C245.099 228.763 248.98 235.338 248.395 241.528C247.61 245.206 245.554 248.602 242.463 250.887C241.809 251.267 241.102 251.604 240.337 251.887L235.586 253.649C234.688 253.768 233.753 253.82 232.778 253.788L121.796 250.089C90.9019 249.058 62.1546 237.3 39.7651 217.91Z" fill="url(#paint28_linear_1_758)"/>
<path d="M232.779 253.787L165.641 251.549C158.455 229.174 158.998 207.307 167.277 184.859C167.35 184.664 167.435 184.476 167.509 184.284L240.771 224.854C254.959 232.71 248.987 254.327 232.779 253.787Z" fill="url(#paint29_linear_1_758)"/>
<path d="M242.727 226.132C254.325 234.814 248.18 254.3 232.779 253.787L165.637 251.549C162.049 240.363 160.409 229.304 160.683 218.235C187.804 222.844 215.224 225.483 242.727 226.132Z" fill="url(#paint30_linear_1_758)"/>
<path d="M8.47314 128.651C18.6107 116.828 36.2557 111.6 52.5152 120.603L240.773 224.853C246.468 228.006 248.908 233.378 248.748 238.643C248.452 238.576 49.1832 192.86 8.47314 128.651Z" fill="url(#paint31_linear_1_758)"/>
<path d="M52.5153 120.603L75.8815 133.542C73.685 163.244 52.5514 188.476 22.8363 200.25C14.0713 189.231 7.12857 176.879 2.27199 163.663C-9.00506 132.968 23.9075 104.762 52.5153 120.603Z" fill="url(#paint32_linear_1_758)"/>
<defs>
<linearGradient id="paint0_linear_1_758" x1="107.419" y1="141.779" x2="196.768" y2="141.779" gradientUnits="userSpaceOnUse">
<stop stop-color="#5A5A5A"/>
<stop offset="1" stop-color="#444444"/>
</linearGradient>
<linearGradient id="paint1_linear_1_758" x1="80.3117" y1="419.362" x2="188.739" y2="419.362" gradientUnits="userSpaceOnUse">
<stop stop-color="#5A5A5A"/>
<stop offset="1" stop-color="#444444"/>
</linearGradient>
<linearGradient id="paint2_linear_1_758" x1="57.2233" y1="335.033" x2="214.841" y2="335.033" gradientUnits="userSpaceOnUse">
<stop stop-color="#5A5A5A"/>
<stop offset="1" stop-color="#444444"/>
</linearGradient>
<linearGradient id="paint3_linear_1_758" x1="404.581" y1="141.779" x2="315.232" y2="141.779" gradientUnits="userSpaceOnUse">
<stop stop-color="#5A5A5A"/>
<stop offset="1" stop-color="#444444"/>
</linearGradient>
<linearGradient id="paint4_linear_1_758" x1="431.688" y1="419.362" x2="323.261" y2="419.362" gradientUnits="userSpaceOnUse">
<stop stop-color="#5A5A5A"/>
<stop offset="1" stop-color="#444444"/>
</linearGradient>
<linearGradient id="paint5_linear_1_758" x1="454.776" y1="335.033" x2="297.159" y2="335.033" gradientUnits="userSpaceOnUse">
<stop stop-color="#5A5A5A"/>
<stop offset="1" stop-color="#444444"/>
</linearGradient>
<linearGradient id="paint6_linear_1_758" x1="207.169" y1="321.684" x2="317.601" y2="415.049" gradientUnits="userSpaceOnUse">
<stop stop-color="#FEF0AE"/>
<stop offset="1" stop-color="#FAC600"/>
</linearGradient>
<linearGradient id="paint7_linear_1_758" x1="257.711" y1="337.48" x2="285.821" y2="251.143" gradientUnits="userSpaceOnUse">
<stop stop-color="#FEA613" stop-opacity="0"/>
<stop offset="1" stop-color="#E94444"/>
</linearGradient>
<linearGradient id="paint8_linear_1_758" x1="229.992" y1="357.501" x2="292.235" y2="422.756" gradientUnits="userSpaceOnUse">
<stop stop-color="#766E6E"/>
<stop offset="1" stop-color="#5B5555"/>
</linearGradient>
<linearGradient id="paint9_linear_1_758" x1="226.023" y1="106.308" x2="266.18" y2="143.453" gradientUnits="userSpaceOnUse">
<stop stop-color="#766E6E"/>
<stop offset="1" stop-color="#5B5555"/>
</linearGradient>
<linearGradient id="paint10_linear_1_758" x1="256" y1="116.201" x2="256" y2="161.556" gradientUnits="userSpaceOnUse">
<stop stop-color="#766E6E" stop-opacity="0"/>
<stop offset="1" stop-color="#1A1A1A"/>
</linearGradient>
<linearGradient id="paint11_linear_1_758" x1="218.899" y1="179.773" x2="279.134" y2="246.032" gradientUnits="userSpaceOnUse">
<stop stop-color="#FEF0AE"/>
<stop offset="1" stop-color="#FAC600"/>
</linearGradient>
<linearGradient id="paint12_linear_1_758" x1="242.087" y1="224.389" x2="303.326" y2="282.617" gradientUnits="userSpaceOnUse">
<stop stop-color="#766E6E"/>
<stop offset="1" stop-color="#5B5555"/>
</linearGradient>
<linearGradient id="paint13_linear_1_758" x1="274.069" y1="52.7358" x2="423.147" y2="52.7358" gradientUnits="userSpaceOnUse">
<stop stop-color="#5A5A5A"/>
<stop offset="1" stop-color="#444444"/>
</linearGradient>
<linearGradient id="paint14_linear_1_758" x1="237.931" y1="52.7359" x2="88.8531" y2="52.7359" gradientUnits="userSpaceOnUse">
<stop stop-color="#5A5A5A"/>
<stop offset="1" stop-color="#444444"/>
</linearGradient>
<linearGradient id="paint15_linear_1_758" x1="374.706" y1="244.475" x2="397.796" y2="295.675" gradientUnits="userSpaceOnUse">
<stop stop-color="#F9F5F3"/>
<stop offset="1" stop-color="#EFE2DD"/>
</linearGradient>
<linearGradient id="paint16_linear_1_758" x1="382.396" y1="282.864" x2="364.995" y2="212.589" gradientUnits="userSpaceOnUse">
<stop stop-color="#9E9797" stop-opacity="0"/>
<stop offset="0.31" stop-color="#968F8F" stop-opacity="0.31"/>
<stop offset="0.785" stop-color="#827A7A" stop-opacity="0.785"/>
<stop offset="1" stop-color="#766E6E"/>
</linearGradient>
<linearGradient id="paint17_linear_1_758" x1="309.389" y1="235.728" x2="332.144" y2="293.286" gradientUnits="userSpaceOnUse">
<stop stop-color="#9E9797" stop-opacity="0"/>
<stop offset="0.31" stop-color="#968F8F" stop-opacity="0.31"/>
<stop offset="0.785" stop-color="#827A7A" stop-opacity="0.785"/>
<stop offset="1" stop-color="#766E6E"/>
</linearGradient>
<linearGradient id="paint18_linear_1_758" x1="374.834" y1="160.377" x2="403.948" y2="234.667" gradientUnits="userSpaceOnUse">
<stop stop-color="#F9F5F3"/>
<stop offset="1" stop-color="#EFE2DD"/>
</linearGradient>
<linearGradient id="paint19_linear_1_758" x1="369.021" y1="224.765" x2="402.151" y2="130.396" gradientUnits="userSpaceOnUse">
<stop stop-color="#9E9797" stop-opacity="0"/>
<stop offset="0.31" stop-color="#968F8F" stop-opacity="0.31"/>
<stop offset="0.785" stop-color="#827A7A" stop-opacity="0.785"/>
<stop offset="1" stop-color="#766E6E"/>
</linearGradient>
<linearGradient id="paint20_linear_1_758" x1="302.712" y1="212.719" x2="407.622" y2="340.217" gradientUnits="userSpaceOnUse">
<stop stop-color="#FEA613" stop-opacity="0"/>
<stop offset="1" stop-color="#E94444"/>
</linearGradient>
<linearGradient id="paint21_linear_1_758" x1="287.17" y1="207.787" x2="364.806" y2="298.139" gradientUnits="userSpaceOnUse">
<stop stop-color="#9E9797" stop-opacity="0"/>
<stop offset="0.31" stop-color="#968F8F" stop-opacity="0.31"/>
<stop offset="0.785" stop-color="#827A7A" stop-opacity="0.785"/>
<stop offset="1" stop-color="#766E6E"/>
</linearGradient>
<linearGradient id="paint22_linear_1_758" x1="392.981" y1="187.538" x2="573.019" y2="285.923" gradientUnits="userSpaceOnUse">
<stop stop-color="#9E9797" stop-opacity="0"/>
<stop offset="0.31" stop-color="#968F8F" stop-opacity="0.31"/>
<stop offset="0.785" stop-color="#827A7A" stop-opacity="0.785"/>
<stop offset="1" stop-color="#766E6E"/>
</linearGradient>
<linearGradient id="paint23_linear_1_758" x1="472.526" y1="150.421" x2="435.716" y2="288.963" gradientUnits="userSpaceOnUse">
<stop stop-color="#9E9797" stop-opacity="0"/>
<stop offset="0.31" stop-color="#968F8F" stop-opacity="0.31"/>
<stop offset="0.785" stop-color="#827A7A" stop-opacity="0.785"/>
<stop offset="1" stop-color="#766E6E"/>
</linearGradient>
<linearGradient id="paint24_linear_1_758" x1="137.294" y1="244.475" x2="114.204" y2="295.675" gradientUnits="userSpaceOnUse">
<stop stop-color="#F9F5F3"/>
<stop offset="1" stop-color="#EFE2DD"/>
</linearGradient>
<linearGradient id="paint25_linear_1_758" x1="129.604" y1="282.864" x2="147.005" y2="212.589" gradientUnits="userSpaceOnUse">
<stop stop-color="#9E9797" stop-opacity="0"/>
<stop offset="0.31" stop-color="#968F8F" stop-opacity="0.31"/>
<stop offset="0.785" stop-color="#827A7A" stop-opacity="0.785"/>
<stop offset="1" stop-color="#766E6E"/>
</linearGradient>
<linearGradient id="paint26_linear_1_758" x1="202.611" y1="235.729" x2="179.855" y2="293.286" gradientUnits="userSpaceOnUse">
<stop stop-color="#9E9797" stop-opacity="0"/>
<stop offset="0.31" stop-color="#968F8F" stop-opacity="0.31"/>
<stop offset="0.785" stop-color="#827A7A" stop-opacity="0.785"/>
<stop offset="1" stop-color="#766E6E"/>
</linearGradient>
<linearGradient id="paint27_linear_1_758" x1="137.166" y1="160.377" x2="108.052" y2="234.667" gradientUnits="userSpaceOnUse">
<stop stop-color="#F9F5F3"/>
<stop offset="1" stop-color="#EFE2DD"/>
</linearGradient>
<linearGradient id="paint28_linear_1_758" x1="142.978" y1="224.765" x2="109.849" y2="130.396" gradientUnits="userSpaceOnUse">
<stop stop-color="#9E9797" stop-opacity="0"/>
<stop offset="0.31" stop-color="#968F8F" stop-opacity="0.31"/>
<stop offset="0.785" stop-color="#827A7A" stop-opacity="0.785"/>
<stop offset="1" stop-color="#766E6E"/>
</linearGradient>
<linearGradient id="paint29_linear_1_758" x1="209.287" y1="212.719" x2="104.378" y2="340.217" gradientUnits="userSpaceOnUse">
<stop stop-color="#FEA613" stop-opacity="0"/>
<stop offset="1" stop-color="#E94444"/>
</linearGradient>
<linearGradient id="paint30_linear_1_758" x1="224.83" y1="207.787" x2="147.194" y2="298.139" gradientUnits="userSpaceOnUse">
<stop stop-color="#9E9797" stop-opacity="0"/>
<stop offset="0.31" stop-color="#968F8F" stop-opacity="0.31"/>
<stop offset="0.785" stop-color="#827A7A" stop-opacity="0.785"/>
<stop offset="1" stop-color="#766E6E"/>
</linearGradient>
<linearGradient id="paint31_linear_1_758" x1="119.019" y1="187.538" x2="-61.0183" y2="285.923" gradientUnits="userSpaceOnUse">
<stop stop-color="#9E9797" stop-opacity="0"/>
<stop offset="0.31" stop-color="#968F8F" stop-opacity="0.31"/>
<stop offset="0.785" stop-color="#827A7A" stop-opacity="0.785"/>
<stop offset="1" stop-color="#766E6E"/>
</linearGradient>
<linearGradient id="paint32_linear_1_758" x1="39.4743" y1="150.421" x2="76.2841" y2="288.963" gradientUnits="userSpaceOnUse">
<stop stop-color="#9E9797" stop-opacity="0"/>
<stop offset="0.31" stop-color="#968F8F" stop-opacity="0.31"/>
<stop offset="0.785" stop-color="#827A7A" stop-opacity="0.785"/>
<stop offset="1" stop-color="#766E6E"/>
</linearGradient>
</defs>
</svg>
