<svg width="512" height="512" viewBox="0 0 512 512" fill="none" xmlns="http://www.w3.org/2000/svg">
<g clip-path="url(#clip0_1_72)">
<mask id="mask0_1_72" style="mask-type:luminance" maskUnits="userSpaceOnUse" x="0" y="0" width="512" height="512">
<path d="M512 0H0V512H512V0Z" fill="white"/>
</mask>
<g mask="url(#mask0_1_72)">
<path d="M92.927 50.5644L114.942 26.5516C118.253 22.9405 117.287 17.178 112.979 14.8439C111.503 14.0441 109.803 13.7604 108.147 14.038C106.491 14.3155 104.976 15.1384 103.842 16.3759L81.8266 40.3877C78.5157 43.9988 79.4814 49.7613 83.7893 52.0954C85.265 52.8955 86.9659 53.1795 88.6215 52.9021C90.2772 52.6247 91.7926 51.8019 92.927 50.5644Z" fill="url(#paint0_linear_1_72)"/>
<path d="M120.256 66.7478L137.007 38.8076C139.527 34.6052 137.425 29.1539 132.737 27.7314C131.13 27.2438 129.407 27.3069 127.841 27.9108C126.275 28.5147 124.955 29.6247 124.092 31.0644L107.34 59.0045C104.82 63.207 106.923 68.6583 111.611 70.0808C113.217 70.5684 114.94 70.5053 116.507 69.9014C118.073 69.2975 119.393 68.1875 120.256 66.7478Z" fill="url(#paint1_linear_1_72)"/>
<path d="M149.778 76.6835L160.594 45.9545C162.221 41.3324 159.07 36.4132 154.192 35.9575C152.521 35.8013 150.845 36.2082 149.432 37.1135C148.018 38.0188 146.947 39.3705 146.39 40.954L135.574 71.683C133.947 76.3051 137.098 81.2243 141.976 81.6801C143.647 81.8362 145.323 81.4293 146.736 80.524C148.15 79.6187 149.221 78.267 149.778 76.6835Z" fill="url(#paint2_linear_1_72)"/>
<path d="M168.38 86.4215L184.138 57.9091C186.509 53.6204 184.217 48.2474 179.48 46.9895C177.858 46.5587 176.138 46.6824 174.594 47.341C173.05 47.9997 171.77 49.1554 170.958 50.6247L155.2 79.1371C152.83 83.4258 155.123 88.7988 159.858 90.0567C161.481 90.4873 163.201 90.3634 164.744 89.7048C166.288 89.0462 167.568 87.8906 168.38 86.4215Z" fill="url(#paint3_linear_1_72)"/>
<path d="M28.65 62.0274C26.9313 61.0948 24.9169 60.8683 23.034 61.3959C21.6811 61.7735 20.4611 62.5227 19.5123 63.5584L8.04446 76.0682C7.05745 77.1447 6.40484 78.4849 6.16616 79.9258C5.92748 81.3666 6.11304 82.8457 6.70021 84.1829C8.88675 89.1624 15.4695 90.2526 19.1448 86.244L30.6136 73.7351C31.431 72.8479 32.0221 71.7765 32.3368 70.612C32.6514 69.4474 32.6802 68.2241 32.4207 67.046C32.193 65.9863 31.7379 64.9888 31.0868 64.1223C30.4358 63.2558 29.6043 62.541 28.65 62.0274Z" fill="url(#paint4_linear_1_72)"/>
<path d="M0.428709 232.281C-0.129254 233.864 -0.14215 235.589 0.392069 237.18C0.926289 238.771 1.97698 240.139 3.37723 241.065L17.5335 250.424C18.7518 251.23 20.1779 251.663 21.6383 251.673C23.0987 251.682 24.5303 251.266 25.7587 250.476C30.3325 247.535 30.3747 240.862 25.838 237.863L11.6817 228.503C10.6768 227.836 9.52565 227.421 8.32598 227.293C7.1263 227.165 5.91355 227.329 4.79075 227.771C3.78039 228.162 2.86705 228.768 2.1139 229.546C1.36075 230.325 0.785762 231.258 0.428709 232.281Z" fill="url(#paint5_linear_1_72)"/>
<path d="M17.5515 209.281C16.5794 210.65 16.0932 212.305 16.1703 213.982C16.2474 215.659 16.8835 217.263 17.9772 218.537L29.0223 231.422C29.9729 232.531 31.2254 233.34 32.6274 233.749C34.0293 234.159 35.5201 234.152 36.9182 233.729C42.1235 232.155 43.9948 225.751 40.456 221.622L29.4109 208.736C28.6278 207.818 27.6349 207.102 26.5163 206.65C25.3977 206.198 24.1866 206.023 22.9858 206.139C21.9065 206.238 20.8616 206.57 19.9233 207.113C18.985 207.655 18.1758 208.395 17.5515 209.281Z" fill="url(#paint6_linear_1_72)"/>
<path d="M43.0492 193.986C41.7012 194.987 40.7269 196.41 40.2814 198.029C39.8359 199.648 39.9447 201.369 40.5906 202.919L47.107 218.589C47.6678 219.938 48.6087 221.094 49.8151 221.917C51.0215 222.741 52.4413 223.195 53.9016 223.226C59.3388 223.341 63.0995 217.829 61.0123 212.807L54.4969 197.137C54.0364 196.022 53.3134 195.035 52.3895 194.259C51.4656 193.483 50.3681 192.942 49.1902 192.681C48.1331 192.44 47.0365 192.432 45.9761 192.658C44.9157 192.883 43.917 193.336 43.0492 193.986Z" fill="url(#paint7_linear_1_72)"/>
<path d="M42.9428 78.6662C41.1574 77.8685 39.1315 77.7975 37.2947 78.4684C35.9747 78.949 34.8158 79.7899 33.9497 80.8959L23.4768 94.2501C22.5757 95.3993 22.0282 96.7858 21.901 98.2406C21.7737 99.6954 22.0721 101.156 22.76 102.444C25.323 107.241 31.9699 107.822 35.326 103.542L45.7989 90.1892C46.5457 89.2417 47.0528 88.128 47.277 86.9427C47.5013 85.7573 47.4361 84.5354 47.087 83.3806C46.7789 82.3415 46.2487 81.3818 45.5332 80.5678C44.8176 79.7538 43.9338 79.105 42.9428 78.6662Z" fill="url(#paint8_linear_1_72)"/>
<path d="M60.6921 89.7859C59.0643 89.3745 57.3457 89.5196 55.8098 90.1981C54.274 90.8765 53.0093 92.0492 52.217 93.5295L44.1967 108.486C43.5064 109.773 43.2054 111.233 43.3303 112.689C43.4553 114.144 44.0008 115.531 44.9004 116.682C48.2495 120.967 54.8975 120.395 57.4675 115.603L65.4879 100.646C66.0604 99.5844 66.3682 98.4 66.3851 97.1937C66.4021 95.9874 66.1277 94.7948 65.5852 93.7172C65.1032 92.7465 64.4159 91.8922 63.571 91.2134C62.7262 90.5346 61.7439 90.0475 60.6921 89.7859Z" fill="url(#paint9_linear_1_72)"/>
<path d="M82.402 101.08C80.7741 100.668 79.0555 100.814 77.5197 101.492C75.9838 102.17 74.7191 103.343 73.9269 104.823L65.9065 119.78C65.2162 121.067 64.9152 122.527 65.0402 123.982C65.1651 125.438 65.7107 126.825 66.6103 127.976C69.9594 132.261 76.6073 131.689 79.1774 126.897L87.1977 111.94C87.7702 110.878 88.078 109.694 88.095 108.488C88.1119 107.281 87.8375 106.089 87.2951 105.011C86.813 104.04 86.1258 103.186 85.2809 102.507C84.436 101.829 83.4537 101.341 82.402 101.08Z" fill="url(#paint10_linear_1_72)"/>
<path d="M102.731 112.249C101.103 111.837 99.3848 111.982 97.849 112.661C96.3132 113.339 95.0485 114.512 94.2562 115.992L86.2359 130.949C85.5456 132.236 85.2446 133.696 85.3695 135.151C85.4945 136.606 86.04 137.994 86.9396 139.145C90.2887 143.429 96.9367 142.858 99.5067 138.065L107.527 123.109C108.1 122.047 108.407 120.863 108.424 119.656C108.441 118.45 108.167 117.257 107.624 116.18C107.142 115.209 106.455 114.355 105.61 113.676C104.765 112.997 103.783 112.51 102.731 112.249Z" fill="url(#paint11_linear_1_72)"/>
<path d="M174.578 61.8627C194.267 81.5516 178.951 115.285 151.187 113.176C132.089 111.725 113.397 103.697 98.7909 89.09C80.1862 70.4854 72.2573 45.2498 74.998 20.992C75.8212 13.7076 85.2912 11.3393 89.5046 17.3377C92.2769 21.2818 95.3857 24.9783 98.7959 28.3859C114.1 43.6897 133.895 51.7723 153.94 52.6286C161.482 52.9509 168.661 55.9466 173.999 61.2844L174.578 61.8627Z" fill="url(#paint12_linear_1_72)"/>
<path d="M100.108 251.005C119.797 231.316 104.481 197.582 76.7167 199.691C57.6191 201.142 38.9271 209.17 24.3211 223.777C5.71638 242.382 -2.2126 267.617 0.528111 291.875C1.35133 299.16 10.8213 301.528 15.0348 295.529C17.8071 291.585 20.9158 287.889 24.3261 284.481C39.6299 269.178 59.4252 261.095 79.4705 260.239C87.0119 259.916 94.191 256.921 99.5288 251.583L100.108 251.005Z" fill="url(#paint13_linear_1_72)"/>
<path d="M4.24962 61.0665C5.64608 55.2136 13.812 54.8171 15.8068 60.4942C21.1306 75.6414 32.9658 94.6918 59.2655 105.729C107.827 126.109 138.082 156.445 138.082 156.445L108.179 204.728C108.179 204.728 83.3506 170.629 33.1545 154.662C5.05778 145.725 -7.16296 108.883 4.24962 61.0665Z" fill="url(#paint14_linear_1_72)"/>
<path d="M405.25 498.067H106.75C99.6463 498.067 93.8878 492.308 93.8878 485.204C93.8878 416.584 149.515 360.957 218.135 360.957H293.864C362.484 360.957 418.111 416.584 418.111 485.204C418.111 492.308 412.353 498.067 405.25 498.067Z" fill="url(#paint15_linear_1_72)"/>
<path d="M418.113 485.206C418.113 492.304 412.351 498.067 405.253 498.067H231.334L130.46 397.192C152.917 374.795 183.908 360.961 218.132 360.961H293.868C328.182 360.961 359.243 374.865 381.721 397.353C404.209 419.841 418.113 450.902 418.113 485.206Z" fill="url(#paint16_linear_1_72)"/>
<path d="M93.8888 485.204C93.8888 492.308 99.6473 498.067 106.75 498.067H405.249C412.353 498.067 418.111 492.308 418.111 485.204C418.111 466.915 414.158 449.548 407.061 433.912H104.939C97.8422 449.549 93.8888 466.915 93.8888 485.204Z" fill="url(#paint17_linear_1_72)"/>
<path d="M419.073 50.5644L397.058 26.5516C393.747 22.9405 394.713 17.178 399.021 14.8439C400.497 14.0441 402.198 13.7604 403.853 14.038C405.509 14.3155 407.024 15.1384 408.158 16.3759L430.173 40.3887C433.484 43.9998 432.519 49.7623 428.211 52.0964C426.735 52.8962 425.034 53.1799 423.378 52.9023C421.723 52.6248 420.207 51.8019 419.073 50.5644Z" fill="url(#paint18_linear_1_72)"/>
<path d="M391.744 66.7478L374.993 38.8076C372.473 34.6052 374.575 29.1539 379.264 27.7314C380.87 27.2438 382.593 27.3069 384.159 27.9108C385.726 28.5147 387.045 29.6247 387.908 31.0644L404.66 59.0045C407.18 63.207 405.077 68.6583 400.389 70.0808C398.783 70.5684 397.06 70.5053 395.493 69.9014C393.927 69.2975 392.608 68.1875 391.744 66.7478Z" fill="url(#paint19_linear_1_72)"/>
<path d="M362.222 76.6835L351.406 45.9545C349.779 41.3324 352.93 36.4132 357.808 35.9575C359.479 35.8013 361.155 36.2082 362.569 37.1135C363.982 38.0188 365.053 39.3705 365.61 40.954L376.426 71.683C378.053 76.3051 374.903 81.2243 370.024 81.6801C368.353 81.8362 366.677 81.4293 365.264 80.524C363.85 79.6187 362.779 78.267 362.222 76.6835Z" fill="url(#paint20_linear_1_72)"/>
<path d="M343.62 86.4215L327.862 57.9091C325.491 53.6204 327.783 48.2474 332.52 46.9895C334.142 46.5587 335.862 46.6824 337.406 47.341C338.95 47.9997 340.23 49.1554 341.042 50.6247L356.801 79.1371C359.171 83.4258 356.878 88.7988 352.143 90.0567C350.52 90.4875 348.8 90.3638 347.256 89.7052C345.712 89.0465 344.432 87.8908 343.62 86.4215Z" fill="url(#paint21_linear_1_72)"/>
<path d="M483.35 62.0274C485.069 61.0948 487.083 60.8683 488.966 61.3959C490.319 61.7733 491.539 62.5225 492.488 63.5584L503.957 76.0682C504.944 77.1447 505.596 78.4849 505.835 79.9258C506.074 81.3666 505.888 82.8457 505.301 84.1829C503.114 89.1624 496.532 90.2526 492.856 86.244L481.387 73.7351C480.57 72.8479 479.979 71.7765 479.664 70.612C479.35 69.4474 479.321 68.2241 479.58 67.046C479.808 65.9863 480.263 64.9887 480.913 64.1222C481.564 63.2557 482.396 62.5409 483.35 62.0274Z" fill="url(#paint22_linear_1_72)"/>
<path d="M511.571 232.281C512.13 233.864 512.144 235.589 511.609 237.181C511.075 238.772 510.024 240.139 508.623 241.065L494.467 250.424C493.248 251.23 491.822 251.663 490.362 251.673C488.901 251.682 487.47 251.266 486.241 250.476C481.668 247.535 481.625 240.862 486.162 237.863L500.318 228.503C501.323 227.836 502.474 227.421 503.674 227.293C504.874 227.165 506.087 227.329 507.209 227.771C508.22 228.162 509.133 228.768 509.886 229.546C510.639 230.325 511.214 231.258 511.571 232.281Z" fill="url(#paint23_linear_1_72)"/>
<path d="M494.449 209.281C495.421 210.65 495.907 212.305 495.83 213.982C495.753 215.659 495.117 217.263 494.023 218.537L482.978 231.422C482.027 232.531 480.775 233.34 479.373 233.749C477.971 234.159 476.48 234.152 475.082 233.729C469.877 232.155 468.005 225.751 471.544 221.622L482.589 208.736C483.372 207.819 484.365 207.103 485.484 206.651C486.602 206.199 487.814 206.024 489.014 206.14C490.094 206.239 491.138 206.571 492.077 207.113C493.015 207.655 493.824 208.395 494.449 209.281Z" fill="url(#paint24_linear_1_72)"/>
<path d="M468.951 193.986C470.299 194.987 471.273 196.41 471.719 198.029C472.164 199.648 472.055 201.369 471.409 202.919L464.893 218.589C464.332 219.938 463.391 221.094 462.185 221.917C460.979 222.741 459.559 223.195 458.098 223.226C452.661 223.34 448.901 217.829 450.988 212.807L457.504 197.137C457.965 196.022 458.688 195.035 459.611 194.259C460.535 193.483 461.633 192.941 462.811 192.681C463.868 192.44 464.964 192.432 466.024 192.658C467.085 192.883 468.083 193.336 468.951 193.986Z" fill="url(#paint25_linear_1_72)"/>
<path d="M469.057 78.6662C470.843 77.8685 472.869 77.7975 474.705 78.4684C476.025 78.949 477.184 79.7899 478.05 80.8959L488.523 94.2501C489.424 95.3993 489.972 96.7858 490.099 98.2406C490.226 99.6954 489.928 101.156 489.24 102.444C486.677 107.241 480.03 107.822 476.674 103.542L466.201 90.1892C465.454 89.2417 464.947 88.128 464.723 86.9427C464.499 85.7573 464.564 84.5354 464.913 83.3806C465.221 82.3415 465.751 81.3818 466.467 80.5678C467.182 79.7538 468.066 79.105 469.057 78.6662Z" fill="url(#paint26_linear_1_72)"/>
<path d="M451.308 89.7859C452.936 89.3745 454.655 89.5196 456.19 90.1981C457.726 90.8765 458.991 92.0492 459.783 93.5295L467.803 108.486C468.494 109.773 468.795 111.233 468.67 112.689C468.545 114.144 467.999 115.531 467.1 116.682C463.751 120.967 457.103 120.395 454.533 115.603L446.512 100.646C445.94 99.5844 445.632 98.4 445.615 97.1937C445.598 95.9874 445.872 94.7948 446.415 93.7172C446.897 92.7465 447.584 91.8922 448.429 91.2134C449.274 90.5346 450.256 90.0475 451.308 89.7859Z" fill="url(#paint27_linear_1_72)"/>
<path d="M429.598 101.08C431.226 100.668 432.945 100.814 434.48 101.492C436.016 102.17 437.281 103.343 438.073 104.823L446.094 119.78C446.784 121.067 447.085 122.527 446.96 123.982C446.835 125.438 446.289 126.825 445.39 127.976C442.041 132.261 435.393 131.689 432.823 126.897L424.802 111.94C424.23 110.878 423.922 109.694 423.905 108.488C423.888 107.281 424.163 106.089 424.705 105.011C425.187 104.04 425.874 103.186 426.719 102.507C427.564 101.829 428.546 101.341 429.598 101.08Z" fill="url(#paint28_linear_1_72)"/>
<path d="M409.269 112.249C410.897 111.837 412.615 111.982 414.151 112.661C415.687 113.339 416.952 114.512 417.744 115.992L425.764 130.949C426.454 132.236 426.755 133.696 426.631 135.151C426.506 136.606 425.96 137.994 425.06 139.145C421.711 143.429 415.063 142.858 412.493 138.065L404.473 123.109C403.9 122.047 403.593 120.863 403.576 119.656C403.559 118.45 403.833 117.257 404.376 116.18C404.858 115.209 405.545 114.355 406.39 113.676C407.235 112.997 408.217 112.51 409.269 112.249Z" fill="url(#paint29_linear_1_72)"/>
<path d="M337.422 61.8627C317.733 81.5516 333.049 115.285 360.813 113.176C379.911 111.725 398.603 103.697 413.209 89.09C431.814 70.4854 439.743 45.2498 437.002 20.992C436.179 13.7076 426.709 11.3393 422.495 17.3377C419.723 21.2818 416.614 24.9783 413.204 28.3859C397.9 43.6897 378.105 51.7723 358.06 52.6286C350.518 52.9509 343.339 55.9466 338.001 61.2844L337.422 61.8627Z" fill="url(#paint30_linear_1_72)"/>
<path d="M337.422 61.8627C317.733 81.5516 333.049 115.285 360.813 113.176C379.911 111.725 398.603 103.697 413.209 89.09C431.814 70.4854 439.743 45.2498 437.002 20.992C436.179 13.7076 426.709 11.3393 422.495 17.3377C419.723 21.2818 416.614 24.9783 413.204 28.3859C397.9 43.6897 378.105 51.7723 358.06 52.6286C350.518 52.9509 343.339 55.9466 338.001 61.2844L337.422 61.8627Z" fill="url(#paint31_linear_1_72)"/>
<path d="M411.892 251.005C392.203 231.316 407.519 197.582 435.283 199.691C454.381 201.142 473.073 209.17 487.679 223.777C506.284 242.382 514.213 267.617 511.472 291.875C510.649 299.16 501.179 301.528 496.965 295.529C494.193 291.585 491.084 287.889 487.674 284.481C472.37 269.178 452.575 261.095 432.53 260.239C424.988 259.916 417.809 256.921 412.471 251.583L411.892 251.005Z" fill="url(#paint32_linear_1_72)"/>
<path d="M411.892 251.005C392.203 231.316 407.519 197.582 435.283 199.691C454.381 201.142 473.073 209.17 487.679 223.777C506.284 242.382 514.213 267.617 511.472 291.875C510.649 299.16 501.179 301.528 496.965 295.529C494.193 291.585 491.084 287.889 487.674 284.481C472.37 269.178 452.575 261.095 432.53 260.239C424.988 259.916 417.809 256.921 412.471 251.583L411.892 251.005Z" fill="url(#paint33_linear_1_72)"/>
<path d="M507.751 61.0665C506.354 55.2136 498.188 54.8171 496.193 60.4942C490.87 75.6414 479.034 94.6918 452.735 105.729C404.173 126.109 373.918 156.445 373.918 156.445L403.822 204.728C403.822 204.728 428.65 170.629 478.846 154.662C506.942 145.725 519.163 108.883 507.751 61.0665Z" fill="url(#paint34_linear_1_72)"/>
<path d="M507.751 61.0665C506.354 55.2136 498.188 54.8171 496.193 60.4942C490.87 75.6414 479.034 94.6918 452.735 105.729C404.173 126.109 373.918 156.445 373.918 156.445L403.822 204.728C403.822 204.728 428.65 170.629 478.846 154.662C506.942 145.725 519.163 108.883 507.751 61.0665Z" fill="url(#paint35_linear_1_72)"/>
<path d="M400.932 392.252C305.353 422.136 206.641 422.134 111.068 392.252C78.7216 382.139 58.111 350.425 61.6298 316.717C66.5932 269.158 71.5696 237.298 76.544 204.327C89.9384 115.554 166.221 49.9099 256 49.9099C345.779 49.9099 422.062 115.554 435.456 204.328C440.43 237.299 445.407 269.159 450.371 316.717C453.889 350.425 433.279 382.14 400.932 392.252Z" fill="url(#paint36_linear_1_72)"/>
<path d="M396.525 393.587C389.816 385.386 382.404 377.787 374.372 370.876L374.181 370.711C363.074 361.185 348.237 357.185 333.801 359.573C282.094 368.121 229.909 368.122 178.202 359.581C163.457 357.145 148.438 361.517 137.142 371.304C129.297 378.1 122.048 385.555 115.473 393.588C208.204 421.661 303.789 421.662 396.525 393.587Z" fill="url(#paint37_linear_1_72)"/>
<path d="M165.917 316.061C151.237 316.061 139.335 304.159 139.335 289.479V275.847C139.335 261.167 151.236 249.266 165.917 249.266C180.598 249.266 192.499 261.167 192.499 275.847V289.479C192.499 304.159 180.598 316.061 165.917 316.061Z" fill="url(#paint38_linear_1_72)"/>
<path d="M346.083 316.061C331.402 316.061 319.501 304.159 319.501 289.479V275.847C319.501 261.167 331.402 249.266 346.083 249.266C360.763 249.266 372.665 261.167 372.665 275.847V289.479C372.665 304.159 360.763 316.061 346.083 316.061Z" fill="url(#paint39_linear_1_72)"/>
</g>
</g>
<defs>
<linearGradient id="paint0_linear_1_72" x1="89.5453" y1="24.6922" x2="108.386" y2="43.2938" gradientUnits="userSpaceOnUse">
<stop stop-color="#FEAEE1"/>
<stop offset="1" stop-color="#FE5694"/>
</linearGradient>
<linearGradient id="paint1_linear_1_72" x1="111.718" y1="42.0676" x2="133.909" y2="56.5085" gradientUnits="userSpaceOnUse">
<stop stop-color="#FEAEE1"/>
<stop offset="1" stop-color="#FE5694"/>
</linearGradient>
<linearGradient id="paint2_linear_1_72" x1="136.416" y1="54.1826" x2="161.056" y2="63.8761" gradientUnits="userSpaceOnUse">
<stop stop-color="#FEAEE1"/>
<stop offset="1" stop-color="#FE5694"/>
</linearGradient>
<linearGradient id="paint3_linear_1_72" x1="158.928" y1="62.0096" x2="181.618" y2="75.6566" gradientUnits="userSpaceOnUse">
<stop stop-color="#FEAEE1"/>
<stop offset="1" stop-color="#FE5694"/>
</linearGradient>
<linearGradient id="paint4_linear_1_72" x1="25.8129" y1="52.5092" x2="12.0963" y2="99.8923" gradientUnits="userSpaceOnUse">
<stop stop-color="#FEAEE1"/>
<stop offset="1" stop-color="#FE5694"/>
</linearGradient>
<linearGradient id="paint5_linear_1_72" x1="17.5757" y1="232.713" x2="11.5522" y2="246.433" gradientUnits="userSpaceOnUse">
<stop stop-color="#FEAEE1"/>
<stop offset="1" stop-color="#FE5694"/>
</linearGradient>
<linearGradient id="paint6_linear_1_72" x1="34.0122" y1="214.417" x2="24.4605" y2="225.962" gradientUnits="userSpaceOnUse">
<stop stop-color="#FEAEE1"/>
<stop offset="1" stop-color="#FE5694"/>
</linearGradient>
<linearGradient id="paint7_linear_1_72" x1="56.9087" y1="203.895" x2="44.2487" y2="211.91" gradientUnits="userSpaceOnUse">
<stop stop-color="#FEAEE1"/>
<stop offset="1" stop-color="#FE5694"/>
</linearGradient>
<linearGradient id="paint8_linear_1_72" x1="39.3716" y1="69.3815" x2="29.3644" y2="117.684" gradientUnits="userSpaceOnUse">
<stop stop-color="#FEAEE1"/>
<stop offset="1" stop-color="#FE5694"/>
</linearGradient>
<linearGradient id="paint9_linear_1_72" x1="55.5756" y1="81.279" x2="53.9885" y2="130.582" gradientUnits="userSpaceOnUse">
<stop stop-color="#FEAEE1"/>
<stop offset="1" stop-color="#FE5694"/>
</linearGradient>
<linearGradient id="paint10_linear_1_72" x1="77.2831" y1="92.577" x2="75.696" y2="141.88" gradientUnits="userSpaceOnUse">
<stop stop-color="#FEAEE1"/>
<stop offset="1" stop-color="#FE5694"/>
</linearGradient>
<linearGradient id="paint11_linear_1_72" x1="97.6108" y1="103.75" x2="96.0225" y2="153.052" gradientUnits="userSpaceOnUse">
<stop stop-color="#FEAEE1"/>
<stop offset="1" stop-color="#FE5694"/>
</linearGradient>
<linearGradient id="paint12_linear_1_72" x1="135.346" y1="41.1749" x2="105.228" y2="108.103" gradientUnits="userSpaceOnUse">
<stop stop-color="#FEAEE1"/>
<stop offset="1" stop-color="#FE5694"/>
</linearGradient>
<linearGradient id="paint13_linear_1_72" x1="36.7797" y1="213.618" x2="64.2199" y2="281.885" gradientUnits="userSpaceOnUse">
<stop stop-color="#FEAEE1"/>
<stop offset="1" stop-color="#FE5694"/>
</linearGradient>
<linearGradient id="paint14_linear_1_72" x1="71.6358" y1="107.065" x2="55.5731" y2="164.623" gradientUnits="userSpaceOnUse">
<stop stop-color="#FEAEE1"/>
<stop offset="1" stop-color="#FE5694"/>
</linearGradient>
<linearGradient id="paint15_linear_1_72" x1="216.646" y1="392.273" x2="266.873" y2="494.297" gradientUnits="userSpaceOnUse">
<stop stop-color="#FFDFCF"/>
<stop offset="1" stop-color="#FFA78F"/>
</linearGradient>
<linearGradient id="paint16_linear_1_72" x1="278.843" y1="470.216" x2="261.442" y2="343.053" gradientUnits="userSpaceOnUse">
<stop stop-color="#F89580" stop-opacity="0"/>
<stop offset="0.997" stop-color="#C5715A"/>
</linearGradient>
<linearGradient id="paint17_linear_1_72" x1="256" y1="461.64" x2="256" y2="505.763" gradientUnits="userSpaceOnUse">
<stop stop-color="#F89580" stop-opacity="0"/>
<stop offset="0.997" stop-color="#C5715A"/>
</linearGradient>
<linearGradient id="paint18_linear_1_72" x1="422.444" y1="24.4895" x2="403.602" y2="43.0924" gradientUnits="userSpaceOnUse">
<stop stop-color="#FEAEE1"/>
<stop offset="1" stop-color="#FE5694"/>
</linearGradient>
<linearGradient id="paint19_linear_1_72" x1="400.24" y1="41.9381" x2="378.049" y2="56.379" gradientUnits="userSpaceOnUse">
<stop stop-color="#FEAEE1"/>
<stop offset="1" stop-color="#FE5694"/>
</linearGradient>
<linearGradient id="paint20_linear_1_72" x1="375.53" y1="54.2075" x2="350.891" y2="63.8999" gradientUnits="userSpaceOnUse">
<stop stop-color="#FEAEE1"/>
<stop offset="1" stop-color="#FE5694"/>
</linearGradient>
<linearGradient id="paint21_linear_1_72" x1="352.975" y1="61.9561" x2="330.286" y2="75.6028" gradientUnits="userSpaceOnUse">
<stop stop-color="#FEAEE1"/>
<stop offset="1" stop-color="#FE5694"/>
</linearGradient>
<linearGradient id="paint22_linear_1_72" x1="486.187" y1="52.5092" x2="499.903" y2="99.8923" gradientUnits="userSpaceOnUse">
<stop stop-color="#FEAEE1"/>
<stop offset="1" stop-color="#FE5694"/>
</linearGradient>
<linearGradient id="paint23_linear_1_72" x1="494.424" y1="232.713" x2="500.448" y2="246.433" gradientUnits="userSpaceOnUse">
<stop stop-color="#FEAEE1"/>
<stop offset="1" stop-color="#FE5694"/>
</linearGradient>
<linearGradient id="paint24_linear_1_72" x1="477.96" y1="214.568" x2="487.512" y2="226.113" gradientUnits="userSpaceOnUse">
<stop stop-color="#FEAEE1"/>
<stop offset="1" stop-color="#FE5694"/>
</linearGradient>
<linearGradient id="paint25_linear_1_72" x1="455.279" y1="203.984" x2="467.947" y2="212.004" gradientUnits="userSpaceOnUse">
<stop stop-color="#FEAEE1"/>
<stop offset="1" stop-color="#FE5694"/>
</linearGradient>
<linearGradient id="paint26_linear_1_72" x1="472.773" y1="69.4626" x2="482.796" y2="117.761" gradientUnits="userSpaceOnUse">
<stop stop-color="#FEAEE1"/>
<stop offset="1" stop-color="#FE5694"/>
</linearGradient>
<linearGradient id="paint27_linear_1_72" x1="456.422" y1="81.2165" x2="458.01" y2="130.519" gradientUnits="userSpaceOnUse">
<stop stop-color="#FEAEE1"/>
<stop offset="1" stop-color="#FE5694"/>
</linearGradient>
<linearGradient id="paint28_linear_1_72" x1="434.715" y1="92.5144" x2="436.303" y2="141.817" gradientUnits="userSpaceOnUse">
<stop stop-color="#FEAEE1"/>
<stop offset="1" stop-color="#FE5694"/>
</linearGradient>
<linearGradient id="paint29_linear_1_72" x1="414.387" y1="103.688" x2="415.975" y2="152.991" gradientUnits="userSpaceOnUse">
<stop stop-color="#FEAEE1"/>
<stop offset="1" stop-color="#FE5694"/>
</linearGradient>
<linearGradient id="paint30_linear_1_72" x1="376.653" y1="41.1749" x2="406.771" y2="108.103" gradientUnits="userSpaceOnUse">
<stop stop-color="#FEAEE1"/>
<stop offset="1" stop-color="#FE5694"/>
</linearGradient>
<linearGradient id="paint31_linear_1_72" x1="380.279" y1="69.5105" x2="367.563" y2="109.667" gradientUnits="userSpaceOnUse">
<stop stop-color="#FE0364" stop-opacity="0"/>
<stop offset="0.399" stop-color="#F70360" stop-opacity="0.399"/>
<stop offset="0.974" stop-color="#E40257" stop-opacity="0.974"/>
<stop offset="1" stop-color="#E30256"/>
</linearGradient>
<linearGradient id="paint32_linear_1_72" x1="475.22" y1="213.618" x2="447.78" y2="281.885" gradientUnits="userSpaceOnUse">
<stop stop-color="#FEAEE1"/>
<stop offset="1" stop-color="#FE5694"/>
</linearGradient>
<linearGradient id="paint33_linear_1_72" x1="475.679" y1="247.036" x2="432.845" y2="257.745" gradientUnits="userSpaceOnUse">
<stop stop-color="#FE0364" stop-opacity="0"/>
<stop offset="0.399" stop-color="#F70360" stop-opacity="0.399"/>
<stop offset="0.974" stop-color="#E40257" stop-opacity="0.974"/>
<stop offset="1" stop-color="#E30256"/>
</linearGradient>
<linearGradient id="paint34_linear_1_72" x1="440.364" y1="107.065" x2="456.427" y2="164.623" gradientUnits="userSpaceOnUse">
<stop stop-color="#FEAEE1"/>
<stop offset="1" stop-color="#FE5694"/>
</linearGradient>
<linearGradient id="paint35_linear_1_72" x1="442.532" y1="138.069" x2="415.76" y2="186.258" gradientUnits="userSpaceOnUse">
<stop stop-color="#FE0364" stop-opacity="0"/>
<stop offset="0.399" stop-color="#F70360" stop-opacity="0.399"/>
<stop offset="0.974" stop-color="#E40257" stop-opacity="0.974"/>
<stop offset="1" stop-color="#E30256"/>
</linearGradient>
<linearGradient id="paint36_linear_1_72" x1="163.74" y1="171.918" x2="329.387" y2="331.541" gradientUnits="userSpaceOnUse">
<stop stop-color="#FFDFCF"/>
<stop offset="1" stop-color="#FFA78F"/>
</linearGradient>
<linearGradient id="paint37_linear_1_72" x1="256" y1="395.893" x2="256" y2="330.568" gradientUnits="userSpaceOnUse">
<stop stop-color="#F89580" stop-opacity="0"/>
<stop offset="0.997" stop-color="#C5715A"/>
</linearGradient>
<linearGradient id="paint38_linear_1_72" x1="148.58" y1="269.901" x2="185.488" y2="297.068" gradientUnits="userSpaceOnUse">
<stop stop-color="#5A5A5A"/>
<stop offset="1" stop-color="#444444"/>
</linearGradient>
<linearGradient id="paint39_linear_1_72" x1="326.946" y1="268.31" x2="359.752" y2="292.914" gradientUnits="userSpaceOnUse">
<stop stop-color="#5A5A5A"/>
<stop offset="1" stop-color="#444444"/>
</linearGradient>
<clipPath id="clip0_1_72">
<rect width="512" height="512" fill="white"/>
</clipPath>
</defs>
</svg>
