<svg width="512" height="512" viewBox="0 0 512 512" fill="none" xmlns="http://www.w3.org/2000/svg">
<g clip-path="url(#clip0_1_792)">
<mask id="mask0_1_792" style="mask-type:luminance" maskUnits="userSpaceOnUse" x="0" y="0" width="512" height="512">
<path d="M512 0H0V512H512V0Z" fill="white"/>
</mask>
<g mask="url(#mask0_1_792)">
<path d="M447.229 512H64.7709C55.6693 512 48.2915 504.622 48.2915 495.521C48.2915 407.6 119.565 336.327 207.485 336.327H304.514C392.435 336.327 463.708 407.6 463.708 495.521C463.708 504.622 456.33 512 447.229 512Z" fill="url(#paint0_linear_1_792)"/>
<path d="M48.2915 495.52C48.2915 504.622 55.6693 512 64.7709 512H447.229C456.33 512 463.708 504.622 463.708 495.52C463.708 472.086 458.642 449.836 449.55 429.801H62.4498C53.3573 449.836 48.2915 472.086 48.2915 495.52Z" fill="url(#paint1_linear_1_792)"/>
<path d="M449.55 429.801H62.45C62.1268 430.514 61.8196 431.235 61.5063 431.953L141.553 512H447.229C456.331 512 463.708 504.622 463.708 495.52C463.708 472.086 458.643 449.835 449.55 429.801Z" fill="url(#paint2_linear_1_792)"/>
<path d="M472.762 356.759C466.223 284.866 459.66 243.152 453.1 199.671C438.392 102.179 354.594 30.1025 256 30.1025C157.406 30.1025 73.6075 102.179 58.899 199.671C52.3394 243.153 45.7768 284.866 39.2382 356.759C38.6082 360.84 38.2507 364.958 38.168 369.087C37.137 420.029 79.0437 463.116 129.995 463.449C145.191 463.549 159.542 459.978 172.222 453.578C186.966 485.067 218.933 506.882 256.001 506.882C293.069 506.882 325.036 485.067 339.78 453.578C352.445 459.971 366.779 463.541 381.955 463.45C432.922 463.144 474.853 420.069 473.834 369.111C473.751 364.974 473.392 360.848 472.762 356.759Z" fill="url(#paint3_linear_1_792)"/>
<path d="M472.762 356.759C466.223 284.866 459.661 243.152 453.1 199.671C438.392 102.179 354.594 30.1025 256 30.1025C249.837 30.1025 243.678 30.3859 237.541 30.9519V145.092L473.305 380.856C473.731 377 473.912 373.078 473.833 369.11C473.751 364.974 473.393 360.847 472.762 356.759Z" fill="url(#paint4_linear_1_792)"/>
<path d="M271.514 317.132L194.51 433.416L267.28 506.186C299.469 502.269 326.554 481.82 339.778 453.577C352.443 459.97 366.776 463.54 381.953 463.448C392.329 463.385 402.616 461.536 412.364 457.982L271.514 317.132Z" fill="url(#paint5_linear_1_792)"/>
<path d="M165.917 325.9C151.237 325.9 139.335 313.998 139.335 299.318V285.687C139.335 271.006 151.236 259.105 165.917 259.105C180.598 259.105 192.499 271.006 192.499 285.687V299.318C192.499 313.999 180.598 325.9 165.917 325.9Z" fill="url(#paint6_linear_1_792)"/>
<path d="M346.083 325.9C331.401 325.9 319.501 313.998 319.501 299.318V285.687C319.501 271.006 331.401 259.105 346.083 259.105C360.763 259.105 372.665 271.006 372.665 285.687V299.318C372.665 313.999 360.763 325.9 346.083 325.9Z" fill="url(#paint7_linear_1_792)"/>
<path d="M244.566 362.015L202.303 383.112C180.084 394.203 179.12 425.555 200.617 437.991C222.114 450.426 248.812 433.96 247.349 409.168L244.566 362.015Z" fill="url(#paint8_linear_1_792)"/>
<path d="M244.566 362.015L202.303 383.112C180.084 394.203 179.12 425.555 200.617 437.991C222.114 450.426 248.812 433.96 247.349 409.168L244.566 362.015Z" fill="url(#paint9_linear_1_792)"/>
<path d="M267.434 362.015L309.697 383.112C331.917 394.203 332.88 425.555 311.383 437.991C289.886 450.426 263.188 433.96 264.651 409.168L267.434 362.015Z" fill="url(#paint10_linear_1_792)"/>
<path d="M267.434 362.015L309.697 383.112C331.917 394.203 332.88 425.555 311.383 437.991C289.886 450.426 263.188 433.96 264.651 409.168L267.434 362.015Z" fill="url(#paint11_linear_1_792)"/>
<path d="M271.514 394.905L289.631 366.285C293.751 359.778 289.075 351.286 281.375 351.286H230.626C222.925 351.286 218.251 359.778 222.37 366.285L240.488 394.905C247.695 406.291 264.306 406.291 271.514 394.905Z" fill="url(#paint12_linear_1_792)"/>
<path d="M271.514 394.905L289.631 366.285C293.751 359.778 289.075 351.286 281.375 351.286H230.626C222.925 351.286 218.251 359.778 222.37 366.285L240.488 394.905C247.695 406.291 264.306 406.291 271.514 394.905Z" fill="url(#paint13_linear_1_792)"/>
<path d="M238.135 320.193L217.272 353.15C212.528 360.643 217.912 370.423 226.78 370.423H285.22C294.088 370.423 299.472 360.644 294.728 353.15L273.865 320.193C265.563 307.08 246.437 307.08 238.135 320.193Z" fill="url(#paint14_linear_1_792)"/>
<path d="M273.486 107.558L311.847 94.1035C344.963 82.4881 351.867 38.7021 323.93 17.4611C295.994 -3.78088 255.647 14.5768 253.308 49.5936L250.599 90.1551C249.773 102.487 261.823 111.648 273.486 107.558Z" fill="url(#paint15_linear_1_792)"/>
<path d="M273.486 107.558L311.847 94.1035C344.963 82.4881 351.867 38.7021 323.93 17.4611C295.994 -3.78088 255.647 14.5768 253.308 49.5936L250.599 90.1551C249.773 102.487 261.823 111.648 273.486 107.558Z" fill="url(#paint16_linear_1_792)"/>
<path d="M271.222 139.252L301.718 93.0465C328.045 53.1566 299.438 0 251.644 0C203.85 0 175.244 53.1566 201.571 93.0455L232.067 139.251C241.338 153.3 261.95 153.3 271.222 139.252Z" fill="url(#paint17_linear_1_792)"/>
<path d="M251.644 0V149.788C259.115 149.788 266.586 146.276 271.223 139.252L301.719 93.0465C328.044 53.1566 299.438 0 251.644 0Z" fill="url(#paint18_linear_1_792)"/>
</g>
</g>
<defs>
<linearGradient id="paint0_linear_1_792" x1="205.577" y1="376.45" x2="269.931" y2="507.169" gradientUnits="userSpaceOnUse">
<stop stop-color="#F9F5F3"/>
<stop offset="1" stop-color="#EFE2DD"/>
</linearGradient>
<linearGradient id="paint1_linear_1_792" x1="256" y1="465.328" x2="256" y2="521.859" gradientUnits="userSpaceOnUse">
<stop stop-color="#9E9797" stop-opacity="0"/>
<stop offset="0.31" stop-color="#968F8F" stop-opacity="0.31"/>
<stop offset="0.785" stop-color="#827A7A" stop-opacity="0.785"/>
<stop offset="1" stop-color="#766E6E"/>
</linearGradient>
<linearGradient id="paint2_linear_1_792" x1="272.191" y1="552.69" x2="258.136" y2="416.156" gradientUnits="userSpaceOnUse">
<stop stop-color="#9E9797" stop-opacity="0"/>
<stop offset="0.31" stop-color="#968F8F" stop-opacity="0.31"/>
<stop offset="0.785" stop-color="#827A7A" stop-opacity="0.785"/>
<stop offset="1" stop-color="#766E6E"/>
</linearGradient>
<linearGradient id="paint3_linear_1_792" x1="156.752" y1="187.85" x2="311.915" y2="343.014" gradientUnits="userSpaceOnUse">
<stop stop-color="#F9F5F3"/>
<stop offset="1" stop-color="#EFE2DD"/>
</linearGradient>
<linearGradient id="paint4_linear_1_792" x1="348.951" y1="159.478" x2="188.324" y2="19.9328" gradientUnits="userSpaceOnUse">
<stop stop-color="#9E9797" stop-opacity="0"/>
<stop offset="0.31" stop-color="#968F8F" stop-opacity="0.31"/>
<stop offset="0.785" stop-color="#827A7A" stop-opacity="0.785"/>
<stop offset="1" stop-color="#766E6E"/>
</linearGradient>
<linearGradient id="paint5_linear_1_792" x1="310.661" y1="454.871" x2="216.293" y2="335.07" gradientUnits="userSpaceOnUse">
<stop stop-color="#9E9797" stop-opacity="0"/>
<stop offset="0.31" stop-color="#968F8F" stop-opacity="0.31"/>
<stop offset="0.785" stop-color="#827A7A" stop-opacity="0.785"/>
<stop offset="1" stop-color="#766E6E"/>
</linearGradient>
<linearGradient id="paint6_linear_1_792" x1="148.581" y1="279.741" x2="185.488" y2="306.908" gradientUnits="userSpaceOnUse">
<stop stop-color="#5A5A5A"/>
<stop offset="1" stop-color="#444444"/>
</linearGradient>
<linearGradient id="paint7_linear_1_792" x1="326.946" y1="278.149" x2="359.752" y2="302.755" gradientUnits="userSpaceOnUse">
<stop stop-color="#5A5A5A"/>
<stop offset="1" stop-color="#444444"/>
</linearGradient>
<linearGradient id="paint8_linear_1_792" x1="211.937" y1="388.209" x2="236.533" y2="419.833" gradientUnits="userSpaceOnUse">
<stop stop-color="#FD4755"/>
<stop offset="1" stop-color="#A72B2B"/>
</linearGradient>
<linearGradient id="paint9_linear_1_792" x1="222.123" y1="400.984" x2="251.488" y2="405.753" gradientUnits="userSpaceOnUse">
<stop stop-color="#A72B2B" stop-opacity="0"/>
<stop offset="1" stop-color="#42210B"/>
</linearGradient>
<linearGradient id="paint10_linear_1_792" x1="276.088" y1="382.94" x2="302.859" y2="421.089" gradientUnits="userSpaceOnUse">
<stop stop-color="#FD4755"/>
<stop offset="1" stop-color="#A72B2B"/>
</linearGradient>
<linearGradient id="paint11_linear_1_792" x1="287.645" y1="404.401" x2="263.802" y2="385.075" gradientUnits="userSpaceOnUse">
<stop stop-color="#A72B2B" stop-opacity="0"/>
<stop offset="1" stop-color="#42210B"/>
</linearGradient>
<linearGradient id="paint12_linear_1_792" x1="254.712" y1="358.822" x2="273.787" y2="391.951" gradientUnits="userSpaceOnUse">
<stop stop-color="#FEF0AE"/>
<stop offset="1" stop-color="#FAC600"/>
</linearGradient>
<linearGradient id="paint13_linear_1_792" x1="256" y1="386.259" x2="256" y2="361.38" gradientUnits="userSpaceOnUse">
<stop stop-color="#FEA613" stop-opacity="0"/>
<stop offset="1" stop-color="#E94444"/>
</linearGradient>
<linearGradient id="paint14_linear_1_792" x1="234.046" y1="327.878" x2="273.199" y2="378.074" gradientUnits="userSpaceOnUse">
<stop stop-color="#FEF0AE"/>
<stop offset="1" stop-color="#FAC600"/>
</linearGradient>
<linearGradient id="paint15_linear_1_792" x1="276.175" y1="32.797" x2="301.273" y2="77.9735" gradientUnits="userSpaceOnUse">
<stop stop-color="#FD4755"/>
<stop offset="1" stop-color="#A72B2B"/>
</linearGradient>
<linearGradient id="paint16_linear_1_792" x1="316.084" y1="39.4209" x2="283.958" y2="61.8415" gradientUnits="userSpaceOnUse">
<stop stop-color="#A72B2B" stop-opacity="0"/>
<stop offset="1" stop-color="#42210B"/>
</linearGradient>
<linearGradient id="paint17_linear_1_792" x1="229.669" y1="46.3089" x2="282.877" y2="98.0109" gradientUnits="userSpaceOnUse">
<stop stop-color="#FD4755"/>
<stop offset="1" stop-color="#A72B2B"/>
</linearGradient>
<linearGradient id="paint18_linear_1_792" x1="284.394" y1="56.5971" x2="202.742" y2="107.462" gradientUnits="userSpaceOnUse">
<stop stop-color="#A72B2B" stop-opacity="0"/>
<stop offset="1" stop-color="#42210B"/>
</linearGradient>
<clipPath id="clip0_1_792">
<rect width="512" height="512" fill="white"/>
</clipPath>
</defs>
</svg>
