<svg width="512" height="512" viewBox="0 0 512 512" fill="none" xmlns="http://www.w3.org/2000/svg">
<g clip-path="url(#clip0_1_850)">
<mask id="mask0_1_850" style="mask-type:luminance" maskUnits="userSpaceOnUse" x="0" y="0" width="512" height="512">
<path d="M512 0H0V512H512V0Z" fill="white"/>
</mask>
<g mask="url(#mask0_1_850)">
<path d="M476.908 303.234C470.996 246.595 465.069 209.547 459.145 170.108C444.454 72.3135 360.395 0 261.502 0H255.999C153.944 0 67.2617 74.6366 52.0352 175.549C46.3842 213.004 40.7301 249.206 35.0921 303.235C33.0717 322.505 37.9998 341.864 48.9883 357.824C62.4861 377.441 65.0993 402.584 54.9546 424.128C44.8572 445.573 39.2111 469.525 39.2111 494.8C39.2111 504.299 46.9122 512 56.4113 512H455.589C465.088 512 472.789 504.299 472.789 494.8C472.789 469.526 467.143 445.573 457.045 424.128C446.901 402.584 449.514 377.441 463.012 357.824C474 341.864 478.928 322.505 476.908 303.234Z" fill="url(#paint0_linear_1_850)"/>
<path d="M389.027 302.173L158.118 433.192V512H455.589C465.088 512 472.789 504.299 472.789 494.8C472.789 469.526 467.143 445.572 457.045 424.128C448.841 406.705 448.985 386.929 456.478 369.624L389.027 302.173Z" fill="url(#paint1_linear_1_850)"/>
<path d="M465.554 353.858L375.944 360.832V512H455.588C465.087 512 472.788 504.299 472.788 494.8C472.788 469.526 467.142 445.573 457.044 424.128C446.9 402.584 449.513 377.442 463.011 357.824C463.896 356.527 464.744 355.204 465.554 353.858Z" fill="url(#paint2_linear_1_850)"/>
<path d="M375.945 360.83L464.762 355.157C473.489 341.345 477.852 325.224 477.28 308.896L375.944 333.204V360.83H375.945Z" fill="url(#paint3_linear_1_850)"/>
<path d="M345.999 343.617L304.13 374.037C298.893 377.843 298.217 385.34 302.604 390.101C330.983 420.898 343.128 460.163 340.198 499.923C339.281 512.35 356.386 516.804 361.639 505.504C384.37 456.607 384.155 399.782 362.243 348.124C359.539 341.749 351.601 339.546 345.999 343.617Z" fill="url(#paint4_linear_1_850)"/>
<path d="M166 343.617L207.869 374.037C213.106 377.843 213.782 385.34 209.395 390.101C181.016 420.898 168.871 460.163 171.801 499.923C172.718 512.35 155.613 516.804 150.36 505.504C127.629 456.607 127.843 399.782 149.756 348.124C152.46 341.749 160.399 339.546 166 343.617Z" fill="url(#paint5_linear_1_850)"/>
<path d="M165.917 262.82C151.237 262.82 139.335 250.918 139.335 236.238V222.607C139.335 207.926 151.236 196.025 165.917 196.025C180.597 196.025 192.499 207.926 192.499 222.607V236.238C192.499 250.918 180.597 262.82 165.917 262.82Z" fill="url(#paint6_linear_1_850)"/>
<path d="M346.083 262.82C331.402 262.82 319.501 250.918 319.501 236.238V222.607C319.501 207.926 331.402 196.025 346.083 196.025C360.763 196.025 372.665 207.926 372.665 222.607V236.238C372.665 250.918 360.763 262.82 346.083 262.82Z" fill="url(#paint7_linear_1_850)"/>
<path d="M324.191 274.334H187.809C138.421 274.334 98.3843 314.371 98.3843 363.759C98.3843 413.147 138.421 453.183 187.809 453.183C215.142 453.183 239.597 440.905 256 421.58C272.403 440.905 296.857 453.183 324.191 453.183C373.579 453.183 413.616 413.147 413.616 363.759C413.616 314.372 373.579 274.334 324.191 274.334Z" fill="url(#paint8_linear_1_850)"/>
<path d="M324.191 453.183C373.579 453.183 413.616 413.146 413.616 363.759C413.616 314.371 373.579 274.334 324.191 274.334C274.804 274.334 234.767 314.371 234.767 363.759C234.767 413.146 274.804 453.183 324.191 453.183Z" fill="url(#paint9_linear_1_850)"/>
<path d="M193.013 357.925C202.101 357.925 209.469 350.558 209.469 341.469C209.469 332.38 202.101 325.013 193.013 325.013C183.924 325.013 176.557 332.38 176.557 341.469C176.557 350.558 183.924 357.925 193.013 357.925Z" fill="url(#paint10_linear_1_850)"/>
<path d="M157.768 391.037C161.83 391.037 165.123 387.744 165.123 383.682C165.123 379.62 161.83 376.327 157.768 376.327C153.706 376.327 150.414 379.62 150.414 383.682C150.414 387.744 153.706 391.037 157.768 391.037Z" fill="url(#paint11_linear_1_850)"/>
<path d="M180.921 415.221C187.599 415.221 193.013 409.807 193.013 403.129C193.013 396.45 187.599 391.037 180.921 391.037C174.242 391.037 168.828 396.45 168.828 403.129C168.828 409.807 174.242 415.221 180.921 415.221Z" fill="url(#paint12_linear_1_850)"/>
<path d="M318.986 357.925C328.075 357.925 335.442 350.558 335.442 341.469C335.442 332.38 328.075 325.013 318.986 325.013C309.898 325.013 302.53 332.38 302.53 341.469C302.53 350.558 309.898 357.925 318.986 357.925Z" fill="url(#paint13_linear_1_850)"/>
<path d="M354.231 391.037C358.293 391.037 361.585 387.744 361.585 383.682C361.585 379.62 358.293 376.327 354.231 376.327C350.169 376.327 346.876 379.62 346.876 383.682C346.876 387.744 350.169 391.037 354.231 391.037Z" fill="url(#paint14_linear_1_850)"/>
<path d="M331.079 415.221C337.758 415.221 343.172 409.807 343.172 403.129C343.172 396.45 337.758 391.037 331.079 391.037C324.401 391.037 318.987 396.45 318.987 403.129C318.987 409.807 324.401 415.221 331.079 415.221Z" fill="url(#paint15_linear_1_850)"/>
<path d="M183.478 372.382C183.265 372.382 183.05 372.372 182.833 372.355L46.5659 360.798C44.5762 360.629 42.735 359.677 41.4474 358.151C40.1598 356.624 39.5313 354.649 39.7001 352.659C40.0514 348.515 43.6886 345.454 47.8388 345.793L184.106 357.35C186.04 357.514 187.836 358.419 189.118 359.876C190.401 361.332 191.072 363.228 190.991 365.167C190.91 367.106 190.083 368.939 188.683 370.283C187.283 371.627 185.418 372.379 183.478 372.382Z" fill="url(#paint16_linear_1_850)"/>
<path d="M186.214 353.296C185.596 353.296 184.979 353.22 184.379 353.068L22.1164 312.437C20.1792 311.952 18.5141 310.717 17.4872 309.004C16.9788 308.156 16.6424 307.216 16.4972 306.238C16.352 305.26 16.4008 304.263 16.641 303.304C16.8811 302.345 17.3078 301.442 17.8968 300.648C18.4857 299.854 19.2253 299.183 20.0733 298.675C21.786 297.648 23.8365 297.344 25.7737 297.828L188.037 338.461C189.82 338.906 191.379 339.988 192.42 341.503C193.461 343.017 193.911 344.86 193.687 346.685C193.463 348.509 192.58 350.188 191.203 351.406C189.827 352.624 188.052 353.296 186.214 353.296Z" fill="url(#paint17_linear_1_850)"/>
<path d="M328.521 372.382C326.581 372.379 324.716 371.627 323.316 370.283C321.917 368.938 321.09 367.105 321.009 365.166C320.928 363.227 321.599 361.332 322.882 359.876C324.165 358.419 325.96 357.515 327.894 357.35L464.16 345.793C468.296 345.446 471.948 348.516 472.299 352.66C472.382 353.645 472.271 354.637 471.971 355.579C471.671 356.522 471.189 357.396 470.551 358.151C469.914 358.907 469.133 359.53 468.255 359.984C467.377 360.438 466.417 360.715 465.432 360.799L329.167 372.355C328.95 372.373 328.735 372.382 328.521 372.382Z" fill="url(#paint18_linear_1_850)"/>
<path d="M325.786 353.296C323.948 353.295 322.174 352.623 320.798 351.405C319.422 350.187 318.538 348.508 318.314 346.685C318.09 344.861 318.54 343.018 319.58 341.503C320.62 339.988 322.179 338.906 323.961 338.46L486.225 297.827C488.152 297.373 490.18 297.695 491.87 298.724C493.561 299.753 494.778 301.407 495.259 303.327C495.74 305.247 495.446 307.279 494.44 308.983C493.434 310.688 491.798 311.928 489.885 312.435L327.621 353.068C327.021 353.219 326.404 353.296 325.786 353.296Z" fill="url(#paint19_linear_1_850)"/>
<path d="M225.594 323.46L206.065 306.159C187.167 289.416 199.009 258.192 224.256 258.192H287.743C312.99 258.192 324.832 289.416 305.934 306.159L286.405 323.46C269.051 338.836 242.949 338.836 225.594 323.46Z" fill="url(#paint20_linear_1_850)"/>
</g>
</g>
<defs>
<linearGradient id="paint0_linear_1_850" x1="142.649" y1="185.558" x2="331.254" y2="410.837" gradientUnits="userSpaceOnUse">
<stop stop-color="#766E6E"/>
<stop offset="1" stop-color="#5B5555"/>
</linearGradient>
<linearGradient id="paint1_linear_1_850" x1="348.06" y1="529.325" x2="277.785" y2="376.729" gradientUnits="userSpaceOnUse">
<stop stop-color="#766E6E" stop-opacity="0"/>
<stop offset="0.464" stop-color="#4D4949" stop-opacity="0.464"/>
<stop offset="1" stop-color="#1A1A1A"/>
</linearGradient>
<linearGradient id="paint2_linear_1_850" x1="421.059" y1="407.105" x2="419.553" y2="363.937" gradientUnits="userSpaceOnUse">
<stop stop-color="#766E6E" stop-opacity="0"/>
<stop offset="0.464" stop-color="#4D4949" stop-opacity="0.464"/>
<stop offset="1" stop-color="#1A1A1A"/>
</linearGradient>
<linearGradient id="paint3_linear_1_850" x1="445.915" y1="398.286" x2="422.49" y2="321.318" gradientUnits="userSpaceOnUse">
<stop stop-color="#766E6E" stop-opacity="0"/>
<stop offset="0.464" stop-color="#4D4949" stop-opacity="0.464"/>
<stop offset="1" stop-color="#1A1A1A"/>
</linearGradient>
<linearGradient id="paint4_linear_1_850" x1="350.391" y1="426.382" x2="388.54" y2="436.422" gradientUnits="userSpaceOnUse">
<stop stop-color="white"/>
<stop offset="1" stop-color="#E1D3CE"/>
</linearGradient>
<linearGradient id="paint5_linear_1_850" x1="158.437" y1="426.392" x2="178.515" y2="431.411" gradientUnits="userSpaceOnUse">
<stop stop-color="white"/>
<stop offset="1" stop-color="#E1D3CE"/>
</linearGradient>
<linearGradient id="paint6_linear_1_850" x1="148.58" y1="216.66" x2="185.487" y2="243.828" gradientUnits="userSpaceOnUse">
<stop stop-color="#5A5A5A"/>
<stop offset="1" stop-color="#444444"/>
</linearGradient>
<linearGradient id="paint7_linear_1_850" x1="326.945" y1="215.069" x2="359.751" y2="239.673" gradientUnits="userSpaceOnUse">
<stop stop-color="#5A5A5A"/>
<stop offset="1" stop-color="#444444"/>
</linearGradient>
<linearGradient id="paint8_linear_1_850" x1="243.883" y1="319.672" x2="291.067" y2="491.342" gradientUnits="userSpaceOnUse">
<stop stop-color="#FFDFCF"/>
<stop offset="1" stop-color="#FFA78F"/>
</linearGradient>
<linearGradient id="paint9_linear_1_850" x1="319.324" y1="392.194" x2="300.25" y2="503.629" gradientUnits="userSpaceOnUse">
<stop stop-color="#F89580" stop-opacity="0"/>
<stop offset="0.997" stop-color="#C5715A"/>
</linearGradient>
<linearGradient id="paint10_linear_1_850" x1="154.593" y1="303.049" x2="275.738" y2="424.193" gradientUnits="userSpaceOnUse">
<stop stop-color="#F89580" stop-opacity="0"/>
<stop offset="0.997" stop-color="#C5715A"/>
</linearGradient>
<linearGradient id="paint11_linear_1_850" x1="126.908" y1="352.821" x2="248.052" y2="473.965" gradientUnits="userSpaceOnUse">
<stop stop-color="#F89580" stop-opacity="0"/>
<stop offset="0.997" stop-color="#C5715A"/>
</linearGradient>
<linearGradient id="paint12_linear_1_850" x1="128.76" y1="350.968" x2="249.905" y2="472.113" gradientUnits="userSpaceOnUse">
<stop stop-color="#F89580" stop-opacity="0"/>
<stop offset="0.997" stop-color="#C5715A"/>
</linearGradient>
<linearGradient id="paint13_linear_1_850" x1="280.442" y1="302.924" x2="461.811" y2="484.293" gradientUnits="userSpaceOnUse">
<stop stop-color="#F89580" stop-opacity="0"/>
<stop offset="0.997" stop-color="#C5715A"/>
</linearGradient>
<linearGradient id="paint14_linear_1_850" x1="288.001" y1="317.451" x2="469.37" y2="498.821" gradientUnits="userSpaceOnUse">
<stop stop-color="#F89580" stop-opacity="0"/>
<stop offset="0.997" stop-color="#C5715A"/>
</linearGradient>
<linearGradient id="paint15_linear_1_850" x1="266.701" y1="338.751" x2="448.07" y2="520.12" gradientUnits="userSpaceOnUse">
<stop stop-color="#F89580" stop-opacity="0"/>
<stop offset="0.997" stop-color="#C5715A"/>
</linearGradient>
<linearGradient id="paint16_linear_1_850" x1="42.2336" y1="369.608" x2="188.624" y2="347.416" gradientUnits="userSpaceOnUse">
<stop stop-color="#5A5A5A"/>
<stop offset="1" stop-color="#444444"/>
</linearGradient>
<linearGradient id="paint17_linear_1_850" x1="16.1838" y1="324.62" x2="193.873" y2="326.219" gradientUnits="userSpaceOnUse">
<stop stop-color="#5A5A5A"/>
<stop offset="1" stop-color="#444444"/>
</linearGradient>
<linearGradient id="paint18_linear_1_850" x1="470.793" y1="369.924" x2="324.403" y2="347.733" gradientUnits="userSpaceOnUse">
<stop stop-color="#5A5A5A"/>
<stop offset="1" stop-color="#444444"/>
</linearGradient>
<linearGradient id="paint19_linear_1_850" x1="496.334" y1="335.136" x2="318.644" y2="335.136" gradientUnits="userSpaceOnUse">
<stop stop-color="#5A5A5A"/>
<stop offset="1" stop-color="#444444"/>
</linearGradient>
<linearGradient id="paint20_linear_1_850" x1="230.33" y1="261.056" x2="294.658" y2="322.504" gradientUnits="userSpaceOnUse">
<stop stop-color="#5A5A5A"/>
<stop offset="1" stop-color="#444444"/>
</linearGradient>
<clipPath id="clip0_1_850">
<rect width="512" height="512" fill="white"/>
</clipPath>
</defs>
</svg>
