<svg width="512" height="512" viewBox="0 0 512 512" fill="none" xmlns="http://www.w3.org/2000/svg">
<path d="M187.753 154.575L156.541 123.353C144.307 111.114 129.781 101.406 113.793 94.7819C97.8057 88.1582 80.6698 84.749 63.3645 84.749H63.3544C33.6193 84.749 8.09559 105.918 2.59711 135.14C-4.84496 174.772 4.0538 214.022 24.8791 245.539C39.696 267.933 41.2431 296.581 28.7794 320.363C20.3042 336.552 16.6922 354.846 18.3788 373.041L22.1003 413.57C25.62 451.654 66.0128 474.586 100.512 458.065L196.833 411.977C221.826 400.03 237.765 374.744 237.765 347.016V275.261C237.764 230.005 219.763 186.585 187.753 154.575Z" fill="url(#paint0_linear_1_876)"/>
<path d="M187.753 154.575L156.541 123.353C148.551 115.364 139.566 108.436 129.808 102.74V134.123L233.628 237.942C226.544 206.368 210.635 177.456 187.753 154.575Z" fill="url(#paint1_linear_1_876)"/>
<path d="M36.63 277.495C38.4153 292.25 35.6773 307.2 28.7784 320.365C20.3032 336.553 16.6912 354.847 18.3777 373.042L22.0993 413.571C25.619 451.655 66.0118 474.587 100.511 458.067L196.832 411.978C221.825 400.031 237.764 374.745 237.764 347.017V277.494H36.63V277.495Z" fill="url(#paint2_linear_1_876)"/>
<path d="M83.3034 433.973C106.239 433.973 124.832 415.381 124.832 392.445C124.832 369.51 106.239 350.917 83.3034 350.917C60.368 350.917 41.7751 369.51 41.7751 392.445C41.7751 415.381 60.368 433.973 83.3034 433.973Z" fill="url(#paint3_linear_1_876)"/>
<path d="M76.5681 300.981C89.5389 300.981 100.054 290.466 100.054 277.495C100.054 264.524 89.5389 254.009 76.5681 254.009C63.5973 254.009 53.0823 264.524 53.0823 277.495C53.0823 290.466 63.5973 300.981 76.5681 300.981Z" fill="url(#paint4_linear_1_876)"/>
<path d="M109.312 266.625C111.688 275.952 116.525 284.781 123.826 292.082C146.014 314.271 182.325 313.73 203.826 290.459C223.203 269.487 223.334 236.699 204.116 215.581C199.878 210.91 194.876 206.995 189.325 204.002C167.861 192.454 151.613 173.419 141.385 151.295C137.898 143.753 132.861 136.749 126.274 130.763C101.442 108.199 62.7873 108.893 38.7273 132.276C13.0771 157.205 12.8552 198.212 38.0627 223.419C49.5325 234.888 64.2721 241.092 79.2807 242.032C93.5846 242.926 105.773 252.734 109.312 266.625Z" fill="url(#paint5_linear_1_876)"/>
<path d="M163.954 321.578C155.652 323.502 147.108 320.745 140.866 314.942C140.594 314.689 140.315 314.444 140.03 314.206C132.552 307.975 121.38 308.208 114.148 314.723C105.649 322.38 105.392 335.487 113.378 343.474C114.652 344.75 116.095 345.847 117.667 346.732C125.792 351.306 131.074 359.475 132.626 368.669C134.046 377.108 138.067 384.892 144.128 390.934C160.927 407.732 188.607 407.015 204.476 388.783C217.998 373.246 217.825 349.67 204.096 334.316C193.581 322.553 178.074 318.308 163.954 321.578Z" fill="url(#paint6_linear_1_876)"/>
<path d="M203.695 215.138C193.656 207.003 181.527 199.427 167.477 192.611L123.611 171.323C97.2459 158.528 63.743 149.994 27.643 146.624C13.7888 171.034 17.2494 202.607 38.0607 223.418C49.5305 234.887 64.27 241.091 79.2787 242.031C93.5856 242.926 105.774 252.734 109.313 266.625C111.689 275.952 116.526 284.781 123.827 292.082C146.015 314.271 182.326 313.73 203.827 290.459C223.204 269.487 223.335 236.699 204.117 215.581C203.978 215.43 203.834 215.287 203.695 215.138Z" fill="url(#paint7_linear_1_876)"/>
<path d="M203.825 290.458C213.097 280.422 217.95 267.681 218.398 254.807C206.482 249.007 189.305 243.673 167.477 239.126L123.611 229.986C98.9535 224.848 68.0518 221.311 34.6222 219.69C35.7192 220.977 36.8662 222.221 38.0606 223.418C49.5304 234.887 64.27 241.091 79.2786 242.031C93.5855 242.926 105.774 252.734 109.313 266.625C111.689 275.952 116.526 284.781 123.827 292.082C146.014 314.27 182.325 313.729 203.825 290.458Z" fill="url(#paint8_linear_1_876)"/>
<path d="M214.01 355.438C204.906 360.691 193.479 365.046 180.233 368.122L135.579 378.483C134.184 375.35 133.192 372.053 132.626 368.671C131.077 359.477 125.789 351.305 117.663 346.726C116.093 345.84 114.65 344.745 113.375 343.471C105.394 335.49 105.652 322.378 114.15 314.724C121.379 308.212 132.548 307.977 140.035 314.207C140.316 314.442 140.596 314.689 140.865 314.936C147.107 320.74 155.649 323.501 163.955 321.581C178.077 318.304 193.579 322.546 204.097 334.311C209.542 340.396 212.853 347.782 214.01 355.438Z" fill="url(#paint9_linear_1_876)"/>
<path d="M324.247 154.575L355.459 123.353C367.693 111.114 382.219 101.406 398.207 94.7819C414.194 88.1582 431.33 84.749 448.635 84.749H448.646C478.381 84.749 503.904 105.918 509.403 135.14C516.845 174.772 507.946 214.022 487.121 245.539C472.304 267.933 470.757 296.581 483.221 320.363C491.696 336.552 495.308 354.846 493.621 373.041L489.9 413.57C486.38 451.654 445.987 474.586 411.488 458.065L315.167 411.977C290.173 400.03 274.235 374.744 274.235 347.016V275.261C274.236 230.005 292.237 186.585 324.247 154.575Z" fill="url(#paint10_linear_1_876)"/>
<path d="M450.197 84.7841C449.68 84.7711 449.165 84.75 448.645 84.75H448.635C413.686 84.75 380.168 98.6362 355.458 123.354L324.247 154.576C292.237 186.586 274.236 230.005 274.236 275.263V347.017C274.236 374.746 290.173 400.032 315.168 411.979L411.489 458.067C424.31 464.207 437.943 464.889 450.197 461.378V84.7841Z" fill="url(#paint11_linear_1_876)"/>
<path d="M504.22 131.055C504.22 125.816 503.556 120.734 502.308 115.886C491.546 97.0732 471.327 84.749 448.646 84.749H448.635C429.346 84.749 410.496 88.9876 393.319 96.9336C386.698 106.658 382.822 118.402 382.822 131.055C382.822 164.578 409.999 191.753 443.522 191.753C477.044 191.753 504.22 164.578 504.22 131.055Z" fill="url(#paint12_linear_1_876)"/>
<path d="M475.37 277.495C473.585 292.25 476.323 307.2 483.222 320.365C491.697 336.553 495.309 354.847 493.622 373.042L489.901 413.571C486.381 451.655 445.988 474.587 411.489 458.067L315.168 411.978C290.174 400.031 274.236 374.745 274.236 347.017V277.494H475.37V277.495Z" fill="url(#paint13_linear_1_876)"/>
<path d="M428.697 433.973C451.632 433.973 470.225 415.381 470.225 392.445C470.225 369.51 451.632 350.917 428.697 350.917C405.761 350.917 387.168 369.51 387.168 392.445C387.168 415.381 405.761 433.973 428.697 433.973Z" fill="url(#paint14_linear_1_876)"/>
<path d="M435.432 300.981C448.403 300.981 458.918 290.466 458.918 277.495C458.918 264.524 448.403 254.009 435.432 254.009C422.461 254.009 411.946 264.524 411.946 277.495C411.946 290.466 422.461 300.981 435.432 300.981Z" fill="url(#paint15_linear_1_876)"/>
<path d="M402.688 266.625C400.312 275.952 395.475 284.781 388.174 292.082C365.986 314.271 329.675 313.73 308.174 290.459C288.797 269.487 288.666 236.699 307.884 215.581C312.121 210.91 317.123 206.995 322.675 204.002C344.139 192.454 360.387 173.419 370.615 151.295C374.102 143.753 379.139 136.749 385.726 130.763C410.558 108.199 449.213 108.893 473.273 132.276C498.923 157.205 499.145 198.212 473.937 223.419C462.467 234.888 447.728 241.092 432.719 242.032C418.415 242.926 406.227 252.734 402.688 266.625Z" fill="url(#paint16_linear_1_876)"/>
<path d="M348.046 321.578C356.348 323.502 364.892 320.745 371.134 314.942C371.404 314.691 371.683 314.445 371.97 314.206C379.448 307.975 390.62 308.208 397.852 314.723C406.351 322.38 406.608 335.487 398.622 343.474C397.348 344.75 395.905 345.847 394.333 346.732C386.208 351.306 380.926 359.475 379.374 368.669C377.954 377.108 373.932 384.892 367.872 390.934C351.073 407.732 323.393 407.015 307.524 388.783C294.002 373.246 294.175 349.67 307.904 334.316C318.419 322.553 333.926 318.308 348.046 321.578Z" fill="url(#paint17_linear_1_876)"/>
<path d="M308.305 215.138C318.343 207.003 330.473 199.427 344.523 192.611L388.389 171.323C414.754 158.528 448.257 149.994 484.357 146.624C498.211 171.034 494.751 202.607 473.94 223.418C462.47 234.887 447.731 241.091 432.722 242.031C418.415 242.926 406.227 252.734 402.688 266.625C400.312 275.952 395.475 284.781 388.174 292.082C365.986 314.271 329.675 313.73 308.174 290.459C288.797 269.487 288.666 236.699 307.884 215.581C308.022 215.43 308.166 215.287 308.305 215.138Z" fill="url(#paint18_linear_1_876)"/>
<path d="M308.175 290.458C298.903 280.422 294.05 267.681 293.602 254.807C305.518 249.007 322.694 243.673 344.523 239.126L388.389 229.986C413.046 224.848 443.948 221.311 477.378 219.69C476.281 220.977 475.134 222.221 473.939 223.418C462.469 234.887 447.73 241.091 432.721 242.031C418.414 242.926 406.226 252.734 402.687 266.625C400.311 275.952 395.474 284.781 388.173 292.082C365.986 314.27 329.675 313.729 308.175 290.458Z" fill="url(#paint19_linear_1_876)"/>
<path d="M297.99 355.438C307.094 360.691 318.521 365.046 331.767 368.122L376.421 378.483C377.816 375.35 378.808 372.053 379.374 368.671C380.923 359.477 386.211 351.305 394.337 346.726C395.907 345.84 397.35 344.745 398.625 343.471C406.606 335.49 406.348 322.378 397.85 314.724C390.621 308.212 379.452 307.977 371.965 314.207C371.684 314.442 371.404 314.689 371.135 314.936C364.893 320.74 356.351 323.501 348.045 321.581C333.923 318.304 318.421 322.546 307.903 334.311C302.458 340.396 299.147 347.782 297.99 355.438Z" fill="url(#paint20_linear_1_876)"/>
<path d="M263.529 262.833C261.532 262.833 259.617 262.04 258.205 260.628C256.793 259.215 256 257.3 256 255.303C256 131.589 270.577 94.3778 299.286 65.6677C310.358 54.5954 325.08 48.4966 340.739 48.4966C356.398 48.4966 371.12 54.5944 382.193 65.6677C401.066 84.5394 401.066 115.248 382.193 134.122C366.508 149.808 340.985 149.807 325.3 134.123C312.164 120.987 312.164 99.6133 325.3 86.4779C325.995 85.7622 326.826 85.1918 327.744 84.7999C328.661 84.4081 329.648 84.2025 330.646 84.1953C331.644 84.1881 332.633 84.3793 333.556 84.7578C334.48 85.1363 335.318 85.6946 336.024 86.4002C336.73 87.1057 337.288 87.9446 337.667 88.8679C338.045 89.7912 338.237 90.7805 338.229 91.7784C338.222 92.7763 338.017 93.7628 337.625 94.6806C337.233 95.5984 336.663 96.4291 335.947 97.1245C328.684 104.389 328.684 116.21 335.947 123.474C345.762 133.287 361.73 133.288 371.544 123.473C384.545 110.472 384.545 89.317 371.544 76.3152C363.316 68.0861 352.375 63.5544 340.739 63.5544C329.103 63.5544 318.163 68.0861 309.934 76.3152C287.908 98.3413 271.058 125.507 271.058 255.301C271.058 256.29 270.864 257.27 270.486 258.183C270.108 259.097 269.553 259.928 268.854 260.627C268.155 261.326 267.325 261.881 266.411 262.26C265.498 262.638 264.518 262.833 263.529 262.833Z" fill="url(#paint21_linear_1_876)"/>
<path d="M248.471 262.833C250.467 262.833 252.383 262.04 253.795 260.628C255.207 259.215 256 257.3 256 255.303C256 131.589 241.423 94.3778 212.714 65.6677C201.642 54.5954 186.92 48.4966 171.261 48.4966C155.602 48.4966 140.88 54.5944 129.807 65.6677C110.934 84.5394 110.934 115.248 129.807 134.122C145.492 149.808 171.015 149.807 186.7 134.123C199.836 120.987 199.836 99.6133 186.7 86.4779C186.005 85.7622 185.174 85.1918 184.256 84.7999C183.339 84.4081 182.352 84.2025 181.354 84.1953C180.356 84.1881 179.367 84.3793 178.444 84.7578C177.52 85.1363 176.682 85.6946 175.976 86.4002C175.27 87.1057 174.712 87.9446 174.333 88.8679C173.955 89.7912 173.763 90.7805 173.771 91.7784C173.778 92.7763 173.983 93.7628 174.375 94.6806C174.767 95.5984 175.337 96.4291 176.053 97.1245C183.316 104.389 183.316 116.21 176.053 123.474C166.238 133.287 150.27 133.288 140.456 123.473C127.455 110.472 127.455 89.317 140.456 76.3152C148.684 68.0861 159.624 63.5544 171.261 63.5544C182.897 63.5544 193.837 68.0861 202.066 76.3152C224.092 98.3413 240.942 125.507 240.942 255.301C240.942 256.29 241.136 257.27 241.514 258.183C241.892 259.097 242.447 259.928 243.146 260.627C243.845 261.326 244.675 261.881 245.589 262.26C246.502 262.638 247.482 262.833 248.471 262.833Z" fill="url(#paint22_linear_1_876)"/>
<path d="M256 420.946C270.325 420.946 281.937 374.016 281.937 316.124C281.937 258.233 270.325 211.303 256 211.303C241.675 211.303 230.063 258.233 230.063 316.124C230.063 374.016 241.675 420.946 256 420.946Z" fill="url(#paint23_linear_1_876)"/>
<defs>
<linearGradient id="paint0_linear_1_876" x1="-28.2835" y1="191.616" x2="201.46" y2="362.241" gradientUnits="userSpaceOnUse">
<stop stop-color="#766E6E"/>
<stop offset="1" stop-color="#5B5555"/>
</linearGradient>
<linearGradient id="paint1_linear_1_876" x1="241.415" y1="231.87" x2="115.423" y2="98.3481" gradientUnits="userSpaceOnUse">
<stop stop-color="#766E6E" stop-opacity="0"/>
<stop offset="0.464" stop-color="#4D4949" stop-opacity="0.464"/>
<stop offset="1" stop-color="#1A1A1A"/>
</linearGradient>
<linearGradient id="paint2_linear_1_876" x1="121.512" y1="328.818" x2="162.67" y2="426.852" gradientUnits="userSpaceOnUse">
<stop stop-color="#766E6E" stop-opacity="0"/>
<stop offset="0.464" stop-color="#4D4949" stop-opacity="0.464"/>
<stop offset="1" stop-color="#1A1A1A"/>
</linearGradient>
<linearGradient id="paint3_linear_1_876" x1="-56.1082" y1="310.966" x2="223.027" y2="474.106" gradientUnits="userSpaceOnUse">
<stop stop-color="#FEAEE1"/>
<stop offset="1" stop-color="#FE5694"/>
</linearGradient>
<linearGradient id="paint4_linear_1_876" x1="-7.74528" y1="228.218" x2="271.389" y2="391.358" gradientUnits="userSpaceOnUse">
<stop stop-color="#FEAEE1"/>
<stop offset="1" stop-color="#FE5694"/>
</linearGradient>
<linearGradient id="paint5_linear_1_876" x1="33.2679" y1="158.045" x2="312.402" y2="321.185" gradientUnits="userSpaceOnUse">
<stop stop-color="#FEAEE1"/>
<stop offset="1" stop-color="#FE5694"/>
</linearGradient>
<linearGradient id="paint6_linear_1_876" x1="-19.8275" y1="248.89" x2="259.307" y2="412.03" gradientUnits="userSpaceOnUse">
<stop stop-color="#FEAEE1"/>
<stop offset="1" stop-color="#FE5694"/>
</linearGradient>
<linearGradient id="paint7_linear_1_876" x1="106.28" y1="228.713" x2="214.791" y2="111.97" gradientUnits="userSpaceOnUse">
<stop stop-color="#FE0364" stop-opacity="0"/>
<stop offset="0.399" stop-color="#F70360" stop-opacity="0.399"/>
<stop offset="0.974" stop-color="#E40257" stop-opacity="0.974"/>
<stop offset="1" stop-color="#E30256"/>
</linearGradient>
<linearGradient id="paint8_linear_1_876" x1="125.391" y1="250.04" x2="214.445" y2="173.709" gradientUnits="userSpaceOnUse">
<stop stop-color="#FE0364" stop-opacity="0"/>
<stop offset="0.399" stop-color="#F70360" stop-opacity="0.399"/>
<stop offset="0.974" stop-color="#E40257" stop-opacity="0.974"/>
<stop offset="1" stop-color="#E30256"/>
</linearGradient>
<linearGradient id="paint9_linear_1_876" x1="155.12" y1="335.697" x2="197.028" y2="394.069" gradientUnits="userSpaceOnUse">
<stop stop-color="#FE0364" stop-opacity="0"/>
<stop offset="0.399" stop-color="#F70360" stop-opacity="0.399"/>
<stop offset="0.974" stop-color="#E40257" stop-opacity="0.974"/>
<stop offset="1" stop-color="#E30256"/>
</linearGradient>
<linearGradient id="paint10_linear_1_876" x1="540.283" y1="191.616" x2="310.54" y2="362.241" gradientUnits="userSpaceOnUse">
<stop stop-color="#766E6E"/>
<stop offset="1" stop-color="#5B5555"/>
</linearGradient>
<linearGradient id="paint11_linear_1_876" x1="349.998" y1="297.208" x2="290.879" y2="312.923" gradientUnits="userSpaceOnUse">
<stop stop-color="#766E6E" stop-opacity="0"/>
<stop offset="0.464" stop-color="#4D4949" stop-opacity="0.464"/>
<stop offset="1" stop-color="#1A1A1A"/>
</linearGradient>
<linearGradient id="paint12_linear_1_876" x1="421.24" y1="129.465" x2="382.088" y2="115.661" gradientUnits="userSpaceOnUse">
<stop stop-color="#766E6E" stop-opacity="0"/>
<stop offset="0.464" stop-color="#4D4949" stop-opacity="0.464"/>
<stop offset="1" stop-color="#1A1A1A"/>
</linearGradient>
<linearGradient id="paint13_linear_1_876" x1="390.489" y1="328.818" x2="349.33" y2="426.852" gradientUnits="userSpaceOnUse">
<stop stop-color="#766E6E" stop-opacity="0"/>
<stop offset="0.464" stop-color="#4D4949" stop-opacity="0.464"/>
<stop offset="1" stop-color="#1A1A1A"/>
</linearGradient>
<linearGradient id="paint14_linear_1_876" x1="568.108" y1="310.966" x2="288.973" y2="474.106" gradientUnits="userSpaceOnUse">
<stop stop-color="#FEAEE1"/>
<stop offset="1" stop-color="#FE5694"/>
</linearGradient>
<linearGradient id="paint15_linear_1_876" x1="519.745" y1="228.218" x2="240.611" y2="391.358" gradientUnits="userSpaceOnUse">
<stop stop-color="#FEAEE1"/>
<stop offset="1" stop-color="#FE5694"/>
</linearGradient>
<linearGradient id="paint16_linear_1_876" x1="478.733" y1="158.045" x2="199.598" y2="321.185" gradientUnits="userSpaceOnUse">
<stop stop-color="#FEAEE1"/>
<stop offset="1" stop-color="#FE5694"/>
</linearGradient>
<linearGradient id="paint17_linear_1_876" x1="531.827" y1="248.89" x2="252.693" y2="412.03" gradientUnits="userSpaceOnUse">
<stop stop-color="#FEAEE1"/>
<stop offset="1" stop-color="#FE5694"/>
</linearGradient>
<linearGradient id="paint18_linear_1_876" x1="405.72" y1="228.713" x2="297.209" y2="111.97" gradientUnits="userSpaceOnUse">
<stop stop-color="#FE0364" stop-opacity="0"/>
<stop offset="0.399" stop-color="#F70360" stop-opacity="0.399"/>
<stop offset="0.974" stop-color="#E40257" stop-opacity="0.974"/>
<stop offset="1" stop-color="#E30256"/>
</linearGradient>
<linearGradient id="paint19_linear_1_876" x1="386.609" y1="250.04" x2="297.555" y2="173.709" gradientUnits="userSpaceOnUse">
<stop stop-color="#FE0364" stop-opacity="0"/>
<stop offset="0.399" stop-color="#F70360" stop-opacity="0.399"/>
<stop offset="0.974" stop-color="#E40257" stop-opacity="0.974"/>
<stop offset="1" stop-color="#E30256"/>
</linearGradient>
<linearGradient id="paint20_linear_1_876" x1="356.88" y1="335.697" x2="314.972" y2="394.069" gradientUnits="userSpaceOnUse">
<stop stop-color="#FE0364" stop-opacity="0"/>
<stop offset="0.399" stop-color="#F70360" stop-opacity="0.399"/>
<stop offset="0.974" stop-color="#E40257" stop-opacity="0.974"/>
<stop offset="1" stop-color="#E30256"/>
</linearGradient>
<linearGradient id="paint21_linear_1_876" x1="246.916" y1="98.8894" x2="349.316" y2="188.573" gradientUnits="userSpaceOnUse">
<stop stop-color="#766E6E"/>
<stop offset="1" stop-color="#5B5555"/>
</linearGradient>
<linearGradient id="paint22_linear_1_876" x1="154.514" y1="66.9989" x2="235.497" y2="212.233" gradientUnits="userSpaceOnUse">
<stop stop-color="#766E6E"/>
<stop offset="1" stop-color="#5B5555"/>
</linearGradient>
<linearGradient id="paint23_linear_1_876" x1="229.433" y1="316.124" x2="285.36" y2="316.124" gradientUnits="userSpaceOnUse">
<stop stop-color="#FEAEE1"/>
<stop offset="1" stop-color="#FE5694"/>
</linearGradient>
</defs>
</svg>
