<svg width="512" height="512" viewBox="0 0 512 512" fill="none" xmlns="http://www.w3.org/2000/svg">
<g clip-path="url(#clip0_1_920)">
<mask id="mask0_1_920" style="mask-type:luminance" maskUnits="userSpaceOnUse" x="0" y="0" width="512" height="512">
<path d="M512 0H0V512H512V0Z" fill="white"/>
</mask>
<g mask="url(#mask0_1_920)">
<path d="M405.25 512H106.75C99.6464 512 93.8879 506.242 93.8879 499.138C93.8879 430.518 149.515 374.891 218.135 374.891H293.864C362.484 374.891 418.111 430.518 418.111 499.138C418.111 506.242 412.353 512 405.25 512Z" fill="url(#paint0_linear_1_920)"/>
<path d="M418.113 499.14C418.113 506.238 412.351 512 405.253 512H231.334L130.46 411.126C152.917 388.729 183.909 374.895 218.132 374.895H293.868C328.182 374.895 359.243 388.799 381.721 411.287C404.209 433.775 418.113 464.836 418.113 499.14Z" fill="url(#paint1_linear_1_920)"/>
<path d="M93.8889 499.138C93.8889 506.242 99.6474 512 106.75 512H405.249C412.353 512 418.111 506.242 418.111 499.138C418.111 480.849 414.158 463.482 407.061 447.846H104.939C97.8424 463.483 93.8889 480.849 93.8889 499.138Z" fill="url(#paint2_linear_1_920)"/>
<path d="M394.452 230.031L358.814 194.392L394.452 158.754C419.452 133.754 459.985 133.754 484.985 158.754L504.332 178.102C513.329 187.099 513.329 201.685 504.332 210.681L484.985 230.029C459.984 255.03 419.452 255.03 394.452 230.031Z" fill="url(#paint3_linear_1_920)"/>
<path d="M394.452 230.031L358.814 194.392L394.452 158.754C419.452 133.754 459.985 133.754 484.985 158.754L504.332 178.102C513.329 187.099 513.329 201.685 504.332 210.681L484.985 230.029C459.984 255.03 419.452 255.03 394.452 230.031Z" fill="url(#paint4_linear_1_920)"/>
<path d="M411.383 216.7L389.076 194.393L411.383 172.086C427.031 156.438 452.403 156.438 468.051 172.086L480.163 184.197C485.794 189.828 485.794 198.959 480.163 204.591L468.051 216.702C452.403 232.349 427.032 232.349 411.383 216.7Z" fill="url(#paint5_linear_1_920)"/>
<path d="M411.383 216.7L389.076 194.393L411.383 172.086C427.031 156.438 452.403 156.438 468.051 172.086L480.163 184.197C485.794 189.828 485.794 198.959 480.163 204.591L468.051 216.702C452.403 232.349 427.032 232.349 411.383 216.7Z" fill="url(#paint6_linear_1_920)"/>
<path d="M117.548 230.031L153.186 194.392L117.548 158.754C92.5486 133.754 52.0153 133.754 27.0156 158.754L7.66803 178.103C-1.32912 187.1 -1.32912 201.686 7.66803 210.682L27.0156 230.03C52.0163 255.03 92.5486 255.03 117.548 230.031Z" fill="url(#paint7_linear_1_920)"/>
<path d="M100.617 216.7L122.924 194.393L100.617 172.086C84.968 156.438 59.5969 156.438 43.9488 172.086L31.8375 184.197C26.2065 189.828 26.2065 198.959 31.8375 204.591L43.9488 216.702C59.5969 232.349 84.968 232.349 100.617 216.7Z" fill="url(#paint8_linear_1_920)"/>
<path d="M358.375 418.936C290.493 433.841 221.504 433.84 153.624 418.936C97.2861 406.565 59.6762 353.26 66.7789 296.019C70.3308 267.394 73.8877 244.398 77.4436 220.832C90.7706 132.503 166.671 67.1875 256 67.1875C345.328 67.1875 421.229 132.504 434.557 220.832C438.112 244.398 441.668 267.394 445.221 296.018C452.324 353.26 414.713 406.565 358.375 418.936Z" fill="url(#paint9_linear_1_920)"/>
<path d="M434.556 220.832C427.268 172.528 401.266 131.106 364.588 103.485L318.137 149.937L442.373 274.173C439.769 255.075 437.163 238.101 434.556 220.832Z" fill="url(#paint10_linear_1_920)"/>
<path d="M193.862 125.091H123.494C99.5801 150.901 83.0234 183.846 77.4426 220.832C73.8867 244.398 70.3308 267.394 66.7779 296.02C59.6752 353.26 97.2851 406.565 153.623 418.936C221.502 433.84 290.491 433.84 358.374 418.936C390.962 411.78 417.285 390.928 432.312 363.54L193.862 125.091Z" fill="url(#paint11_linear_1_920)"/>
<path d="M165.917 314.48C151.237 314.48 139.335 302.579 139.335 287.899V274.267C139.335 259.587 151.236 247.686 165.917 247.686C180.598 247.686 192.499 259.587 192.499 274.267V287.899C192.499 302.58 180.598 314.48 165.917 314.48Z" fill="url(#paint12_linear_1_920)"/>
<path d="M346.083 314.48C331.402 314.48 319.501 302.579 319.501 287.899V274.267C319.501 259.587 331.402 247.686 346.083 247.686C360.763 247.686 372.665 259.587 372.665 274.267V287.899C372.665 302.58 360.763 314.48 346.083 314.48Z" fill="url(#paint13_linear_1_920)"/>
<path d="M231.561 357.675L215.864 343.769C200.675 330.312 210.193 305.215 230.486 305.215H281.516C301.808 305.215 311.326 330.312 296.138 343.769L280.442 357.675C266.49 370.034 245.51 370.034 231.561 357.675Z" fill="url(#paint14_linear_1_920)"/>
<path d="M150.933 131.969C148.764 131.969 146.562 131.565 144.424 130.712C120.982 121.353 105.834 98.9958 105.834 73.7542V46.2498C105.834 36.5469 113.7 28.6812 123.403 28.6812C133.106 28.6812 140.972 36.5469 140.972 46.2498V73.7542C140.972 84.5343 147.44 94.0826 157.452 98.0782C166.464 101.675 170.852 111.897 167.255 120.908C164.51 127.783 157.908 131.969 150.933 131.969Z" fill="url(#paint15_linear_1_920)"/>
<path d="M181.44 155.082C179.132 155.085 176.847 154.632 174.715 153.749C172.583 152.866 170.647 151.571 169.017 149.937L158.966 139.885C151.624 132.544 141.862 128.5 131.48 128.5C87.9687 128.5 47.6512 104.962 26.2597 67.071L3.19355 26.2084C-1.57608 17.7584 1.40557 7.04256 9.85558 2.27293C18.3026 -2.4967 29.0204 0.485947 33.7911 8.93495L56.8592 49.7976C72.0294 76.6695 100.623 93.3628 131.481 93.3628C151.249 93.3628 169.833 101.061 183.812 115.039L193.863 125.091C200.725 131.951 200.725 143.076 193.863 149.937C192.234 151.57 190.297 152.866 188.165 153.749C186.033 154.632 183.747 155.085 181.44 155.082Z" fill="url(#paint16_linear_1_920)"/>
<path d="M361.067 131.969C363.236 131.969 365.439 131.565 367.576 130.712C391.018 121.353 406.166 98.9958 406.166 73.7542V46.2498C406.166 36.5469 398.3 28.6812 388.597 28.6812C378.894 28.6812 371.028 36.5469 371.028 46.2498V73.7542C371.028 84.5343 364.56 94.0826 354.548 98.0782C345.536 101.675 341.148 111.897 344.745 120.908C347.49 127.783 354.092 131.969 361.067 131.969Z" fill="url(#paint17_linear_1_920)"/>
<path d="M330.56 155.082C335.057 155.082 339.552 153.367 342.983 149.937L353.034 139.885C360.376 132.544 370.138 128.5 380.521 128.5C424.031 128.5 464.349 104.962 485.741 67.071L508.809 26.2084C513.578 17.7584 510.596 7.04256 502.146 2.27293C493.699 -2.4967 482.981 0.485947 478.21 8.93495L455.142 49.7976C439.972 76.6695 411.378 93.3628 380.521 93.3628C360.752 93.3628 342.168 101.061 328.189 115.039L318.138 125.091C311.276 131.951 311.276 143.076 318.138 149.937C319.767 151.571 321.704 152.866 323.836 153.749C325.967 154.632 328.253 155.085 330.56 155.082Z" fill="url(#paint18_linear_1_920)"/>
</g>
</g>
<defs>
<linearGradient id="paint0_linear_1_920" x1="216.646" y1="406.207" x2="266.873" y2="508.229" gradientUnits="userSpaceOnUse">
<stop stop-color="#FE7D43"/>
<stop offset="1" stop-color="#704444"/>
</linearGradient>
<linearGradient id="paint1_linear_1_920" x1="274.287" y1="486.536" x2="274.287" y2="395.635" gradientUnits="userSpaceOnUse">
<stop stop-color="#593636" stop-opacity="0"/>
<stop offset="1" stop-color="#593636"/>
</linearGradient>
<linearGradient id="paint2_linear_1_920" x1="256" y1="475.574" x2="256" y2="519.695" gradientUnits="userSpaceOnUse">
<stop stop-color="#593636" stop-opacity="0"/>
<stop offset="1" stop-color="#593636"/>
</linearGradient>
<linearGradient id="paint3_linear_1_920" x1="409.784" y1="164.459" x2="497.439" y2="252.115" gradientUnits="userSpaceOnUse">
<stop stop-color="#FE7D43"/>
<stop offset="1" stop-color="#704444"/>
</linearGradient>
<linearGradient id="paint4_linear_1_920" x1="473.856" y1="179.308" x2="416.298" y2="204.741" gradientUnits="userSpaceOnUse">
<stop stop-color="#593636" stop-opacity="0"/>
<stop offset="1" stop-color="#593636"/>
</linearGradient>
<linearGradient id="paint5_linear_1_920" x1="422.5" y1="177.175" x2="464.623" y2="219.298" gradientUnits="userSpaceOnUse">
<stop stop-color="#FFDFCF"/>
<stop offset="1" stop-color="#FFA78F"/>
</linearGradient>
<linearGradient id="paint6_linear_1_920" x1="450.997" y1="187.095" x2="416.863" y2="209.181" gradientUnits="userSpaceOnUse">
<stop stop-color="#F89580" stop-opacity="0"/>
<stop offset="0.997" stop-color="#C5715A"/>
</linearGradient>
<linearGradient id="paint7_linear_1_920" x1="41.2643" y1="170.16" x2="105.515" y2="220.356" gradientUnits="userSpaceOnUse">
<stop stop-color="#FE7D43"/>
<stop offset="1" stop-color="#704444"/>
</linearGradient>
<linearGradient id="paint8_linear_1_920" x1="42.6839" y1="164.794" x2="85.5172" y2="207.628" gradientUnits="userSpaceOnUse">
<stop stop-color="#FFDFCF"/>
<stop offset="1" stop-color="#FFA78F"/>
</linearGradient>
<linearGradient id="paint9_linear_1_920" x1="139.775" y1="143.209" x2="357.114" y2="381.55" gradientUnits="userSpaceOnUse">
<stop stop-color="#FE7D43"/>
<stop offset="1" stop-color="#704444"/>
</linearGradient>
<linearGradient id="paint10_linear_1_920" x1="380.043" y1="179.064" x2="344.571" y2="118.159" gradientUnits="userSpaceOnUse">
<stop stop-color="#593636" stop-opacity="0"/>
<stop offset="1" stop-color="#593636"/>
</linearGradient>
<linearGradient id="paint11_linear_1_920" x1="200.877" y1="216.522" x2="127.59" y2="18.7494" gradientUnits="userSpaceOnUse">
<stop stop-color="#593636" stop-opacity="0"/>
<stop offset="1" stop-color="#593636"/>
</linearGradient>
<linearGradient id="paint12_linear_1_920" x1="148.581" y1="268.321" x2="185.488" y2="295.488" gradientUnits="userSpaceOnUse">
<stop stop-color="#5A5A5A"/>
<stop offset="1" stop-color="#444444"/>
</linearGradient>
<linearGradient id="paint13_linear_1_920" x1="326.946" y1="266.73" x2="359.752" y2="291.335" gradientUnits="userSpaceOnUse">
<stop stop-color="#5A5A5A"/>
<stop offset="1" stop-color="#444444"/>
</linearGradient>
<linearGradient id="paint14_linear_1_920" x1="243.192" y1="314.42" x2="266.12" y2="337.348" gradientUnits="userSpaceOnUse">
<stop stop-color="#5A5A5A"/>
<stop offset="1" stop-color="#444444"/>
</linearGradient>
<linearGradient id="paint15_linear_1_920" x1="112.385" y1="51.416" x2="147.857" y2="101.612" gradientUnits="userSpaceOnUse">
<stop stop-color="#FFDFCF"/>
<stop offset="1" stop-color="#FFA78F"/>
</linearGradient>
<linearGradient id="paint16_linear_1_920" x1="100.774" y1="71.5475" x2="91.4031" y2="141.153" gradientUnits="userSpaceOnUse">
<stop stop-color="#FFDFCF"/>
<stop offset="1" stop-color="#FFA78F"/>
</linearGradient>
<linearGradient id="paint17_linear_1_920" x1="399.615" y1="51.416" x2="364.143" y2="101.612" gradientUnits="userSpaceOnUse">
<stop stop-color="#FFDFCF"/>
<stop offset="1" stop-color="#FFA78F"/>
</linearGradient>
<linearGradient id="paint18_linear_1_920" x1="411.226" y1="71.5475" x2="420.597" y2="141.153" gradientUnits="userSpaceOnUse">
<stop stop-color="#FFDFCF"/>
<stop offset="1" stop-color="#FFA78F"/>
</linearGradient>
<clipPath id="clip0_1_920">
<rect width="512" height="512" fill="white"/>
</clipPath>
</defs>
</svg>
