<svg width="512" height="512" viewBox="0 0 512 512" fill="none" xmlns="http://www.w3.org/2000/svg">
<g clip-path="url(#clip0_1_995)">
<mask id="mask0_1_995" style="mask-type:luminance" maskUnits="userSpaceOnUse" x="0" y="0" width="512" height="512">
<path d="M512 0H0V512H512V0Z" fill="white"/>
</mask>
<g mask="url(#mask0_1_995)">
<path d="M447.229 512H64.7711C55.6696 512 48.2917 504.622 48.2917 495.521C48.2917 407.6 119.565 336.327 207.486 336.327H304.515C392.435 336.327 463.709 407.6 463.709 495.521C463.709 504.622 456.331 512 447.229 512Z" fill="url(#paint0_linear_1_995)"/>
<path d="M256 336.327H207.486C119.565 336.327 48.2917 407.6 48.2917 495.521C48.2917 504.622 55.6696 512 64.7711 512H136.533V455.793C136.533 389.814 190.02 336.327 256 336.327Z" fill="url(#paint1_linear_1_995)"/>
<path d="M304.515 336.327H256C321.98 336.327 375.467 389.814 375.467 455.793V512H447.229C456.331 512 463.708 504.622 463.708 495.521C463.708 407.6 392.435 336.327 304.515 336.327Z" fill="url(#paint2_linear_1_995)"/>
<path d="M463.706 495.522C463.706 500.068 461.866 504.195 458.878 507.172C457.351 508.706 455.535 509.922 453.535 510.751C451.536 511.58 449.392 512.004 447.227 512H188.708L78.6807 401.972C83.5834 395.215 89.0128 388.856 94.9181 382.955C123.726 354.148 163.526 336.332 207.485 336.332H304.514C392.433 336.332 463.706 407.604 463.706 495.522Z" fill="url(#paint3_linear_1_995)"/>
<path d="M48.2917 495.52C48.2917 504.622 55.6696 512 64.7711 512H447.229C456.331 512 463.709 504.622 463.709 495.52C463.709 472.086 458.643 449.836 449.55 429.801H62.4501C53.3575 449.836 48.2917 472.086 48.2917 495.52Z" fill="url(#paint4_linear_1_995)"/>
<path d="M425.512 412.079C317.698 441.375 203.756 441.374 95.9479 412.079C43.5703 397.846 13.1254 343.369 28.8267 291.412C37.3028 263.364 44.6736 241.189 51.6027 220.781C82.0195 131.193 166.117 70.9321 260.73 70.9321C355.342 70.9321 439.44 131.194 469.858 220.782C476.787 241.19 484.157 263.365 492.633 291.412C508.336 343.369 477.89 397.846 425.512 412.079Z" fill="url(#paint5_linear_1_995)"/>
<path d="M261.101 231.989C347.608 231.989 427.06 250.48 489.563 281.35C482.356 257.953 475.936 238.686 469.857 220.782C439.441 131.193 355.342 70.9321 260.731 70.9321C166.118 70.9321 82.0204 131.194 51.6026 220.782C45.4867 238.795 39.0255 258.193 31.7651 281.782C94.3998 250.652 174.19 231.989 261.101 231.989Z" fill="url(#paint6_linear_1_995)"/>
<path d="M261.101 231.989C347.608 231.989 427.06 250.48 489.563 281.35C482.356 257.953 475.936 238.686 469.857 220.782C439.441 131.193 355.342 70.9321 260.731 70.9321C166.118 70.9321 82.0204 131.194 51.6026 220.782C45.4867 238.795 39.0255 258.193 31.7651 281.782C94.3998 250.652 174.19 231.989 261.101 231.989Z" fill="url(#paint7_linear_1_995)"/>
<path d="M409.726 184.471C460.666 184.471 501.961 143.175 501.961 92.2353C501.961 41.2952 460.666 0 409.726 0C358.785 0 317.49 41.2952 317.49 92.2353C317.49 143.175 358.785 184.471 409.726 184.471Z" fill="url(#paint8_linear_1_995)"/>
<path d="M102.275 184.471C153.215 184.471 194.51 143.175 194.51 92.2353C194.51 41.2952 153.215 0 102.275 0C51.3345 0 10.0393 41.2952 10.0393 92.2353C10.0393 143.175 51.3345 184.471 102.275 184.471Z" fill="url(#paint9_linear_1_995)"/>
<path d="M117.056 141.141C152.556 141.141 181.335 112.363 181.335 76.8631C181.335 41.3632 152.556 12.585 117.056 12.585C81.5566 12.585 52.7783 41.3632 52.7783 76.8631C52.7783 112.363 81.5566 141.141 117.056 141.141Z" fill="url(#paint10_linear_1_995)"/>
<path d="M395.535 141.141C431.035 141.141 459.813 112.363 459.813 76.8631C459.813 41.3632 431.035 12.585 395.535 12.585C360.035 12.585 331.257 41.3632 331.257 76.8631C331.257 112.363 360.035 141.141 395.535 141.141Z" fill="url(#paint11_linear_1_995)"/>
<path d="M135.756 121.616C119.915 121.616 107.073 108.774 107.073 92.933V78.2245C107.073 62.3837 119.914 49.5415 135.756 49.5415C151.597 49.5415 164.439 62.3837 164.439 78.2245V92.933C164.439 108.775 151.597 121.616 135.756 121.616Z" fill="url(#paint12_linear_1_995)"/>
<path d="M376.244 121.616C360.402 121.616 347.561 108.774 347.561 92.933V78.2245C347.561 62.3837 360.402 49.5415 376.244 49.5415C392.084 49.5415 404.927 62.3837 404.927 78.2245V92.933C404.927 108.775 392.084 121.616 376.244 121.616Z" fill="url(#paint13_linear_1_995)"/>
<path d="M296.461 137.426C283.37 137.426 272.757 126.813 272.757 113.722C272.757 112.182 273.369 110.704 274.459 109.615C275.548 108.526 277.025 107.914 278.566 107.914C291.657 107.914 302.27 118.526 302.27 131.617C302.269 133.158 301.657 134.635 300.568 135.724C299.479 136.814 298.001 137.426 296.461 137.426Z" fill="url(#paint14_linear_1_995)"/>
<path d="M215.539 137.426C228.63 137.426 239.243 126.813 239.243 113.722C239.243 112.959 239.093 112.204 238.801 111.499C238.509 110.795 238.081 110.154 237.541 109.615C237.002 109.076 236.362 108.648 235.657 108.356C234.952 108.064 234.197 107.914 233.434 107.914C220.343 107.914 209.73 118.526 209.73 131.617C209.731 133.158 210.343 134.635 211.432 135.724C212.521 136.814 213.999 137.426 215.539 137.426Z" fill="url(#paint15_linear_1_995)"/>
</g>
</g>
<defs>
<linearGradient id="paint0_linear_1_995" x1="230.083" y1="420.228" x2="283.291" y2="544.715" gradientUnits="userSpaceOnUse">
<stop stop-color="#9E9797" stop-opacity="0"/>
<stop offset="0.31" stop-color="#968F8F" stop-opacity="0.31"/>
<stop offset="0.785" stop-color="#827A7A" stop-opacity="0.785"/>
<stop offset="1" stop-color="#766E6E"/>
</linearGradient>
<linearGradient id="paint1_linear_1_995" x1="147.952" y1="406.68" x2="182.684" y2="496.072" gradientUnits="userSpaceOnUse">
<stop stop-color="#9BE69D"/>
<stop offset="1" stop-color="#0996A4"/>
</linearGradient>
<linearGradient id="paint2_linear_1_995" x1="355.663" y1="390.158" x2="410.274" y2="530.712" gradientUnits="userSpaceOnUse">
<stop stop-color="#9BE69D"/>
<stop offset="1" stop-color="#0996A4"/>
</linearGradient>
<linearGradient id="paint3_linear_1_995" x1="271.194" y1="474.177" x2="271.194" y2="381.817" gradientUnits="userSpaceOnUse">
<stop stop-color="#01525A" stop-opacity="0"/>
<stop offset="1" stop-color="#01525A"/>
</linearGradient>
<linearGradient id="paint4_linear_1_995" x1="256" y1="465.328" x2="256" y2="521.859" gradientUnits="userSpaceOnUse">
<stop stop-color="#01525A" stop-opacity="0"/>
<stop offset="1" stop-color="#01525A"/>
</linearGradient>
<linearGradient id="paint5_linear_1_995" x1="234.923" y1="258.02" x2="316.24" y2="391.542" gradientUnits="userSpaceOnUse">
<stop stop-color="#F9F5F3"/>
<stop offset="1" stop-color="#EFE2DD"/>
</linearGradient>
<linearGradient id="paint6_linear_1_995" x1="123.1" y1="28.0145" x2="329.908" y2="382.399" gradientUnits="userSpaceOnUse">
<stop stop-color="#9BE69D"/>
<stop offset="1" stop-color="#0996A4"/>
</linearGradient>
<linearGradient id="paint7_linear_1_995" x1="240.458" y1="182.509" x2="267.899" y2="317.034" gradientUnits="userSpaceOnUse">
<stop stop-color="#01525A" stop-opacity="0"/>
<stop offset="1" stop-color="#01525A"/>
</linearGradient>
<linearGradient id="paint8_linear_1_995" x1="354.381" y1="18.443" x2="465.817" y2="167.023" gradientUnits="userSpaceOnUse">
<stop stop-color="#9BE69D"/>
<stop offset="1" stop-color="#0996A4"/>
</linearGradient>
<linearGradient id="paint9_linear_1_995" x1="79.6081" y1="53.3946" x2="286.416" y2="407.779" gradientUnits="userSpaceOnUse">
<stop stop-color="#9BE69D"/>
<stop offset="1" stop-color="#0996A4"/>
</linearGradient>
<linearGradient id="paint10_linear_1_995" x1="79.2859" y1="35.4422" x2="150.75" y2="113.813" gradientUnits="userSpaceOnUse">
<stop stop-color="white"/>
<stop offset="1" stop-color="#E1D3CE"/>
</linearGradient>
<linearGradient id="paint11_linear_1_995" x1="357.765" y1="35.4422" x2="429.23" y2="113.813" gradientUnits="userSpaceOnUse">
<stop stop-color="white"/>
<stop offset="1" stop-color="#E1D3CE"/>
</linearGradient>
<linearGradient id="paint12_linear_1_995" x1="117.049" y1="71.8085" x2="156.873" y2="101.123" gradientUnits="userSpaceOnUse">
<stop stop-color="#5A5A5A"/>
<stop offset="1" stop-color="#444444"/>
</linearGradient>
<linearGradient id="paint13_linear_1_995" x1="355.594" y1="70.0918" x2="390.993" y2="96.6415" gradientUnits="userSpaceOnUse">
<stop stop-color="#5A5A5A"/>
<stop offset="1" stop-color="#444444"/>
</linearGradient>
<linearGradient id="paint14_linear_1_995" x1="279.01" y1="112.817" x2="295.353" y2="131.753" gradientUnits="userSpaceOnUse">
<stop stop-color="#5A5A5A"/>
<stop offset="1" stop-color="#444444"/>
</linearGradient>
<linearGradient id="paint15_linear_1_995" x1="212.164" y1="104.184" x2="234.25" y2="137.313" gradientUnits="userSpaceOnUse">
<stop stop-color="#5A5A5A"/>
<stop offset="1" stop-color="#444444"/>
</linearGradient>
<clipPath id="clip0_1_995">
<rect width="512" height="512" fill="white"/>
</clipPath>
</defs>
</svg>
