<svg width="512" height="512" viewBox="0 0 512 512" fill="none" xmlns="http://www.w3.org/2000/svg">
<g clip-path="url(#clip0_1_1016)">
<mask id="mask0_1_1016" style="mask-type:luminance" maskUnits="userSpaceOnUse" x="0" y="0" width="512" height="512">
<path d="M512 0H0V512H512V0Z" fill="white"/>
</mask>
<g mask="url(#mask0_1_1016)">
<path d="M427.041 360.102C418.41 341.809 420.634 320.464 432.117 303.807C441.204 290.624 445.701 274.3 443.939 257.458C438.909 209.37 433.867 177.914 428.827 144.429C416.33 61.3968 344.815 0 260.681 0H255.999C169.176 0 95.4286 63.3695 82.475 149.048C77.6673 180.849 72.8575 211.587 68.0597 257.459C66.2978 274.302 70.7944 290.625 79.8819 303.807C91.3648 320.464 93.5884 341.809 84.9577 360.102C77.4203 376.076 48.2915 464.998 48.2915 495.521C48.2915 504.622 55.6693 512 64.7709 512H447.229C456.33 512 463.708 504.622 463.708 495.521C463.708 464.998 434.578 376.076 427.041 360.102Z" fill="url(#paint0_linear_1_1016)"/>
<path d="M463.711 495.516C463.711 504.621 456.333 512 447.227 512H284.642C275.687 494.331 270.637 474.343 270.637 453.18C270.637 381.239 328.965 322.921 400.896 322.921C408.446 322.921 415.834 323.564 423.033 324.799C420.543 336.525 421.747 348.883 427.038 360.097C430.803 368.088 439.979 394.31 448.201 422.35C456.423 450.399 463.711 480.256 463.711 495.516Z" fill="url(#paint1_linear_1_1016)"/>
<path d="M241.363 453.18C241.363 474.343 236.313 494.331 227.358 512H64.773C60.2152 512 56.0991 510.153 53.1174 507.171C50.1358 504.189 48.2886 500.073 48.2886 495.516C48.2886 464.996 77.4224 376.079 84.9618 360.097C90.2525 348.883 91.4572 336.525 88.9675 324.799C96.1656 323.564 103.554 322.921 111.104 322.921C183.035 322.921 241.363 381.239 241.363 453.18Z" fill="url(#paint2_linear_1_1016)"/>
<path d="M48.2915 495.52C48.2915 504.622 55.6693 512 64.7709 512H447.229C456.33 512 463.708 504.622 463.708 495.52C463.708 472.623 447.314 416.858 435.942 383.683H76.058C64.6855 416.858 48.2915 472.623 48.2915 495.52Z" fill="url(#paint3_linear_1_1016)"/>
<path d="M421.816 334.933L386.779 299.896L122.831 425.193L209.639 512H447.229C456.33 512 463.708 504.622 463.708 495.521C463.708 464.998 434.578 376.076 427.041 360.102C423.257 352.081 421.561 343.475 421.816 334.933Z" fill="url(#paint4_linear_1_1016)"/>
<path d="M81.6107 368.225C71.1548 395.604 48.2915 468.479 48.2915 495.521C48.2915 504.622 55.6693 512 64.7709 512H447.229C456.33 512 463.708 504.622 463.708 495.521C463.708 468.479 440.845 395.604 430.389 368.225C382.321 353.265 321.783 344.345 256 344.345C190.217 344.345 129.678 353.265 81.6107 368.225Z" fill="url(#paint5_linear_1_1016)"/>
<path d="M165.917 262.82C151.236 262.82 139.335 250.918 139.335 236.238V222.607C139.335 207.926 151.235 196.025 165.917 196.025C180.597 196.025 192.499 207.926 192.499 222.607V236.238C192.499 250.918 180.597 262.82 165.917 262.82Z" fill="url(#paint6_linear_1_1016)"/>
<path d="M346.083 262.82C331.401 262.82 319.501 250.918 319.501 236.238V222.607C319.501 207.926 331.401 196.025 346.083 196.025C360.763 196.025 372.665 207.926 372.665 222.607V236.238C372.665 250.918 360.763 262.82 346.083 262.82Z" fill="url(#paint7_linear_1_1016)"/>
<path d="M324.191 274.334H187.809C138.421 274.334 98.3843 314.371 98.3843 363.759C98.3843 413.147 138.421 453.183 187.809 453.183C215.142 453.183 239.597 440.905 256 421.58C272.403 440.905 296.857 453.183 324.191 453.183C373.579 453.183 413.616 413.147 413.616 363.759C413.616 314.372 373.579 274.334 324.191 274.334Z" fill="url(#paint8_linear_1_1016)"/>
<path d="M324.191 453.183C373.579 453.183 413.616 413.146 413.616 363.759C413.616 314.371 373.579 274.334 324.191 274.334C274.804 274.334 234.767 314.371 234.767 363.759C234.767 413.146 274.804 453.183 324.191 453.183Z" fill="url(#paint9_linear_1_1016)"/>
<path d="M193.013 357.925C202.101 357.925 209.469 350.558 209.469 341.469C209.469 332.38 202.101 325.013 193.013 325.013C183.924 325.013 176.557 332.38 176.557 341.469C176.557 350.558 183.924 357.925 193.013 357.925Z" fill="url(#paint10_linear_1_1016)"/>
<path d="M157.768 391.037C161.83 391.037 165.123 387.744 165.123 383.682C165.123 379.62 161.83 376.327 157.768 376.327C153.706 376.327 150.414 379.62 150.414 383.682C150.414 387.744 153.706 391.037 157.768 391.037Z" fill="url(#paint11_linear_1_1016)"/>
<path d="M180.92 415.221C187.599 415.221 193.013 409.807 193.013 403.129C193.013 396.45 187.599 391.037 180.92 391.037C174.242 391.037 168.828 396.45 168.828 403.129C168.828 409.807 174.242 415.221 180.92 415.221Z" fill="url(#paint12_linear_1_1016)"/>
<path d="M318.987 357.925C328.076 357.925 335.443 350.558 335.443 341.469C335.443 332.38 328.076 325.013 318.987 325.013C309.898 325.013 302.531 332.38 302.531 341.469C302.531 350.558 309.898 357.925 318.987 357.925Z" fill="url(#paint13_linear_1_1016)"/>
<path d="M354.232 391.037C358.294 391.037 361.586 387.744 361.586 383.682C361.586 379.62 358.294 376.327 354.232 376.327C350.17 376.327 346.877 379.62 346.877 383.682C346.877 387.744 350.17 391.037 354.232 391.037Z" fill="url(#paint14_linear_1_1016)"/>
<path d="M331.079 415.221C337.757 415.221 343.171 409.807 343.171 403.129C343.171 396.45 337.757 391.037 331.079 391.037C324.401 391.037 318.987 396.45 318.987 403.129C318.987 409.807 324.401 415.221 331.079 415.221Z" fill="url(#paint15_linear_1_1016)"/>
<path d="M225.594 323.46L206.065 306.159C187.167 289.416 199.009 258.192 224.256 258.192H287.743C312.989 258.192 324.832 289.416 305.934 306.159L286.404 323.46C269.051 338.836 242.949 338.836 225.594 323.46Z" fill="url(#paint16_linear_1_1016)"/>
<path d="M7.50817 379.634C6.07658 379.633 4.67508 379.223 3.4687 378.452C2.26232 377.681 1.30128 376.582 0.698754 375.283C0.0962291 373.985 -0.122696 372.541 0.0677576 371.122C0.258211 369.703 0.850113 368.368 1.77377 367.275C22.0379 343.284 50.9318 326.244 83.1336 319.294C112.935 312.861 142.981 315.304 170.025 326.35C171.869 327.103 173.339 328.558 174.111 330.395C174.882 332.232 174.892 334.301 174.139 336.145C173.386 337.99 171.93 339.459 170.094 340.231C168.257 341.002 166.188 341.013 164.344 340.259C140.115 330.361 113.129 328.19 86.303 333.981C57.3288 340.234 31.3854 355.501 13.2516 376.971C12.5462 377.806 11.6667 378.478 10.6746 378.938C9.68247 379.398 8.60177 379.636 7.50817 379.634Z" fill="url(#paint17_linear_1_1016)"/>
<path d="M14.6382 455.569C13.1952 455.568 11.7828 455.153 10.5699 454.371C9.35704 453.589 8.39504 452.474 7.79902 451.16C7.20299 449.846 6.99817 448.388 7.20906 446.961C7.41995 445.533 8.03762 444.197 8.98817 443.111C44.8683 402.101 86.1837 387.016 114.524 381.584C145.328 375.678 167.57 379.512 168.501 379.678C170.444 380.047 172.163 381.167 173.285 382.796C174.407 384.424 174.842 386.429 174.495 388.376C174.148 390.323 173.048 392.055 171.432 393.195C169.817 394.336 167.817 394.793 165.866 394.469C165.673 394.436 144.951 390.939 116.731 396.46C79.1352 403.812 46.6894 422.837 20.2953 453.004C19.5904 453.81 18.7207 454.457 17.7448 454.899C16.769 455.342 15.7097 455.57 14.6382 455.569Z" fill="url(#paint18_linear_1_1016)"/>
<path d="M37.673 397.44C36.1334 397.441 34.6309 396.968 33.3687 396.087C32.1065 395.205 31.1457 393.957 30.6163 392.511C30.0869 391.066 30.0145 389.492 30.4088 388.004C30.8032 386.516 31.6452 385.184 32.8211 384.191C88.2235 337.381 165.455 352.794 168.715 353.475C169.681 353.676 170.597 354.065 171.413 354.621C172.228 355.176 172.926 355.887 173.466 356.712C174.007 357.537 174.38 358.461 174.564 359.43C174.747 360.399 174.738 361.395 174.537 362.361C174.336 363.327 173.947 364.243 173.391 365.059C172.836 365.874 172.125 366.572 171.3 367.112C170.475 367.653 169.551 368.026 168.582 368.21C167.613 368.393 166.617 368.384 165.651 368.183C164.93 368.034 92.2422 353.653 42.5159 395.665C41.1634 396.813 39.4468 397.442 37.673 397.44Z" fill="url(#paint19_linear_1_1016)"/>
<path d="M504.491 379.634C503.398 379.636 502.317 379.398 501.325 378.938C500.333 378.478 499.454 377.806 498.749 376.97C480.615 355.5 454.671 340.233 425.697 333.98C398.872 328.19 371.886 330.361 347.656 340.258C345.811 341.012 343.743 341.001 341.906 340.23C340.069 339.458 338.614 337.989 337.86 336.144C337.107 334.3 337.117 332.232 337.889 330.395C338.66 328.558 340.13 327.102 341.975 326.349C369.02 315.303 399.068 312.862 428.866 319.293C461.067 326.243 489.962 343.282 510.226 367.274C511.511 368.796 512.14 370.766 511.973 372.752C511.805 374.737 510.856 376.575 509.334 377.86C507.981 379.007 506.265 379.636 504.491 379.634Z" fill="url(#paint20_linear_1_1016)"/>
<path d="M497.36 455.569C496.289 455.57 495.23 455.342 494.254 454.9C493.278 454.457 492.409 453.81 491.704 453.003C465.311 422.835 432.866 403.811 395.27 396.459C367.049 390.939 346.327 394.436 346.121 394.47C342.045 395.183 338.146 392.457 337.426 388.376C336.706 384.295 339.42 380.405 343.497 379.677C344.429 379.512 366.671 375.68 397.475 381.583C425.816 387.015 467.131 402.101 503.012 443.11C503.962 444.196 504.58 445.533 504.79 446.96C505.001 448.388 504.796 449.846 504.2 451.16C503.604 452.474 502.642 453.589 501.429 454.371C500.216 455.153 498.804 455.569 497.36 455.569Z" fill="url(#paint21_linear_1_1016)"/>
<path d="M474.326 397.44C472.551 397.442 470.834 396.814 469.481 395.667C419.61 353.532 347.072 368.032 346.347 368.184C342.288 369.035 338.306 366.423 337.461 362.361C337.055 360.411 337.44 358.379 338.532 356.713C339.624 355.046 341.333 353.882 343.284 353.476C346.544 352.798 423.776 337.382 479.178 384.192C480.353 385.186 481.195 386.517 481.589 388.005C481.983 389.493 481.91 391.066 481.381 392.512C480.852 393.957 479.891 395.205 478.629 396.087C477.367 396.968 475.865 397.441 474.326 397.44Z" fill="url(#paint22_linear_1_1016)"/>
</g>
</g>
<defs>
<linearGradient id="paint0_linear_1_1016" x1="135.327" y1="216.784" x2="281.39" y2="325.201" gradientUnits="userSpaceOnUse">
<stop stop-color="#F9F5F3"/>
<stop offset="1" stop-color="#EFE2DD"/>
</linearGradient>
<linearGradient id="paint1_linear_1_1016" x1="367.174" y1="393.537" x2="367.174" y2="305.828" gradientUnits="userSpaceOnUse">
<stop stop-color="#9E9797" stop-opacity="0"/>
<stop offset="0.31" stop-color="#968F8F" stop-opacity="0.31"/>
<stop offset="0.785" stop-color="#827A7A" stop-opacity="0.785"/>
<stop offset="1" stop-color="#766E6E"/>
</linearGradient>
<linearGradient id="paint2_linear_1_1016" x1="144.826" y1="393.537" x2="144.826" y2="305.828" gradientUnits="userSpaceOnUse">
<stop stop-color="#9E9797" stop-opacity="0"/>
<stop offset="0.31" stop-color="#968F8F" stop-opacity="0.31"/>
<stop offset="0.785" stop-color="#827A7A" stop-opacity="0.785"/>
<stop offset="1" stop-color="#766E6E"/>
</linearGradient>
<linearGradient id="paint3_linear_1_1016" x1="256" y1="441.725" x2="256" y2="539.127" gradientUnits="userSpaceOnUse">
<stop stop-color="#9E9797" stop-opacity="0"/>
<stop offset="0.31" stop-color="#968F8F" stop-opacity="0.31"/>
<stop offset="0.785" stop-color="#827A7A" stop-opacity="0.785"/>
<stop offset="1" stop-color="#766E6E"/>
</linearGradient>
<linearGradient id="paint4_linear_1_1016" x1="309.884" y1="473.794" x2="236.932" y2="291.75" gradientUnits="userSpaceOnUse">
<stop stop-color="#9E9797" stop-opacity="0"/>
<stop offset="0.31" stop-color="#968F8F" stop-opacity="0.31"/>
<stop offset="0.785" stop-color="#827A7A" stop-opacity="0.785"/>
<stop offset="1" stop-color="#766E6E"/>
</linearGradient>
<linearGradient id="paint5_linear_1_1016" x1="256" y1="411.608" x2="256" y2="351.373" gradientUnits="userSpaceOnUse">
<stop stop-color="#9E9797" stop-opacity="0"/>
<stop offset="0.31" stop-color="#968F8F" stop-opacity="0.31"/>
<stop offset="0.785" stop-color="#827A7A" stop-opacity="0.785"/>
<stop offset="1" stop-color="#766E6E"/>
</linearGradient>
<linearGradient id="paint6_linear_1_1016" x1="148.58" y1="216.66" x2="185.487" y2="243.828" gradientUnits="userSpaceOnUse">
<stop stop-color="#5A5A5A"/>
<stop offset="1" stop-color="#444444"/>
</linearGradient>
<linearGradient id="paint7_linear_1_1016" x1="326.946" y1="215.069" x2="359.752" y2="239.673" gradientUnits="userSpaceOnUse">
<stop stop-color="#5A5A5A"/>
<stop offset="1" stop-color="#444444"/>
</linearGradient>
<linearGradient id="paint8_linear_1_1016" x1="243.883" y1="319.672" x2="291.067" y2="491.342" gradientUnits="userSpaceOnUse">
<stop stop-color="white"/>
<stop offset="1" stop-color="#E1D3CE"/>
</linearGradient>
<linearGradient id="paint9_linear_1_1016" x1="319.324" y1="392.194" x2="300.25" y2="503.629" gradientUnits="userSpaceOnUse">
<stop stop-color="#9E9797" stop-opacity="0"/>
<stop offset="0.31" stop-color="#968F8F" stop-opacity="0.31"/>
<stop offset="0.785" stop-color="#827A7A" stop-opacity="0.785"/>
<stop offset="1" stop-color="#766E6E"/>
</linearGradient>
<linearGradient id="paint10_linear_1_1016" x1="154.594" y1="303.049" x2="275.738" y2="424.193" gradientUnits="userSpaceOnUse">
<stop stop-color="#9E9797" stop-opacity="0"/>
<stop offset="0.31" stop-color="#968F8F" stop-opacity="0.31"/>
<stop offset="0.785" stop-color="#827A7A" stop-opacity="0.785"/>
<stop offset="1" stop-color="#766E6E"/>
</linearGradient>
<linearGradient id="paint11_linear_1_1016" x1="126.908" y1="352.821" x2="248.052" y2="473.965" gradientUnits="userSpaceOnUse">
<stop stop-color="#9E9797" stop-opacity="0"/>
<stop offset="0.31" stop-color="#968F8F" stop-opacity="0.31"/>
<stop offset="0.785" stop-color="#827A7A" stop-opacity="0.785"/>
<stop offset="1" stop-color="#766E6E"/>
</linearGradient>
<linearGradient id="paint12_linear_1_1016" x1="128.76" y1="350.968" x2="249.905" y2="472.113" gradientUnits="userSpaceOnUse">
<stop stop-color="#9E9797" stop-opacity="0"/>
<stop offset="0.31" stop-color="#968F8F" stop-opacity="0.31"/>
<stop offset="0.785" stop-color="#827A7A" stop-opacity="0.785"/>
<stop offset="1" stop-color="#766E6E"/>
</linearGradient>
<linearGradient id="paint13_linear_1_1016" x1="280.442" y1="302.924" x2="461.811" y2="484.293" gradientUnits="userSpaceOnUse">
<stop stop-color="#9E9797" stop-opacity="0"/>
<stop offset="0.31" stop-color="#968F8F" stop-opacity="0.31"/>
<stop offset="0.785" stop-color="#827A7A" stop-opacity="0.785"/>
<stop offset="1" stop-color="#766E6E"/>
</linearGradient>
<linearGradient id="paint14_linear_1_1016" x1="288.001" y1="317.451" x2="469.37" y2="498.821" gradientUnits="userSpaceOnUse">
<stop stop-color="#9E9797" stop-opacity="0"/>
<stop offset="0.31" stop-color="#968F8F" stop-opacity="0.31"/>
<stop offset="0.785" stop-color="#827A7A" stop-opacity="0.785"/>
<stop offset="1" stop-color="#766E6E"/>
</linearGradient>
<linearGradient id="paint15_linear_1_1016" x1="266.701" y1="338.751" x2="448.07" y2="520.12" gradientUnits="userSpaceOnUse">
<stop stop-color="#9E9797" stop-opacity="0"/>
<stop offset="0.31" stop-color="#968F8F" stop-opacity="0.31"/>
<stop offset="0.785" stop-color="#827A7A" stop-opacity="0.785"/>
<stop offset="1" stop-color="#766E6E"/>
</linearGradient>
<linearGradient id="paint16_linear_1_1016" x1="230.33" y1="261.056" x2="294.658" y2="322.504" gradientUnits="userSpaceOnUse">
<stop stop-color="#5A5A5A"/>
<stop offset="1" stop-color="#444444"/>
</linearGradient>
<linearGradient id="paint17_linear_1_1016" x1="-2.7894" y1="359.936" x2="172.467" y2="322.109" gradientUnits="userSpaceOnUse">
<stop stop-color="#5A5A5A"/>
<stop offset="1" stop-color="#444444"/>
</linearGradient>
<linearGradient id="paint18_linear_1_1016" x1="3.71724" y1="440.754" x2="171.046" y2="376.355" gradientUnits="userSpaceOnUse">
<stop stop-color="#5A5A5A"/>
<stop offset="1" stop-color="#444444"/>
</linearGradient>
<linearGradient id="paint19_linear_1_1016" x1="28.7632" y1="384.212" x2="173.203" y2="353.036" gradientUnits="userSpaceOnUse">
<stop stop-color="#5A5A5A"/>
<stop offset="1" stop-color="#444444"/>
</linearGradient>
<linearGradient id="paint20_linear_1_1016" x1="514.726" y1="359.969" x2="339.47" y2="322.141" gradientUnits="userSpaceOnUse">
<stop stop-color="#5A5A5A"/>
<stop offset="1" stop-color="#444444"/>
</linearGradient>
<linearGradient id="paint21_linear_1_1016" x1="508.721" y1="440.775" x2="341.397" y2="376.378" gradientUnits="userSpaceOnUse">
<stop stop-color="#5A5A5A"/>
<stop offset="1" stop-color="#444444"/>
</linearGradient>
<linearGradient id="paint22_linear_1_1016" x1="483.173" y1="384.244" x2="338.734" y2="353.068" gradientUnits="userSpaceOnUse">
<stop stop-color="#5A5A5A"/>
<stop offset="1" stop-color="#444444"/>
</linearGradient>
<clipPath id="clip0_1_1016">
<rect width="512" height="512" fill="white"/>
</clipPath>
</defs>
</svg>
