<svg width="512" height="512" viewBox="0 0 512 512" fill="none" xmlns="http://www.w3.org/2000/svg">
<g clip-path="url(#clip0_1_117)">
<mask id="mask0_1_117" style="mask-type:luminance" maskUnits="userSpaceOnUse" x="0" y="0" width="512" height="512">
<path d="M512 0H0V512H512V0Z" fill="white"/>
</mask>
<g mask="url(#mask0_1_117)">
<path d="M447.229 512H64.771C55.6694 512 48.2916 504.622 48.2916 495.521C48.2916 407.6 119.565 336.327 207.485 336.327H304.515C392.435 336.327 463.708 407.6 463.708 495.521C463.708 504.622 456.331 512 447.229 512Z" fill="url(#paint0_linear_1_117)"/>
<path d="M463.701 495.526C463.701 500.063 461.864 504.199 458.883 507.171C457.355 508.706 455.538 509.922 453.538 510.751C451.537 511.58 449.392 512.004 447.227 512H240.018L103.233 375.216C131.162 350.981 167.615 336.334 207.48 336.334H304.52C392.433 336.334 463.701 407.602 463.701 495.526Z" fill="url(#paint1_linear_1_117)"/>
<path d="M48.2916 495.52C48.2916 504.622 55.6694 512 64.771 512H447.229C456.331 512 463.708 504.622 463.708 495.52C463.708 472.086 458.643 449.836 449.55 429.801H62.4499C53.3574 449.836 48.2916 472.086 48.2916 495.52Z" fill="url(#paint2_linear_1_117)"/>
<path d="M304.87 300.188C293.032 285.691 276.481 277.049 256 277.049C235.519 277.049 218.968 285.691 207.13 300.188C166.962 320.052 150.046 365.575 164.458 416.45C167.899 428.596 173.894 440.984 181.326 452.714C185.297 458.98 193.576 460.848 199.888 456.952C202.571 455.302 205.34 453.796 208.183 452.44C223.752 481.315 244.362 503.599 256 503.599C267.638 503.599 288.247 481.316 303.817 452.44C306.66 453.796 309.429 455.302 312.112 456.952C318.424 460.848 326.704 458.98 330.674 452.714C338.106 440.984 344.101 428.596 347.542 416.45C361.954 365.575 345.038 320.052 304.87 300.188Z" fill="url(#paint3_linear_1_117)"/>
<path d="M304.87 300.188C293.032 285.691 276.481 277.049 256 277.049C235.519 277.049 218.968 285.691 207.13 300.188C166.962 320.052 150.046 365.575 164.458 416.45C167.899 428.596 173.894 440.984 181.326 452.714C185.297 458.98 193.576 460.848 199.888 456.952C202.571 455.302 205.34 453.796 208.183 452.44C223.752 481.315 244.362 503.599 256 503.599C267.638 503.599 288.247 481.316 303.817 452.44C306.66 453.796 309.429 455.302 312.112 456.952C318.424 460.848 326.704 458.98 330.674 452.714C338.106 440.984 344.101 428.596 347.542 416.45C361.954 365.575 345.038 320.052 304.87 300.188Z" fill="url(#paint4_linear_1_117)"/>
<path d="M322.123 403.877C312.308 451.844 273.736 503.598 256 503.598C238.264 503.598 199.692 451.845 189.877 403.877C175.917 335.658 202.64 277.049 256 277.049C309.36 277.049 336.083 335.658 322.123 403.877Z" fill="url(#paint5_linear_1_117)"/>
<path d="M450.977 1.33211C401.421 22.2599 355.818 54.9706 309.141 82.1207C298.517 88.2998 297.947 103.466 308.128 110.351C346.408 136.238 382.907 164.744 421.387 190.286C430.927 196.619 443.876 191.692 446.778 180.615C460.847 126.92 472.964 72.5674 474.162 17.0686C474.422 4.97936 462.115 -3.37227 450.977 1.33211Z" fill="url(#paint6_linear_1_117)"/>
<path d="M450.977 1.33211C401.421 22.2599 355.818 54.9706 309.141 82.1207C298.517 88.2998 297.947 103.466 308.128 110.351C346.408 136.238 382.907 164.744 421.387 190.286C430.927 196.619 443.876 191.692 446.778 180.615C460.847 126.92 472.964 72.5674 474.162 17.0686C474.422 4.97936 462.115 -3.37227 450.977 1.33211Z" fill="url(#paint7_linear_1_117)"/>
<path d="M468.956 4.60501C464.39 0.296178 457.486 -1.41752 450.977 1.33122C401.421 22.26 355.818 54.9708 309.141 82.1208C298.517 88.3 297.947 103.466 308.128 110.351C324.919 121.706 341.368 133.566 357.792 145.458C393.398 97.3051 428.4 47.7265 468.956 4.60501Z" fill="url(#paint8_linear_1_117)"/>
<path d="M60.9963 1.33212C110.552 22.2599 156.154 54.9706 202.832 82.1207C213.456 88.2998 214.026 103.466 203.845 110.351C165.565 136.238 129.066 164.744 90.5859 190.286C81.0456 196.619 68.097 191.692 65.1947 180.615C51.1257 126.919 39.0094 72.5664 37.8107 17.0676C37.5497 4.97936 49.8567 -3.37226 60.9963 1.33212Z" fill="url(#paint9_linear_1_117)"/>
<path d="M43.7881 82.2873C48.885 115.376 56.6794 148.115 65.1947 180.614C68.097 191.692 81.0456 196.618 90.5859 190.285C129.066 164.743 165.565 136.237 203.845 110.35C214.026 103.465 213.457 88.2987 202.832 82.1196C187.632 73.2781 172.544 63.8472 157.398 54.4254C147.48 51.9724 137.301 50.7345 127.084 50.739C95.1336 50.739 65.9727 62.6596 43.7881 82.2873Z" fill="url(#paint10_linear_1_117)"/>
<path d="M43.017 4.60501C47.5829 0.296178 54.4868 -1.41752 60.9963 1.33122C110.552 22.26 156.154 54.9708 202.832 82.1208C213.456 88.3 214.026 103.466 203.845 110.351C187.054 121.706 170.604 133.566 154.181 145.458C118.575 97.3051 83.5714 47.7265 43.017 4.60501Z" fill="url(#paint11_linear_1_117)"/>
<path d="M507.141 293.909C473.706 267.587 462.05 223.028 440.484 183.44C438.347 179.518 436.394 175.503 434.562 171.43C403.59 102.558 334.515 55.9746 255.985 55.9746C177.392 55.9746 108.269 102.633 77.3341 171.597C75.5019 175.682 73.5453 179.71 71.4069 183.643C49.913 223.182 38.2394 267.63 4.865 293.907C-2.73067 299.887 -1.16254 311.74 7.69406 315.616C52.6527 335.293 95.9618 392.132 190.355 400.119C233.965 405.267 278.029 405.266 321.638 400.116C416.039 391.804 459.349 335.294 504.31 315.616C513.159 311.743 514.731 299.884 507.141 293.909Z" fill="url(#paint12_linear_1_117)"/>
<path d="M278.988 301.981C278.988 236.385 332.164 183.211 397.758 183.211C414.776 183.211 430.954 186.798 445.589 193.245C443.94 189.953 443.251 186.679 441.488 183.441C439.351 179.519 437.398 175.504 435.565 171.431C404.593 102.559 334.514 54.9717 255.984 54.9717C177.391 54.9717 107.264 102.635 76.3292 171.599C74.497 175.684 72.5404 179.712 70.402 183.645C68.6783 186.817 68.0267 190.021 66.4134 193.243C81.0466 186.797 97.2238 183.211 114.24 183.211C179.835 183.211 233.01 236.386 233.01 301.981H278.988Z" fill="url(#paint13_linear_1_117)"/>
<path d="M165.917 314.48C151.237 314.48 139.335 302.579 139.335 287.899V274.267C139.335 259.587 151.236 247.686 165.917 247.686C180.597 247.686 192.499 259.587 192.499 274.267V287.899C192.499 302.58 180.597 314.48 165.917 314.48Z" fill="url(#paint14_linear_1_117)"/>
<path d="M346.083 314.48C331.402 314.48 319.501 302.579 319.501 287.899V274.267C319.501 259.587 331.402 247.686 346.083 247.686C360.763 247.686 372.665 259.587 372.665 274.267V287.899C372.665 302.58 360.763 314.48 346.083 314.48Z" fill="url(#paint15_linear_1_117)"/>
<path d="M234.804 342.762L221.191 330.701C208.018 319.03 216.273 297.264 233.872 297.264H278.127C295.726 297.264 303.981 319.03 290.808 330.701L277.195 342.762C265.098 353.48 246.902 353.48 234.804 342.762Z" fill="url(#paint16_linear_1_117)"/>
</g>
</g>
<defs>
<linearGradient id="paint0_linear_1_117" x1="205.577" y1="376.45" x2="269.931" y2="507.169" gradientUnits="userSpaceOnUse">
<stop stop-color="#FE9738"/>
<stop offset="1" stop-color="#EF4424"/>
</linearGradient>
<linearGradient id="paint1_linear_1_117" x1="292.507" y1="469.04" x2="265.401" y2="342.546" gradientUnits="userSpaceOnUse">
<stop stop-color="#EF4424" stop-opacity="0"/>
<stop offset="1" stop-color="#883F2E"/>
</linearGradient>
<linearGradient id="paint2_linear_1_117" x1="256" y1="462.808" x2="256" y2="526.182" gradientUnits="userSpaceOnUse">
<stop stop-color="#EF4424" stop-opacity="0"/>
<stop offset="1" stop-color="#883F2E"/>
</linearGradient>
<linearGradient id="paint3_linear_1_117" x1="219.884" y1="348.618" x2="292.836" y2="424.916" gradientUnits="userSpaceOnUse">
<stop stop-color="#F9F5F3"/>
<stop offset="1" stop-color="#EFE2DD"/>
</linearGradient>
<linearGradient id="paint4_linear_1_117" x1="256" y1="436.371" x2="256" y2="354.047" gradientUnits="userSpaceOnUse">
<stop stop-color="#9E9797" stop-opacity="0"/>
<stop offset="0.31" stop-color="#968F8F" stop-opacity="0.31"/>
<stop offset="0.785" stop-color="#827A7A" stop-opacity="0.785"/>
<stop offset="1" stop-color="#766E6E"/>
</linearGradient>
<linearGradient id="paint5_linear_1_117" x1="263.051" y1="391.817" x2="305.215" y2="514.296" gradientUnits="userSpaceOnUse">
<stop stop-color="#9E9797" stop-opacity="0"/>
<stop offset="0.31" stop-color="#968F8F" stop-opacity="0.31"/>
<stop offset="0.785" stop-color="#827A7A" stop-opacity="0.785"/>
<stop offset="1" stop-color="#766E6E"/>
</linearGradient>
<linearGradient id="paint6_linear_1_117" x1="400.321" y1="75.1956" x2="443.824" y2="138.108" gradientUnits="userSpaceOnUse">
<stop stop-color="#FFDFCF"/>
<stop offset="1" stop-color="#FFA78F"/>
</linearGradient>
<linearGradient id="paint7_linear_1_117" x1="452.819" y1="98.9886" x2="395.093" y2="82.9258" gradientUnits="userSpaceOnUse">
<stop stop-color="#F89580" stop-opacity="0"/>
<stop offset="0.997" stop-color="#C5715A"/>
</linearGradient>
<linearGradient id="paint8_linear_1_117" x1="371.226" y1="40.3828" x2="403.794" y2="72.951" gradientUnits="userSpaceOnUse">
<stop stop-color="#5A5A5A"/>
<stop offset="1" stop-color="#444444"/>
</linearGradient>
<linearGradient id="paint9_linear_1_117" x1="58.5015" y1="64.0802" x2="126.768" y2="126.323" gradientUnits="userSpaceOnUse">
<stop stop-color="#FFDFCF"/>
<stop offset="1" stop-color="#FFA78F"/>
</linearGradient>
<linearGradient id="paint10_linear_1_117" x1="91.2615" y1="97.3973" x2="128.407" y2="128.519" gradientUnits="userSpaceOnUse">
<stop stop-color="#F89580" stop-opacity="0"/>
<stop offset="0.299" stop-color="#ED8D78" stop-opacity="0.3"/>
<stop offset="0.82" stop-color="#D07962" stop-opacity="0.822"/>
<stop offset="0.997" stop-color="#C5715A"/>
</linearGradient>
<linearGradient id="paint11_linear_1_117" x1="109.528" y1="44.4065" x2="152.323" y2="87.2017" gradientUnits="userSpaceOnUse">
<stop stop-color="#5A5A5A"/>
<stop offset="1" stop-color="#444444"/>
</linearGradient>
<linearGradient id="paint12_linear_1_117" x1="211.404" y1="183.818" x2="302.761" y2="429.779" gradientUnits="userSpaceOnUse">
<stop stop-color="#F9F5F3"/>
<stop offset="1" stop-color="#EFE2DD"/>
</linearGradient>
<linearGradient id="paint13_linear_1_117" x1="193.546" y1="118.012" x2="320.351" y2="237.437" gradientUnits="userSpaceOnUse">
<stop stop-color="#FE9738"/>
<stop offset="1" stop-color="#EF4424"/>
</linearGradient>
<linearGradient id="paint14_linear_1_117" x1="148.58" y1="268.321" x2="185.488" y2="295.488" gradientUnits="userSpaceOnUse">
<stop stop-color="#5A5A5A"/>
<stop offset="1" stop-color="#444444"/>
</linearGradient>
<linearGradient id="paint15_linear_1_117" x1="326.946" y1="266.73" x2="359.752" y2="291.335" gradientUnits="userSpaceOnUse">
<stop stop-color="#5A5A5A"/>
<stop offset="1" stop-color="#444444"/>
</linearGradient>
<linearGradient id="paint16_linear_1_117" x1="244.893" y1="305.248" x2="264.776" y2="325.133" gradientUnits="userSpaceOnUse">
<stop stop-color="#5A5A5A"/>
<stop offset="1" stop-color="#444444"/>
</linearGradient>
<clipPath id="clip0_1_117">
<rect width="512" height="512" fill="white"/>
</clipPath>
</defs>
</svg>
