<svg width="512" height="512" viewBox="0 0 512 512" fill="none" xmlns="http://www.w3.org/2000/svg">
<g clip-path="url(#clip0_1_139)">
<mask id="mask0_1_139" style="mask-type:luminance" maskUnits="userSpaceOnUse" x="0" y="0" width="512" height="512">
<path d="M512 0H0V512H512V0Z" fill="white"/>
</mask>
<g mask="url(#mask0_1_139)">
<path d="M281.775 407.225C256.804 432.195 276.229 474.977 311.441 472.302C335.66 470.462 359.366 460.28 377.89 441.756C401.485 418.16 411.542 386.156 408.065 355.391C407.021 346.153 395.011 343.149 389.667 350.756C386.151 355.758 382.208 360.446 377.883 364.768C358.474 384.177 333.37 394.427 307.947 395.514C298.383 395.923 289.277 399.722 282.509 406.492L281.775 407.225Z" fill="url(#paint0_linear_1_139)"/>
<path d="M40.2021 483.577L40.2032 483.872C40.2604 499.478 53.1618 512 68.7677 512H371.58C397.517 512 402.374 475.105 377.321 468.392L142.085 405.362C98.9165 393.791 54.5502 419.405 42.98 462.575C41.1377 469.424 40.2037 476.485 40.2021 483.577Z" fill="url(#paint1_linear_1_139)"/>
<path d="M40.2021 483.577L40.2032 483.872C40.2604 499.478 53.1618 512 68.7677 512H371.58C397.517 512 402.374 475.105 377.321 468.392L142.085 405.362C98.9165 393.791 54.5502 419.405 42.98 462.575C41.1377 469.424 40.2037 476.485 40.2021 483.577Z" fill="url(#paint2_linear_1_139)"/>
<path d="M337.272 409.43V343.442C337.272 329.247 346.926 316.863 360.698 313.422C361.059 313.332 361.421 313.242 361.781 313.149C404.685 302.284 432.655 260.998 427.51 217.04C423.866 185.904 420.216 162.385 416.566 138.199C404.578 58.7485 336.304 0 255.955 0C175.604 0 107.33 58.7515 95.3425 138.203C91.6922 162.398 88.04 185.926 84.3947 217.08C79.2537 261.007 107.216 302.274 150.087 313.14L151.058 313.385C164.886 316.85 174.638 329.188 174.638 343.443V444.121C174.638 481.61 205.029 512.001 242.518 512.001H275.416L420.514 509.992C447.803 509.992 471.708 484.561 471.708 463.798C471.708 462.777 471.799 461.751 471.799 460.716C471.799 432.392 448.838 409.431 420.515 409.431H337.272V409.43Z" fill="url(#paint3_linear_1_139)"/>
<path d="M218.626 76.8643C203.796 91.6942 203.796 115.737 218.626 130.567L229.368 141.309C230.666 142.607 232.427 143.336 234.262 143.336C236.098 143.336 237.858 142.607 239.156 141.309L249.898 130.567C264.728 115.737 264.728 91.6942 249.898 76.8643C241.263 68.2285 227.262 68.2285 218.626 76.8643Z" fill="url(#paint4_linear_1_139)"/>
<path d="M262.102 76.8643C247.272 91.6942 247.272 115.737 262.102 130.567L272.844 141.309C274.142 142.607 275.902 143.336 277.738 143.336C279.574 143.336 281.334 142.607 282.632 141.309L293.374 130.567C308.204 115.737 308.204 91.6942 293.374 76.8643C284.738 68.2285 270.738 68.2285 262.102 76.8643Z" fill="url(#paint5_linear_1_139)"/>
<path d="M196.888 37.3701C182.058 52.2 182.058 76.243 196.888 91.0729L207.63 101.815C208.928 103.113 210.689 103.842 212.524 103.842C214.36 103.842 216.12 103.113 217.419 101.815L228.16 91.0729C242.99 76.243 242.99 52.2 228.16 37.3701C219.525 28.7344 205.524 28.7344 196.888 37.3701Z" fill="url(#paint6_linear_1_139)"/>
<path d="M240.364 37.3701C225.534 52.2 225.534 76.243 240.364 91.0729L251.106 101.815C252.404 103.113 254.165 103.842 256 103.842C257.836 103.842 259.596 103.113 260.894 101.815L271.636 91.0729C286.466 76.243 286.466 52.2 271.636 37.3701C263.001 28.7344 249 28.7344 240.364 37.3701Z" fill="url(#paint7_linear_1_139)"/>
<path d="M283.84 37.3701C269.01 52.2 269.01 76.243 283.84 91.0729L294.582 101.815C295.88 103.113 297.64 103.842 299.476 103.842C301.311 103.842 303.072 103.113 304.37 101.815L315.112 91.0729C329.942 76.243 329.942 52.2 315.112 37.3701C306.476 28.7344 292.475 28.7344 283.84 37.3701Z" fill="url(#paint8_linear_1_139)"/>
<path d="M175.149 44.8392L185.891 55.5812C187.189 56.879 188.95 57.6081 190.785 57.6081C192.621 57.6081 194.381 56.879 195.679 55.5812L206.421 44.8392C217.154 34.1063 220.113 18.5485 215.31 5.14917C197.476 9.75813 180.559 17.3739 165.285 27.6691C166.989 34.1672 170.394 40.0937 175.149 44.8392Z" fill="url(#paint9_linear_1_139)"/>
<path d="M255.954 2.66673e-05C240.107 -0.00905741 224.345 2.30274 209.168 6.86183C205.199 19.8566 208.347 34.56 218.625 44.8382L229.367 55.5801C230.665 56.878 232.426 57.6071 234.261 57.6071C236.097 57.6071 237.857 56.878 239.155 55.5801L249.897 44.8382C262.038 32.6978 264.232 14.3852 256.495 0.0060502C256.315 0.0060502 256.136 2.66673e-05 255.954 2.66673e-05Z" fill="url(#paint10_linear_1_139)"/>
<path d="M282.632 55.5811L293.374 44.8392C303.644 34.5691 306.797 19.8797 302.84 6.89195C287.633 2.31267 271.836 -0.00939349 255.955 2.8558e-05C255.804 2.8558e-05 255.656 0.00504817 255.505 0.00504817C247.768 14.3852 249.963 32.6978 262.103 44.8382L272.845 55.5801C273.487 56.2229 274.25 56.7328 275.09 57.0807C275.93 57.4287 276.829 57.6078 277.738 57.6079C278.647 57.608 279.547 57.429 280.387 57.0813C281.227 56.7335 281.99 56.2238 282.632 55.5811Z" fill="url(#paint11_linear_1_139)"/>
<path d="M316.32 55.5811C317.618 56.8789 319.378 57.608 321.214 57.608C323.05 57.608 324.81 56.8789 326.108 55.5811L336.85 44.8391C341.593 40.1072 344.993 34.199 346.7 27.7203C331.429 17.4151 314.514 9.78915 296.68 5.17017C291.888 18.5645 294.85 34.1112 305.577 44.8381L316.32 55.5811Z" fill="url(#paint12_linear_1_139)"/>
<path d="M174.638 408.722V444.12C174.638 481.609 205.029 512 242.518 512H275.416L420.514 509.991C447.803 509.991 471.708 484.56 471.708 463.797C471.708 462.776 471.799 461.75 471.799 460.715C471.799 432.391 448.838 409.43 420.515 409.43H337.272V408.722H174.638Z" fill="url(#paint13_linear_1_139)"/>
<path d="M304.374 395.653V323.685C272.2 327.379 239.71 327.379 207.536 323.685V444.12C207.536 481.609 237.927 512 275.416 512H420.513C447.801 512 470.103 490.685 471.698 463.797H372.517C334.882 463.797 304.374 433.288 304.374 395.653Z" fill="url(#paint14_linear_1_139)"/>
<path d="M207.536 444.12C207.536 481.609 237.927 512 275.416 512H420.513C447.801 512 470.103 490.685 471.698 463.797H372.517C339.355 463.797 311.737 440.102 305.64 408.723H207.536V444.12Z" fill="url(#paint15_linear_1_139)"/>
<path d="M217.672 206.6C227.231 206.6 234.981 214.349 234.981 223.91C234.981 225.035 234.534 226.113 233.738 226.909C232.943 227.704 231.864 228.151 230.74 228.151C221.18 228.151 213.43 220.402 213.43 210.842C213.43 209.717 213.877 208.638 214.673 207.843C215.468 207.047 216.547 206.6 217.672 206.6Z" fill="url(#paint16_linear_1_139)"/>
<path d="M294.331 206.6C284.772 206.6 277.021 214.349 277.021 223.91C277.022 225.035 277.468 226.113 278.264 226.909C279.059 227.704 280.138 228.151 281.263 228.151C290.822 228.151 298.572 220.402 298.572 210.842C298.572 210.285 298.463 209.733 298.25 209.218C298.036 208.704 297.724 208.236 297.33 207.842C296.936 207.449 296.469 207.136 295.954 206.923C295.439 206.71 294.888 206.6 294.331 206.6Z" fill="url(#paint17_linear_1_139)"/>
<path d="M165.872 182.292C151.192 182.292 139.29 170.391 139.29 155.71V142.079C139.29 127.399 151.191 115.497 165.872 115.497C180.552 115.497 192.454 127.399 192.454 142.079V155.71C192.454 170.391 180.552 182.292 165.872 182.292Z" fill="url(#paint18_linear_1_139)"/>
<path d="M346.038 182.292C331.357 182.292 319.456 170.391 319.456 155.71V142.079C319.456 127.399 331.357 115.497 346.038 115.497C360.718 115.497 372.62 127.399 372.62 142.079V155.71C372.619 170.391 360.718 182.292 346.038 182.292Z" fill="url(#paint19_linear_1_139)"/>
<path d="M255.955 239.317C192.022 239.317 134.872 252.742 96.9368 273.83C108.62 292.859 127.398 307.413 150.443 313.231C220.282 330.861 291.624 330.861 361.467 313.231C384.512 307.413 403.289 292.86 414.973 273.831C377.037 252.741 319.887 239.317 255.955 239.317Z" fill="url(#paint20_linear_1_139)"/>
<path d="M259.971 326.421C293.926 326.099 327.87 321.711 361.466 313.23C384.511 307.412 403.289 292.859 414.972 273.83C377.833 253.186 322.275 239.893 259.97 239.343L259.971 326.421Z" fill="url(#paint21_linear_1_139)"/>
<path d="M283.533 314.916C284.995 312.507 285.769 309.743 285.769 306.925C285.769 304.107 284.995 301.343 283.533 298.934C280.286 293.605 278.573 287.484 278.583 281.245C278.583 274.759 280.39 268.706 283.533 263.545C284.995 261.137 285.769 258.372 285.769 255.554C285.769 252.736 284.995 249.972 283.533 247.563C282.079 245.186 280.929 242.636 280.109 239.973C272.188 239.542 264.127 239.321 255.955 239.321C246.227 239.321 236.649 239.632 227.283 240.244C228.098 242.81 229.22 245.267 230.626 247.563C232.089 249.972 232.862 252.736 232.862 255.554C232.862 258.372 232.089 261.137 230.626 263.545C227.378 268.877 225.665 275.002 225.677 281.245C225.677 287.72 227.484 293.773 230.626 298.934C232.089 301.343 232.862 304.107 232.862 306.925C232.862 309.743 232.089 312.507 230.626 314.916C228.647 318.16 227.229 321.713 226.43 325.427C225.938 327.746 225.677 330.146 225.677 332.615C225.677 339.091 227.484 345.144 230.626 350.304C230.877 350.726 231.108 351.158 231.319 351.589C232.724 354.491 236.549 355.153 238.828 352.874L250.574 341.128C251.28 340.422 252.119 339.861 253.043 339.479C253.966 339.096 254.955 338.9 255.955 338.9C256.954 338.9 257.944 339.096 258.867 339.479C259.79 339.861 260.629 340.422 261.336 341.128L276.234 356.027C280.069 359.862 286.384 355.103 283.613 350.435C283.583 350.395 283.563 350.355 283.533 350.304C280.286 344.976 278.573 338.855 278.583 332.615C278.583 330.286 278.814 328.007 279.266 325.809C280.047 321.958 281.49 318.273 283.533 314.916Z" fill="url(#paint22_linear_1_139)"/>
<path d="M420.513 409.43H337.271C337.271 433.92 357.123 453.773 381.613 453.773H471.316C467.926 428.735 446.48 409.43 420.513 409.43Z" fill="url(#paint23_linear_1_139)"/>
</g>
</g>
<defs>
<linearGradient id="paint0_linear_1_139" x1="330.715" y1="373.068" x2="348.284" y2="423.264" gradientUnits="userSpaceOnUse">
<stop stop-color="#9BE69D"/>
<stop offset="1" stop-color="#0996A4"/>
</linearGradient>
<linearGradient id="paint1_linear_1_139" x1="169.814" y1="381.745" x2="221.014" y2="496.192" gradientUnits="userSpaceOnUse">
<stop stop-color="#9BE69D"/>
<stop offset="1" stop-color="#0996A4"/>
</linearGradient>
<linearGradient id="paint2_linear_1_139" x1="174.781" y1="416.338" x2="215.942" y2="485.609" gradientUnits="userSpaceOnUse">
<stop stop-color="#01525A" stop-opacity="0"/>
<stop offset="1" stop-color="#01525A"/>
</linearGradient>
<linearGradient id="paint3_linear_1_139" x1="164.018" y1="128.36" x2="422.633" y2="436.149" gradientUnits="userSpaceOnUse">
<stop stop-color="#9BE69D"/>
<stop offset="1" stop-color="#0996A4"/>
</linearGradient>
<linearGradient id="paint4_linear_1_139" x1="240.285" y1="110.516" x2="304.061" y2="182.545" gradientUnits="userSpaceOnUse">
<stop stop-color="#01525A" stop-opacity="0"/>
<stop offset="1" stop-color="#01525A"/>
</linearGradient>
<linearGradient id="paint5_linear_1_139" x1="283.761" y1="110.516" x2="347.537" y2="182.545" gradientUnits="userSpaceOnUse">
<stop stop-color="#01525A" stop-opacity="0"/>
<stop offset="1" stop-color="#01525A"/>
</linearGradient>
<linearGradient id="paint6_linear_1_139" x1="218.547" y1="71.0226" x2="282.323" y2="143.052" gradientUnits="userSpaceOnUse">
<stop stop-color="#01525A" stop-opacity="0"/>
<stop offset="1" stop-color="#01525A"/>
</linearGradient>
<linearGradient id="paint7_linear_1_139" x1="262.023" y1="71.0226" x2="325.799" y2="143.052" gradientUnits="userSpaceOnUse">
<stop stop-color="#01525A" stop-opacity="0"/>
<stop offset="1" stop-color="#01525A"/>
</linearGradient>
<linearGradient id="paint8_linear_1_139" x1="305.498" y1="71.0226" x2="369.274" y2="143.052" gradientUnits="userSpaceOnUse">
<stop stop-color="#01525A" stop-opacity="0"/>
<stop offset="1" stop-color="#01525A"/>
</linearGradient>
<linearGradient id="paint9_linear_1_139" x1="194.888" y1="26.3199" x2="253.618" y2="68.4846" gradientUnits="userSpaceOnUse">
<stop stop-color="#01525A" stop-opacity="0"/>
<stop offset="1" stop-color="#01525A"/>
</linearGradient>
<linearGradient id="paint10_linear_1_139" x1="235.563" y1="21.6104" x2="317.885" y2="90.881" gradientUnits="userSpaceOnUse">
<stop stop-color="#01525A" stop-opacity="0"/>
<stop offset="1" stop-color="#01525A"/>
</linearGradient>
<linearGradient id="paint11_linear_1_139" x1="275.519" y1="21.4056" x2="350.814" y2="81.6409" gradientUnits="userSpaceOnUse">
<stop stop-color="#01525A" stop-opacity="0"/>
<stop offset="1" stop-color="#01525A"/>
</linearGradient>
<linearGradient id="paint12_linear_1_139" x1="322.464" y1="34.2618" x2="369.648" y2="72.9128" gradientUnits="userSpaceOnUse">
<stop stop-color="#01525A" stop-opacity="0"/>
<stop offset="1" stop-color="#01525A"/>
</linearGradient>
<linearGradient id="paint13_linear_1_139" x1="323.218" y1="464.816" x2="323.218" y2="510.348" gradientUnits="userSpaceOnUse">
<stop stop-color="#01525A" stop-opacity="0"/>
<stop offset="1" stop-color="#01525A"/>
</linearGradient>
<linearGradient id="paint14_linear_1_139" x1="249.26" y1="402.622" x2="398.355" y2="470.958" gradientUnits="userSpaceOnUse">
<stop stop-color="#FFDFCF"/>
<stop offset="1" stop-color="#FFA78F"/>
</linearGradient>
<linearGradient id="paint15_linear_1_139" x1="339.617" y1="460.466" x2="339.617" y2="517.46" gradientUnits="userSpaceOnUse">
<stop stop-color="#F89580" stop-opacity="0"/>
<stop offset="0.997" stop-color="#C5715A"/>
</linearGradient>
<linearGradient id="paint16_linear_1_139" x1="212.984" y1="206.153" x2="248.712" y2="241.881" gradientUnits="userSpaceOnUse">
<stop stop-color="#01525A" stop-opacity="0"/>
<stop offset="1" stop-color="#01525A"/>
</linearGradient>
<linearGradient id="paint17_linear_1_139" x1="266.615" y1="196.193" x2="316.429" y2="246.007" gradientUnits="userSpaceOnUse">
<stop stop-color="#01525A" stop-opacity="0"/>
<stop offset="1" stop-color="#01525A"/>
</linearGradient>
<linearGradient id="paint18_linear_1_139" x1="148.535" y1="136.133" x2="185.442" y2="163.3" gradientUnits="userSpaceOnUse">
<stop stop-color="#5A5A5A"/>
<stop offset="1" stop-color="#444444"/>
</linearGradient>
<linearGradient id="paint19_linear_1_139" x1="326.9" y1="134.541" x2="359.706" y2="159.146" gradientUnits="userSpaceOnUse">
<stop stop-color="#5A5A5A"/>
<stop offset="1" stop-color="#444444"/>
</linearGradient>
<linearGradient id="paint20_linear_1_139" x1="255.955" y1="281.747" x2="255.955" y2="186.327" gradientUnits="userSpaceOnUse">
<stop stop-color="#01525A" stop-opacity="0"/>
<stop offset="1" stop-color="#01525A"/>
</linearGradient>
<linearGradient id="paint21_linear_1_139" x1="328.219" y1="270.369" x2="261.961" y2="293.459" gradientUnits="userSpaceOnUse">
<stop stop-color="#01525A" stop-opacity="0"/>
<stop offset="1" stop-color="#01525A"/>
</linearGradient>
<linearGradient id="paint22_linear_1_139" x1="223.263" y1="274.346" x2="279.985" y2="312.495" gradientUnits="userSpaceOnUse">
<stop stop-color="#FD4755"/>
<stop offset="1" stop-color="#A72B2B"/>
</linearGradient>
<linearGradient id="paint23_linear_1_139" x1="384.457" y1="431.602" x2="309.35" y2="431.602" gradientUnits="userSpaceOnUse">
<stop stop-color="#01525A" stop-opacity="0"/>
<stop offset="1" stop-color="#01525A"/>
</linearGradient>
<clipPath id="clip0_1_139">
<rect width="512" height="512" fill="white"/>
</clipPath>
</defs>
</svg>
