<svg width="512" height="512" viewBox="0 0 512 512" fill="none" xmlns="http://www.w3.org/2000/svg">
<g clip-path="url(#clip0_1_168)">
<mask id="mask0_1_168" style="mask-type:luminance" maskUnits="userSpaceOnUse" x="0" y="0" width="512" height="512">
<path d="M512 0H0V512H512V0Z" fill="white"/>
</mask>
<g mask="url(#mask0_1_168)">
<path d="M428.705 420.186C423.251 417.997 418.993 413.919 416.71 408.945C416.683 408.885 416.656 408.824 416.63 408.776C414.278 403.658 414.305 397.959 416.455 392.767C424.286 373.843 419.759 351.712 402.875 336.502C385.99 321.293 361.422 317.215 340.413 324.27C334.65 326.205 328.324 326.23 322.641 324.112C322.58 324.086 322.517 324.062 322.454 324.04C316.933 321.983 312.406 318.147 309.975 313.235C300.747 294.649 280.06 281.702 256.003 281.702C231.946 281.702 211.259 294.649 202.031 313.235C199.6 318.147 195.073 321.983 189.552 324.04C189.489 324.061 189.426 324.086 189.365 324.112C183.683 326.229 177.356 326.205 171.593 324.27C150.584 317.215 126.016 321.293 109.131 336.502C92.2464 351.712 87.7197 373.842 95.5513 392.767C97.7007 397.958 97.7278 403.657 95.3766 408.776C95.3495 408.824 95.3234 408.885 95.2963 408.945C93.0124 413.919 88.7547 417.996 83.3004 420.186C62.6678 428.499 48.2947 447.133 48.2947 468.803C48.2947 470.086 48.3479 471.344 48.4423 472.603C49.3558 484.231 54.4066 494.818 62.3044 503.192C70.0105 509.194 80.2676 512.596 91.4091 511.914H420.596C431.739 512.596 441.995 509.194 449.702 503.192C457.6 494.818 462.65 484.231 463.564 472.603C463.658 471.344 463.711 470.086 463.711 468.803C463.71 447.133 449.337 428.499 428.705 420.186Z" fill="url(#paint0_linear_1_168)"/>
<path d="M428.705 420.186C423.251 417.996 418.993 413.919 416.709 408.945C416.682 408.885 416.655 408.824 416.628 408.776C414.277 403.658 414.304 397.959 416.454 392.767C424.285 373.843 419.758 351.712 402.874 336.502C385.989 321.293 361.421 317.215 340.412 324.27C334.649 326.205 328.323 326.23 322.64 324.112C322.579 324.086 322.516 324.062 322.453 324.04C316.932 321.983 312.405 318.147 309.974 313.235C300.746 294.649 280.059 281.702 256.002 281.702C231.945 281.702 211.258 294.649 202.03 313.235C199.599 318.147 195.072 321.983 189.551 324.04C189.488 324.061 189.425 324.086 189.364 324.112C183.681 326.229 177.355 326.205 171.592 324.27C167.129 322.777 162.515 321.777 157.835 321.287L118.128 360.993L269.049 511.914H420.595C431.737 512.596 441.994 509.194 449.701 503.192C457.599 494.818 462.649 484.231 463.563 472.603C463.657 471.344 463.71 470.086 463.71 468.803C463.71 447.133 449.337 428.499 428.705 420.186Z" fill="url(#paint1_linear_1_168)"/>
<path d="M48.2937 468.803C48.2937 470.086 48.3469 471.344 48.4413 472.603C49.3548 484.231 54.4056 494.818 62.3034 503.192C70.0095 509.194 80.2666 512.596 91.4081 511.914H420.595C431.738 512.596 441.994 509.194 449.701 503.192C457.599 494.818 462.649 484.231 463.563 472.603C463.657 471.344 463.71 470.086 463.71 468.803C463.71 453.392 456.437 439.521 444.817 429.801H67.1875C55.5671 439.521 48.2937 453.392 48.2937 468.803Z" fill="url(#paint2_linear_1_168)"/>
<path d="M93.1761 282.501C139.601 282.501 177.236 244.866 177.236 198.44C177.236 152.015 139.601 114.38 93.1761 114.38C46.7508 114.38 9.11572 152.015 9.11572 198.44C9.11572 244.866 46.7508 282.501 93.1761 282.501Z" fill="url(#paint3_linear_1_168)"/>
<path d="M412.407 282.501C458.832 282.501 496.467 244.866 496.467 198.44C496.467 152.015 458.832 114.38 412.407 114.38C365.982 114.38 328.347 152.015 328.347 198.44C328.347 244.866 365.982 282.501 412.407 282.501Z" fill="url(#paint4_linear_1_168)"/>
<path d="M393.553 210.594C393.553 197.886 403.854 187.584 416.563 187.584C467.045 187.584 507.969 228.508 507.969 278.99C507.969 291.697 497.668 302 484.959 302C434.477 302 393.553 261.076 393.553 210.594Z" fill="url(#paint5_linear_1_168)"/>
<path d="M393.553 210.594C393.553 197.886 403.854 187.584 416.563 187.584C467.045 187.584 507.969 228.508 507.969 278.99C507.969 291.697 497.668 302 484.959 302C434.477 302 393.553 261.076 393.553 210.594Z" fill="url(#paint6_linear_1_168)"/>
<path d="M118.447 210.594C118.447 197.886 108.145 187.584 95.4368 187.584C44.9546 187.584 4.03076 228.508 4.03076 278.99C4.03076 291.697 14.332 302 27.0406 302C77.5228 302 118.447 261.076 118.447 210.594Z" fill="url(#paint7_linear_1_168)"/>
<path d="M336.757 390.708C283.136 400.865 228.864 400.865 175.246 390.708C116.644 379.608 77.0893 324.38 84.8275 265.239C87.6084 243.986 90.3922 225.924 93.1751 207.48C105.329 126.934 174.543 67.3721 256.001 67.3721C337.459 67.3721 406.674 126.934 418.827 207.48C421.61 225.924 424.394 243.986 427.175 265.239C434.914 324.38 395.36 379.608 336.757 390.708Z" fill="url(#paint8_linear_1_168)"/>
<path d="M427.176 265.239C424.395 243.986 421.611 225.926 418.828 207.482C406.675 126.935 337.46 67.3733 256.002 67.3733C180.953 67.3733 116.297 117.932 97.0833 188.879L303.855 395.651C314.881 394.421 325.856 392.772 336.756 390.708C395.359 379.608 434.914 324.38 427.176 265.239Z" fill="url(#paint9_linear_1_168)"/>
<path d="M165.919 292.075C151.239 292.075 139.337 280.173 139.337 265.493V251.862C139.337 237.182 151.238 225.28 165.919 225.28C180.6 225.28 192.501 237.182 192.501 251.862V265.493C192.501 280.173 180.6 292.075 165.919 292.075Z" fill="url(#paint10_linear_1_168)"/>
<path d="M346.085 292.075C331.404 292.075 319.503 280.173 319.503 265.493V251.862C319.503 237.182 331.404 225.28 346.085 225.28C360.765 225.28 372.667 237.182 372.667 251.862V265.493C372.667 280.173 360.765 292.075 346.085 292.075Z" fill="url(#paint11_linear_1_168)"/>
<path d="M377.301 30.0534C365.898 29.942 355.016 32.1064 345.075 36.1151C337.74 39.0726 329.408 36.8981 324.392 30.7832C308.98 11.9939 285.595 0 259.396 0C232.429 0 208.441 12.7076 193.064 32.4548C187.879 39.1148 178.839 41.5784 171.2 37.9874C160.456 32.9367 148.472 30.0926 135.824 30.0494C90.3038 29.8958 52.5293 66.6473 51.4973 112.156C50.4241 159.474 88.4606 198.169 135.536 198.169C162.572 198.169 186.613 185.396 201.985 165.563C207.119 158.939 216.1 156.588 223.683 160.159C234.521 165.262 246.622 168.12 259.396 168.12C270.579 168.12 281.25 165.932 291.008 161.965C298.253 159.019 306.51 161.339 311.471 167.387C326.883 186.175 350.267 198.169 376.466 198.169C424.374 198.169 462.921 158.091 460.41 109.633C458.124 65.5531 421.439 30.4831 377.301 30.0534Z" fill="url(#paint12_linear_1_168)"/>
<path d="M256 329.973C245.356 329.973 234.712 326.213 226.225 318.694L210.308 304.592C208.829 303.263 207.937 301.404 207.824 299.42C207.711 297.435 208.388 295.487 209.706 293.999C211.024 292.512 212.876 291.605 214.86 291.478C216.843 291.351 218.797 292.014 220.294 293.321L236.211 307.423C247.493 317.418 264.507 317.418 275.789 307.423L291.707 293.321C293.204 292.014 295.157 291.351 297.14 291.478C299.124 291.605 300.977 292.512 302.295 293.999C303.613 295.487 304.289 297.435 304.176 299.42C304.064 301.404 303.171 303.263 301.693 304.592L285.775 318.694C277.288 326.212 266.645 329.973 256 329.973Z" fill="url(#paint13_linear_1_168)"/>
<path d="M256 368.607C254.003 368.607 252.088 367.814 250.676 366.402C249.264 364.99 248.471 363.074 248.471 361.078V322.259C248.471 320.262 249.264 318.347 250.676 316.935C252.088 315.523 254.003 314.729 256 314.729C257.997 314.729 259.912 315.523 261.324 316.935C262.736 318.347 263.53 320.262 263.53 322.259V361.078C263.53 363.074 262.736 364.99 261.324 366.402C259.912 367.814 257.997 368.607 256 368.607Z" fill="url(#paint14_linear_1_168)"/>
<path d="M51.4973 112.157C50.4241 159.475 88.4606 198.17 135.536 198.17C162.572 198.17 186.613 185.397 201.985 165.564C207.119 158.94 216.1 156.589 223.683 160.16C234.521 165.263 246.622 168.121 259.396 168.121C270.579 168.121 281.25 165.932 291.008 161.966C298.253 159.02 306.51 161.34 311.471 167.388C326.883 186.176 350.267 198.17 376.466 198.17C424.374 198.17 462.921 158.092 460.41 109.634C459.903 99.8819 457.677 90.2958 453.836 81.3176H58.2014C54.0144 91.0739 51.7385 101.543 51.4973 112.157Z" fill="url(#paint15_linear_1_168)"/>
<path d="M341.182 37.1883C334.942 38.1882 328.535 35.835 324.391 30.7832C308.98 11.9939 285.595 0 259.396 0C232.429 0 208.441 12.7076 193.064 32.4548C187.879 39.1148 178.839 41.5784 171.2 37.9874C160.456 32.9367 148.472 30.0926 135.824 30.0494C90.3038 29.8958 52.5293 66.6473 51.4973 112.156C50.4241 159.474 88.4606 198.169 135.536 198.169C162.572 198.169 186.613 185.396 201.985 165.563C207.119 158.939 216.1 156.588 223.683 160.159C234.521 165.262 246.622 168.12 259.396 168.12C270.579 168.12 281.25 165.931 291.008 161.965C296.482 159.739 302.532 160.524 307.303 163.646C297.207 149.748 291.237 132.658 291.237 114.166C291.236 79.8489 311.754 50.3427 341.182 37.1883Z" fill="url(#paint16_linear_1_168)"/>
</g>
</g>
<defs>
<linearGradient id="paint0_linear_1_168" x1="185.667" y1="281.241" x2="271.374" y2="509.794" gradientUnits="userSpaceOnUse">
<stop stop-color="#F9F5F3"/>
<stop offset="1" stop-color="#EFE2DD"/>
</linearGradient>
<linearGradient id="paint1_linear_1_168" x1="293.459" y1="440.849" x2="281.412" y2="312.347" gradientUnits="userSpaceOnUse">
<stop stop-color="#9E9797" stop-opacity="0"/>
<stop offset="0.31" stop-color="#968F8F" stop-opacity="0.31"/>
<stop offset="0.785" stop-color="#827A7A" stop-opacity="0.785"/>
<stop offset="1" stop-color="#766E6E"/>
</linearGradient>
<linearGradient id="paint2_linear_1_168" x1="256.002" y1="457.788" x2="256.002" y2="530.078" gradientUnits="userSpaceOnUse">
<stop stop-color="#9E9797" stop-opacity="0"/>
<stop offset="0.31" stop-color="#968F8F" stop-opacity="0.31"/>
<stop offset="0.785" stop-color="#827A7A" stop-opacity="0.785"/>
<stop offset="1" stop-color="#766E6E"/>
</linearGradient>
<linearGradient id="paint3_linear_1_168" x1="48.0719" y1="141.57" x2="71.1621" y2="170.684" gradientUnits="userSpaceOnUse">
<stop stop-color="#F9F5F3"/>
<stop offset="1" stop-color="#EFE2DD"/>
</linearGradient>
<linearGradient id="paint4_linear_1_168" x1="391.256" y1="165.045" x2="429.405" y2="225.28" gradientUnits="userSpaceOnUse">
<stop stop-color="white"/>
<stop offset="1" stop-color="#E1D3CE"/>
</linearGradient>
<linearGradient id="paint5_linear_1_168" x1="424.689" y1="218.72" x2="483.723" y2="277.755" gradientUnits="userSpaceOnUse">
<stop stop-color="#FFDFCF"/>
<stop offset="1" stop-color="#FFA78F"/>
</linearGradient>
<linearGradient id="paint6_linear_1_168" x1="457.671" y1="242.84" x2="411.49" y2="255.891" gradientUnits="userSpaceOnUse">
<stop stop-color="#F89580" stop-opacity="0"/>
<stop offset="0.997" stop-color="#C5715A"/>
</linearGradient>
<linearGradient id="paint7_linear_1_168" x1="44.9235" y1="217.6" x2="99.1353" y2="307.953" gradientUnits="userSpaceOnUse">
<stop stop-color="#FFDFCF"/>
<stop offset="1" stop-color="#FFA78F"/>
</linearGradient>
<linearGradient id="paint8_linear_1_168" x1="155.152" y1="134.546" x2="354" y2="363.472" gradientUnits="userSpaceOnUse">
<stop stop-color="#FFDFCF"/>
<stop offset="1" stop-color="#FFA78F"/>
</linearGradient>
<linearGradient id="paint9_linear_1_168" x1="262.612" y1="232.91" x2="262.612" y2="85.6617" gradientUnits="userSpaceOnUse">
<stop stop-color="#F89580" stop-opacity="0"/>
<stop offset="0.997" stop-color="#C5715A"/>
</linearGradient>
<linearGradient id="paint10_linear_1_168" x1="148.583" y1="245.916" x2="185.489" y2="273.083" gradientUnits="userSpaceOnUse">
<stop stop-color="#5A5A5A"/>
<stop offset="1" stop-color="#444444"/>
</linearGradient>
<linearGradient id="paint11_linear_1_168" x1="326.947" y1="244.324" x2="359.753" y2="268.929" gradientUnits="userSpaceOnUse">
<stop stop-color="#5A5A5A"/>
<stop offset="1" stop-color="#444444"/>
</linearGradient>
<linearGradient id="paint12_linear_1_168" x1="240.739" y1="56.573" x2="275.877" y2="189.091" gradientUnits="userSpaceOnUse">
<stop stop-color="#F9F5F3"/>
<stop offset="1" stop-color="#EFE2DD"/>
</linearGradient>
<linearGradient id="paint13_linear_1_168" x1="207.772" y1="310.7" x2="304.23" y2="310.7" gradientUnits="userSpaceOnUse">
<stop stop-color="#5A5A5A"/>
<stop offset="1" stop-color="#444444"/>
</linearGradient>
<linearGradient id="paint14_linear_1_168" x1="248.471" y1="341.668" x2="263.53" y2="341.668" gradientUnits="userSpaceOnUse">
<stop stop-color="#5A5A5A"/>
<stop offset="1" stop-color="#444444"/>
</linearGradient>
<linearGradient id="paint15_linear_1_168" x1="256" y1="137.537" x2="256" y2="222.723" gradientUnits="userSpaceOnUse">
<stop stop-color="#9E9797" stop-opacity="0"/>
<stop offset="0.31" stop-color="#968F8F" stop-opacity="0.31"/>
<stop offset="0.785" stop-color="#827A7A" stop-opacity="0.785"/>
<stop offset="1" stop-color="#766E6E"/>
</linearGradient>
<linearGradient id="paint16_linear_1_168" x1="283.389" y1="60.0757" x2="376.754" y2="12.3894" gradientUnits="userSpaceOnUse">
<stop stop-color="#9E9797" stop-opacity="0"/>
<stop offset="0.31" stop-color="#968F8F" stop-opacity="0.31"/>
<stop offset="0.785" stop-color="#827A7A" stop-opacity="0.785"/>
<stop offset="1" stop-color="#766E6E"/>
</linearGradient>
<clipPath id="clip0_1_168">
<rect width="512" height="512" fill="white"/>
</clipPath>
</defs>
</svg>
