<svg width="512" height="512" viewBox="0 0 512 512" fill="none" xmlns="http://www.w3.org/2000/svg">
<g clip-path="url(#clip0_1_211)">
<mask id="mask0_1_211" style="mask-type:luminance" maskUnits="userSpaceOnUse" x="0" y="0" width="512" height="512">
<path d="M512 0H0V512H512V0Z" fill="white"/>
</mask>
<g mask="url(#mask0_1_211)">
<path d="M447.228 512H64.7699C55.6683 512 48.2905 504.622 48.2905 495.521C48.2905 407.6 119.564 336.327 207.484 336.327H304.513C392.434 336.327 463.707 407.6 463.707 495.521C463.707 504.622 456.328 512 447.228 512Z" fill="url(#paint0_linear_1_211)"/>
<path d="M48.2905 495.521C48.2905 504.622 55.6683 512 64.7699 512H447.228C456.329 512 463.707 504.622 463.707 495.521C463.707 472.086 458.641 449.836 449.549 429.801H62.4488C53.3563 449.836 48.2905 472.086 48.2905 495.521Z" fill="url(#paint1_linear_1_211)"/>
<path d="M58.7695 438.089C63.7309 453.906 78.7947 464.402 95.4026 463.482L106.975 462.84C119.091 462.168 131.151 464.932 141.766 470.814C146.167 473.262 150.231 476.274 153.853 479.773C157.47 483.279 160.613 487.243 163.201 491.564L165.438 495.303C168 499.585 162.996 504.38 158.834 501.629C153.076 497.826 146.449 495.541 139.57 494.987C132.69 494.437 125.782 495.64 119.493 498.483C94.7248 509.684 67.0057 504.226 48.2896 487.37C49.1328 470.489 52.6709 453.852 58.7695 438.089Z" fill="url(#paint2_linear_1_211)"/>
<path d="M453.023 438.089C448.061 453.906 432.997 464.402 416.389 463.482L404.817 462.84C392.701 462.168 380.641 464.932 370.026 470.814C365.625 473.262 361.561 476.274 357.939 479.773C354.322 483.279 351.179 487.243 348.591 491.564L346.353 495.303C343.791 499.585 348.795 504.38 352.957 501.629C358.715 497.826 365.342 495.541 372.221 494.987C379.101 494.437 386.009 495.64 392.298 498.483C417.066 509.684 444.785 504.226 463.502 487.37C462.659 470.489 459.121 453.852 453.023 438.089Z" fill="url(#paint3_linear_1_211)"/>
<path d="M487.597 30.4721L484.172 13.9686C481.342 0.330306 464.494 -4.70537 454.644 5.14411L307.385 152.402L430.779 121.226C470.966 111.072 496.018 71.0576 487.597 30.4721Z" fill="url(#paint4_linear_1_211)"/>
<path d="M487.597 30.4721L484.172 13.9686C481.342 0.330306 464.494 -4.70537 454.644 5.14411L307.385 152.402L430.779 121.226C470.966 111.072 496.018 71.0576 487.597 30.4721Z" fill="url(#paint5_linear_1_211)"/>
<path d="M428.86 71.3387C440.77 38.5817 464.226 16.1451 484.622 16.1371L484.172 13.9676C481.342 0.329329 464.494 -4.70634 454.644 5.14313L307.385 152.402L422.918 123.211C420.335 108.35 422.103 89.9253 428.86 71.3387Z" fill="url(#paint6_linear_1_211)"/>
<path d="M24.4012 30.4721L27.8255 13.9686C30.6556 0.330306 47.5044 -4.70537 57.3539 5.14411L204.613 152.403L81.2181 121.226C41.0311 111.072 15.9793 71.0576 24.4012 30.4721Z" fill="url(#paint7_linear_1_211)"/>
<path d="M83.1376 71.3387C71.2281 38.5817 47.7704 16.1451 27.3748 16.1371L27.8245 13.9676C30.6546 0.329329 47.5034 -4.70634 57.3529 5.14313L204.612 152.402L89.0788 123.212C91.6618 108.35 89.895 89.9253 83.1376 71.3387Z" fill="url(#paint8_linear_1_211)"/>
<path d="M466.017 378.206L482.197 395.496C486.445 400.035 493.768 399.447 497.317 394.343C512.383 372.677 516.257 344.093 505.186 318.237C480.881 261.472 459.314 197.813 440.212 152.082H71.8696C52.7469 197.864 31.1004 261.436 6.80646 318.212C0.950591 331.896 -0.718931 346.346 1.23771 360.129C2.17035 366.694 9.34739 370.352 15.2575 367.345L68.7464 340.134L33.3321 402.532C30.8263 406.948 32.1053 412.602 36.3499 415.387C39.0204 417.139 41.7939 418.73 44.6553 420.149C166.502 480.6 302.918 486.463 427.598 437.762C430.683 436.557 432.921 433.835 433.553 430.584L437.652 409.518C437.935 408.066 440.034 408.131 440.226 409.597L441.382 418.413C442.235 424.919 449.16 428.73 455.109 425.962C457.175 425 459.18 424.059 460.948 423.225C462.807 422.349 464.34 420.906 465.328 419.104C466.315 417.302 466.705 415.233 466.443 413.195L462.167 380.02C461.89 377.867 464.534 376.622 466.017 378.206Z" fill="url(#paint9_linear_1_211)"/>
<path d="M71.8706 152.082C52.7479 197.864 31.1013 261.436 6.80744 318.212C0.951565 331.896 -0.717956 346.346 1.23869 360.129C2.17133 366.693 9.34837 370.352 15.2585 367.345L67.2114 340.915L256.044 152.082H71.8706Z" fill="url(#paint10_linear_1_211)"/>
<path d="M371.058 455.917L255.999 281.584L140.945 455.907C216.731 475.164 295.27 475.166 371.058 455.917Z" fill="url(#paint11_linear_1_211)"/>
<path d="M440.212 152.082H255.992V470.351C313.973 470.354 371.955 459.498 427.599 437.762C430.684 436.557 432.922 433.835 433.554 430.584L437.653 409.518C437.935 408.066 440.035 408.131 440.226 409.597L441.383 418.413C442.236 424.919 449.161 428.73 455.109 425.962C457.175 425 459.179 424.059 460.948 423.225C462.807 422.349 464.34 420.906 465.327 419.104C466.315 417.302 466.705 415.233 466.443 413.195L462.167 380.02C461.89 377.868 464.533 376.622 466.017 378.207L482.197 395.497C486.445 400.036 493.768 399.448 497.316 394.344C512.383 372.678 516.256 344.094 505.186 318.238C480.881 261.472 459.314 197.813 440.212 152.082Z" fill="url(#paint12_linear_1_211)"/>
<path d="M505.186 318.237C480.881 261.472 459.314 197.813 440.212 152.082H255.992V168.181L466.017 378.206L482.197 395.496C486.445 400.035 493.768 399.447 497.316 394.343C512.383 372.678 516.256 344.093 505.186 318.237Z" fill="url(#paint13_linear_1_211)"/>
<path d="M414.435 400.964C309.95 433.632 202.04 433.631 97.5619 400.964C62.2018 389.909 39.6708 355.24 43.5168 318.392C48.943 266.402 54.3833 231.573 59.8215 195.53C74.4637 98.4837 157.854 26.7234 255.998 26.7234C354.141 26.7234 437.533 98.4847 452.175 195.53C457.613 231.573 463.054 266.402 468.48 318.391C472.327 355.239 449.795 389.908 414.435 400.964Z" fill="url(#paint14_linear_1_211)"/>
<path d="M141.371 197.05C134.483 196.636 127.602 197.966 121.363 200.915C115.129 203.876 109.747 208.37 105.722 213.976C92.9419 231.745 73.1144 241.122 53.0059 241.353C55.0739 226.856 57.142 213.283 59.2001 199.64C62.0311 198.686 64.7718 197.361 67.3619 195.674L77.0699 189.34C87.2351 182.707 99.0672 179.081 111.203 178.879C116.253 178.798 121.283 179.391 126.142 180.606C131.001 181.83 135.709 183.688 140.136 186.157L143.941 188.275C148.298 190.705 146.35 197.361 141.371 197.05Z" fill="url(#paint15_linear_1_211)"/>
<path d="M94.4477 258.831C84.4085 276.751 66.5487 288.828 46.6108 290.465C47.8457 280.034 49.0704 270.296 50.2952 261.04C63.798 262.335 76.7988 259.022 87.7616 252.366C91.9781 249.786 96.8672 254.524 94.4477 258.831Z" fill="url(#paint16_linear_1_211)"/>
<path d="M84.9106 312.39C70.1128 319.247 57.5838 330.913 49.9239 346.534C49.0104 348.411 48.1771 350.298 47.4242 352.216C43.6509 341.366 42.3175 329.818 43.5189 318.394C43.8803 314.94 44.2417 311.557 44.6031 308.254C56.2787 302.763 69.5205 300.343 82.9228 301.397C88.8359 301.869 90.2816 309.891 84.9106 312.39Z" fill="url(#paint17_linear_1_211)"/>
<path d="M458.992 241.353C438.883 241.122 419.056 231.745 406.276 213.976C402.251 208.37 396.869 203.876 390.635 200.915C384.396 197.966 377.515 196.636 370.627 197.05C365.647 197.361 363.7 190.705 368.057 188.276L371.862 186.157C376.289 183.688 380.997 181.83 385.856 180.606C390.739 179.383 395.761 178.802 400.795 178.879C412.942 179.09 424.768 182.704 434.928 189.34L444.636 195.674C447.226 197.361 449.967 198.686 452.798 199.64C454.856 213.283 456.924 226.856 458.992 241.353Z" fill="url(#paint18_linear_1_211)"/>
<path d="M465.387 290.465C445.449 288.828 427.589 276.751 417.55 258.831C415.131 254.524 420.02 249.786 424.236 252.366C435.199 259.022 448.2 262.335 461.703 261.04C462.927 270.296 464.152 280.034 465.387 290.465Z" fill="url(#paint19_linear_1_211)"/>
<path d="M464.573 352.216C463.821 350.298 462.987 348.411 462.074 346.534C454.414 330.913 441.885 319.247 427.087 312.39C421.716 309.891 423.162 301.869 429.075 301.397C442.477 300.343 455.719 302.763 467.394 308.244V308.254C467.756 311.557 468.117 314.94 468.479 318.394C469.68 329.818 468.347 341.366 464.573 352.216Z" fill="url(#paint20_linear_1_211)"/>
<path d="M380.746 118.616L377.665 115.535C374.102 111.975 370.087 108.896 365.725 106.377C361.359 103.867 356.684 101.936 351.818 100.635C340.09 97.5172 327.72 97.7754 316.133 101.38L305.066 104.823C288.952 109.835 271.51 103.07 262.97 88.5107L260.071 83.5624C258.248 80.4512 253.75 80.4512 251.927 83.5624L249.028 88.5107C240.487 103.071 223.046 109.836 206.932 104.823L195.865 101.38C184.278 97.7749 171.907 97.5167 160.18 100.635C155.314 101.936 150.639 103.867 146.273 106.377C141.911 108.896 137.896 111.975 134.333 115.535L131.252 118.616C127.724 122.144 131.408 128.015 136.115 126.361C142.626 124.072 149.612 123.471 156.418 124.615C163.225 125.758 169.631 128.608 175.037 132.899C197.391 150.642 227.381 151.377 250.093 137.616C251.874 136.538 253.917 135.968 255.999 135.968C258.081 135.968 260.123 136.538 261.905 137.616C284.617 151.377 314.606 150.642 336.961 132.899C342.368 128.608 348.774 125.758 355.581 124.615C362.387 123.475 369.371 124.076 375.883 126.361C380.59 128.015 384.274 122.145 380.746 118.616Z" fill="url(#paint21_linear_1_211)"/>
<path d="M337.508 62.5786L335.495 60.5657C333.167 58.2395 330.544 56.2279 327.694 54.5824C324.841 52.9417 321.787 51.6802 318.607 50.8297C310.944 48.7927 302.862 48.9614 295.29 51.3166L288.059 53.5664C277.53 56.8412 266.133 52.4209 260.554 42.9078L258.659 39.6741C257.469 37.6412 254.529 37.6412 253.338 39.6741L251.444 42.9078C245.864 52.4209 234.468 56.8412 223.939 53.5664L216.707 51.3166C209.136 48.9614 201.053 48.7927 193.39 50.8297C190.211 51.6799 187.156 52.9414 184.304 54.5824C181.453 56.2277 178.83 58.2392 176.502 60.5657L174.489 62.5786C172.184 64.8836 174.592 68.7196 177.667 67.6394C181.922 66.1461 186.485 65.7534 190.933 66.4979C195.38 67.2452 199.566 69.1075 203.099 71.911C217.705 83.5043 237.301 83.9842 252.141 74.9931C253.305 74.2887 254.639 73.9164 256 73.9164C257.36 73.9164 258.695 74.2887 259.859 74.9931C274.699 83.9852 294.293 83.5053 308.901 71.911C312.433 69.1075 316.619 67.2452 321.067 66.4979C325.514 65.7534 330.078 66.1461 334.333 67.6394C337.406 68.7196 339.813 64.8836 337.508 62.5786Z" fill="url(#paint22_linear_1_211)"/>
<path d="M259.858 36.843C274.659 45.812 294.19 45.3542 308.784 33.8493C291.59 29.1114 273.834 26.7142 255.999 26.7224C238.164 26.7137 220.409 29.1109 203.215 33.8493C217.809 45.3552 237.34 45.812 252.141 36.843C253.305 36.1391 254.639 35.7671 256 35.7671C257.36 35.7671 258.694 36.1391 259.858 36.843Z" fill="url(#paint23_linear_1_211)"/>
<path d="M255.999 186.729C237.228 186.729 220.778 199.29 215.834 217.397L195.248 292.789H316.751L296.165 217.397C291.219 199.29 274.769 186.729 255.999 186.729Z" fill="url(#paint24_linear_1_211)"/>
<path d="M313.087 398.121C308.776 383.576 304.546 369.008 300.399 354.416H214.61C210.463 369.008 206.233 383.577 201.922 398.121C194.385 423.552 211.874 449.76 238.28 452.25C251.072 453.46 263.951 453.46 276.743 452.249C303.144 449.758 320.622 423.547 313.087 398.121Z" fill="url(#paint25_linear_1_211)"/>
<path d="M165.916 290.187C151.235 290.187 139.334 278.286 139.334 263.606V249.974C139.334 235.294 151.234 223.393 165.916 223.393C180.596 223.393 192.498 235.294 192.498 249.974V263.606C192.498 278.286 180.596 290.187 165.916 290.187Z" fill="url(#paint26_linear_1_211)"/>
<path d="M346.082 290.187C331.4 290.187 319.5 278.286 319.5 263.606V249.974C319.5 235.294 331.4 223.393 346.082 223.393C360.762 223.393 372.664 235.294 372.664 249.974V263.606C372.664 278.286 360.762 290.187 346.082 290.187Z" fill="url(#paint27_linear_1_211)"/>
<path d="M305.948 291.899H206.05C169.874 291.899 140.548 321.226 140.548 357.401C140.548 393.578 169.874 422.903 206.05 422.903C226.072 422.903 243.984 413.91 255.999 399.754C268.014 413.909 285.926 422.903 305.948 422.903C342.123 422.903 371.45 393.577 371.45 357.401C371.45 321.226 342.123 291.899 305.948 291.899Z" fill="url(#paint28_linear_1_211)"/>
<path d="M305.948 422.903C342.124 422.903 371.45 393.577 371.45 357.401C371.45 321.226 342.124 291.899 305.948 291.899C269.772 291.899 240.446 321.226 240.446 357.401C240.446 393.577 269.772 422.903 305.948 422.903Z" fill="url(#paint29_linear_1_211)"/>
<path d="M193.013 351.313C202.101 351.313 209.469 343.946 209.469 334.857C209.469 325.769 202.101 318.401 193.013 318.401C183.924 318.401 176.557 325.769 176.557 334.857C176.557 343.946 183.924 351.313 193.013 351.313Z" fill="url(#paint30_linear_1_211)"/>
<path d="M157.768 362.338C161.83 362.338 165.123 359.046 165.123 354.984C165.123 350.922 161.83 347.629 157.768 347.629C153.706 347.629 150.414 350.922 150.414 354.984C150.414 359.046 153.706 362.338 157.768 362.338Z" fill="url(#paint31_linear_1_211)"/>
<path d="M180.921 386.523C187.599 386.523 193.013 381.109 193.013 374.431C193.013 367.752 187.599 362.338 180.921 362.338C174.242 362.338 168.829 367.752 168.829 374.431C168.829 381.109 174.242 386.523 180.921 386.523Z" fill="url(#paint32_linear_1_211)"/>
<path d="M318.987 351.313C328.076 351.313 335.443 343.946 335.443 334.857C335.443 325.769 328.076 318.401 318.987 318.401C309.898 318.401 302.531 325.769 302.531 334.857C302.531 343.946 309.898 351.313 318.987 351.313Z" fill="url(#paint33_linear_1_211)"/>
<path d="M354.232 362.338C358.294 362.338 361.586 359.046 361.586 354.984C361.586 350.922 358.294 347.629 354.232 347.629C350.17 347.629 346.877 350.922 346.877 354.984C346.877 359.046 350.17 362.338 354.232 362.338Z" fill="url(#paint34_linear_1_211)"/>
<path d="M331.079 386.523C337.757 386.523 343.171 381.109 343.171 374.431C343.171 367.752 337.757 362.338 331.079 362.338C324.401 362.338 318.987 367.752 318.987 374.431C318.987 381.109 324.401 386.523 331.079 386.523Z" fill="url(#paint35_linear_1_211)"/>
<path d="M255.999 394.568C254.002 394.568 252.087 393.775 250.675 392.363C249.263 390.951 248.469 389.036 248.469 387.039V314.761C248.469 310.601 251.84 307.231 255.999 307.231C260.157 307.231 263.528 310.601 263.528 314.761V387.039C263.528 389.036 262.735 390.951 261.323 392.363C259.911 393.775 257.996 394.568 255.999 394.568Z" fill="url(#paint36_linear_1_211)"/>
<path d="M305.133 284.012H206.865C194.841 284.012 190.196 299.664 200.273 306.223L233.432 327.805C240.147 332.176 247.986 334.503 255.998 334.503C264.011 334.503 271.85 332.176 278.565 327.805L311.724 306.223C321.802 299.665 317.157 284.012 305.133 284.012Z" fill="url(#paint37_linear_1_211)"/>
</g>
</g>
<defs>
<linearGradient id="paint0_linear_1_211" x1="205.576" y1="376.451" x2="269.93" y2="507.169" gradientUnits="userSpaceOnUse">
<stop stop-color="#FE9738"/>
<stop offset="1" stop-color="#EF4424"/>
</linearGradient>
<linearGradient id="paint1_linear_1_211" x1="255.999" y1="465.328" x2="255.999" y2="521.86" gradientUnits="userSpaceOnUse">
<stop stop-color="#EF4424" stop-opacity="0"/>
<stop offset="1" stop-color="#883F2E"/>
</linearGradient>
<linearGradient id="paint2_linear_1_211" x1="77.0238" y1="451.759" x2="112.495" y2="497.939" gradientUnits="userSpaceOnUse">
<stop stop-color="#5A5A5A"/>
<stop offset="1" stop-color="#444444"/>
</linearGradient>
<linearGradient id="paint3_linear_1_211" x1="372.622" y1="441.746" x2="418.803" y2="488.595" gradientUnits="userSpaceOnUse">
<stop stop-color="#5A5A5A"/>
<stop offset="1" stop-color="#444444"/>
</linearGradient>
<linearGradient id="paint4_linear_1_211" x1="399.267" y1="84.6226" x2="445.081" y2="130.436" gradientUnits="userSpaceOnUse">
<stop stop-color="#FFDFCF"/>
<stop offset="1" stop-color="#FFA78F"/>
</linearGradient>
<linearGradient id="paint5_linear_1_211" x1="456.197" y1="65.6665" x2="413.028" y2="72.192" gradientUnits="userSpaceOnUse">
<stop stop-color="#F89580" stop-opacity="0"/>
<stop offset="0.997" stop-color="#C5715A"/>
</linearGradient>
<linearGradient id="paint6_linear_1_211" x1="396.538" y1="60.7604" x2="395.534" y2="104.933" gradientUnits="userSpaceOnUse">
<stop stop-color="#766E6E"/>
<stop offset="1" stop-color="#5B5555"/>
</linearGradient>
<linearGradient id="paint7_linear_1_211" x1="40.1276" y1="52.3877" x2="90.9933" y2="69.7896" gradientUnits="userSpaceOnUse">
<stop stop-color="#FFDFCF"/>
<stop offset="1" stop-color="#FFA78F"/>
</linearGradient>
<linearGradient id="paint8_linear_1_211" x1="68.912" y1="61.3919" x2="112.415" y2="85.486" gradientUnits="userSpaceOnUse">
<stop stop-color="#766E6E"/>
<stop offset="1" stop-color="#5B5555"/>
</linearGradient>
<linearGradient id="paint9_linear_1_211" x1="224.473" y1="217.543" x2="283.704" y2="463.504" gradientUnits="userSpaceOnUse">
<stop stop-color="#F9F5F3"/>
<stop offset="1" stop-color="#EFE2DD"/>
</linearGradient>
<linearGradient id="paint10_linear_1_211" x1="-8.7915" y1="282.278" x2="89.0919" y2="240.113" gradientUnits="userSpaceOnUse">
<stop stop-color="#EF4424" stop-opacity="0"/>
<stop offset="1" stop-color="#883F2E"/>
</linearGradient>
<linearGradient id="paint11_linear_1_211" x1="256.002" y1="399.561" x2="256.002" y2="530.075" gradientUnits="userSpaceOnUse">
<stop stop-color="#9E9797" stop-opacity="0"/>
<stop offset="0.31" stop-color="#968F8F" stop-opacity="0.31"/>
<stop offset="0.785" stop-color="#827A7A" stop-opacity="0.785"/>
<stop offset="1" stop-color="#766E6E"/>
</linearGradient>
<linearGradient id="paint12_linear_1_211" x1="383.617" y1="401.828" x2="385.625" y2="502.22" gradientUnits="userSpaceOnUse">
<stop stop-color="#9E9797" stop-opacity="0"/>
<stop offset="0.31" stop-color="#968F8F" stop-opacity="0.31"/>
<stop offset="0.785" stop-color="#827A7A" stop-opacity="0.785"/>
<stop offset="1" stop-color="#766E6E"/>
</linearGradient>
<linearGradient id="paint13_linear_1_211" x1="506.737" y1="281.843" x2="428.435" y2="269.797" gradientUnits="userSpaceOnUse">
<stop stop-color="#EF4424" stop-opacity="0"/>
<stop offset="1" stop-color="#883F2E"/>
</linearGradient>
<linearGradient id="paint14_linear_1_211" x1="160.923" y1="119.797" x2="334.602" y2="393.868" gradientUnits="userSpaceOnUse">
<stop stop-color="#FE9738"/>
<stop offset="0.275" stop-color="#FB8534"/>
<stop offset="0.828" stop-color="#F25528"/>
<stop offset="1" stop-color="#EF4424"/>
</linearGradient>
<linearGradient id="paint15_linear_1_211" x1="64.7578" y1="194.583" x2="168.496" y2="256.826" gradientUnits="userSpaceOnUse">
<stop stop-color="#766E6E"/>
<stop offset="1" stop-color="#5B5555"/>
</linearGradient>
<linearGradient id="paint16_linear_1_211" x1="32.1664" y1="248.902" x2="135.905" y2="311.145" gradientUnits="userSpaceOnUse">
<stop stop-color="#766E6E"/>
<stop offset="1" stop-color="#5B5555"/>
</linearGradient>
<linearGradient id="paint17_linear_1_211" x1="6.69708" y1="291.351" x2="110.435" y2="353.594" gradientUnits="userSpaceOnUse">
<stop stop-color="#766E6E"/>
<stop offset="1" stop-color="#5B5555"/>
</linearGradient>
<linearGradient id="paint18_linear_1_211" x1="353.672" y1="173.224" x2="451.386" y2="220.742" gradientUnits="userSpaceOnUse">
<stop stop-color="#766E6E"/>
<stop offset="1" stop-color="#5B5555"/>
</linearGradient>
<linearGradient id="paint19_linear_1_211" x1="333.509" y1="214.684" x2="431.225" y2="262.203" gradientUnits="userSpaceOnUse">
<stop stop-color="#766E6E"/>
<stop offset="1" stop-color="#5B5555"/>
</linearGradient>
<linearGradient id="paint20_linear_1_211" x1="313.403" y1="256.029" x2="411.118" y2="303.549" gradientUnits="userSpaceOnUse">
<stop stop-color="#766E6E"/>
<stop offset="1" stop-color="#5B5555"/>
</linearGradient>
<linearGradient id="paint21_linear_1_211" x1="176.216" y1="47.2204" x2="315.622" y2="177.574" gradientUnits="userSpaceOnUse">
<stop stop-color="#766E6E"/>
<stop offset="1" stop-color="#5B5555"/>
</linearGradient>
<linearGradient id="paint22_linear_1_211" x1="203.869" y1="15.9284" x2="294.957" y2="101.101" gradientUnits="userSpaceOnUse">
<stop stop-color="#766E6E"/>
<stop offset="1" stop-color="#5B5555"/>
</linearGradient>
<linearGradient id="paint23_linear_1_211" x1="223.037" y1="3.02892" x2="280.589" y2="56.8431" gradientUnits="userSpaceOnUse">
<stop stop-color="#766E6E"/>
<stop offset="1" stop-color="#5B5555"/>
</linearGradient>
<linearGradient id="paint24_linear_1_211" x1="216.295" y1="229.577" x2="303.636" y2="286.8" gradientUnits="userSpaceOnUse">
<stop stop-color="#EF4424" stop-opacity="0"/>
<stop offset="0.179" stop-color="#E34425" stop-opacity="0.18"/>
<stop offset="0.502" stop-color="#C44228" stop-opacity="0.502"/>
<stop offset="0.928" stop-color="#913F2D" stop-opacity="0.928"/>
<stop offset="1" stop-color="#883F2E"/>
</linearGradient>
<linearGradient id="paint25_linear_1_211" x1="257.505" y1="408.627" x2="257.505" y2="455.812" gradientUnits="userSpaceOnUse">
<stop stop-color="#F9F5F3"/>
<stop offset="1" stop-color="#EFE2DD"/>
</linearGradient>
<linearGradient id="paint26_linear_1_211" x1="148.579" y1="244.027" x2="185.485" y2="271.195" gradientUnits="userSpaceOnUse">
<stop stop-color="#5A5A5A"/>
<stop offset="1" stop-color="#444444"/>
</linearGradient>
<linearGradient id="paint27_linear_1_211" x1="326.944" y1="242.437" x2="359.75" y2="267.041" gradientUnits="userSpaceOnUse">
<stop stop-color="#5A5A5A"/>
<stop offset="1" stop-color="#444444"/>
</linearGradient>
<linearGradient id="paint28_linear_1_211" x1="255.999" y1="348.169" x2="255.999" y2="460.903" gradientUnits="userSpaceOnUse">
<stop stop-color="white"/>
<stop offset="1" stop-color="#E1D3CE"/>
</linearGradient>
<linearGradient id="paint29_linear_1_211" x1="303.96" y1="350.803" x2="351.55" y2="508.827" gradientUnits="userSpaceOnUse">
<stop stop-color="#9E9797" stop-opacity="0"/>
<stop offset="0.31" stop-color="#968F8F" stop-opacity="0.31"/>
<stop offset="0.785" stop-color="#827A7A" stop-opacity="0.785"/>
<stop offset="1" stop-color="#766E6E"/>
</linearGradient>
<linearGradient id="paint30_linear_1_211" x1="154.594" y1="296.437" x2="275.738" y2="417.581" gradientUnits="userSpaceOnUse">
<stop stop-color="#9E9797" stop-opacity="0"/>
<stop offset="0.31" stop-color="#968F8F" stop-opacity="0.31"/>
<stop offset="0.785" stop-color="#827A7A" stop-opacity="0.785"/>
<stop offset="1" stop-color="#766E6E"/>
</linearGradient>
<linearGradient id="paint31_linear_1_211" x1="126.908" y1="324.123" x2="248.052" y2="445.267" gradientUnits="userSpaceOnUse">
<stop stop-color="#9E9797" stop-opacity="0"/>
<stop offset="0.31" stop-color="#968F8F" stop-opacity="0.31"/>
<stop offset="0.785" stop-color="#827A7A" stop-opacity="0.785"/>
<stop offset="1" stop-color="#766E6E"/>
</linearGradient>
<linearGradient id="paint32_linear_1_211" x1="128.76" y1="322.27" x2="249.905" y2="443.415" gradientUnits="userSpaceOnUse">
<stop stop-color="#9E9797" stop-opacity="0"/>
<stop offset="0.31" stop-color="#968F8F" stop-opacity="0.31"/>
<stop offset="0.785" stop-color="#827A7A" stop-opacity="0.785"/>
<stop offset="1" stop-color="#766E6E"/>
</linearGradient>
<linearGradient id="paint33_linear_1_211" x1="280.442" y1="296.312" x2="461.811" y2="477.681" gradientUnits="userSpaceOnUse">
<stop stop-color="#9E9797" stop-opacity="0"/>
<stop offset="0.31" stop-color="#968F8F" stop-opacity="0.31"/>
<stop offset="0.785" stop-color="#827A7A" stop-opacity="0.785"/>
<stop offset="1" stop-color="#766E6E"/>
</linearGradient>
<linearGradient id="paint34_linear_1_211" x1="288.001" y1="288.753" x2="469.37" y2="470.122" gradientUnits="userSpaceOnUse">
<stop stop-color="#9E9797" stop-opacity="0"/>
<stop offset="0.31" stop-color="#968F8F" stop-opacity="0.31"/>
<stop offset="0.785" stop-color="#827A7A" stop-opacity="0.785"/>
<stop offset="1" stop-color="#766E6E"/>
</linearGradient>
<linearGradient id="paint35_linear_1_211" x1="266.701" y1="310.053" x2="448.07" y2="491.422" gradientUnits="userSpaceOnUse">
<stop stop-color="#9E9797" stop-opacity="0"/>
<stop offset="0.31" stop-color="#968F8F" stop-opacity="0.31"/>
<stop offset="0.785" stop-color="#827A7A" stop-opacity="0.785"/>
<stop offset="1" stop-color="#766E6E"/>
</linearGradient>
<linearGradient id="paint36_linear_1_211" x1="248.469" y1="350.9" x2="263.528" y2="350.9" gradientUnits="userSpaceOnUse">
<stop stop-color="#5A5A5A"/>
<stop offset="1" stop-color="#444444"/>
</linearGradient>
<linearGradient id="paint37_linear_1_211" x1="246.196" y1="278.291" x2="274.305" y2="329.491" gradientUnits="userSpaceOnUse">
<stop stop-color="#FFDFCF"/>
<stop offset="1" stop-color="#FFA78F"/>
</linearGradient>
<clipPath id="clip0_1_211">
<rect width="512" height="512" fill="white"/>
</clipPath>
</defs>
</svg>
