<svg width="512" height="512" viewBox="0 0 512 512" fill="none" xmlns="http://www.w3.org/2000/svg">
<g clip-path="url(#clip0_1_254)">
<mask id="mask0_1_254" style="mask-type:luminance" maskUnits="userSpaceOnUse" x="0" y="0" width="512" height="512">
<path d="M512 0H0V512H512V0Z" fill="white"/>
</mask>
<g mask="url(#mask0_1_254)">
<path d="M447.235 512H64.7767C55.6752 512 48.2974 504.622 48.2974 495.521C48.2974 407.6 119.571 336.327 207.491 336.327H304.52C392.441 336.327 463.714 407.6 463.714 495.521C463.714 504.622 456.336 512 447.235 512Z" fill="url(#paint0_linear_1_254)"/>
<path d="M463.707 495.526C463.707 500.064 461.87 504.2 458.888 507.171C457.36 508.706 455.544 509.923 453.543 510.751C451.543 511.58 449.398 512.005 447.233 512H244.752L105.799 373.047C133.377 350.118 168.825 336.334 207.486 336.334H304.525C392.439 336.334 463.707 407.602 463.707 495.526Z" fill="url(#paint1_linear_1_254)"/>
<path d="M48.2974 495.521C48.2974 504.622 55.6752 512 64.7767 512H447.235C456.336 512 463.714 504.622 463.714 495.521C463.714 472.086 458.648 449.836 449.556 429.801H62.4557C53.3632 449.836 48.2974 472.086 48.2974 495.521Z" fill="url(#paint2_linear_1_254)"/>
<path d="M417.648 1.1937L308.554 30.4349C282.236 37.4895 274.33 70.9823 294.714 89.0619L387.806 171.626C408.19 189.706 440.5 177.856 444.361 150.883L460.364 39.0777C463.84 14.7818 441.355 -5.16113 417.648 1.1937Z" fill="url(#paint3_linear_1_254)"/>
<path d="M417.648 1.1937L308.554 30.4349C282.236 37.4895 274.33 70.9823 294.714 89.0619L387.806 171.626C408.19 189.706 440.5 177.856 444.361 150.883L460.364 39.0777C463.84 14.7818 441.355 -5.16113 417.648 1.1937Z" fill="url(#paint4_linear_1_254)"/>
<path d="M405.881 37.0407L354.045 50.9349C341.54 54.287 337.782 70.2012 347.468 78.7918L391.701 118.023C401.387 126.614 416.739 120.983 418.573 108.167L426.176 55.042C427.83 43.4969 417.146 34.0209 405.881 37.0407Z" fill="url(#paint5_linear_1_254)"/>
<path d="M405.881 37.0407L354.045 50.9349C341.54 54.287 337.782 70.2012 347.468 78.7918L391.701 118.023C401.387 126.614 416.739 120.983 418.573 108.167L426.176 55.042C427.83 43.4969 417.146 34.0209 405.881 37.0407Z" fill="url(#paint6_linear_1_254)"/>
<path d="M94.3635 1.1937L203.458 30.4349C229.775 37.4895 237.682 70.9823 217.298 89.0619L124.206 171.626C103.821 189.706 71.5123 177.856 67.6512 150.883L51.6487 39.0777C48.1711 14.7818 70.6569 -5.16113 94.3635 1.1937Z" fill="url(#paint7_linear_1_254)"/>
<path d="M106.13 37.0407L157.966 50.9349C170.471 54.287 174.229 70.2012 164.543 78.7918L120.31 118.023C110.624 126.614 95.2721 120.983 93.438 108.167L85.8343 55.042C84.1818 43.4969 94.8655 34.0209 106.13 37.0407Z" fill="url(#paint8_linear_1_254)"/>
<path d="M497.34 248.078C480.061 221.818 469.138 189.711 453.058 160.192C450.776 156.003 448.689 151.714 446.732 147.363C413.651 73.7994 339.869 24.0439 255.991 24.0439C172.044 24.0439 98.2124 73.8807 65.1694 147.542C63.2117 151.905 61.1225 156.208 58.8386 160.41C42.8231 189.868 31.9124 221.88 14.6771 248.074C-1.92473 273.306 4.23132 307.035 29.0161 324.298C66.6622 350.517 111.373 385.324 185.888 391.63C232.468 397.129 279.534 397.128 326.115 391.626C400.577 385.07 445.277 350.438 482.906 324.308C507.725 307.075 513.948 273.32 497.34 248.078Z" fill="url(#paint9_linear_1_254)"/>
<path d="M165.923 300.426C151.243 300.426 139.341 288.524 139.341 273.844V260.212C139.341 245.532 151.242 233.631 165.923 233.631C180.603 233.631 192.505 245.532 192.505 260.212V273.844C192.505 288.525 180.603 300.426 165.923 300.426Z" fill="url(#paint10_linear_1_254)"/>
<path d="M346.089 300.426C331.407 300.426 319.507 288.524 319.507 273.844V260.212C319.507 245.532 331.407 233.631 346.089 233.631C360.769 233.631 372.671 245.532 372.671 260.212V273.844C372.671 288.525 360.769 300.426 346.089 300.426Z" fill="url(#paint11_linear_1_254)"/>
<path d="M238.312 330.298L226.947 320.23C215.95 310.487 222.841 292.318 237.534 292.318H274.478C289.169 292.318 296.061 310.488 285.064 320.23L273.7 330.298C263.601 339.245 248.411 339.245 238.312 330.298Z" fill="url(#paint12_linear_1_254)"/>
<path d="M47.2001 345.134C45.2611 345.128 43.3991 344.375 42.0017 343.031C40.6043 341.687 39.7793 339.855 39.6985 337.918C39.6176 335.981 40.2871 334.087 41.5676 332.631C42.8481 331.175 44.6409 330.269 46.5726 330.101L182.839 318.544C186.979 318.196 190.626 321.266 190.978 325.41C191.061 326.395 190.95 327.387 190.65 328.33C190.35 329.272 189.868 330.146 189.23 330.902C188.592 331.658 187.812 332.28 186.934 332.734C186.055 333.189 185.096 333.465 184.111 333.549L47.8446 345.106C47.6303 345.124 47.4152 345.134 47.2001 345.134Z" fill="url(#paint13_linear_1_254)"/>
<path d="M23.9452 393.297C22.1071 393.298 20.3324 392.626 18.9555 391.408C17.5786 390.19 16.6947 388.511 16.4704 386.687C16.246 384.862 16.6968 383.019 17.7377 381.504C18.7786 379.989 20.3377 378.907 22.1211 378.462L184.385 337.831C185.344 337.59 186.341 337.541 187.319 337.686C188.297 337.832 189.237 338.168 190.086 338.676C190.934 339.185 191.673 339.855 192.262 340.649C192.852 341.443 193.278 342.346 193.519 343.305C193.759 344.264 193.808 345.261 193.663 346.239C193.518 347.218 193.181 348.158 192.673 349.006C192.165 349.854 191.494 350.594 190.7 351.183C189.906 351.772 189.003 352.198 188.044 352.439L25.7804 393.07C25.1802 393.221 24.5639 393.297 23.9452 393.297Z" fill="url(#paint14_linear_1_254)"/>
<path d="M464.811 345.134C464.598 345.134 464.383 345.125 464.166 345.107L327.9 333.55C325.936 333.348 324.13 332.383 322.871 330.863C321.612 329.343 320.999 327.39 321.166 325.423C321.333 323.456 322.265 321.633 323.762 320.347C325.26 319.061 327.202 318.414 329.172 318.545L465.438 330.102C467.367 330.272 469.157 331.179 470.435 332.635C471.714 334.09 472.382 335.982 472.301 337.917C472.22 339.853 471.397 341.683 470.002 343.027C468.607 344.371 466.748 345.125 464.811 345.134Z" fill="url(#paint15_linear_1_254)"/>
<path d="M488.066 393.297C487.447 393.297 486.831 393.221 486.231 393.069L323.967 352.438C323.008 352.197 322.106 351.771 321.311 351.182C320.517 350.593 319.847 349.853 319.338 349.005C318.83 348.157 318.494 347.217 318.349 346.238C318.204 345.26 318.252 344.263 318.493 343.304C318.733 342.345 319.16 341.442 319.749 340.648C320.338 339.854 321.078 339.184 321.926 338.675C322.774 338.167 323.714 337.831 324.692 337.685C325.67 337.54 326.667 337.589 327.626 337.83L489.89 378.461C491.827 378.947 493.492 380.181 494.519 381.894C495.545 383.607 495.85 385.657 495.365 387.594C494.957 389.222 494.018 390.667 492.696 391.7C491.373 392.733 489.744 393.295 488.066 393.297Z" fill="url(#paint16_linear_1_254)"/>
</g>
</g>
<defs>
<linearGradient id="paint0_linear_1_254" x1="207.058" y1="374.826" x2="268.631" y2="506.674" gradientUnits="userSpaceOnUse">
<stop stop-color="#B9ACAC"/>
<stop offset="1" stop-color="#766E6E"/>
</linearGradient>
<linearGradient id="paint1_linear_1_254" x1="284.753" y1="455.781" x2="284.753" y2="335.277" gradientUnits="userSpaceOnUse">
<stop stop-color="#766E6E" stop-opacity="0"/>
<stop offset="1" stop-color="#1A1A1A"/>
</linearGradient>
<linearGradient id="paint2_linear_1_254" x1="256.006" y1="455.781" x2="256.006" y2="533.429" gradientUnits="userSpaceOnUse">
<stop stop-color="#766E6E" stop-opacity="0"/>
<stop offset="1" stop-color="#1A1A1A"/>
</linearGradient>
<linearGradient id="paint3_linear_1_254" x1="371.125" y1="33.4077" x2="375.141" y2="120.555" gradientUnits="userSpaceOnUse">
<stop stop-color="#B9ACAC"/>
<stop offset="1" stop-color="#766E6E"/>
</linearGradient>
<linearGradient id="paint4_linear_1_254" x1="407.255" y1="40.9641" x2="369.106" y2="97.1837" gradientUnits="userSpaceOnUse">
<stop stop-color="#766E6E" stop-opacity="0"/>
<stop offset="1" stop-color="#1A1A1A"/>
</linearGradient>
<linearGradient id="paint5_linear_1_254" x1="383.719" y1="52.4163" x2="385.627" y2="93.8248" gradientUnits="userSpaceOnUse">
<stop stop-color="#FEAEE1"/>
<stop offset="1" stop-color="#FE5694"/>
</linearGradient>
<linearGradient id="paint6_linear_1_254" x1="402.511" y1="48.6209" x2="382.433" y2="82.7542" gradientUnits="userSpaceOnUse">
<stop stop-color="#FE0364" stop-opacity="0"/>
<stop offset="0.399" stop-color="#F70360" stop-opacity="0.399"/>
<stop offset="0.974" stop-color="#E40257" stop-opacity="0.974"/>
<stop offset="1" stop-color="#E30256"/>
</linearGradient>
<linearGradient id="paint7_linear_1_254" x1="136.557" y1="34.1519" x2="132.541" y2="121.3" gradientUnits="userSpaceOnUse">
<stop stop-color="#B9ACAC"/>
<stop offset="1" stop-color="#766E6E"/>
</linearGradient>
<linearGradient id="paint8_linear_1_254" x1="123.962" y1="53.1595" x2="122.053" y2="94.5681" gradientUnits="userSpaceOnUse">
<stop stop-color="#FEAEE1"/>
<stop offset="1" stop-color="#FE5694"/>
</linearGradient>
<linearGradient id="paint9_linear_1_254" x1="158.979" y1="104.658" x2="312.579" y2="367.685" gradientUnits="userSpaceOnUse">
<stop stop-color="#B9ACAC"/>
<stop offset="1" stop-color="#766E6E"/>
</linearGradient>
<linearGradient id="paint10_linear_1_254" x1="148.586" y1="254.266" x2="185.493" y2="281.433" gradientUnits="userSpaceOnUse">
<stop stop-color="#5A5A5A"/>
<stop offset="1" stop-color="#444444"/>
</linearGradient>
<linearGradient id="paint11_linear_1_254" x1="326.951" y1="252.675" x2="359.757" y2="277.28" gradientUnits="userSpaceOnUse">
<stop stop-color="#5A5A5A"/>
<stop offset="1" stop-color="#444444"/>
</linearGradient>
<linearGradient id="paint12_linear_1_254" x1="246.733" y1="298.982" x2="263.333" y2="315.582" gradientUnits="userSpaceOnUse">
<stop stop-color="#5A5A5A"/>
<stop offset="1" stop-color="#444444"/>
</linearGradient>
<linearGradient id="paint13_linear_1_254" x1="42.0052" y1="320.455" x2="188.395" y2="342.647" gradientUnits="userSpaceOnUse">
<stop stop-color="#5A5A5A"/>
<stop offset="1" stop-color="#444444"/>
</linearGradient>
<linearGradient id="paint14_linear_1_254" x1="12.7314" y1="366.526" x2="190.421" y2="366.526" gradientUnits="userSpaceOnUse">
<stop stop-color="#5A5A5A"/>
<stop offset="1" stop-color="#444444"/>
</linearGradient>
<linearGradient id="paint15_linear_1_254" x1="472.742" y1="319.737" x2="326.351" y2="341.929" gradientUnits="userSpaceOnUse">
<stop stop-color="#5A5A5A"/>
<stop offset="1" stop-color="#444444"/>
</linearGradient>
<linearGradient id="paint16_linear_1_254" x1="495.973" y1="365.816" x2="318.284" y2="364.217" gradientUnits="userSpaceOnUse">
<stop stop-color="#5A5A5A"/>
<stop offset="1" stop-color="#444444"/>
</linearGradient>
<clipPath id="clip0_1_254">
<rect width="512" height="512" fill="white"/>
</clipPath>
</defs>
</svg>
